<?xml version="1.0" standalone="no"?>
<!DOCTYPE svg PUBLIC "-//W3C//DTD SVG 1.1//EN" "http://www.w3.org/Graphics/SVG/1.1/DTD/svg11.dtd" >
<svg xmlns="http://www.w3.org/2000/svg" xmlns:xlink="http://www.w3.org/1999/xlink" version="1.1">
<metadata>
Created by FontForge 20170731 at Fri Apr  2 14:38:33 1999
 By Aleksey,,,
Digitized data copyright (C) 1992 - 1997 The Monotype Corporation. All rights reserved. Calisto is a trademark of The Monotype Corporation which may be registered in certain jurisdictions.
</metadata>
<defs>
<font id="CalistoMT-Italic" horiz-adv-x="1366" >
  <font-face 
    font-family="Calisto MT"
    font-weight="400"
    font-style="italic"
    font-stretch="normal"
    units-per-em="2048"
    panose-1="2 4 6 3 5 5 5 9 3 4"
    ascent="1638"
    descent="-410"
    x-height="913"
    cap-height="1384"
    bbox="-358 -512 2267 1878"
    underline-thickness="102"
    underline-position="-333"
    slope="-16"
    unicode-range="U+0020-F002"
  />
<missing-glyph horiz-adv-x="1024" 
d="M82 1365h860v-1365h-860v1365zM123 1324v-1283h778v1283h-778z" />
    <glyph glyph-name=".notdef" horiz-adv-x="1024" 
d="M82 1365h860v-1365h-860v1365zM123 1324v-1283h778v1283h-778z" />
    <glyph glyph-name=".null" horiz-adv-x="0" 
 />
    <glyph glyph-name="nonmarkingreturn" horiz-adv-x="479" 
 />
    <glyph glyph-name="space" unicode=" " horiz-adv-x="479" 
 />
    <glyph glyph-name="exclam" unicode="!" horiz-adv-x="532" 
d="M317 383h-79q34 139 108 468t105 492q78 19 106.5 28t104.5 42l22 -20q-39 -105 -72 -193t-83.5 -223t-103.5 -283t-91 -258zM92 61q0 76 41 111t82 35q35 0 60.5 -26.5t25.5 -65.5q0 -51 -34 -97.5t-83 -46.5q-52 0 -72 32.5t-20 57.5z" />
    <glyph glyph-name="quotedbl" unicode="&#x22;" horiz-adv-x="854" 
d="M727 825l31 297q14 144 43 215.5t114 71.5q17 0 35 -6.5t29.5 -21.5t11.5 -42q0 -31 -13.5 -65.5t-68.5 -153.5l-139 -295h-43zM356 825l31 297q14 144 43.5 215.5t114.5 71.5q30 0 53 -15.5t23 -54.5q0 -29 -17 -72t-65 -147l-140 -295h-43z" />
    <glyph glyph-name="numbersign" unicode="#" 
d="M209 975h326l86 403h122l-86 -403h420l86 403h123l-86 -403h197v-123h-221l-76 -371h297v-123h-322l-86 -399h-123l86 399h-422l-86 -399h-122l86 399h-199v123h223l78 371h-301v123zM1053 852h-420l-78 -371h422z" />
    <glyph glyph-name="dollar" unicode="$" horiz-adv-x="961" 
d="M788 1477h89l-31 -105q143 -27 248 -108q-55 -102 -93 -207l-55 4q2 82 -21 144.5t-104 80.5l-143 -502q119 -135 161 -225t42 -164q0 -61 -26.5 -131.5t-81 -133.5t-140 -107.5t-197.5 -57.5l-47 -160h-86l45 160q-79 9 -143.5 30t-138.5 71q25 56 46 109.5t44 125.5
l57 -6q2 -50 7.5 -82t20.5 -62t49 -52.5t91 -32.5l168 587l-31 43q-16 19 -43 53.5t-49 59.5q-82 99 -82 213q0 83 49.5 163t144 132t222.5 55zM610 862l129 438q-54 5 -104.5 -19t-83.5 -75t-33 -121q0 -69 24 -117t68 -106zM612 567l-147 -506q149 23 195.5 109.5
t46.5 159.5t-28 129.5t-67 107.5z" />
    <glyph glyph-name="percent" unicode="%" horiz-adv-x="1599" 
d="M383 858q0 -137 80 -137q52 0 99.5 75.5t76.5 188.5t29 219q0 59 -20 93t-58 34q-56 0 -104 -80.5t-75.5 -194t-27.5 -198.5zM1358 1407h115l-1055 -1485h-111zM246 887q0 64 25 154t71 173.5t115 138t153 54.5q66 0 110.5 -35t64.5 -89.5t20 -115.5q0 -116 -50 -238
t-133.5 -201t-177.5 -79q-108 0 -153 78t-45 160zM975 158q0 64 24.5 154.5t71.5 175t115.5 138.5t152.5 54q66 0 110.5 -35t64.5 -90t20 -117q0 -113 -49.5 -236t-133.5 -201.5t-177 -78.5q-109 0 -154 77.5t-45 158.5zM1114 129q0 -137 78 -137q53 0 100.5 77t76 190
t28.5 218q0 58 -20.5 92.5t-57.5 34.5q-57 0 -104 -82t-74 -195.5t-27 -197.5z" />
    <glyph glyph-name="ampersand" unicode="&#x26;" horiz-adv-x="1430" 
d="M1018 678l12 57q60 -8 168 -8q137 0 223 8l-16 -57q-53 -8 -86.5 -20.5t-59.5 -36t-53 -62.5t-78 -121q-34 -56 -120 -168q95 -155 190 -155q42 0 81 21t105 73l37 -55q-113 -100 -180.5 -141.5t-128.5 -41.5q-80 0 -131 44.5t-107 121.5q-87 -73 -186 -119.5t-242 -46.5
q-208 0 -283 107t-75 215q0 165 135 309q53 57 145 110t259 128q-13 119 -13 176q0 115 43.5 193t107 122.5t126.5 63t108 18.5q43 0 83 -20t67 -63t27 -105q0 -83 -39.5 -151t-101 -117t-114 -76t-116.5 -54q19 -109 62 -242.5t94 -232.5q72 85 107.5 161t35.5 110
q0 23 -17.5 32.5t-68.5 22.5zM795 907q241 98 241 301q0 71 -32 97t-62 26q-48 0 -104 -55t-56 -229q0 -64 13 -140zM641 760q-89 -41 -169.5 -92t-141 -134t-60.5 -196t67.5 -180.5t178.5 -67.5q155 0 311 129q-123 202 -186 541z" />
    <glyph glyph-name="quotesingle" unicode="'" horiz-adv-x="449" 
d="M319 825l31 297q16 148 44.5 217.5t113.5 69.5q17 0 35 -6.5t29.5 -21.5t11.5 -42q0 -29 -17 -72t-65 -147l-140 -295h-43z" />
    <glyph glyph-name="parenleft" unicode="(" horiz-adv-x="618" 
d="M913 1460l-26 -86q-153 -118 -269.5 -270.5t-194 -322.5t-115.5 -339.5t-38 -328.5q0 -158 31 -265t80 -200l-27 -80q-66 76 -117 155t-87.5 197.5t-36.5 267.5q0 165 47.5 343.5t145 351t250.5 322.5t357 255z" />
    <glyph glyph-name="parenright" unicode=")" horiz-adv-x="575" 
d="M-193 -432l27 86q152 119 269 272t195 323t115.5 339t37.5 327q0 165 -32 272.5t-79 192.5l27 80q61 -69 114 -150.5t90 -201t37 -268.5q0 -165 -47.5 -344.5t-146.5 -352.5t-250.5 -321t-356.5 -254z" />
    <glyph glyph-name="asterisk" unicode="*" horiz-adv-x="938" 
d="M543 1458h176l-57 -346l311 160l55 -170l-348 -47l250 -246l-144 -107l-157 320l-158 -320l-145 107l252 246l-345 57l54 168l313 -168z" />
    <glyph glyph-name="plus" unicode="+" 
d="M248 727h477v479h131v-479h479v-131h-479v-479h-131v479h-477v131z" />
    <glyph glyph-name="comma" unicode="," horiz-adv-x="532" 
d="M76 39l-15 43q70 56 148 141q63 -31 80.5 -79.5t17.5 -84.5q0 -62 -32 -132.5t-97 -139t-158 -127.5l-36 53q63 49 118.5 116.5t55.5 143.5q0 77 -82 66z" />
    <glyph glyph-name="hyphen" unicode="-" horiz-adv-x="555" 
d="M84 369l-10 14q40 74 67 141q56 -6 201 -6q75 0 108 2t93 6l12 -18q-38 -65 -59 -135l-189 4q-83 0 -223 -8z" />
    <glyph glyph-name="hyphen" unicode="&#xad;" horiz-adv-x="555" 
d="M84 369l-10 14q40 74 67 141q56 -6 201 -6q75 0 108 2t93 6l12 -18q-38 -65 -59 -135l-189 4q-83 0 -223 -8z" />
    <glyph glyph-name="period" unicode="." horiz-adv-x="532" 
d="M92 61q0 76 41 111t82 35q35 0 60.5 -26.5t25.5 -65.5q0 -31 -15 -65.5t-42.5 -56.5t-61.5 -22q-48 0 -69 32t-21 58z" />
    <glyph glyph-name="slash" unicode="/" horiz-adv-x="1087" 
d="M930 1458h137l-717 -1462h-137z" />
    <glyph glyph-name="zero" unicode="0" horiz-adv-x="958" 
d="M150 358q0 70 11.5 171t57 255t135.5 306q111 188 211.5 253.5t202.5 65.5q91 0 146.5 -43.5t82.5 -106t36 -124.5t9 -113q0 -156 -48 -343.5t-133 -350t-197 -263t-236 -100.5q-70 0 -133 36.5t-104 125t-41 231.5zM324 385q0 -142 38.5 -230.5t110.5 -88.5
q57 0 111 48.5t82 106.5q74 143 139 363.5t65 437.5q0 128 -33 212.5t-116 84.5q-40 0 -77 -24.5t-74.5 -77t-82.5 -144.5q-96 -201 -129.5 -392.5t-33.5 -295.5z" />
    <glyph glyph-name="one" unicode="1" horiz-adv-x="958" 
d="M479 1174l15 61q255 90 387 172l28 -23q-32 -83 -53 -143t-59.5 -183t-78.5 -259.5t-108 -370.5q-82 -287 -82 -315q0 -12 6 -19.5t21 -15.5q21 -11 150 -33l-19 -55q-34 3 -96 6q-82 4 -146 4q-46 0 -286 -10l16 55q3 0 27 6q52 11 81 19t41 17.5t23 29.5q22 44 62 164
t78 249t65 228l106 370q9 32 9 39q0 14 -9 24.5t-24 10.5q-24 0 -121 -20q-28 -6 -33 -8z" />
    <glyph glyph-name="two" unicode="2" horiz-adv-x="958" 
d="M385 1081h-66q34 95 70 211q71 50 142 82.5t167 32.5q145 0 227.5 -83.5t82.5 -207.5q0 -91 -35 -180t-116.5 -194.5t-219 -240t-352.5 -323.5l-52 -43h328q81 0 118.5 7.5t63.5 32t64 87.5q9 18 14 23h72q-7 -21 -21 -43q-4 -12 -36.5 -87.5t-51.5 -118.5t-20 -46
q-62 3 -143 6q-124 4 -242 4q-95 0 -136 -0.5t-99.5 -2.5t-88.5 -4t-59 -3l16 55q397 343 631 612q193 223 193 412q0 91 -51 142t-132 51q-151 0 -268 -181z" />
    <glyph glyph-name="three" unicode="3" horiz-adv-x="958" 
d="M444 1137l-63 2q27 73 53 182q147 86 283 86q115 0 183.5 -63t68.5 -164q0 -114 -77.5 -190.5t-211.5 -143.5q205 -84 205 -305q0 -100 -39.5 -201t-115.5 -187t-178.5 -137t-221.5 -51q-90 0 -153 20.5t-130 55.5q32 66 46.5 106.5t35.5 116.5h59q5 -61 15 -98
t49.5 -67.5t120.5 -30.5q109 0 185.5 67.5t113.5 166.5t37 192q0 127 -78 200.5t-242 69.5l19 70q126 26 215.5 65.5t142.5 100.5t53 139q0 72 -44.5 109.5t-106.5 37.5q-65 0 -111.5 -27t-70.5 -57.5t-42 -64.5z" />
    <glyph glyph-name="four" unicode="4" horiz-adv-x="958" 
d="M317 -10l17 55q-2 0 31 6q104 21 120 37q27 23 90 223l13 41h-518q18 53 30 119q136 144 203 216.5t213.5 235.5t215 242t159.5 185q42 11 67.5 20.5t77.5 36.5l25 -23q-26 -64 -40.5 -103t-39 -115.5t-35 -112t-84.5 -279.5q-48 -164 -65.5 -228t-20.5 -75q104 3 170 8
l12 -20q-32 -57 -53 -117q-87 8 -164 10q-57 -180 -57 -235q0 -25 14 -33q10 -6 127 -33q14 -2 23 -4t10 -2l-14 -55q-46 3 -115 6q-86 4 -143 4q-104 0 -269 -10zM711 1014l-297 -332q-167 -183 -191 -211q280 -4 400 0l32 102l76 248q80 252 109 334l-4 4
q-25 -29 -54.5 -63.5t-70.5 -81.5z" />
    <glyph glyph-name="five" unicode="5" horiz-adv-x="958" 
d="M1049 1378l10 -22q-40 -64 -70 -142q-57 6 -140 7.5t-269 3.5q-16 -32 -30.5 -64.5t-35 -79.5t-37.5 -86q75 -5 135.5 -18.5t122.5 -52.5q84 -54 125 -140.5t41 -195.5q0 -126 -45.5 -238.5t-129 -200t-192.5 -136t-231 -48.5q-75 0 -122 15t-93 40q44 100 80 218h53
q20 -166 170 -166q101 0 182 62.5t126.5 163t45.5 208.5q0 153 -81.5 248.5t-217.5 95.5q-42 0 -92 -12l-30 30l24 50q79 166 102 218.5t76 194.5l15 41q180 -4 282 -4q97 0 140 2.5t86 7.5z" />
    <glyph glyph-name="six" unicode="6" horiz-adv-x="958" 
d="M1032 1407l27 -74q-181 -79 -312 -183.5t-208.5 -202t-155.5 -222.5l4 -4q82 68 136.5 108t97 57t90.5 17q113 0 178 -90.5t65 -234.5q0 -111 -41.5 -221.5t-116 -199t-175 -140.5t-211.5 -52q-131 0 -207 91.5t-76 260.5q0 171 73 344.5t200 323.5t289.5 259.5
t342.5 162.5zM295 313q0 -76 35.5 -168t146.5 -92q92 0 162 76t106.5 190.5t36.5 225.5q0 100 -27.5 152t-59.5 66.5t-60 14.5q-61 0 -141.5 -48.5t-139.5 -153t-59 -263.5z" />
    <glyph glyph-name="seven" unicode="7" horiz-adv-x="958" 
d="M1155 1380l-18 -63q-49 -85 -142 -257t-203 -382.5t-210.5 -410t-149.5 -302.5q-3 0 -14 1.5t-24 2.5t-22.5 1.5t-25.5 0.5q-37 0 -82 -6l-16 25q71 110 112 178q121 196 254.5 421.5t135.5 229.5q26 45 67 118t93 162t75 124q-369 7 -444 0q-27 -2 -48 -12t-44.5 -39.5
t-57.5 -86.5q-8 -16 -12 -20h-70q76 173 125 319q28 -2 44 -2.5t81 -5.5q110 -4 234 -4q198 0 362 8z" />
    <glyph glyph-name="eight" unicode="8" horiz-adv-x="958" 
d="M707 778q104 -125 149 -205t45 -167q0 -89 -40.5 -170.5t-108.5 -141.5t-155 -94.5t-179 -34.5q-83 0 -151.5 35.5t-109 102.5t-40.5 157q0 109 57 199t138 153.5t204 137.5q-34 44 -63 88.5t-54.5 107t-25.5 127.5q0 91 54 168.5t144 121.5t189 44q87 0 148.5 -31.5
t94.5 -87t33 -127.5q0 -131 -87 -214t-242 -169zM653 842q101 60 170.5 130t69.5 185q0 98 -53 135t-115 37q-84 0 -139.5 -57.5t-55.5 -147.5q0 -66 30.5 -128.5t92.5 -153.5zM563 688q-125 -88 -209 -182.5t-84 -226.5q0 -79 54.5 -149.5t150.5 -70.5q80 0 139.5 40
t90 104.5t30.5 134.5q0 83 -38.5 156t-133.5 194z" />
    <glyph glyph-name="nine" unicode="9" horiz-adv-x="958" 
d="M145 -35l-22 70q440 217 661 602l-4 4q-94 -80 -164.5 -125t-128.5 -45q-77 0 -136.5 44.5t-90.5 121.5t-31 170q0 136 69.5 276.5t192 233t269.5 92.5q139 0 217 -93.5t78 -244.5t-61 -315.5t-179 -319t-288.5 -278.5t-381.5 -193zM889 1073q0 143 -58 195.5t-120 52.5
q-93 0 -164 -74t-107.5 -188t-36.5 -228q0 -135 52 -183t104 -48q56 0 134 47t137 153.5t59 272.5z" />
    <glyph glyph-name="colon" unicode=":" horiz-adv-x="532" 
d="M92 61q0 68 39 107t84 39q35 0 60.5 -26.5t25.5 -65.5q0 -31 -15 -65.5t-42.5 -56.5t-61.5 -22q-48 0 -69 32t-21 58zM301 782q0 71 38.5 109.5t84.5 38.5q35 0 59.5 -27.5t24.5 -66.5q0 -52 -33.5 -98t-83.5 -46q-48 0 -69 32t-21 58z" />
    <glyph glyph-name="semicolon" unicode=";" horiz-adv-x="532" 
d="M76 39l-15 43q70 56 148 141q63 -31 80.5 -79.5t17.5 -84.5q0 -62 -32 -132.5t-97 -139t-158 -127.5l-36 53q63 49 118.5 116.5t55.5 143.5q0 77 -82 66zM299 782q0 70 38.5 109t84.5 39q34 0 60 -27t26 -67q0 -31 -15 -65.5t-42.5 -56.5t-61.5 -22q-48 0 -69 32t-21 58z
" />
    <glyph glyph-name="less" unicode="&#x3c;" 
d="M236 723l1087 457v-144l-911 -372l911 -375v-142l-1087 457v119z" />
    <glyph glyph-name="equal" unicode="=" 
d="M248 956h1087v-131h-1087v131zM248 498h1087v-131h-1087v131z" />
    <glyph glyph-name="greater" unicode="&#x3e;" 
d="M1346 604l-1086 -457v142l909 375l-909 372v144l1088 -459z" />
    <glyph glyph-name="question" unicode="?" horiz-adv-x="811" 
d="M369 1114h-62q44 156 58 211q130 88 284 88q69 0 129.5 -26.5t95.5 -78.5t35 -126q0 -97 -50.5 -177.5t-168.5 -199.5q-106 -107 -160 -174t-87 -130t-68 -157h-74q25 102 66.5 190t83.5 150.5t104 138.5q105 130 146.5 199t41.5 141q0 70 -43.5 105t-101.5 35
q-89 0 -143 -59.5t-86 -129.5zM184 61q0 78 40 112t81 34q35 0 60.5 -26.5t25.5 -65.5q0 -31 -15 -65.5t-42.5 -56.5t-61.5 -22q-44 0 -66 29.5t-22 60.5z" />
    <glyph glyph-name="at" unicode="@" horiz-adv-x="1878" 
d="M1409 958l-119 -399q0 -2 -22 -82q-34 -126 -37 -133q-33 -111 -33 -164q0 -24 17.5 -51t58.5 -27q69 0 144 50.5t138 139.5t101.5 210t38.5 252q0 174 -80.5 315t-227.5 221t-339 80t-352 -79.5t-273 -215.5t-173.5 -308.5t-60.5 -348.5t58.5 -324t165 -254.5
t250 -163.5t309.5 -57q155 0 307 54t283.5 178.5t214.5 320.5h57q-48 -151 -139 -266.5t-207.5 -192t-251 -116t-268.5 -39.5q-243 0 -443.5 113.5t-315 316t-114.5 456.5q0 275 128.5 500t347.5 352t470 127q177 0 312 -56.5t225 -153.5t134 -219.5t44 -256.5
q0 -117 -36 -242.5t-106 -229.5t-175 -169t-234 -65q-71 0 -112 33t-41 106q0 42 16 141l-4 4q-91 -116 -189 -200t-200 -84q-57 0 -99 36.5t-61.5 90t-19.5 106.5q0 114 51 236t137 229.5t181 171.5t179 64q141 0 173 -140h4l30 111zM1057 918q-90 0 -184.5 -115
t-157 -267.5t-62.5 -240.5q0 -57 32.5 -100t82.5 -43q85 0 166 79.5t139 167.5q42 65 75.5 183.5t33.5 187.5q0 44 -15.5 76.5t-44 52t-65.5 19.5z" />
    <glyph glyph-name="A" unicode="A" 
d="M1298 49l-16 -59q-52 4 -104 6q-82 4 -156 4q-124 0 -336 -10l12 59q176 36 199 78q13 21 27 121t20 180q-118 4 -293 4q-78 0 -131 -4q-12 -16 -17.5 -23t-15.5 -20q-21 -28 -91.5 -124t-73.5 -101q-33 -41 -33 -60q0 -15 14 -23t84 -22q30 -6 31 -6l-17 -59
q-32 2 -108 6q-78 4 -127 4q-66 0 -229 -10l18 59q101 18 139.5 41.5t104.5 108.5q12 17 52.5 68.5t73 93.5t60.5 77l133 168q94 118 137.5 173t91 116.5t129 171t220.5 297.5q7 7 20 25t17 24h67q-1 -16 -9.5 -106.5t-14.5 -155.5q-7 -61 -16 -150t-14 -151.5t-12.5 -164.5
t-21.5 -282q-14 -226 -14 -258q0 -22 9 -34.5t48.5 -26.5t114.5 -29q30 -6 28 -6zM590 524h364l62 570l-4 4z" />
    <glyph glyph-name="B" unicode="B" horiz-adv-x="1237" 
d="M340 1325l16 59q120 -12 273 -12q41 1 88 2t125 2q78 4 154.5 1t147 -25t116 -76.5t45.5 -149.5q0 -80 -38 -150.5t-104 -121.5q-65 -50 -120.5 -71.5t-149.5 -45.5v-4q119 -9 206 -59.5t87 -200.5q0 -96 -39.5 -176.5t-99 -137t-129.5 -93.5q-61 -33 -144 -54.5
t-229 -21.5q-62 0 -160 4q-54 6 -164 6q-68 0 -241 -10l18 59q1 0 37 6q80 17 109 26.5t43.5 24.5t27.5 46q11 24 30 85.5t48.5 159t85.5 287.5q11 39 22.5 78.5t27 92.5t24.5 83q3 12 20 76.5t29.5 110.5t15.5 59q14 35 14 67q0 27 -35.5 40t-156.5 34zM729 1282l-147 -504
q89 0 150.5 4t135.5 23q79 20 136.5 65t89.5 106.5t32 131.5q0 188 -235 188q-62 0 -162 -14zM391 90q119 -14 184 -14q102 0 164.5 18.5t114.5 61.5q66 53 104.5 138t38.5 169q0 88 -33 136.5t-92 69.5t-126 24t-185 1q-51 -177 -71 -248.5t-36 -127.5t-33.5 -120.5
t-29.5 -107.5z" />
    <glyph glyph-name="C" unicode="C" horiz-adv-x="1280" 
d="M1174 301l49 -65q-176 -135 -313 -206t-294 -71t-257 79t-143.5 192.5t-43.5 222.5q0 183 70.5 356t198 311t290.5 215.5t338 77.5q198 0 385 -98q-26 -69 -50 -147.5t-54 -211.5l-76 5q4 76 4 147q0 94 -27 129q-27 39 -87.5 59.5t-123.5 20.5q-132 0 -253 -72.5
t-214 -193t-146.5 -271.5t-53.5 -299q0 -117 44.5 -204t118.5 -133t160 -46q116 0 229.5 55.5t248.5 147.5z" />
    <glyph glyph-name="D" unicode="D" horiz-adv-x="1493" 
d="M330 1325l14 59q32 -2 53 -4t52 -4q86 -4 153 -4q74 0 236 6q72 6 186 6q229 0 378.5 -112.5t149.5 -378.5q0 -128 -42.5 -256.5t-127.5 -245t-211 -209.5q-152 -114 -306 -154t-318 -40q-27 0 -191 8q-5 0 -66 2t-97 2q-66 0 -226 -10l19 59q6 0 49 10q90 19 114.5 30.5
t40.5 37.5q32 47 105 305l53 186q4 22 17 64q19 63 51 180q64 239 73 262q31 104 31 131q0 17 -16 27q-8 4 -57 16t-78 17q-5 2 -13.5 4t-16 3.5t-9.5 2.5zM719 1276l-19 -59q-11 -40 -70.5 -244.5t-85.5 -296t-84.5 -301.5t-76.5 -281q110 -12 197 -12q151 0 274 39.5
t242 150.5q120 114 189 271t69 334q0 184 -76 276.5t-172 115.5t-209 23q-54 0 -83 -3t-95 -13z" />
    <glyph glyph-name="E" unicode="E" horiz-adv-x="1280" 
d="M336 1325l16 59q120 -12 271 -12q127 0 253 0.5t261.5 2.5t255.5 9q-54 -175 -86 -344l-72 4q2 20 4 123q2 63 -7 86.5t-36 29t-100 5.5h-363q-19 -61 -39 -125.5t-47 -156.5q-36 -112 -51 -175l-10 -30t-13 -37h175q122 0 159 8q26 7 49 41.5t62 110.5l14 28h60
q-8 -31 -11 -39q-31 -105 -40.5 -139t-21 -74.5t-22.5 -84t-26 -99.5q-11 -33 -17 -57h-65q0 3 7 77.5t7 84.5q0 33 -21.5 44t-58.5 11q-22 0 -137 2t-135 2q-11 -39 -42 -153.5t-36 -129.5q-43 -150 -82 -307h432q86 0 124.5 11.5t70.5 52.5t92 151q7 15 18.5 34.5
t14.5 25.5h74q-59 -154 -115 -328l-15 -47q-63 2 -321 6q-262 4 -328 4q-91 0 -135 -0.5t-121 -2.5t-121 -4t-86 -3l19 59l37 8q69 14 106.5 24.5t50.5 23t25 42.5q25 65 62.5 191t86.5 301q41 150 75.5 275t60.5 221.5t26 107.5q0 28 -20 39q-27 15 -129 35q-28 4 -39 8z
" />
    <glyph glyph-name="F" unicode="F" horiz-adv-x="1194" 
d="M336 1325l16 59q162 -12 312 -12q168 0 279 1t223.5 3t265.5 8q-56 -174 -89 -366h-73q2 36 3 67t2 51.5t1 57.5q0 60 -21.5 73t-80.5 13h-455l-150 -518q194 0 248.5 3.5t77.5 20.5q36 24 94 164h72q-48 -139 -81 -258t-62 -243h-70q1 2 6 47q10 82 10 120t-27.5 49
t-156.5 11h-135q-48 -169 -97 -353.5t-49 -207.5q0 -19 13 -23q12 -5 186 -37q42 -6 45 -6l-16 -59q-53 3 -127 6q-102 4 -193 4q-149 0 -334 -10l17 59q3 0 12.5 1.5l28.5 4.5q84 16 114 26.5t46.5 33t33.5 78.5q23 69 74 245l86 295q24 83 61 217t56.5 212.5t19.5 88.5
q0 21 -27 34.5t-122 31.5q-24 4 -37 8z" />
    <glyph glyph-name="G" unicode="G" horiz-adv-x="1473" 
d="M1397 977h-72q0 11 -4 112t-4 103q-10 60 -86 95.5t-168 35.5q-152 0 -280.5 -75.5t-220.5 -201.5t-141.5 -276t-49.5 -293q0 -126 43.5 -218.5t123.5 -142.5t189 -50q168 0 317 84l84 288q11 33 11 37q3 7 6.5 24.5t3.5 28.5q0 29 -31 39q-64 21 -141 39l18 60
q129 -11 254 -11q72 0 303 11l-16 -60q-6 0 -19.5 -3.5t-19.5 -4.5q-98 -23 -125.5 -41t-44.5 -68q-67 -197 -106 -393q-126 -49 -219.5 -78.5t-177 -44t-175.5 -14.5q-196 0 -307 88q-98 76 -134 194.5t-36 221.5q0 167 66 335.5t188 307.5t292 223t363 84q201 0 418 -94
q-21 -57 -55.5 -171t-46.5 -171z" />
    <glyph glyph-name="H" unicode="H" horiz-adv-x="1516" 
d="M336 1325l16 59q192 -12 303 -12q110 0 293 12l-16 -59q-93 -17 -137.5 -30t-65.5 -40q-24 -32 -76 -206l-80 -277q272 -3 367.5 -3t273.5 3q7 22 16 56.5t34 121.5l14 54q63 210 63 245q0 22 -16 33q-27 17 -137 35q-30 5 -39 8l18 59q80 -6 139 -9t160 -3t159 3t138 9
l-14 -59q-2 -1 -31 -6q-106 -21 -136.5 -36.5t-43.5 -45.5q-19 -40 -55 -152.5t-71 -230t-46 -156.5q-28 -100 -59 -210.5t-50.5 -181t-27 -99t-17.5 -68.5q0 -5 -0.5 -9t-1.5 -9q0 -22 21.5 -31.5t136.5 -34.5q18 -6 33 -6l-15 -59q-34 2 -118 6q-94 4 -152 4
q-26 0 -166 -4q-103 -6 -162 -6l15 59q18 0 33 6q110 23 138 36.5t42 47.5q29 70 79 237t87 296q-54 0 -101 0.5t-100 1.5t-113 1.5t-120 0.5q-81 0 -128.5 -1.5t-74.5 -2.5q-12 -39 -13 -41q-135 -490 -135 -506q0 -29 33.5 -42t122.5 -28q36 -6 35 -6l-15 -59
q-45 3 -120 6q-100 4 -170 4q-136 0 -306 -10l15 59q17 0 45 8q82 17 117 32t49 42q25 50 113 351.5t149 527.5q5 18 24.5 92t28 107.5t8.5 41.5q0 19 -18 31q-42 17 -129 35q-33 5 -43 8z" />
    <glyph glyph-name="I" unicode="I" horiz-adv-x="725" 
d="M963 1384l-19 -61q-2 -1 -11 -2.5t-18.5 -3t-11.5 -2.5q-97 -18 -127 -34.5t-45 -49.5q-27 -68 -76.5 -226.5t-99.5 -332t-78 -287.5q-1 -5 -33 -131t-32 -135q0 -15 12 -25q8 -7 147 -39l33 -6l-18 -59q-48 3 -119 6q-98 4 -180 4q-133 0 -301 -10l18 59q1 0 7 1.5t16 3
t20 3.5q90 17 117 30t45 38q23 35 92 270q3 12 36.5 128t41.5 145q21 75 45.5 160.5t36.5 132.5q54 194 69 264q5 15 5 28q0 20 -17 27q-10 5 -78.5 21.5t-93.5 21.5l16 61q162 -12 293 -12q180 0 308 12z" />
    <glyph glyph-name="J" unicode="J" horiz-adv-x="874" 
d="M532 1325l15 59q28 -2 48 -3t71 -5q94 -4 151 -4q10 0 285 10l47 2l-16 -59q-8 -3 -37 -8q-85 -16 -116.5 -27t-46 -28.5t-26.5 -53.5l-37 -110l-86 -273q-33 -103 -75 -264q-62 -219 -90.5 -302t-65.5 -136q-23 -36 -58.5 -64.5t-82.5 -52t-99.5 -35.5t-103.5 -12
q-72 0 -113 13.5t-94 41.5q26 75 46 144t36 143q1 3 5 23t5 24h82l-6 -125q0 -78 23 -123t83 -45q51 0 84.5 35t56 92.5t58.5 179.5q52 164 115 386.5t97 355t34 151.5q0 13 -10 23q-9 9 -57 20t-66 15q-10 2 -16.5 3.5t-12.5 2.5t-15.5 3.5t-11.5 2.5z" />
    <glyph glyph-name="K" unicode="K" horiz-adv-x="1450" 
d="M1669 1384l-10 -59q-79 -11 -119.5 -24t-105.5 -52t-209 -143q-117 -85 -200 -144.5t-169 -119.5q-25 -19 -52 -37.5t-65 -46.5q26 -44 111 -172q19 -29 81 -125t90 -138.5t54 -80.5q53 -74 74 -97t49 -39q27 -13 160 -47q40 -10 49 -10l-18 -59q-45 3 -113 6
q-94 4 -180 4q-140 0 -320 -10l15 59q12 0 36 8q67 16 87 25t20 29q0 12 -17 46t-28 50q-18 32 -68.5 114.5t-103.5 166t-89.5 142t-62.5 99.5q-39 -131 -101.5 -363t-62.5 -249q0 -13 14 -22t27 -11q14 -4 154 -35l-21 -59q-47 3 -133 6q-106 4 -182 4q-143 0 -283 -10
l17 59q2 0 11 1.5t26 4.5q98 20 125.5 34t44.5 40q12 21 42.5 114.5t74.5 246t51 178.5q132 466 153 553q4 18 4 32q0 18 -10 25q-11 10 -54 21.5t-75 15.5q-18 4 -28.5 6t-18.5 4l14 59q186 -12 275 -12q65 0 323 12l-16 -59q-8 -2 -17.5 -4t-25.5 -6q-83 -16 -115.5 -29
t-46.5 -36.5t-31 -80.5q-5 -20 -13.5 -45.5t-12.5 -40.5q-54 -163 -101 -325q104 67 301 215l187 135q53 37 121.5 94t68.5 78q0 25 -98 45l16 59q135 -12 220 -12q96 0 280 12z" />
    <glyph glyph-name="L" unicode="L" horiz-adv-x="1217" 
d="M344 1325l14 59q162 -12 299 -12q178 0 326 12l-14 -59q-13 -3 -51 -8q-81 -12 -121 -24.5t-55.5 -31.5t-30.5 -63q-35 -105 -102.5 -329t-128.5 -440.5t-89 -336.5h438q80 0 117.5 13.5t68 55.5t99.5 167q3 8 9.5 19.5t11.5 21.5h86q-47 -121 -121 -342q0 -7 -5 -22.5
t-5 -14.5q-3 0 -342 6l-230 4q-79 0 -155.5 0.5t-193.5 -2.5t-185 -8l14 59q3 0 39 6q81 15 117 30t51.5 39t34.5 81q23 70 82 276t89 314.5t65.5 238.5t45.5 172q10 41 10 47q0 16 -14 27q-11 9 -59 20t-76 15z" />
    <glyph glyph-name="M" unicode="M" horiz-adv-x="1812" 
d="M2066 1384l-14 -59q-4 -1 -12.5 -2.5t-20.5 -5.5q-86 -17 -118 -27.5t-50.5 -35t-33.5 -80.5q-10 -37 -38 -125t-42 -134q-44 -136 -100 -339t-87.5 -326t-31.5 -131q0 -33 47 -39q14 -3 53.5 -12t62.5 -15q18 -4 27 -4l-18 -59q-48 3 -119 6q-102 4 -189 4
q-159 0 -292 -10l18 59q7 0 25 4q115 25 137 32.5t39 27.5q39 50 98 262l74 250q28 93 49 163.5t24.5 80.5t20.5 67q33 111 72 235l-5 5q-42 -60 -141 -198t-260.5 -364t-251.5 -352q-131 -180 -184 -262h-66q-4 43 -6 62t-6 75q-27 273 -45 438q-1 13 -11.5 114.5
t-11.5 113.5q-28 251 -36 358h-5q-15 -56 -59 -209q-49 -167 -162 -583q-13 -52 -37 -143.5t-24 -100.5q0 -18 8.5 -27.5t40 -19t131.5 -29.5l-16 -59q-44 3 -119 6q-90 4 -139 4q-30 0 -260 -10l16 59q10 0 22 4q103 19 134.5 32.5t46.5 47.5q33 70 119.5 355.5
t144.5 492.5q11 44 41.5 147l30.5 103q6 15 6 26q0 21 -33 29l-203 39l17 59q69 -6 107 -9t108 -3q80 0 221 12q6 -30 6 -59q45 -502 74 -733l39 -318l274 379q62 88 203 281q131 179 187 258.5t126 191.5q82 -12 174 -12q85 0 223 12z" />
    <glyph glyph-name="N" unicode="N" horiz-adv-x="1493" 
d="M307 1325l19 59q94 -8 186 -8q105 0 195 8q64 -160 172 -444q33 -88 66 -174.5t51.5 -133t62.5 -157.5t74 -188h4q39 145 98 352q65 234 90 325t42.5 157.5t25.5 99.5q4 12 4 26q0 24 -20.5 35.5t-121.5 32.5q-6 2 -14.5 4t-13.5 3.5t-8 2.5l18 59q141 -12 279 -12
q147 0 237 12l-14 -59l-35 -8q-87 -15 -115.5 -28.5t-50.5 -45.5q-18 -28 -60 -157.5t-82.5 -269.5t-70.5 -241l-143 -514q-6 -21 -23 -94l-76 -8q-38 107 -57.5 159t-33 87.5t-70.5 181.5t-121 305l-43 107q-59 149 -135 348h-5l-20 -76q-56 -191 -66.5 -227.5
t-29.5 -104.5t-41 -147.5t-64 -235.5q-6 -24 -33.5 -128.5t-27.5 -108.5q0 -15 21.5 -27t54.5 -20t61 -15q5 -1 17 -3t19.5 -3.5t8.5 -1.5l-20 -59q-36 3 -97 6q-72 4 -139 4q-115 0 -278 -10l18 59q11 0 43 8q89 16 121 37.5t53 75.5q22 59 62.5 188t97 321t78.5 269
q30 110 80 277q4 16 4 30t-13 23q-14 10 -64.5 20t-94.5 15z" />
    <glyph glyph-name="O" unicode="O" horiz-adv-x="1409" 
d="M166 455q0 177 71 350.5t193 310.5t280 217t322 80q199 0 317.5 -124t118.5 -365q0 -203 -74 -381t-199.5 -308.5t-283.5 -203t-321 -72.5q-178 0 -272.5 91.5t-123 202t-28.5 202.5zM365 477q0 -122 39.5 -216t112.5 -144.5t171 -50.5q155 0 289.5 128t214.5 327.5
t80 391.5q0 134 -40 225.5t-109 136t-154 44.5q-118 0 -229 -76t-195 -200.5t-132 -274t-48 -291.5z" />
    <glyph glyph-name="P" unicode="P" horiz-adv-x="1174" 
d="M348 1325l17 59q21 -1 43.5 -2.5t62.5 -5.5q86 -4 150 -4q61 0 225 8l135 4q344 0 344 -266q0 -75 -33 -156t-103 -152.5t-182.5 -117t-265.5 -45.5q-85 0 -190 21l-53 -197q-9 -33 -17.5 -64t-16 -56t-18.5 -64l-28 -109q-2 -6 -4 -15t-4 -11q-4 -18 -4 -31
q0 -21 18 -31q12 -6 72 -17t106 -16q32 -8 51 -8l-18 -59q-57 3 -127 6q-106 4 -221 4q-139 0 -307 -10l16 59q2 0 9.5 1.5t16.5 3t19 3.5q103 21 129.5 33t44.5 53q20 46 57.5 168.5t116.5 401.5q1 3 7 24.5t18 55.5q42 153 49 172q18 65 32.5 115t28 105t13.5 70
q0 22 -24 33t-132 29q-25 4 -33 8zM578 745q90 -18 143 -18q113 0 208.5 43t152.5 126.5t57 195.5q0 127 -77.5 163.5t-178.5 36.5q-74 0 -144 -18q-1 -4 -18 -55q-22 -68 -127 -414q-4 -16 -7.5 -28t-8.5 -32z" />
    <glyph glyph-name="Q" unicode="Q" horiz-adv-x="1409" 
d="M1278 -150l27 -55q-123 -72 -214.5 -106.5t-132.5 -34.5q-38 0 -92 24t-186 117q-28 20 -78 56t-100 72.5t-78 56.5q-107 72 -322 104l17 63q64 -5 141 -24q-92 129 -92 334q0 230 121 453.5t322 363t421 139.5q128 0 226.5 -53.5t154 -165t55.5 -272.5
q0 -192 -70.5 -366t-189 -304t-266 -203.5t-291.5 -73.5q-27 0 -106 9l-4 -4q289 -138 346 -160q81 -33 151 -33q31 0 56.5 4t71 19t112.5 40zM365 455q0 -125 44.5 -213.5t117 -133.5t155.5 -45q166 0 302 132.5t213 333t77 391.5q0 97 -21.5 170t-62 124.5t-98 78
t-127.5 26.5q-155 0 -294.5 -129t-222.5 -331.5t-83 -403.5z" />
    <glyph glyph-name="R" unicode="R" horiz-adv-x="1386" 
d="M332 1325l14 59q40 -2 65.5 -4t65.5 -4q102 -4 174 -4q56 0 178 4q76 8 164 8q132 0 225 -59t93 -201q0 -53 -18 -115t-68.5 -128t-139.5 -117q-62 -35 -112.5 -51t-110.5 -27q2 -6 10 -24t10.5 -24t4.5 -11q8 -16 50.5 -105t59.5 -129q102 -217 125 -250
q18 -24 40.5 -38t58 -25t104.5 -27q8 -1 18.5 -3t15.5 -3.5t7 -1.5l-14 -55q-32 3 -78 6q-66 4 -133 4q-107 0 -178 -6q-48 146 -134 348q-13 31 -34 82t-40 97.5t-40 96.5q-1 5 -11 29t-12 27q-59 0 -147 12q-11 -38 -20.5 -73t-28 -100.5t-37.5 -137.5q-47 -182 -62 -230
q-6 -12 -6 -26q0 -24 44.5 -38.5t115.5 -27.5l35 -4l-17 -59q-42 3 -104 6q-90 4 -176 4q-152 0 -322 -10l15 59q13 0 43 8q88 17 119.5 30t46.5 38.5t40 103.5q47 147 116.5 385t121 429t51.5 212q0 23 -18 29q-7 3 -170 41zM721 1276l-80 -260q-57 -187 -76 -256
q93 -6 109 -6q118 0 220 35.5t166 111t64 195.5q0 196 -227 196q-70 0 -176 -16z" />
    <glyph glyph-name="S" unicode="S" horiz-adv-x="1110" 
d="M217 440h82q-3 -52 -4.5 -84.5t-1.5 -50.5q0 -113 55 -166q46 -42 101.5 -55.5t101.5 -13.5q97 0 157.5 45t86.5 110t26 123q0 102 -50 176.5t-126 145.5q-114 108 -162.5 159.5t-76 104t-27.5 110.5q0 90 57.5 175t165.5 139.5t250 54.5q77 0 143.5 -15t107.5 -31.5
t105 -47.5q-34 -103 -46 -151t-29 -146l-5 -31h-79q2 111 -2 163.5t-21 78.5q-25 43 -85.5 69.5t-125.5 26.5q-69 0 -128 -30t-92.5 -79t-33.5 -110q0 -64 41.5 -122t179.5 -193q132 -129 183 -206t51 -179q0 -107 -62.5 -211.5t-182 -172t-282.5 -67.5q-195 0 -374 102
q28 87 42 133t28 104t32 142z" />
    <glyph glyph-name="T" unicode="T" horiz-adv-x="1343" 
d="M1485 1001h-70q0 3 1.5 37.5t8.5 169.5q4 49 -27 60.5t-122 11.5h-225q-1 -6 -11 -38t-12 -40q-12 -44 -36.5 -128t-41 -140.5t-39 -136.5t-37.5 -133q-117 -422 -141 -514q-4 -13 -4 -35q0 -19 12 -25q21 -13 146 -31q45 -10 53 -10l-16 -59q-49 3 -136 6q-102 4 -165 4
q-100 0 -338 -10l16 59q3 0 8.5 1.5t12 2.5t15 2.5t11.5 1.5q130 21 154 39q44 37 110 279q7 30 56 186q9 32 18.5 62.5t13.5 48.5l91 315q46 158 83 293h-225q-72 0 -106.5 -7.5t-57.5 -35t-51 -94.5l-59 -142h-72q52 191 86 383q38 0 69.5 -1t84.5 -2t133 -3
q182 -6 280 -6q63 0 295 4l330 8q-38 -120 -53 -188q-12 -56 -25 -113.5t-18 -81.5z" />
    <glyph glyph-name="U" unicode="U" horiz-adv-x="1493" 
d="M1763 1384l-16 -59q-9 -3 -39 -8q-61 -11 -94.5 -22.5t-55.5 -36.5t-35.5 -61.5t-41.5 -127.5q-57 -178 -80.5 -258t-36 -124.5t-57.5 -205.5q-34 -125 -86.5 -223.5t-122.5 -164t-166.5 -100t-216.5 -34.5q-157 0 -253 52.5t-137.5 134.5t-41.5 173q0 58 11 121.5
t42 179t84 302.5q11 41 22 80.5t21 77.5t26 102l13 41q0 2 2 14t2 20q0 18 -14 25q-13 6 -56 16.5t-69 14.5l-48 12l17 59q96 -6 149 -9t144 -3q98 0 155.5 3t149.5 9l-14 -59q-141 -28 -173 -41.5t-51 -56.5q-20 -53 -80 -252q-65 -217 -95.5 -327.5t-43 -176t-12.5 -129.5
q0 -91 40 -148.5t106 -83.5t147 -26q110 0 189 39.5t132 116t93.5 185t91.5 288.5q76 267 108.5 387.5t32.5 146.5q0 22 -25.5 36.5t-107.5 31.5q-22 3 -43 10l16 59q153 -12 262 -12q146 0 256 12z" />
    <glyph glyph-name="V" unicode="V" horiz-adv-x="1386" 
d="M309 1325l17 59q126 -12 288 -12q114 0 308 12l-17 -59q-13 -4 -37 -8q-86 -17 -118.5 -34.5t-49.5 -51.5q-15 -31 -20.5 -73t-22.5 -243q-2 -30 -11.5 -137.5t-17.5 -191.5t-16.5 -174.5t-11.5 -124.5l4 -4q38 51 55.5 74t88 117.5t126.5 170.5q140 190 254 338
q201 262 201 289q0 21 -23 30.5t-81 18.5q-19 0 -27 4l14 59q129 -12 250 -12q99 0 213 12l-16 -61q-62 -14 -97.5 -25.5t-60.5 -31.5q-15 -14 -26 -25t-34 -39t-67 -83t-112 -142q-101 -129 -214 -273t-190 -244.5t-106 -138.5t-230 -305q-6 -9 -23.5 -31.5t-19.5 -25.5
h-69q6 64 9.5 109t11 132t13 151t13.5 145l35 424q10 122 15 207t5 98q0 37 -26 52t-130 38q-27 3 -47 10z" />
    <glyph glyph-name="W" unicode="W" horiz-adv-x="1985" 
d="M309 1325l15 59q195 -12 290 -12q94 0 312 12l-17 -59q-100 -24 -133 -34.5t-50 -27.5t-26 -51q-24 -106 -59 -514q-3 -32 -16.5 -172.5t-14.5 -146.5q0 -11 -3.5 -38t-4.5 -30l4 -4q47 71 91.5 133.5t138.5 194.5t203 285t143 202q6 93 6 107q0 25 -9.5 37t-39 21.5
t-109.5 27.5q-23 3 -43 10l19 59q150 -12 288 -12q27 0 71.5 1.5t110.5 4.5t126 6l-17 -59l-41 -10q-67 -15 -99.5 -27.5t-48 -31t-22.5 -50t-14 -106.5l-12 -105l-31 -309q-5 -57 -16 -167t-13 -136q0 -2 -1.5 -20l-3 -36t-1.5 -20h4q19 30 60.5 92t86 127t72.5 107
l269 395q144 214 147 225q4 14 4 17q0 34 -113 51l-20 4l12 59q98 -12 224 -12q125 0 239 12l-12 -59q-62 -13 -95.5 -23.5t-61.5 -33t-56.5 -59.5t-93.5 -128q-110 -150 -115 -157q-18 -25 -94 -130.5t-170 -237.5t-223.5 -317.5t-192.5 -279.5h-68q15 145 29 332
q40 464 47 551q3 18 4.5 46.5t3.5 47.5l-4 4q-12 -21 -65 -96l-176 -252q-4 -6 -14.5 -20.5t-24.5 -34.5t-30 -42t-34 -46q-110 -156 -172 -244q-97 -140 -172 -246h-67q0 50 6 80l28 301q7 60 14 154t9 135q13 150 25 325q3 26 9 102.5t9 104.5q1 11 1.5 21.5t0.5 36.5
q0 31 -10.5 44.5t-44.5 24.5t-148 37z" />
    <glyph glyph-name="X" unicode="X" horiz-adv-x="1450" 
d="M403 1325l21 59q83 -6 138 -9t151 -3t153.5 3t153.5 9l-16 -59q-6 -2 -14.5 -3.5t-16.5 -4.5q-106 -24 -144 -42.5t-38 -43.5q0 -19 31.5 -129.5t64.5 -220.5q12 -24 12 -39l82 82l129 129q13 12 76 77t76 76q49 48 49 72q0 17 -23 25q-34 10 -94 22l12 59
q108 -12 224 -12q129 0 239 12l-18 -61q-88 -21 -124.5 -36t-86 -58t-137.5 -131q-60 -63 -156 -152q-125 -121 -215 -215q13 -45 24 -79.5t39 -127.5q113 -361 135 -401q11 -19 29.5 -26.5t63.5 -18.5q90 -23 125 -29l-19 -59q-51 3 -119 6q-94 4 -172 4q-122 0 -307 -10
l17 59q4 0 19 4t17 4q26 8 57 17.5t53.5 19t27.5 15.5q6 6 6 20q0 24 -45.5 185.5t-67.5 232.5l-16 53q-22 -22 -42.5 -43t-41.5 -41.5t-123 -120.5q-68 -67 -144 -142.5t-94 -96.5q-28 -33 -28 -54q0 -14 14 -20q16 -9 86 -25q7 -1 15 -3l14 -3.5l6 -1.5l-17 -59
q-38 3 -92 6q-70 4 -125 4q-112 0 -247 -10l14 59q63 9 104.5 32t104.5 81q47 44 106 101t165.5 160.5t182.5 178t111 109.5q-10 40 -37.5 129.5t-54.5 165.5q-7 21 -70 223q-11 35 -35.5 49.5t-126.5 36.5q-14 2 -41 10z" />
    <glyph glyph-name="Y" unicode="Y" horiz-adv-x="1300" 
d="M303 1325l19 59q8 0 72.5 -4.5t105 -6t84.5 -1.5q139 0 331 12l-14 -59q-21 -7 -39 -10q-136 -37 -151 -49q-19 -13 -19 -35q0 -36 58 -219l86 -277q15 18 27 33t58.5 74.5t133.5 171.5q65 82 168 221q4 4 9 15t5 18q0 18 -17 25.5t-85 23.5q-20 4 -27 8l14 59
q147 -12 228 -12q125 0 239 12l-18 -61q-80 -13 -115 -28t-84 -65t-149 -175q-36 -41 -164 -201q-135 -164 -191 -238q-3 -10 -9 -30.5t-13.5 -46.5t-20 -69t-37.5 -130q-4 -12 -21 -76.5t-25.5 -99t-8.5 -41.5q0 -21 12 -29.5t39 -13.5q52 -6 117 -23q24 -8 45 -8l-18 -59
q-42 3 -107 6q-90 4 -168 4q-110 0 -366 -10l16 59q1 0 10.5 1.5t18.5 3t10 1.5q128 25 154.5 37t44.5 55q23 60 147 469q8 20 8 29t-2.5 17.5t-5.5 15t-10 22.5q-30 83 -88 271q-22 70 -59.5 177.5t-53.5 123.5q-15 14 -39.5 21.5t-103.5 23.5q-25 5 -31 8z" />
    <glyph glyph-name="Z" unicode="Z" horiz-adv-x="1217" 
d="M383 1038h-76q44 144 53 181q1 3 15.5 54t21.5 77q0 1 11 34q122 -5 220 -7.5t169.5 -3.5t113.5 -1q180 0 482 12l-19 -71q-109 -116 -233.5 -250.5t-226.5 -248t-207 -232l-175 -197.5q-163 -182 -256 -293h531q97 0 137.5 10t75 53.5t96.5 161.5q7 16 27 50h80
q-11 -19 -17 -43q-18 -52 -49 -141t-53 -156q-2 -5 -4 -11.5t-4 -13.5t-4 -12q-65 4 -289 8q-102 2 -137 2h-72q20 0 -111.5 -2t-237 -3.5t-241.5 -4.5l19 69q14 22 43 47q128 140 223.5 244.5t174.5 191.5t216.5 241.5t144.5 162.5q99 112 151 169.5t81.5 91t60.5 69.5
h-438q-79 0 -114 -4t-59.5 -20.5t-45.5 -53t-55 -113.5q-18 -32 -23 -47z" />
    <glyph glyph-name="bracketleft" unicode="[" horiz-adv-x="618" 
d="M879 1440l-23 -80h-207q-12 -37 -28 -90t-38.5 -129.5t-50.5 -171.5q-20 -72 -75 -269t-103 -363t-91 -314.5t-91 -313.5q-3 -9 -5.5 -18t-6.5 -21h209l-23 -80q-82 4 -180 4q-92 0 -178 -4q91 281 276 934q1 3 30 104t58 206t41 149q41 138 111 408q4 7 14 49
q94 -4 172 -4q77 0 189 4z" />
    <glyph glyph-name="backslash" unicode="\" horiz-adv-x="1087" 
d="M213 1458h137l717 -1462h-137z" />
    <glyph glyph-name="bracketright" unicode="]" horiz-adv-x="575" 
d="M-236 -412l23 80h207q11 34 19 61t20 64t35 116t43 150q142 507 360 1260q3 3 7 18.5t5 20.5h-209l23 80q82 -4 180 -4q92 0 178 4q-53 -166 -64.5 -201t-40 -133.5t-70.5 -244.5t-101 -355q-2 -7 -23.5 -82.5t-47.5 -167.5t-35.5 -126t-22.5 -83q-2 -7 -21 -76.5
t-39 -142t-27.5 -100.5t-23.5 -88q-6 -16 -14 -50q-94 4 -172 4q-77 0 -189 -4z" />
    <glyph glyph-name="asciicircum" unicode="^" horiz-adv-x="874" 
d="M588 1458l424 -717h-113l-334 568l-336 -568h-114l428 717h45z" />
    <glyph glyph-name="underscore" unicode="_" horiz-adv-x="1024" 
d="M1036 -256h-1048v102h1048v-102z" />
    <glyph glyph-name="grave" unicode="`" horiz-adv-x="682" 
d="M684 1061h-53q-128 156 -154 187t-55 62.5t-80 82.5l8 16q75 -3 199 0q9 -23 11 -28.5t9 -26.5l34 -85t51.5 -131t29.5 -77z" />
    <glyph glyph-name="a" unicode="a" horiz-adv-x="961" 
d="M905 244l33 -43q-60 -60 -131.5 -115t-126.5 -85t-78 -30q-47 0 -47 58q0 28 16.5 92.5t22.5 73.5q9 36 20 69l-4 4q-84 -107 -188 -202t-189 -95q-67 0 -116 65.5t-49 190.5q0 128 53.5 254t147.5 227t217 161.5t259 60.5q16 0 97.5 -10t93.5 -11l12 -24
q-58 -120 -109 -274t-81.5 -277t-30.5 -146q0 -41 25 -41q32 0 131 78q16 16 22 19zM760 817q-77 25 -121 25q-82 0 -156 -50.5t-131 -137t-90 -193.5t-33 -211q0 -79 26.5 -116.5t53.5 -37.5q39 0 119.5 66t149.5 170q45 65 75 145.5t86 272.5q2 5 10.5 32t10.5 35z" />
    <glyph glyph-name="b" unicode="b" horiz-adv-x="918" 
d="M258 1278l16 61q211 57 326 119l33 -26q-10 -23 -16.5 -37.5t-13.5 -33t-25 -72t-33 -99.5q-111 -328 -193 -590l4 -4q72 94 137.5 166.5t133 120t127.5 47.5q73 0 119.5 -68t46.5 -194q0 -132 -50.5 -257t-137 -225t-196.5 -157.5t-225 -57.5q-69 0 -141 31.5t-72 132.5
q0 43 13 101q6 25 71.5 253.5t77.5 268.5q2 6 21.5 70.5l39 129t21.5 70.5q2 10 18 68q23 65 27 90q14 43 14 71q0 31 -43 31q-11 0 -67 -6q-3 0 -17 -2t-16 -2zM754 600q0 197 -82 197q-42 0 -147 -101.5t-188 -242.5t-83 -267q0 -66 35 -98.5t86 -32.5q83 0 153.5 52
t121.5 136.5t77.5 178t26.5 178.5z" />
    <glyph glyph-name="c" unicode="c" horiz-adv-x="725" 
d="M625 262l51 -49q-53 -53 -112.5 -103.5t-140.5 -94.5t-157 -44q-104 0 -155.5 80.5t-51.5 177.5q0 128 50.5 256.5t135.5 228.5t189.5 158t210.5 58q62 0 101.5 -14t87.5 -39q-28 -70 -36 -94.5t-26 -96.5h-59q-26 154 -133 154q-73 0 -157.5 -76.5t-142 -204
t-57.5 -272.5q0 -61 22 -127t93 -66q103 0 287 168z" />
    <glyph glyph-name="d" unicode="d" horiz-adv-x="981" 
d="M918 244l36 -43q-246 -230 -336 -230q-14 0 -31.5 9t-17.5 43q0 11 8 44.5t17.5 68t17.5 65.5l19 67l-4 4q-85 -106 -193 -203.5t-192 -97.5q-69 0 -118.5 73.5t-49.5 201.5q0 136 53 260t141 219t194.5 150t211.5 55q48 0 125 -21l63 211q9 34 21 66q16 52 16 76
q0 28 -33 28q-39 0 -114 -12l14 57q57 19 90.5 29.5t79.5 25.5t57 19q21 9 51.5 23t57.5 26l33 -24q-25 -55 -45 -109q-39 -107 -67 -191t-61 -187t-55 -175q-79 -254 -103 -334t-42.5 -151t-18.5 -105q0 -32 25 -32t115 67zM764 782q-88 54 -170 54q-99 0 -164 -68
q-92 -95 -142 -229.5t-50 -259.5q0 -83 23.5 -131t60.5 -48q42 0 95 44.5t97 88.5q85 92 129.5 190t97.5 282q3 16 23 77z" />
    <glyph glyph-name="e" unicode="e" horiz-adv-x="748" 
d="M623 233l41 -57q-252 -205 -402 -205q-77 0 -120.5 44.5t-58.5 106t-15 118.5q0 133 53 258t144 223.5t199 153.5t214 55q49 0 88 -25.5t39 -87.5q0 -97 -73 -183.5t-169 -129.5q-78 -37 -158.5 -57.5t-158.5 -32.5q0 -4 -6.5 -51.5t-6.5 -81.5q0 -69 22.5 -129t88.5 -60
q97 0 279 141zM266 485q238 42 315.5 134.5t77.5 166.5q0 68 -63 68q-69 0 -166.5 -85.5t-163.5 -283.5z" />
    <glyph glyph-name="f" unicode="f" horiz-adv-x="492" 
d="M158 819l10 45q83 24 149 49q34 130 59 199t61.5 120t101.5 107q140 119 284 119q54 0 94 -13.5t76 -33.5q-26 -64 -35 -90t-24 -90l-53 4q-5 56 -29.5 97.5t-101.5 41.5q-47 0 -85 -28t-67.5 -81t-53 -118.5t-61.5 -196.5q0 -11 -12 -47q80 -2 217 4l10 -14
q-28 -41 -47 -80q-83 6 -202 8q-75 -278 -113 -424q-50 -191 -91.5 -327t-76 -211t-75 -122t-101.5 -91q-105 -76 -195 -76q-45 0 -75 12t-70 39q29 40 44.5 67t33.5 68h20q25 -37 50 -57.5t75 -20.5q78 0 123 76t98 269q20 66 49 185t131 546q2 5 7.5 29t9.5 38
q-60 -2 -135 -2z" />
    <glyph glyph-name="g" unicode="g" horiz-adv-x="874" 
d="M942 901l10 -14q-26 -37 -45 -80q-56 11 -125 16q35 -75 35 -133q0 -47 -18.5 -116t-65 -137t-134.5 -119.5t-220 -63.5q-68 -61 -68 -96q0 -24 39 -45.5t146 -57.5q276 -89 276 -211q0 -61 -60 -125.5t-173 -106.5t-263 -42q-94 0 -173.5 19t-132.5 50t-80 66t-27 64
q0 49 61 88q69 47 133 80t133 65q-27 16 -41 29t-14 30q0 21 13 42t39 46.5t87 79.5q7 6 22 19.5t19 15.5q-44 13 -80 32t-67 67.5t-31 132.5q0 100 57 201.5t159 167t229 65.5q47 0 75 -8t66 -27q36 -1 87.5 -0.5t131.5 6.5zM291 512q0 -61 26 -124.5t113 -63.5
q60 0 114.5 49.5t87 127.5t32.5 161q0 73 -25.5 139.5t-101.5 66.5q-99 0 -172.5 -117.5t-73.5 -238.5zM252 -20l-55 -31q-33 -17 -73.5 -46.5t-66.5 -60t-26 -57.5q0 -65 91 -100t189 -35q71 0 140.5 20t112 53.5t42.5 69.5q0 31 -27 50.5t-92 47.5q-78 37 -235 89z" />
    <glyph glyph-name="h" unicode="h" horiz-adv-x="1024" 
d="M629 1458l28 -26q-24 -53 -66 -169.5t-65 -187.5q-96 -306 -102 -325q-58 -183 -80 -248l4 -4q120 160 266.5 296t284.5 136q78 0 78 -80q0 -36 -10.5 -76t-65.5 -213q-95 -298 -102 -321q-17 -46 -17 -66q0 -35 25 -35q13 0 35 14t47.5 33t50.5 39q6 4 11 9t7 6l37 -41
q-54 -60 -123.5 -114t-130.5 -84t-94 -30q-57 0 -57 54q0 29 16.5 87t39.5 126t34 100q71 199 97 284.5t26 125.5q0 38 -33 38q-55 0 -142 -75.5t-139 -137.5q-71 -82 -113.5 -150.5t-67 -131t-79.5 -225.5q-8 -32 -22 -66q-114 -2 -160 -14q65 185 131 409
q74 256 97.5 334.5t60.5 204.5q5 15 27.5 94t42.5 151t20 83q0 28 -33 28q-19 0 -117 -12l17 61q192 47 336 119z" />
    <glyph glyph-name="i" unicode="i" horiz-adv-x="555" 
d="M469 240l39 -43q-91 -87 -192 -156.5t-156 -69.5q-22 0 -39 17t-17 43q0 39 29 129l74 207q7 23 62 191t55 175q0 25 -21 25q-15 0 -50 -25.5t-60 -54.5l-27 -27l-37 41q107 110 199 174t139 64q41 0 41 -39q0 -23 -23 -99.5t-59.5 -187.5t-56.5 -170q-26 -68 -56 -162
t-30 -114q0 -25 20 -25q38 0 137 86q5 3 15 10.5zM551 1358q34 0 59 -26t25 -64q0 -52 -35 -97t-80 -45q-34 0 -58 30.5t-24 68.5q0 33 14.5 62.5t40.5 50t58 20.5z" />
    <glyph glyph-name="j" unicode="j" horiz-adv-x="492" 
d="M135 637l-37 43q72 72 182.5 161t168.5 89q20 0 33.5 -12.5t13.5 -32.5q0 -42 -29 -129q-41 -123 -77.5 -246.5t-110.5 -384.5q-43 -147 -78.5 -232.5t-77.5 -141.5t-109 -105q-102 -76 -186 -76q-72 0 -141 49q46 61 82 135h18q38 -78 119 -78q56 0 95 61.5t75 194.5
q25 85 86 304q19 62 41 149l43 152q6 22 22.5 79t22.5 82q6 26 6 29q0 18 -16 18q-20 0 -62.5 -33.5t-83.5 -74.5zM528 1358q34 0 59 -26t25 -64q0 -52 -35 -97t-79 -45q-34 0 -58 30.5t-24 68.5q0 49 33 91t79 42z" />
    <glyph glyph-name="k" unicode="k" horiz-adv-x="938" 
d="M266 1280l15 59q132 39 183.5 57.5t147.5 61.5l31 -22q-22 -49 -47 -121q-2 -6 -30 -92.5t-66.5 -201.5t-64 -192.5t-60.5 -183.5l4 -4q107 115 230.5 202t252.5 87q74 0 98.5 -31t24.5 -76q0 -70 -41 -148t-149 -144t-291 -91q92 -173 139 -243q36 -50 47.5 -62
t32.5 -12q31 0 70 28t79 62l19 16l41 -43q-89 -99 -174 -157t-119 -58q-46 0 -70 54q-105 193 -129 235.5t-80 132.5l-24 41h-19q-7 -26 -26 -94t-40.5 -144t-25.5 -94l-28 -102q-89 0 -160 -14q51 145 100.5 300t110.5 371l86 301q5 18 11.5 44.5t12.5 44.5q60 203 60 215
q0 30 -43 30q-38 0 -74 -8zM334 502q210 -7 324.5 45.5t149 118t34.5 118.5q0 56 -54 56q-52 0 -125 -46.5t-106 -74.5q-53 -41 -134.5 -116.5t-88.5 -100.5z" />
    <glyph glyph-name="l" unicode="l" horiz-adv-x="512" 
d="M266 1274l17 61l41 11q134 41 178 57.5t121 54.5l26 -31q-14 -28 -39 -96q-40 -110 -82 -241q-9 -29 -29.5 -94.5t-37.5 -119t-45 -143.5l-68 -225q-10 -30 -24 -80q-21 -66 -45.5 -154t-24.5 -108q0 -27 22 -27q25 0 130 80q18 11 28 21l39 -43q-89 -94 -200 -160
t-150 -66q-22 0 -39.5 13t-17.5 39q0 53 96 346q15 45 57.5 183.5t66 219.5t53 181.5t77.5 265.5q6 30 6 32q0 33 -41 33q-32 0 -115 -10z" />
    <glyph glyph-name="m" unicode="m" horiz-adv-x="1556" 
d="M123 647l-35 41q111 124 208 183t132 59q19 0 32 -11t13 -34q0 -39 -21.5 -106.5t-86.5 -246.5q-10 -20 -25 -65l4 -4q87 125 169.5 214t155 144.5t129.5 82t91 26.5q84 0 84 -72q0 -48 -22 -125.5t-49.5 -153.5t-43.5 -112l4 -4q114 161 221.5 266.5t194.5 153t147 47.5
q88 0 88 -86q0 -62 -100 -359q-32 -96 -63 -193.5t-31 -121.5q0 -27 22 -27q29 0 73 31.5t81 65.5l41 -43q-134 -128 -222 -177t-130 -49q-58 0 -58 52q0 35 23.5 113t85 259.5t84 250t22.5 97.5q0 43 -34 43q-36 0 -99 -45t-130.5 -113.5t-110.5 -125.5q-55 -73 -88 -134
t-57 -127.5t-81 -240.5q-111 -2 -161 -14q94 270 196 612q25 80 25 135q0 49 -33 49q-27 0 -91 -45.5t-145 -130.5q-87 -91 -142 -182t-87 -179.5t-78 -244.5q-99 0 -159 -14q87 273 104 321l78 252q37 117 37 158q0 33 -21 33q-23 0 -73.5 -42t-67.5 -61z" />
    <glyph glyph-name="n" unicode="n" horiz-adv-x="1044" 
d="M985 240l39 -41q-97 -91 -189 -159.5t-163 -68.5q-28 0 -42 17.5t-14 36.5q0 35 23.5 111.5t80.5 242t84 250.5t27 123q0 18 -8.5 28.5t-21.5 10.5q-25 0 -70.5 -27.5t-97.5 -73.5t-119 -119q-74 -85 -114.5 -151t-67.5 -137.5t-70 -206.5q-18 -62 -24 -76
q-102 -2 -164 -14q18 53 67 209q6 18 21.5 67.5t19.5 63.5q81 245 97 311q16 53 16 86q0 25 -19 25q-24 0 -72.5 -40.5t-68.5 -62.5l-35 45q60 66 109 107t99.5 72.5t85 46t46.5 14.5q17 -1 30 -13t13 -32q0 -59 -45 -183t-94 -243l4 -4q78 110 165 210.5t198 182.5t209 82
q86 0 86 -84q0 -37 -19 -92q-4 -14 -44 -141.5t-54.5 -175.5t-38.5 -121.5t-31 -92.5q-8 -24 -8 -51q0 -31 20 -31q38 0 154 99z" />
    <glyph glyph-name="o" unicode="o" horiz-adv-x="897" 
d="M80 293q0 131 52 249t137 206t182.5 135t181.5 47q101 0 156.5 -59.5t74.5 -135.5t19 -141q0 -128 -50.5 -240.5t-135.5 -200t-184 -135t-187 -47.5q-128 0 -187 100t-59 222zM240 309q0 -88 36 -167t134 -79q87 0 159 77t114 201t42 253q0 83 -29 166.5t-131 83.5
q-88 0 -162.5 -88.5t-118.5 -216.5t-44 -230z" />
    <glyph glyph-name="p" unicode="p" horiz-adv-x="961" 
d="M127 641l-35 45q72 74 143 129.5t125.5 85t77.5 29.5q43 0 43 -43q0 -67 -100 -299l4 -4q78 109 157 188t143 118.5t101 39.5q50 0 89 -34t60 -91.5t21 -132.5q0 -129 -46.5 -254.5t-129 -227t-187 -160.5t-216.5 -59q-68 0 -144 41q-8 -38 -16 -55q-6 -23 -24.5 -87.5
t-29.5 -108.5t-11 -64q0 -24 26 -34.5t101 -24.5q10 -3 16.5 -4.5t9.5 -2.5l-16 -59q-140 10 -250 10q-102 0 -232 -10l17 59q2 1 11.5 3t14.5 4q46 11 69.5 16.5t32.5 8.5t21 13q34 37 88 224l146 485q94 310 94 338q0 25 -16 25q-32 0 -123 -78q-13 -14 -35 -29zM264 123
q24 -19 44.5 -32.5t49.5 -22.5t68 -9q76 0 144.5 53t117.5 138t77 185t28 192q0 57 -14.5 113.5t-61.5 56.5q-38 0 -103.5 -53t-115.5 -111q-44 -52 -83.5 -119t-76 -161.5t-74.5 -229.5z" />
    <glyph glyph-name="q" unicode="q" horiz-adv-x="918" 
d="M743 -369l-14 -59q-122 10 -237 10q-136 0 -279 -10l16 59q14 4 33 4q30 5 58 9.5t52.5 10t35.5 15.5q25 24 92 242q61 197 98 311l-4 4q-62 -68 -121.5 -124t-119.5 -94t-111 -38q-89 0 -131.5 80.5t-42.5 186.5q0 179 95.5 340t244.5 256.5t292 95.5q69 0 172 -27
q50 -12 80 -12l11 -25q-30 -49 -51.5 -102.5t-46.5 -131t-124 -394.5q-15 -52 -33.5 -113.5t-47.5 -159.5t-48.5 -171.5t-19.5 -88.5q0 -30 27.5 -45.5t123.5 -28.5zM774 807q-82 37 -141 37q-75 0 -147 -43.5t-131 -126.5t-91.5 -192t-32.5 -230q0 -51 17.5 -101.5
t68.5 -50.5q43 0 99 43t80 70q67 67 105.5 130t62.5 128t84 256q17 58 26 80z" />
    <glyph glyph-name="r" unicode="r" horiz-adv-x="682" 
d="M133 651l-37 45q244 234 334 234q39 0 39 -41q0 -31 -19 -99t-50 -158.5t-50.5 -142.5t-34.5 -88l4 -4q84 149 157 262.5t122.5 170.5t88 78.5t81.5 21.5q30 0 74 -21q-32 -63 -40.5 -84.5t-35.5 -93.5h-43q-14 29 -37 29q-35 0 -83 -50.5t-89.5 -111.5t-89.5 -141
q-64 -104 -93 -169.5t-71 -203.5q-16 -57 -27 -84q-58 0 -81 -2t-78 -12q17 54 78 245t103 329.5t42 158.5q0 35 -25 35q-16 0 -57 -32t-53 -44z" />
    <glyph glyph-name="s" unicode="s" horiz-adv-x="662" 
d="M647 690h-47q-6 59 -38.5 112.5t-121.5 53.5q-61 0 -101 -35t-40 -86q0 -23 11 -46.5t42 -58.5t86 -87q81 -78 122.5 -145.5t41.5 -135.5q0 -73 -48.5 -140.5t-132.5 -109t-183 -41.5q-94 0 -149.5 24.5t-106.5 63.5q53 96 86 177l26 -7q15 -65 31 -86q27 -34 76 -55.5
t98 -21.5q72 0 115 38t43 99q0 41 -31.5 93t-122.5 146q-83 89 -111 135t-28 99q0 66 43 125t119 94t168 35q116 0 208 -58q-7 -22 -24 -80t-31 -102z" />
    <glyph glyph-name="t" unicode="t" horiz-adv-x="575" 
d="M483 1145l56 -4q-52 -141 -86 -240q125 0 231 4l8 -18q-27 -38 -45 -76q-85 8 -219 6q-15 -48 -63 -211.5t-80.5 -287t-32.5 -150.5q0 -21 12 -27t21 -6q42 0 196 115l37 -39q-87 -84 -191 -162t-186 -78q-73 0 -73 72q0 22 11.5 69t24.5 90.5t25 82.5q6 21 15.5 51.5
t23.5 77t50 167t56 189.5q3 0 15 49q-45 0 -137 -6l14 61q81 27 149 77.5t168 193.5z" />
    <glyph glyph-name="u" unicode="u" horiz-adv-x="1044" 
d="M137 645l-35 45q113 120 208 180t132 60q17 0 29 -14.5t12 -36.5q0 -46 -35.5 -162t-68.5 -201q-111 -304 -111 -362q0 -41 37 -41q42 0 128.5 67.5t170.5 167.5q65 77 105.5 145.5t67 138t69.5 206.5l18 59q90 2 160 16q-2 -5 -69.5 -222.5t-82.5 -262.5
q-31 -110 -57 -188q-12 -45 -12 -70q0 -29 24 -29q26 0 136 80q3 2 11.5 9t10.5 8l35 -41q-97 -97 -170.5 -147t-115.5 -64.5t-64 -14.5q-19 0 -34 14t-15 35q0 34 15.5 89.5t43.5 130t76 194.5l-4 4q-136 -190 -289 -328.5t-289 -138.5q-30 0 -54 19.5t-24 60.5
q0 45 23 121q61 197 108 340.5t60 177.5q6 17 6 33q0 10 -5 16t-16 6q-29 0 -135 -100z" />
    <glyph glyph-name="v" unicode="v" horiz-adv-x="854" 
d="M129 664l-41 36q66 80 143 155t131 75q38 0 58 -49q26 -76 26 -267q0 -115 -12 -352l-4 -69l4 -5q64 76 106 127.5t98.5 130.5t91 146.5t34.5 118.5q0 50 -22 64t-52 16l-8 18q45 40 66.5 63t48.5 58q65 -18 86.5 -67.5t21.5 -88.5q0 -89 -57.5 -183.5t-161.5 -221.5
q-38 -46 -105 -124t-137.5 -155t-111.5 -119h-58q16 159 22.5 321.5t6.5 227.5q0 82 -8 165t-37 83q-20 0 -68.5 -44t-60.5 -60z" />
    <glyph glyph-name="w" unicode="w" 
d="M129 664l-43 43q14 14 51.5 53t82.5 79t84 65.5t63 25.5q51 0 65 -90t14 -234q0 -86 -3 -167.5t-5 -108.5l-4 -68l4 -4q37 58 53.5 83.5t47.5 73t108 167.5q29 44 63 98t56.5 88.5t48.5 74t59 87.5h64l-8 -371q-2 -85 -4 -197t-4 -192l4 -4q183 219 265.5 341.5
t82.5 203.5q0 41 -22 61.5t-52 18.5l-10 18q36 32 60.5 57t56.5 64q38 -9 60.5 -35.5t33 -59.5t10.5 -59q0 -62 -26.5 -121t-73.5 -127q-39 -57 -120 -155.5t-152 -180t-132.5 -148t-68.5 -73.5h-60l15 688l-5 5q-65 -102 -167 -261l-254 -385q-22 -26 -31 -47h-60
q29 277 29 549q0 96 -8 172t-35 76q-25 0 -110 -82q-16 -19 -23 -22z" />
    <glyph glyph-name="x" unicode="x" horiz-adv-x="918" 
d="M158 633l-43 41q31 48 88.5 110.5t111 104t84.5 41.5q38 0 60 -41t26 -70q45 -174 49.5 -192.5t12.5 -51.5q46 67 106 156.5t80 110.5q84 88 182 88q41 0 93 -21q-23 -62 -54 -164h-36q-21 52 -60 52q-46 0 -92 -56q-9 -11 -68 -89t-123 -183q28 -111 50.5 -193
t38.5 -116q12 -25 32 -25q43 0 154 133l45 -37q-205 -260 -297 -260q-31 0 -45 21q-37 44 -80 278q-2 11 -4.5 22t-3.5 15q-17 -17 -21 -31q-84 -115 -142.5 -179.5t-113 -95t-118.5 -30.5q-55 0 -111 37q34 63 70 146h16q18 -26 33.5 -39t44.5 -13q69 0 145 79.5t174 230.5
q-30 148 -77 293q-22 57 -50 57q-47 0 -137 -105q-16 -16 -20 -24z" />
    <glyph glyph-name="y" unicode="y" horiz-adv-x="938" 
d="M129 664l-41 38q74 91 152.5 159.5t121.5 68.5q34 0 54.5 -38.5t29.5 -82.5q18 -71 30.5 -164t18.5 -177t9.5 -172.5t3.5 -156.5h4q110 145 205.5 298t95.5 259q0 90 -74 92l-8 19q60 55 113 123q69 -22 87.5 -70.5t18.5 -91.5q0 -88 -51 -189.5t-221 -336.5
q-130 -181 -249.5 -325t-192.5 -212q-143 -135 -240 -135q-71 0 -137 51q41 64 71 135h17q22 -34 42 -48.5t60 -14.5q49 0 116 49t206 229q1 124 -7 269t-22.5 263.5t-36 189.5t-47.5 71q-25 0 -100 -72z" />
    <glyph glyph-name="z" unicode="z" horiz-adv-x="768" 
d="M195 641l-52 25q40 84 69.5 133t66 81.5t79.5 32.5q34 0 136 -30q87 -29 145 -29q79 0 184 59l33 -41q-142 -176 -461 -479q-168 -161 -194.5 -186.5t-91.5 -93.5l4 -4q53 34 93 53.5t87 19.5q27 0 65 -7.5t64 -14.5q128 -31 156 -31q36 0 67.5 35.5t73.5 103.5l51 -26
q-68 -142 -114.5 -199t-129.5 -57q-44 0 -188 32q-22 7 -69 16t-91 9q-85 0 -190 -57l-41 34q38 59 76 109t116 131.5t183 179.5q13 14 51.5 50.5t73 68.5t49.5 47l141 139l35 27l-4 4q-91 -47 -138 -47q-54 0 -100 19q-12 3 -36 10.5t-36 9.5q-15 6 -34 6
q-30 0 -54.5 -24.5t-62.5 -90.5z" />
    <glyph glyph-name="braceleft" unicode="{" horiz-adv-x="981" 
d="M864 -408v-34q-116 16 -201 75t-129.5 143.5t-44.5 170.5q0 63 21 155q25 94 25 154q0 68 -55 133.5t-173 81.5v39q80 11 132 47.5t74 82t22 85.5q0 35 -10.5 88.5t-14.5 65.5q-12 50 -16.5 92.5t-4.5 62.5q0 85 43.5 168.5t130 144.5t201.5 76v-37q-104 -25 -164.5 -83
t-60.5 -152q0 -51 25 -158q20 -93 20 -155q0 -83 -61 -182.5t-234 -159.5v-4q98 -35 165 -93.5t98.5 -124t31.5 -131.5q0 -62 -20 -155q-25 -103 -25 -158q0 -180 225 -238z" />
    <glyph glyph-name="bar" unicode="|" horiz-adv-x="1087" 
d="M573 1458h134v-1702h-134v1702z" />
    <glyph glyph-name="braceright" unicode="}" horiz-adv-x="981" 
d="M283 1389v34q117 -16 201 -75t128.5 -143.5t44.5 -170.5q0 -67 -20 -155q-25 -94 -25 -154q0 -66 54.5 -131.5t173.5 -83.5v-39q-118 -16 -173 -81.5t-55 -133.5q0 -34 10 -86t15 -68q20 -86 20 -155q0 -85 -43 -168t-129 -144t-202 -77v36q225 55 225 236q0 51 -25 158
q-20 93 -20 155q0 47 21 108t85.5 125.5t188.5 108.5v4q-146 53 -220.5 151t-74.5 198q0 62 20 155q25 103 25 158q0 64 -28.5 111t-78.5 78t-118 49z" />
    <glyph glyph-name="asciitilde" unicode="~" 
d="M1280 815h51q-3 -101 -40 -169t-95 -101t-123 -33q-37 0 -75.5 7.5t-100.5 31t-199 80.5q-152 63 -215 63q-95 0 -131 -53.5t-49 -126.5h-51q4 73 19.5 128.5t60.5 100.5q35 37 78 55.5t92 18.5q47 0 123 -21t258 -100q100 -42 142 -52.5t73 -10.5q64 0 117 40t65 142z
" />
    <glyph glyph-name="nbspace" unicode="&#xa0;" horiz-adv-x="479" 
 />
    <glyph glyph-name="exclamdown" unicode="&#xa1;" horiz-adv-x="532" 
d="M311 518h80q-2 -8 -51 -218.5t-91 -399t-71 -342.5q-63 -14 -105 -27.5t-106 -42.5l-22 20q41 108 105 279t138 375.5t107 302.5zM537 840q0 -78 -41 -112t-82 -34q-35 0 -60.5 27t-25.5 65q0 51 34 97.5t82 46.5q53 0 73 -32t20 -58z" />
    <glyph glyph-name="cent" unicode="&#xa2;" horiz-adv-x="725" 
d="M846 954h-58q-10 61 -35 106.5t-91 49.5l-218 -743q46 9 112.5 52t141.5 113l52 -49q-86 -86 -164 -143t-174 -86l-84 -289h-78l80 277q-96 3 -146.5 80.5t-50.5 177.5q0 113 38.5 225t105.5 204.5t153.5 159t173.5 93.5l64 217h77l-59 -201q72 5 123.5 -10t97.5 -41
q-28 -70 -38.5 -104.5t-22.5 -88.5zM369 375l209 719q-59 -29 -125 -106t-110 -190.5t-44 -238.5q0 -149 70 -184z" />
    <glyph glyph-name="sterling" unicode="&#xa3;" horiz-adv-x="1024" 
d="M1092 1133l-60 8q7 188 -141 188q-136 0 -187 -155.5t-65 -374.5q71 -1 111.5 0t132.5 6l10 -19q-34 -35 -57 -79q-117 6 -207 6q-7 -110 -26.5 -195t-51.5 -140t-81.5 -103t-129.5 -107q-7 -7 -25 -19t-22 -12l4 -4q124 55 174 55q26 0 49.5 -8.5t95.5 -38.5
q62 -26 101 -26q48 0 90 27.5t106 88.5l45 -45q-78 -91 -155 -156t-152 -65q-34 0 -65.5 8.5t-108.5 42.5q-92 43 -151 43q-115 0 -267 -96l-36 64q32 21 34 22q146 98 225.5 173t127.5 189.5t61 301.5q-133 0 -192 -6l-7 18q25 31 50 78q57 -4 149 -4q9 131 22 210
t49.5 150t108.5 135q61 54 136 83.5t151 29.5q126 0 240 -88q-41 -73 -53 -98t-33 -88z" />
    <glyph glyph-name="currency" unicode="&#xa4;" horiz-adv-x="1409" 
d="M1085 1024l127 127l88 -90l-126 -127q39 -56 65.5 -116.5t26.5 -153.5t-24 -149.5t-68 -123.5l126 -127l-88 -88l-127 125q-60 -41 -120 -65.5t-152 -24.5q-91 0 -150.5 24t-121.5 66l-127 -125l-90 88l129 127q-93 123 -93 273q0 91 25.5 152t65.5 120l-127 125l90 90
l127 -127q131 90 272 90q91 0 156 -26.5t116 -63.5zM1139 664q0 66 -25 125t-68.5 102.5t-105.5 69.5t-127 26q-89 0 -163.5 -43.5t-118.5 -117.5t-44 -162q0 -89 44 -164t118.5 -118.5t163.5 -43.5q65 0 125.5 25.5t105.5 70.5t70 104t25 126z" />
    <glyph glyph-name="yen" unicode="&#xa5;" horiz-adv-x="1300" 
d="M860 735l328 420q12 17 30.5 42t31 44t12.5 27q0 18 -17.5 25.5t-85.5 23.5q-20 5 -26 8l14 59q75 -6 116 -9t111 -3q124 0 240 12l-19 -61q-58 -9 -86.5 -17t-61 -30.5t-77 -72t-106.5 -126.5q-5 -8 -72.5 -89.5t-132.5 -162.5t-74 -90h453l-29 -86h-491l-25 -33
l-51 -170h514l-29 -86h-508l-53 -194q-13 -48 -5 -64t48 -22q89 -16 117 -23q24 -8 43 -8l-17 -59q-44 3 -108 6q-86 4 -166 4q-113 0 -367 -10l17 59q1 0 10 1.5l18 3t11 1.5q93 18 125 26.5t46 21.5t25 44l74 213h-494l29 86h487l64 203h-498l29 86h436q-9 32 -28 88.5
t-25 75.5q-3 10 -15.5 46.5t-13.5 39.5l-30 92q-13 42 -39 112t-37 83q-15 14 -42 22t-102 23q-23 5 -30 8l18 59q165 -12 262 -12q140 0 332 12l-14 -59q-21 -7 -39 -10q-26 -6 -66 -17.5t-60 -18.5t-28 -13q-16 -11 -16 -35q0 -9 5 -31t15 -59t15 -51z" />
    <glyph glyph-name="brokenbar" unicode="&#xa6;" horiz-adv-x="1087" 
d="M573 479h134v-723h-134v723zM573 1458h134v-725h-134v725z" />
    <glyph glyph-name="section" unicode="&#xa7;" horiz-adv-x="811" 
d="M872 1178l-59 8q4 12 4 47q0 61 -36 105t-115 44q-83 0 -130 -54.5t-47 -117.5q0 -56 27 -124.5t117 -211.5q81 -123 127 -239q26 -58 26 -127q0 -85 -60.5 -185.5t-256.5 -181.5q37 -56 66.5 -119.5t29.5 -127.5q0 -76 -48.5 -151.5t-131 -124t-180.5 -48.5
q-150 0 -268 115q29 35 62 82t56 83l37 -16q-11 -111 52 -145.5t110 -34.5q50 0 85.5 25.5t54 64t18.5 76.5q0 117 -146 348q-94 150 -122.5 226.5t-28.5 140.5q0 230 323 344q-48 83 -73 142t-25 126q0 88 56 159t143.5 111.5t173.5 40.5q88 0 147.5 -27.5t104.5 -66.5
q-36 -56 -51 -85.5t-42 -100.5zM473 819q-90 -34 -150.5 -81.5t-60.5 -143.5q0 -35 15 -81.5t47.5 -112t60.5 -113.5t51 -86q109 52 156 116t47 127q0 73 -44 163t-122 212z" />
    <glyph glyph-name="dieresis" unicode="&#xa8;" horiz-adv-x="682" 
d="M784 1335q31 0 53.5 -21.5t22.5 -60.5q0 -51 -32 -93t-76 -42q-36 0 -57 26.5t-21 63.5q0 47 32 87t78 40zM457 1335q30 0 52.5 -21t22.5 -61q0 -51 -32 -93t-76 -42q-36 0 -57 26.5t-21 63.5q0 47 32 87t79 40z" />
    <glyph glyph-name="copyright" unicode="&#xa9;" horiz-adv-x="1556" 
d="M1249 1135l19 -281h-39q-23 85 -89 160.5t-214 75.5q-94 0 -166.5 -45t-113 -134t-40.5 -211q0 -74 17.5 -162t91 -168.5t221.5 -80.5q194 0 313 162l37 -21q-72 -103 -165.5 -153t-217.5 -50q-105 0 -189.5 35.5t-147 100t-94.5 142.5t-32 167q0 91 35 174.5t100.5 149
t159.5 102.5t203 37q49 0 79.5 -7t104.5 -30q23 -8 37 -8q33 0 49 45h41zM897 1386q190 0 354.5 -94.5t260.5 -257t96 -356.5q0 -192 -95.5 -355t-259 -258.5t-356.5 -95.5q-192 0 -355 95.5t-258.5 258.5t-95.5 355q0 194 96 356.5t260 257t353 94.5zM897 1325
q-175 0 -324 -86.5t-236 -235t-87 -325.5t87 -325.5t237 -235t323 -86.5q174 0 324 86.5t237.5 235t87.5 325.5q0 133 -50 251t-140.5 208t-209.5 139t-249 49z" />
    <glyph glyph-name="ordfeminine" unicode="&#xaa;" horiz-adv-x="598" 
d="M758 1016l33 -39q-39 -35 -85.5 -68.5t-86 -53t-58.5 -19.5q-41 0 -41 41q0 28 25 96l-4 4q-129 -141 -215 -141q-52 0 -85.5 43t-33.5 110q0 106 61.5 204.5t165.5 159t219 60.5q55 0 135 -8l7 -25q-67 -122 -111 -293l-27 -90q-6 -18 -6 -22q0 -19 17 -19q5 0 16.5 7
t30 21t20.5 15q15 13 23 17zM649 1335q-40 15 -63 15q-64 0 -122.5 -51.5t-93 -131.5t-34.5 -157q0 -86 41 -86q23 0 72 41t88 94q18 27 29 48.5t25 61t58 166.5z" />
    <glyph glyph-name="guillemotleft" unicode="&#xab;" horiz-adv-x="682" 
d="M401 797h84q-19 -28 -26 -33q-56 -75 -109 -135q-102 -120 -129 -162l2 -21q16 -94 56 -321l4 -33h-72q-29 89 -72 203q-48 126 -69 192q66 66 178 166q64 57 125 115zM700 797h88q-32 -50 -131 -168l-116 -146q-3 -4 -29 -37q4 -19 5 -27t7 -38q6 -31 29 -148
q11 -53 18 -86.5t11 -54.5h-70q-25 51 -102 244q-40 89 -52 121q25 27 89 89t105 102t60 59q41 43 88 90z" />
    <glyph glyph-name="logicalnot" unicode="&#xac;" 
d="M248 956h1087v-589h-131v458h-956v131z" />
    <glyph glyph-name="registered" unicode="&#xae;" horiz-adv-x="1556" 
d="M506 1114h385q140 0 219.5 -62.5t79.5 -160.5q0 -166 -223 -223l209 -297q39 -55 64.5 -70.5t55.5 -17.5v-35h-182l-295 405h-76v-235q0 -70 4 -88.5t25 -32.5q22 -14 88 -14v-35h-366v35q72 0 88 27t16 110v522q0 85 -14 110.5t-78 26.5v35zM743 1055v-359h29
q100 0 178 40t78 143q0 51 -24.5 94t-70 69.5t-106.5 26.5q-44 0 -84 -14zM897 1386q190 0 354.5 -94.5t260.5 -257t96 -356.5q0 -192 -95.5 -355t-259 -258.5t-356.5 -95.5q-192 0 -355 95.5t-258.5 258.5t-95.5 355q0 194 96 356.5t260 257t353 94.5zM897 1325
q-175 0 -324 -86.5t-236 -235t-87 -325.5t87 -325.5t237 -235t323 -86.5q174 0 324 86.5t237.5 235t87.5 325.5q0 133 -50 251t-140.5 208t-209.5 139t-249 49z" />
    <glyph glyph-name="macron" unicode="&#xaf;" horiz-adv-x="682" 
d="M920 1290l-33 -119h-678l35 119h676z" />
    <glyph glyph-name="macron" unicode="&#x2c9;" horiz-adv-x="682" 
d="M920 1290l-33 -119h-678l35 119h676z" />
    <glyph glyph-name="degree" unicode="&#xb0;" horiz-adv-x="811" 
d="M604 1409q65 0 120 -23t98 -66t66 -98t23 -120q0 -83 -41 -154t-112 -112t-154 -41q-81 0 -152.5 41t-113 111.5t-41.5 154.5q0 83 41.5 153.5t112.5 112t153 41.5zM604 1325q-59 0 -110.5 -29.5t-82 -80.5t-30.5 -113q0 -60 29.5 -111.5t81 -81.5t112.5 -30
q60 0 111.5 30t81.5 81.5t30 111.5q0 62 -30.5 113t-82 80.5t-110.5 29.5z" />
    <glyph glyph-name="plusminus" unicode="&#xb1;" 
d="M248 90h1087v-131h-1087v131zM248 899h477v479h131v-479h479v-131h-479v-477h-131v477h-477v131z" />
    <glyph glyph-name="twosuperior" unicode="&#xb2;" horiz-adv-x="662" 
d="M385 1196h-53q32 86 53 164q102 51 186 51q85 0 138 -50.5t53 -125.5q0 -97 -78.5 -187.5t-255.5 -230.5q-14 -11 -31.5 -25t-23.5 -14v-4h145q72 0 94 10t47 52l13 18h55q-51 -102 -86 -197q-147 5 -205 5q-41 0 -120.5 -2t-137.5 -3l10 45q9 8 21.5 17.5t21.5 17.5
q205 164 304.5 265.5t99.5 185.5q0 59 -34.5 85.5t-74.5 26.5q-82 0 -141 -104z" />
    <glyph glyph-name="threesuperior" unicode="&#xb3;" horiz-adv-x="662" 
d="M440 1233h-45q20 63 35 133q82 39 164 39q67 0 115.5 -29t48.5 -98q0 -47 -35 -95t-113 -79q50 -16 83.5 -49t33.5 -111q0 -82 -45.5 -152.5t-122 -111.5t-164.5 -41q-81 0 -178 43q30 65 55 149h45q-4 -72 33.5 -98t73.5 -26q44 0 81.5 29.5t60 78t22.5 100.5
q0 65 -31 95.5t-66.5 35t-84.5 1.5l16 57q84 12 151.5 44.5t67.5 98.5q0 29 -21.5 50.5t-60.5 21.5q-46 0 -71.5 -23.5t-47.5 -62.5z" />
    <glyph glyph-name="acute" unicode="&#xb4;" horiz-adv-x="682" 
d="M504 1061h-53q2 6 29.5 77t55.5 141.5t29 74.5q4 14 21 55q124 -3 198 0l9 -16q-51 -51 -80 -82.5t-55 -62.5t-154 -187z" />
    <glyph glyph-name="mu" unicode="&#xb5;" horiz-adv-x="1024" 
d="M287 881h153l-147 -510q-1 -1 -2.5 -7t-5.5 -16q-2 -10 -4 -17t-2 -9q-29 -101 -29 -134q0 -37 18.5 -77.5t81.5 -40.5q49 0 107 33.5t121.5 129t113.5 269.5l111 379h151l-166 -578q-1 -2 -10 -31q-24 -72 -24 -118q0 -25 10 -52.5t47 -27.5q42 0 74.5 39t62.5 102h37
q-24 -69 -47.5 -112t-73.5 -80q-31 -23 -68 -35.5t-65 -12.5q-34 0 -82.5 31t-48.5 121q0 35 6 72l-4 4q-51 -78 -111 -131t-112.5 -75t-93.5 -22q-72 0 -104.5 28.5t-59.5 80.5q-22 -77 -28.5 -102.5t-12 -59t-12.5 -105t-9 -89.5q-15 -168 -108 -168q-45 0 -59.5 29
t-14.5 51q0 23 13 57t63 127q64 125 115 305l26 86z" />
    <glyph glyph-name="paragraph" unicode="&#xb6;" horiz-adv-x="918" 
d="M870 1300v-1742h-71v1742h-187v-1742h-73v1044q-265 9 -369 103q-59 53 -85 128t-26 148q0 108 49.5 193t150.5 133.5t249 48.5h496v-56h-134z" />
    <glyph glyph-name="cedilla" unicode="&#xb8;" horiz-adv-x="682" 
d="M342 23h76q-55 -69 -86 -101q71 -36 71 -106q0 -49 -40 -92t-107.5 -70.5t-151.5 -38.5l-8 51q75 20 132 54t57 69q0 12 -9 26.5t-30 14.5q-15 0 -35 -8l-14 33q69 59 145 168z" />
    <glyph glyph-name="onesuperior" unicode="&#xb9;" horiz-adv-x="662" 
d="M442 1276l13 45q134 39 239 90l27 -20q-25 -72 -59 -178t-64 -204t-41 -145q-7 -39 -20 -80q-9 -18 -9 -36q0 -22 20.5 -30t80.5 -20l-11 -43q-13 1 -38.5 2.5t-55 2.5t-63.5 2q-8 0 -195 -7l13 43q5 1 9.5 1.5t12.5 0.5q44 9 56 14t26 23q20 27 48.5 118t45.5 157
q4 11 24.5 83t28 97.5t13.5 40.5q2 8 3 13t2 9t1 11q0 20 -25 20q-17 0 -55 -6q-16 -4 -27 -4z" />
    <glyph glyph-name="ordmasculine" unicode="&#xba;" horiz-adv-x="639" 
d="M297 1032q0 104 57.5 191.5t143 138.5t164.5 51q100 0 137 -66t37 -137q0 -78 -34 -146t-90.5 -119.5t-121.5 -80t-125 -28.5q-86 0 -127 60t-41 136zM424 1042q0 -49 19.5 -94t76.5 -45q51 0 95 44.5t70 115t26 143.5q0 80 -29 111t-61 31q-50 0 -95 -49t-73.5 -121.5
t-28.5 -135.5z" />
    <glyph glyph-name="guillemotright" unicode="&#xbb;" horiz-adv-x="682" 
d="M346 92h-84q18 27 27 33q51 69 108 135q51 60 74 87.5t31 39t24 35.5l-2 20q-15 99 -55 322l-4 33h72q35 -109 71 -203q46 -123 70 -193q-57 -57 -178 -165q-44 -38 -125 -115zM47 92h-88q39 59 131 168l117 146q18 27 29 36q-2 10 -3.5 19t-4 20t-5.5 27q-8 50 -28 147
q-21 98 -29 142h70q12 -25 29 -66.5t42.5 -103t30.5 -74.5q39 -87 51 -121q-25 -27 -89 -89t-105 -102t-60 -59q-41 -43 -88 -90z" />
    <glyph glyph-name="onequarter" unicode="&#xbc;" horiz-adv-x="1599" 
d="M1479 225l10 -22q-25 -40 -43 -84q-60 6 -94 8q0 -15 -9 -33q-16 -62 -16 -74q0 -13 4.5 -18.5t12.5 -8t61 -13.5l22 -7l-10 -43q-23 1 -50 2.5t-64 3t-68 1.5q-30 -1 -69 -2t-60 -2.5t-41 -2.5l14 43q11 0 27 4q40 5 59 16.5t31.5 38t36.5 95.5q-141 5 -295 -8
q12 37 18.5 61t12.5 49q57 56 223 222l184 190q68 16 121 45l23 -16q-55 -152 -78 -228q-46 -159 -66 -223q62 0 103 6zM1348 514l-43 -43q-24 -25 -71 -73t-50 -52q-10 -11 -40 -40t-57 -56q-7 -6 -16.5 -16.5t-15.5 -12.5v-4q147 0 207 2l41 143q8 22 21 65t13 44
q11 33 15 39zM1358 1407h115l-1055 -1485h-111zM442 1276l13 45q134 39 239 90l27 -20q-25 -72 -59 -178t-64 -204t-41 -145q-7 -39 -20 -80q-9 -18 -9 -36q0 -22 20.5 -30t80.5 -20l-11 -43q-13 1 -38.5 2.5t-55 2.5t-63.5 2q-8 0 -195 -7l13 43q5 1 9.5 1.5t12.5 0.5
q44 9 56 14t26 23q20 27 48.5 118t45.5 157q4 11 24.5 83t28 97.5t13.5 40.5q2 8 3 13t2 9t1 11q0 20 -25 20q-17 0 -55 -6q-16 -4 -27 -4z" />
    <glyph glyph-name="onehalf" unicode="&#xbd;" horiz-adv-x="1599" 
d="M1358 1407h115l-1055 -1485h-111zM442 1276l13 45q134 39 239 90l27 -20q-25 -72 -59 -178t-64 -204t-41 -145q-7 -39 -20 -80q-9 -18 -9 -36q0 -22 20.5 -30t80.5 -20l-11 -43q-13 1 -38.5 2.5t-55 2.5t-63.5 2q-8 0 -195 -7l13 43q5 1 9.5 1.5t12.5 0.5q44 9 56 14
t26 23q20 27 48.5 118t45.5 157q4 11 24.5 83t28 97.5t13.5 40.5q2 8 3 13t2 9t1 11q0 20 -25 20q-17 0 -55 -6q-16 -4 -27 -4zM1112 473h-53q32 86 53 164q102 51 186 51q85 0 138 -50.5t53 -125.5q0 -97 -78.5 -187.5t-255.5 -230.5q-14 -11 -31.5 -25t-23.5 -14v-4h145
q72 0 94 10t47 52l13 18h55q-51 -102 -86 -197q-98 5 -205 5q-105 0 -258 -5l10 46q10 8 22 17t21 17q205 164 304.5 265.5t99.5 185.5q0 59 -34 86t-75 27q-82 0 -141 -105z" />
    <glyph glyph-name="threequarters" unicode="&#xbe;" horiz-adv-x="1599" 
d="M1479 225l10 -22q-25 -40 -43 -84q-60 6 -94 8q0 -15 -9 -33q-16 -62 -16 -74q0 -13 4.5 -18.5t12.5 -8t61 -13.5l22 -7l-10 -43q-23 1 -50 2.5t-64 3t-68 1.5q-30 -1 -69 -2t-60 -2.5t-41 -2.5l14 43q11 0 27 4q40 5 59 16.5t31.5 38t36.5 95.5q-141 5 -295 -8
q12 37 18.5 61t12.5 49q57 56 223 222l184 190q68 16 121 45l23 -16q-55 -152 -78 -228q-46 -159 -66 -223q62 0 103 6zM1348 514l-43 -43q-24 -25 -71 -73t-50 -52q-10 -11 -40 -40t-57 -56q-7 -6 -16.5 -16.5t-15.5 -12.5v-4q147 0 207 2l41 143q8 22 21 65t13 44
q11 33 15 39zM1358 1407h115l-1055 -1485h-111zM440 1233h-45q20 63 35 133q82 39 164 39q67 0 115.5 -29t48.5 -98q0 -47 -35 -95t-113 -79q50 -16 83.5 -49t33.5 -111q0 -82 -45.5 -152.5t-122 -111.5t-164.5 -41q-81 0 -178 43q30 65 55 149h45q-4 -72 33.5 -98t73.5 -26
q44 0 81.5 29.5t60 78t22.5 100.5q0 65 -31 95.5t-66.5 35t-84.5 1.5l16 57q84 12 151.5 44.5t67.5 98.5q0 29 -21.5 50.5t-60.5 21.5q-46 0 -71.5 -23.5t-47.5 -62.5z" />
    <glyph glyph-name="questiondown" unicode="&#xbf;" horiz-adv-x="811" 
d="M528 -213h62q-40 -140 -58 -211q-136 -88 -284 -88q-109 0 -184.5 60.5t-75.5 170.5q0 64 24.5 123.5t72 119t122.5 134.5q149 151 208.5 240.5t106.5 220.5h74q-36 -148 -99 -256.5t-155 -222.5q-109 -136 -148.5 -201.5t-39.5 -138.5q0 -69 43.5 -104t101.5 -35
q141 0 229 188zM713 840q0 -78 -40 -112t-81 -34q-35 0 -60.5 27t-25.5 65q0 52 33 98t86 46q47 0 67.5 -29t20.5 -61z" />
    <glyph glyph-name="Agrave" unicode="&#xc0;" 
d="M1298 49l-16 -59q-52 4 -104 6q-82 4 -156 4q-124 0 -336 -10l12 59q176 36 199 78q13 21 27 121t20 180q-118 4 -293 4q-78 0 -131 -4q-12 -16 -17.5 -23t-15.5 -20q-21 -28 -91.5 -124t-73.5 -101q-33 -41 -33 -60q0 -15 14 -23t84 -22q30 -6 31 -6l-17 -59
q-32 2 -108 6q-78 4 -127 4q-66 0 -229 -10l18 59q101 18 139.5 41.5t104.5 108.5q12 17 52.5 68.5t73 93.5t60.5 77l133 168q94 118 137.5 173t91 116.5t129 171t220.5 297.5q7 7 20 25t17 24h67q-1 -16 -9.5 -106.5t-14.5 -155.5q-7 -61 -16 -150t-14 -151.5t-12.5 -164.5
t-21.5 -282q-14 -226 -14 -258q0 -22 9 -34.5t48.5 -26.5t114.5 -29q30 -6 28 -6zM590 524h364l62 570l-4 4zM1272 1475h-53q-128 156 -154 187t-55 62.5t-80 82.5l8 16q75 -3 199 0q9 -23 11 -28.5t9 -26.5l34 -85t51.5 -131t29.5 -77z" />
    <glyph glyph-name="Aacute" unicode="&#xc1;" 
d="M1298 49l-16 -59q-52 4 -104 6q-82 4 -156 4q-124 0 -336 -10l12 59q176 36 199 78q13 21 27 121t20 180q-118 4 -293 4q-78 0 -131 -4q-12 -16 -17.5 -23t-15.5 -20q-21 -28 -91.5 -124t-73.5 -101q-33 -41 -33 -60q0 -15 14 -23t84 -22q30 -6 31 -6l-17 -59
q-32 2 -108 6q-78 4 -127 4q-66 0 -229 -10l18 59q101 18 139.5 41.5t104.5 108.5q12 17 52.5 68.5t73 93.5t60.5 77l133 168q94 118 137.5 173t91 116.5t129 171t220.5 297.5q7 7 20 25t17 24h67q-1 -16 -9.5 -106.5t-14.5 -155.5q-7 -61 -16 -150t-14 -151.5t-12.5 -164.5
t-21.5 -282q-14 -226 -14 -258q0 -22 9 -34.5t48.5 -26.5t114.5 -29q30 -6 28 -6zM590 524h364l62 570l-4 4zM1092 1475h-53q2 6 29.5 77t55.5 141.5t29 74.5q4 14 21 55q124 -3 198 0l9 -16q-51 -51 -80 -82.5t-55 -62.5t-154 -187z" />
    <glyph glyph-name="Acircumflex" unicode="&#xc2;" 
d="M1298 49l-16 -59q-52 4 -104 6q-82 4 -156 4q-124 0 -336 -10l12 59q176 36 199 78q13 21 27 121t20 180q-118 4 -293 4q-78 0 -131 -4q-12 -16 -17.5 -23t-15.5 -20q-21 -28 -91.5 -124t-73.5 -101q-33 -41 -33 -60q0 -15 14 -23t84 -22q30 -6 31 -6l-17 -59
q-32 2 -108 6q-78 4 -127 4q-66 0 -229 -10l18 59q101 18 139.5 41.5t104.5 108.5q12 17 52.5 68.5t73 93.5t60.5 77l133 168q94 118 137.5 173t91 116.5t129 171t220.5 297.5q7 7 20 25t17 24h67q-1 -16 -9.5 -106.5t-14.5 -155.5q-7 -61 -16 -150t-14 -151.5t-12.5 -164.5
t-21.5 -282q-14 -226 -14 -258q0 -22 9 -34.5t48.5 -26.5t114.5 -29q30 -6 28 -6zM590 524h364l62 570l-4 4zM1376 1475h-61q-9 12 -14 22l-66 97q-15 21 -24 34.5t-13.5 21.5t-9.5 15q-53 -36 -115 -84q-84 -65 -141 -106h-74q2 3 27 31q106 114 168 188q65 78 90 102
l33 -2t49 -2q26 0 72 4q6 -18 6 -28q7 -35 28 -122t35 -140q1 -2 4 -12t6 -19z" />
    <glyph glyph-name="Atilde" unicode="&#xc3;" 
d="M1298 49l-16 -59q-52 4 -104 6q-82 4 -156 4q-124 0 -336 -10l12 59q176 36 199 78q13 21 27 121t20 180q-118 4 -293 4q-78 0 -131 -4q-12 -16 -17.5 -23t-15.5 -20q-21 -28 -91.5 -124t-73.5 -101q-33 -41 -33 -60q0 -15 14 -23t84 -22q30 -6 31 -6l-17 -59
q-32 2 -108 6q-78 4 -127 4q-66 0 -229 -10l18 59q101 18 139.5 41.5t104.5 108.5q12 17 52.5 68.5t73 93.5t60.5 77l133 168q94 118 137.5 173t91 116.5t129 171t220.5 297.5q7 7 20 25t17 24h67q-1 -16 -9.5 -106.5t-14.5 -155.5q-7 -61 -16 -150t-14 -151.5t-12.5 -164.5
t-21.5 -282q-14 -226 -14 -258q0 -22 9 -34.5t48.5 -26.5t114.5 -29q30 -6 28 -6zM590 524h364l62 570l-4 4zM1455 1764h62q-45 -131 -98 -185.5t-95 -54.5q-40 0 -147 61q-95 52 -121 52q-59 0 -117 -113h-61q85 240 188 240q32 0 56 -10t106 -58q87 -45 119 -45
q34 0 57.5 29.5t50.5 83.5z" />
    <glyph glyph-name="Adieresis" unicode="&#xc4;" 
d="M1298 49l-16 -59q-52 4 -104 6q-82 4 -156 4q-124 0 -336 -10l12 59q176 36 199 78q13 21 27 121t20 180q-118 4 -293 4q-78 0 -131 -4q-12 -16 -17.5 -23t-15.5 -20q-21 -28 -91.5 -124t-73.5 -101q-33 -41 -33 -60q0 -15 14 -23t84 -22q30 -6 31 -6l-17 -59
q-32 2 -108 6q-78 4 -127 4q-66 0 -229 -10l18 59q101 18 139.5 41.5t104.5 108.5q12 17 52.5 68.5t73 93.5t60.5 77l133 168q94 118 137.5 173t91 116.5t129 171t220.5 297.5q7 7 20 25t17 24h67q-1 -16 -9.5 -106.5t-14.5 -155.5q-7 -61 -16 -150t-14 -151.5t-12.5 -164.5
t-21.5 -282q-14 -226 -14 -258q0 -22 9 -34.5t48.5 -26.5t114.5 -29q30 -6 28 -6zM590 524h364l62 570l-4 4zM1372 1749q31 0 53.5 -21.5t22.5 -60.5q0 -51 -32 -93t-76 -42q-36 0 -57 26.5t-21 63.5q0 47 32 87t78 40zM1045 1749q30 0 52.5 -21t22.5 -61q0 -51 -32 -93
t-76 -42q-36 0 -57 26.5t-21 63.5q0 47 32 87t79 40z" />
    <glyph glyph-name="Aring" unicode="&#xc5;" 
d="M1298 49l-16 -59q-52 4 -104 6q-82 4 -156 4q-124 0 -336 -10l12 59q176 36 199 78q13 21 27 121t20 180q-118 4 -293 4q-78 0 -131 -4q-12 -16 -17.5 -23t-15.5 -20q-21 -28 -91.5 -124t-73.5 -101q-33 -41 -33 -60q0 -15 14 -23t84 -22q30 -6 31 -6l-17 -59
q-32 2 -108 6q-78 4 -127 4q-66 0 -229 -10l18 59q101 18 139.5 41.5t104.5 108.5q12 17 52.5 68.5t73 93.5t60.5 77l133 168q94 118 137.5 173t91 116.5t129 171t220.5 297.5q7 7 20 25t17 24h67q-1 -16 -9.5 -106.5t-14.5 -155.5q-7 -61 -16 -150t-14 -151.5t-12.5 -164.5
t-21.5 -282q-14 -226 -14 -258q0 -22 9 -34.5t48.5 -26.5t114.5 -29q30 -6 28 -6zM590 524h364l62 570l-4 4zM1161 1848q55 0 101.5 -28t73 -75t26.5 -100t-27 -100t-74 -74t-100 -27q-54 0 -100 27t-73 74t-27 100q0 83 58 143t142 60zM1161 1762q-48 0 -83 -34t-35 -83
q0 -52 34.5 -85.5t83.5 -33.5q50 0 83.5 34.5t33.5 84.5t-34.5 83.5t-82.5 33.5z" />
    <glyph glyph-name="AE" unicode="&#xc6;" horiz-adv-x="2028" 
d="M969 1325l16 59q299 -12 565 -12q81 0 590 12q-37 -122 -45.5 -155.5t-36.5 -157.5q0 -15 -6 -33l-70 9q0 8 0.5 13.5t1.5 20t1.5 33t1.5 53.5q3 62 -7.5 85t-33.5 30q-9 3 -102 4.5t-165 1.5h-161l-29 -90q-85 -274 -107 -346q-7 -25 -13.5 -46t-12.5 -42h194
q70 0 99.5 8.5t50 37t65.5 114.5q3 8 8 16.5t7 11.5h63q-7 -21 -18.5 -60.5t-20.5 -66.5q-17 -57 -29.5 -99t-29.5 -102t-35 -130q-8 -28 -8 -33h-66q0 -9 13 157q5 42 -43 52q-43 6 -115 8t-158 2q-35 -122 -54.5 -195t-25.5 -90l-75 -274q0 -3 -3.5 -18t-3.5 -11h416
q56 0 83.5 4t57.5 26t65 73t75 127q19 34 22 43h76q-6 -21 -16 -41q-50 -136 -103 -304l-12 -30q-81 4 -342 8q-123 2 -270 2q-228 0 -463 -10l14 59q160 35 164 37q39 13 63 82q23 64 82 266q3 12 7.5 25t7.5 22h-496q-24 -24 -72 -78q-117 -132 -135 -149q-1 -1 -36 -40.5
t-60 -72t-25 -45.5q0 -10 7 -16t30.5 -11.5t69.5 -15.5q16 -4 22 -4l-16 -59q-25 2 -90 6q-78 4 -133 4q-67 0 -242 -10l17 59q63 10 96 23.5t71 45.5t117 113q108 111 191 199.5t251 270.5t303 331t150 166q37 41 37 59t-39 31t-110 29q-21 0 -37 8zM1124 575
q98 305 201 709l-4 4q-16 -19 -39.5 -45.5t-42 -48.5t-40 -45.5t-83.5 -91.5q-139 -152 -375 -418q-11 -11 -29 -32t-28 -32q45 -1 117 -1.5t162.5 0t160.5 1.5z" />
    <glyph glyph-name="Ccedilla" unicode="&#xc7;" horiz-adv-x="1280" 
d="M303 -430l-8 63q1 1 11 3t16 4q86 14 164.5 43t78.5 75q0 22 -12.5 33.5t-30.5 11.5q-17 0 -55 -12l-18 37q68 63 124 121l13 10q-215 15 -314.5 169t-99.5 325q0 183 70.5 356t198 311t290.5 215.5t338 77.5q198 0 385 -98q-26 -69 -50 -147.5t-54 -211.5l-76 5
q4 76 4 147q0 94 -27 129q-28 38 -89 59t-122 21q-132 0 -253 -72.5t-214 -193t-146.5 -271.5t-53.5 -299q0 -117 44.5 -204t118.5 -133t160 -46q116 0 229.5 55.5t248.5 147.5l49 -65q-151 -116 -271 -184.5t-252 -86.5q-34 -38 -57 -59q41 -13 69.5 -34.5t28.5 -74.5
q0 -48 -37 -95t-135.5 -84t-265.5 -48z" />
    <glyph glyph-name="Egrave" unicode="&#xc8;" horiz-adv-x="1280" 
d="M336 1325l16 59q120 -12 271 -12q127 0 253 0.5t261.5 2.5t255.5 9q-54 -175 -86 -344l-72 4q2 20 4 123q2 63 -7 86.5t-36 29t-100 5.5h-363q-19 -61 -39 -125.5t-47 -156.5q-36 -112 -51 -175l-10 -30t-13 -37h175q122 0 159 8q26 7 49 41.5t62 110.5l14 28h60
q-8 -31 -11 -39q-31 -105 -40.5 -139t-21 -74.5t-22.5 -84t-26 -99.5q-11 -33 -17 -57h-65q0 3 7 77.5t7 84.5q0 33 -21.5 44t-58.5 11q-22 0 -137 2t-135 2q-11 -39 -42 -153.5t-36 -129.5q-43 -150 -82 -307h432q86 0 124.5 11.5t70.5 52.5t92 151q7 15 18.5 34.5
t14.5 25.5h74q-59 -154 -115 -328l-15 -47q-63 2 -321 6q-262 4 -328 4q-91 0 -135 -0.5t-121 -2.5t-121 -4t-86 -3l19 59l37 8q69 14 106.5 24.5t50.5 23t25 42.5q25 65 62.5 191t86.5 301q41 150 75.5 275t60.5 221.5t26 107.5q0 28 -20 39q-27 15 -129 35q-28 4 -39 8z
M1106 1475h-53q-128 156 -154 187t-55 62.5t-80 82.5l8 16q75 -3 199 0q9 -23 11 -28.5t9 -26.5l34 -85t51.5 -131t29.5 -77z" />
    <glyph glyph-name="Eacute" unicode="&#xc9;" horiz-adv-x="1280" 
d="M336 1325l16 59q120 -12 271 -12q127 0 253 0.5t261.5 2.5t255.5 9q-54 -175 -86 -344l-72 4q2 20 4 123q2 63 -7 86.5t-36 29t-100 5.5h-363q-19 -61 -39 -125.5t-47 -156.5q-36 -112 -51 -175l-10 -30t-13 -37h175q122 0 159 8q26 7 49 41.5t62 110.5l14 28h60
q-8 -31 -11 -39q-31 -105 -40.5 -139t-21 -74.5t-22.5 -84t-26 -99.5q-11 -33 -17 -57h-65q0 3 7 77.5t7 84.5q0 33 -21.5 44t-58.5 11q-22 0 -137 2t-135 2q-11 -39 -42 -153.5t-36 -129.5q-43 -150 -82 -307h432q86 0 124.5 11.5t70.5 52.5t92 151q7 15 18.5 34.5
t14.5 25.5h74q-59 -154 -115 -328l-15 -47q-63 2 -321 6q-262 4 -328 4q-91 0 -135 -0.5t-121 -2.5t-121 -4t-86 -3l19 59l37 8q69 14 106.5 24.5t50.5 23t25 42.5q25 65 62.5 191t86.5 301q41 150 75.5 275t60.5 221.5t26 107.5q0 28 -20 39q-27 15 -129 35q-28 4 -39 8z
M926 1475h-53q2 6 29.5 77t55.5 141.5t29 74.5q4 14 21 55q124 -3 198 0l9 -16q-51 -51 -80 -82.5t-55 -62.5t-154 -187z" />
    <glyph glyph-name="Ecircumflex" unicode="&#xca;" horiz-adv-x="1280" 
d="M336 1325l16 59q120 -12 271 -12q127 0 253 0.5t261.5 2.5t255.5 9q-54 -175 -86 -344l-72 4q2 20 4 123q2 63 -7 86.5t-36 29t-100 5.5h-363q-19 -61 -39 -125.5t-47 -156.5q-36 -112 -51 -175l-10 -30t-13 -37h175q122 0 159 8q26 7 49 41.5t62 110.5l14 28h60
q-8 -31 -11 -39q-31 -105 -40.5 -139t-21 -74.5t-22.5 -84t-26 -99.5q-11 -33 -17 -57h-65q0 3 7 77.5t7 84.5q0 33 -21.5 44t-58.5 11q-22 0 -137 2t-135 2q-11 -39 -42 -153.5t-36 -129.5q-43 -150 -82 -307h432q86 0 124.5 11.5t70.5 52.5t92 151q7 15 18.5 34.5
t14.5 25.5h74q-59 -154 -115 -328l-15 -47q-63 2 -321 6q-262 4 -328 4q-91 0 -135 -0.5t-121 -2.5t-121 -4t-86 -3l19 59l37 8q69 14 106.5 24.5t50.5 23t25 42.5q25 65 62.5 191t86.5 301q41 150 75.5 275t60.5 221.5t26 107.5q0 28 -20 39q-27 15 -129 35q-28 4 -39 8z
M1210 1475h-61q-9 12 -14 22l-66 97q-15 21 -24 34.5t-13.5 21.5t-9.5 15q-53 -36 -115 -84q-84 -65 -141 -106h-74q2 3 27 31q106 114 168 188q65 78 90 102l33 -2t49 -2q26 0 72 4q6 -18 6 -28q7 -35 28 -122t35 -140q1 -2 4 -12t6 -19z" />
    <glyph glyph-name="Edieresis" unicode="&#xcb;" horiz-adv-x="1280" 
d="M336 1325l16 59q120 -12 271 -12q127 0 253 0.5t261.5 2.5t255.5 9q-54 -175 -86 -344l-72 4q2 20 4 123q2 63 -7 86.5t-36 29t-100 5.5h-363q-19 -61 -39 -125.5t-47 -156.5q-36 -112 -51 -175l-10 -30t-13 -37h175q122 0 159 8q26 7 49 41.5t62 110.5l14 28h60
q-8 -31 -11 -39q-31 -105 -40.5 -139t-21 -74.5t-22.5 -84t-26 -99.5q-11 -33 -17 -57h-65q0 3 7 77.5t7 84.5q0 33 -21.5 44t-58.5 11q-22 0 -137 2t-135 2q-11 -39 -42 -153.5t-36 -129.5q-43 -150 -82 -307h432q86 0 124.5 11.5t70.5 52.5t92 151q7 15 18.5 34.5
t14.5 25.5h74q-59 -154 -115 -328l-15 -47q-63 2 -321 6q-262 4 -328 4q-91 0 -135 -0.5t-121 -2.5t-121 -4t-86 -3l19 59l37 8q69 14 106.5 24.5t50.5 23t25 42.5q25 65 62.5 191t86.5 301q41 150 75.5 275t60.5 221.5t26 107.5q0 28 -20 39q-27 15 -129 35q-28 4 -39 8z
M1206 1749q31 0 53.5 -21.5t22.5 -60.5q0 -51 -32 -93t-76 -42q-36 0 -57 26.5t-21 63.5q0 47 32 87t78 40zM879 1749q30 0 52.5 -21t22.5 -61q0 -51 -32 -93t-76 -42q-36 0 -57 26.5t-21 63.5q0 47 32 87t79 40z" />
    <glyph glyph-name="Igrave" unicode="&#xcc;" horiz-adv-x="725" 
d="M963 1384l-19 -61q-2 -1 -11 -2.5t-18.5 -3t-11.5 -2.5q-97 -18 -127 -34.5t-45 -49.5q-27 -68 -76.5 -226.5t-99.5 -332t-78 -287.5q-1 -5 -33 -131t-32 -135q0 -15 12 -25q8 -7 147 -39l33 -6l-18 -59q-48 3 -119 6q-98 4 -180 4q-133 0 -301 -10l18 59q1 0 7 1.5t16 3
t20 3.5q90 17 117 30t45 38q23 35 92 270q3 12 36.5 128t41.5 145q21 75 45.5 160.5t36.5 132.5q54 194 69 264q5 15 5 28q0 20 -17 27q-10 5 -78.5 21.5t-93.5 21.5l16 61q162 -12 293 -12q180 0 308 12zM829 1475h-53q-128 156 -154 187t-55 62.5t-80 82.5l8 16
q75 -3 199 0q9 -23 11 -28.5t9 -26.5l34 -85t51.5 -131t29.5 -77z" />
    <glyph glyph-name="Iacute" unicode="&#xcd;" horiz-adv-x="725" 
d="M963 1384l-19 -61q-2 -1 -11 -2.5t-18.5 -3t-11.5 -2.5q-97 -18 -127 -34.5t-45 -49.5q-27 -68 -76.5 -226.5t-99.5 -332t-78 -287.5q-1 -5 -33 -131t-32 -135q0 -15 12 -25q8 -7 147 -39l33 -6l-18 -59q-48 3 -119 6q-98 4 -180 4q-133 0 -301 -10l18 59q1 0 7 1.5t16 3
t20 3.5q90 17 117 30t45 38q23 35 92 270q3 12 36.5 128t41.5 145q21 75 45.5 160.5t36.5 132.5q54 194 69 264q5 15 5 28q0 20 -17 27q-10 5 -78.5 21.5t-93.5 21.5l16 61q162 -12 293 -12q180 0 308 12zM649 1475h-53q2 6 29.5 77t55.5 141.5t29 74.5q4 14 21 55
q124 -3 198 0l9 -16q-51 -51 -80 -82.5t-55 -62.5t-154 -187z" />
    <glyph glyph-name="Icircumflex" unicode="&#xce;" horiz-adv-x="725" 
d="M963 1384l-19 -61q-2 -1 -11 -2.5t-18.5 -3t-11.5 -2.5q-97 -18 -127 -34.5t-45 -49.5q-27 -68 -76.5 -226.5t-99.5 -332t-78 -287.5q-1 -5 -33 -131t-32 -135q0 -15 12 -25q8 -7 147 -39l33 -6l-18 -59q-48 3 -119 6q-98 4 -180 4q-133 0 -301 -10l18 59q1 0 7 1.5t16 3
t20 3.5q90 17 117 30t45 38q23 35 92 270q3 12 36.5 128t41.5 145q21 75 45.5 160.5t36.5 132.5q54 194 69 264q5 15 5 28q0 20 -17 27q-10 5 -78.5 21.5t-93.5 21.5l16 61q162 -12 293 -12q180 0 308 12zM933 1475h-61q-9 12 -14 22l-66 97q-15 21 -24 34.5t-13.5 21.5
t-9.5 15q-53 -36 -115 -84q-84 -65 -141 -106h-74q2 3 27 31q106 114 168 188q65 78 90 102l33 -2t49 -2q26 0 72 4q6 -18 6 -28q7 -35 28 -122t35 -140q1 -2 4 -12t6 -19z" />
    <glyph glyph-name="Idieresis" unicode="&#xcf;" horiz-adv-x="725" 
d="M963 1384l-19 -61q-2 -1 -11 -2.5t-18.5 -3t-11.5 -2.5q-97 -18 -127 -34.5t-45 -49.5q-27 -68 -76.5 -226.5t-99.5 -332t-78 -287.5q-1 -5 -33 -131t-32 -135q0 -15 12 -25q8 -7 147 -39l33 -6l-18 -59q-48 3 -119 6q-98 4 -180 4q-133 0 -301 -10l18 59q1 0 7 1.5t16 3
t20 3.5q90 17 117 30t45 38q23 35 92 270q3 12 36.5 128t41.5 145q21 75 45.5 160.5t36.5 132.5q54 194 69 264q5 15 5 28q0 20 -17 27q-10 5 -78.5 21.5t-93.5 21.5l16 61q162 -12 293 -12q180 0 308 12zM929 1749q31 0 53.5 -21.5t22.5 -60.5q0 -51 -32 -93t-76 -42
q-36 0 -57 26.5t-21 63.5q0 47 32 87t78 40zM602 1749q30 0 52.5 -21t22.5 -61q0 -51 -32 -93t-76 -42q-36 0 -57 26.5t-21 63.5q0 47 32 87t79 40z" />
    <glyph glyph-name="Eth" unicode="&#xd0;" horiz-adv-x="1493" 
d="M365 680h-203l24 84h203q0 1 17 59q11 44 32 119q45 165 51 182q31 104 31 131q0 17 -16 27q-8 4 -57 16t-78 17q-5 2 -13.5 4t-16 3.5t-9.5 2.5l14 59q32 -2 53 -4t52 -4q86 -4 153 -4q74 0 236 6q72 6 186 6q229 0 378.5 -112.5t149.5 -378.5q0 -128 -42.5 -256.5
t-127.5 -245t-211 -209.5q-152 -114 -306 -154t-318 -40q-27 0 -191 8q-5 0 -66 2t-97 2q-66 0 -226 -10l19 59q6 0 49 10q90 19 114.5 30.5t40.5 37.5q32 47 105 305l53 186q0 15 8 31q9 27 9 31zM915 680h-370l-37 -131q-27 -84 -37 -131q-48 -173 -59.5 -216.5
t-28.5 -107.5q110 -12 197 -12q151 0 274 39.5t242 150.5q120 114 189 271t69 334q0 184 -76 276.5t-172 115.5t-209 23q-54 0 -83 -3t-95 -13l-19 -59q-11 -40 -32.5 -113.5t-40 -137t-30 -105.5t-28.5 -97h369z" />
    <glyph glyph-name="Ntilde" unicode="&#xd1;" horiz-adv-x="1493" 
d="M307 1325l19 59q94 -8 186 -8q105 0 195 8q64 -160 172 -444q33 -88 66 -174.5t51.5 -133t62.5 -157.5t74 -188h4q39 145 98 352q65 234 90 325t42.5 157.5t25.5 99.5q4 12 4 26q0 24 -20.5 35.5t-121.5 32.5q-6 2 -14.5 4t-13.5 3.5t-8 2.5l18 59q141 -12 279 -12
q147 0 237 12l-14 -59l-35 -8q-87 -15 -115.5 -28.5t-50.5 -45.5q-18 -28 -60 -157.5t-82.5 -269.5t-70.5 -241l-143 -514q-6 -21 -23 -94l-76 -8q-38 107 -57.5 159t-33 87.5t-70.5 181.5t-121 305l-43 107q-59 149 -135 348h-5l-20 -76q-56 -191 -66.5 -227.5
t-29.5 -104.5t-41 -147.5t-64 -235.5q-6 -24 -33.5 -128.5t-27.5 -108.5q0 -15 21.5 -27t54.5 -20t61 -15q5 -1 17 -3t19.5 -3.5t8.5 -1.5l-20 -59q-36 3 -97 6q-72 4 -139 4q-115 0 -278 -10l18 59q11 0 43 8q89 16 121 37.5t53 75.5q22 59 62.5 188t97 321t78.5 269
q30 110 80 277q4 16 4 30t-13 23q-14 10 -64.5 20t-94.5 15zM1353 1764h62q-45 -131 -98 -185.5t-95 -54.5q-40 0 -147 61q-95 52 -121 52q-59 0 -117 -113h-61q85 240 188 240q32 0 56 -10t106 -58q87 -45 119 -45q34 0 57.5 29.5t50.5 83.5z" />
    <glyph glyph-name="Ograve" unicode="&#xd2;" horiz-adv-x="1409" 
d="M166 455q0 177 71 350.5t193 310.5t280 217t322 80q199 0 317.5 -124t118.5 -365q0 -203 -74 -381t-199.5 -308.5t-283.5 -203t-321 -72.5q-178 0 -272.5 91.5t-123 202t-28.5 202.5zM365 477q0 -122 39.5 -216t112.5 -144.5t171 -50.5q155 0 289.5 128t214.5 327.5
t80 391.5q0 134 -40 225.5t-109 136t-154 44.5q-118 0 -229 -76t-195 -200.5t-132 -274t-48 -291.5zM1171 1475h-53q-128 156 -154 187t-55 62.5t-80 82.5l8 16q75 -3 199 0q9 -23 11 -28.5t9 -26.5l34 -85t51.5 -131t29.5 -77z" />
    <glyph glyph-name="Oacute" unicode="&#xd3;" horiz-adv-x="1409" 
d="M166 455q0 177 71 350.5t193 310.5t280 217t322 80q199 0 317.5 -124t118.5 -365q0 -203 -74 -381t-199.5 -308.5t-283.5 -203t-321 -72.5q-178 0 -272.5 91.5t-123 202t-28.5 202.5zM365 477q0 -122 39.5 -216t112.5 -144.5t171 -50.5q155 0 289.5 128t214.5 327.5
t80 391.5q0 134 -40 225.5t-109 136t-154 44.5q-118 0 -229 -76t-195 -200.5t-132 -274t-48 -291.5zM991 1475h-53q2 6 29.5 77t55.5 141.5t29 74.5q4 14 21 55q124 -3 198 0l9 -16q-51 -51 -80 -82.5t-55 -62.5t-154 -187z" />
    <glyph glyph-name="Ocircumflex" unicode="&#xd4;" horiz-adv-x="1409" 
d="M166 455q0 177 71 350.5t193 310.5t280 217t322 80q199 0 317.5 -124t118.5 -365q0 -203 -74 -381t-199.5 -308.5t-283.5 -203t-321 -72.5q-178 0 -272.5 91.5t-123 202t-28.5 202.5zM365 477q0 -122 39.5 -216t112.5 -144.5t171 -50.5q155 0 289.5 128t214.5 327.5
t80 391.5q0 134 -40 225.5t-109 136t-154 44.5q-118 0 -229 -76t-195 -200.5t-132 -274t-48 -291.5zM1275 1475h-61q-9 12 -14 22l-66 97q-15 21 -24 34.5t-13.5 21.5t-9.5 15q-53 -36 -115 -84q-84 -65 -141 -106h-74q2 3 27 31q106 114 168 188q65 78 90 102l33 -2t49 -2
q26 0 72 4q6 -18 6 -28q7 -35 28 -122t35 -140q1 -2 4 -12t6 -19z" />
    <glyph glyph-name="Otilde" unicode="&#xd5;" horiz-adv-x="1409" 
d="M166 455q0 177 71 350.5t193 310.5t280 217t322 80q199 0 317.5 -124t118.5 -365q0 -203 -74 -381t-199.5 -308.5t-283.5 -203t-321 -72.5q-178 0 -272.5 91.5t-123 202t-28.5 202.5zM365 477q0 -122 39.5 -216t112.5 -144.5t171 -50.5q155 0 289.5 128t214.5 327.5
t80 391.5q0 134 -40 225.5t-109 136t-154 44.5q-118 0 -229 -76t-195 -200.5t-132 -274t-48 -291.5zM1312 1764h62q-45 -131 -98 -185.5t-95 -54.5q-40 0 -147 61q-95 52 -121 52q-59 0 -117 -113h-61q85 240 188 240q32 0 56 -10t106 -58q87 -45 119 -45q34 0 57.5 29.5
t50.5 83.5z" />
    <glyph glyph-name="Odieresis" unicode="&#xd6;" horiz-adv-x="1409" 
d="M166 455q0 177 71 350.5t193 310.5t280 217t322 80q199 0 317.5 -124t118.5 -365q0 -203 -74 -381t-199.5 -308.5t-283.5 -203t-321 -72.5q-178 0 -272.5 91.5t-123 202t-28.5 202.5zM365 477q0 -122 39.5 -216t112.5 -144.5t171 -50.5q155 0 289.5 128t214.5 327.5
t80 391.5q0 134 -40 225.5t-109 136t-154 44.5q-118 0 -229 -76t-195 -200.5t-132 -274t-48 -291.5zM1271 1749q31 0 53.5 -21.5t22.5 -60.5q0 -51 -32 -93t-76 -42q-36 0 -57 26.5t-21 63.5q0 47 32 87t78 40zM944 1749q30 0 52.5 -21t22.5 -61q0 -51 -32 -93t-76 -42
q-36 0 -57 26.5t-21 63.5q0 47 32 87t79 40z" />
    <glyph glyph-name="multiply" unicode="&#xd7;" 
d="M791 754l409 409l92 -94l-409 -407l405 -406l-92 -92l-405 405l-404 -405l-92 92l403 406l-407 407l92 94z" />
    <glyph glyph-name="Oslash" unicode="&#xd8;" horiz-adv-x="1409" 
d="M264 113l-176 -162l-63 65l192 177q-51 118 -51 268q0 172 69.5 343t192 309.5t279 219t325.5 80.5q65 0 125.5 -14t117.5 -49t103 -99l170 158l62 -70l-187 -168q43 -104 43 -249q0 -199 -73 -375t-198.5 -308.5t-282.5 -206t-322 -73.5q-222 0 -326 154zM1264 1024
l-854 -778q38 -76 88 -116.5t95.5 -52t92.5 -11.5q118 0 225.5 75.5t189 202.5t126.5 275t45 292q0 22 -1.5 46.5t-3 37.5t-3.5 29zM377 338l860 786q-83 195 -268 195q-115 0 -225 -73.5t-197 -199t-136 -276.5t-49 -301q0 -63 15 -131z" />
    <glyph glyph-name="Ugrave" unicode="&#xd9;" horiz-adv-x="1493" 
d="M1763 1384l-16 -59q-9 -3 -39 -8q-61 -11 -94.5 -22.5t-55.5 -36.5t-35.5 -61.5t-41.5 -127.5q-57 -178 -80.5 -258t-36 -124.5t-57.5 -205.5q-34 -125 -86.5 -223.5t-122.5 -164t-166.5 -100t-216.5 -34.5q-157 0 -253 52.5t-137.5 134.5t-41.5 173q0 58 11 121.5
t42 179t84 302.5q11 41 22 80.5t21 77.5t26 102l13 41q0 2 2 14t2 20q0 18 -14 25q-13 6 -56 16.5t-69 14.5l-48 12l17 59q96 -6 149 -9t144 -3q98 0 155.5 3t149.5 9l-14 -59q-141 -28 -173 -41.5t-51 -56.5q-20 -53 -80 -252q-65 -217 -95.5 -327.5t-43 -176t-12.5 -129.5
q0 -91 40 -148.5t106 -83.5t147 -26q110 0 189 39.5t132 116t93.5 185t91.5 288.5q76 267 108.5 387.5t32.5 146.5q0 22 -25.5 36.5t-107.5 31.5q-22 3 -43 10l16 59q153 -12 262 -12q146 0 256 12zM1212 1475h-53q-128 156 -154 187t-55 62.5t-80 82.5l8 16q75 -3 199 0
q9 -23 11 -28.5t9 -26.5l34 -85t51.5 -131t29.5 -77z" />
    <glyph glyph-name="Uacute" unicode="&#xda;" horiz-adv-x="1493" 
d="M1763 1384l-16 -59q-9 -3 -39 -8q-61 -11 -94.5 -22.5t-55.5 -36.5t-35.5 -61.5t-41.5 -127.5q-57 -178 -80.5 -258t-36 -124.5t-57.5 -205.5q-34 -125 -86.5 -223.5t-122.5 -164t-166.5 -100t-216.5 -34.5q-157 0 -253 52.5t-137.5 134.5t-41.5 173q0 58 11 121.5
t42 179t84 302.5q11 41 22 80.5t21 77.5t26 102l13 41q0 2 2 14t2 20q0 18 -14 25q-13 6 -56 16.5t-69 14.5l-48 12l17 59q96 -6 149 -9t144 -3q98 0 155.5 3t149.5 9l-14 -59q-141 -28 -173 -41.5t-51 -56.5q-20 -53 -80 -252q-65 -217 -95.5 -327.5t-43 -176t-12.5 -129.5
q0 -91 40 -148.5t106 -83.5t147 -26q110 0 189 39.5t132 116t93.5 185t91.5 288.5q76 267 108.5 387.5t32.5 146.5q0 22 -25.5 36.5t-107.5 31.5q-22 3 -43 10l16 59q153 -12 262 -12q146 0 256 12zM1032 1475h-53q2 6 29.5 77t55.5 141.5t29 74.5q4 14 21 55q124 -3 198 0
l9 -16q-51 -51 -80 -82.5t-55 -62.5t-154 -187z" />
    <glyph glyph-name="Ucircumflex" unicode="&#xdb;" horiz-adv-x="1493" 
d="M1763 1384l-16 -59q-9 -3 -39 -8q-61 -11 -94.5 -22.5t-55.5 -36.5t-35.5 -61.5t-41.5 -127.5q-57 -178 -80.5 -258t-36 -124.5t-57.5 -205.5q-34 -125 -86.5 -223.5t-122.5 -164t-166.5 -100t-216.5 -34.5q-157 0 -253 52.5t-137.5 134.5t-41.5 173q0 58 11 121.5
t42 179t84 302.5q11 41 22 80.5t21 77.5t26 102l13 41q0 2 2 14t2 20q0 18 -14 25q-13 6 -56 16.5t-69 14.5l-48 12l17 59q96 -6 149 -9t144 -3q98 0 155.5 3t149.5 9l-14 -59q-141 -28 -173 -41.5t-51 -56.5q-20 -53 -80 -252q-65 -217 -95.5 -327.5t-43 -176t-12.5 -129.5
q0 -91 40 -148.5t106 -83.5t147 -26q110 0 189 39.5t132 116t93.5 185t91.5 288.5q76 267 108.5 387.5t32.5 146.5q0 22 -25.5 36.5t-107.5 31.5q-22 3 -43 10l16 59q153 -12 262 -12q146 0 256 12zM1316 1475h-61q-9 12 -14 22l-66 97q-15 21 -24 34.5t-13.5 21.5t-9.5 15
q-53 -36 -115 -84q-84 -65 -141 -106h-74q2 3 27 31q106 114 168 188q65 78 90 102l33 -2t49 -2q26 0 72 4q6 -18 6 -28q7 -35 28 -122t35 -140q1 -2 4 -12t6 -19z" />
    <glyph glyph-name="Udieresis" unicode="&#xdc;" horiz-adv-x="1493" 
d="M1763 1384l-16 -59q-9 -3 -39 -8q-61 -11 -94.5 -22.5t-55.5 -36.5t-35.5 -61.5t-41.5 -127.5q-57 -178 -80.5 -258t-36 -124.5t-57.5 -205.5q-34 -125 -86.5 -223.5t-122.5 -164t-166.5 -100t-216.5 -34.5q-157 0 -253 52.5t-137.5 134.5t-41.5 173q0 58 11 121.5
t42 179t84 302.5q11 41 22 80.5t21 77.5t26 102l13 41q0 2 2 14t2 20q0 18 -14 25q-13 6 -56 16.5t-69 14.5l-48 12l17 59q96 -6 149 -9t144 -3q98 0 155.5 3t149.5 9l-14 -59q-141 -28 -173 -41.5t-51 -56.5q-20 -53 -80 -252q-65 -217 -95.5 -327.5t-43 -176t-12.5 -129.5
q0 -91 40 -148.5t106 -83.5t147 -26q110 0 189 39.5t132 116t93.5 185t91.5 288.5q76 267 108.5 387.5t32.5 146.5q0 22 -25.5 36.5t-107.5 31.5q-22 3 -43 10l16 59q153 -12 262 -12q146 0 256 12zM1312 1749q31 0 53.5 -21.5t22.5 -60.5q0 -51 -32 -93t-76 -42
q-36 0 -57 26.5t-21 63.5q0 47 32 87t78 40zM985 1749q30 0 52.5 -21t22.5 -61q0 -51 -32 -93t-76 -42q-36 0 -57 26.5t-21 63.5q0 47 32 87t79 40z" />
    <glyph glyph-name="Yacute" unicode="&#xdd;" horiz-adv-x="1300" 
d="M303 1325l19 59q8 0 72.5 -4.5t105 -6t84.5 -1.5q139 0 331 12l-14 -59q-21 -7 -39 -10q-136 -37 -151 -49q-19 -13 -19 -35q0 -36 58 -219l86 -277q15 18 27 33t58.5 74.5t133.5 171.5q65 82 168 221q4 4 9 15t5 18q0 18 -17 25.5t-85 23.5q-20 4 -27 8l14 59
q147 -12 228 -12q125 0 239 12l-18 -61q-80 -13 -115 -28t-84 -65t-149 -175q-36 -41 -164 -201q-135 -164 -191 -238q-3 -10 -9 -30.5t-13.5 -46.5t-20 -69t-37.5 -130q-4 -12 -21 -76.5t-25.5 -99t-8.5 -41.5q0 -21 12 -29.5t39 -13.5q52 -6 117 -23q24 -8 45 -8l-18 -59
q-42 3 -107 6q-90 4 -168 4q-110 0 -366 -10l16 59q1 0 10.5 1.5t18.5 3t10 1.5q128 25 154.5 37t44.5 55q23 60 147 469q8 20 8 29t-2.5 17.5t-5.5 15t-10 22.5q-30 83 -88 271q-22 70 -59.5 177.5t-53.5 123.5q-15 14 -39.5 21.5t-103.5 23.5q-25 5 -31 8zM936 1475h-53
q2 6 29.5 77t55.5 141.5t29 74.5q4 14 21 55q124 -3 198 0l9 -16q-51 -51 -80 -82.5t-55 -62.5t-154 -187z" />
    <glyph glyph-name="Thorn" unicode="&#xde;" horiz-adv-x="1343" 
d="M362 1325l17 59q165 -12 303 -12q134 0 293 12l-17 -59q-80 -13 -120.5 -24t-62.5 -29t-35 -50t-35 -104l-15 -43h320q160 0 246.5 -75t86.5 -214q0 -96 -42 -184.5t-114.5 -153.5t-166.5 -104q-59 -23 -153.5 -36t-153.5 -13h-246q-4 -18 -7.5 -29t-6.5 -24
q-29 -108 -29 -123q0 -28 33 -35q2 0 11.5 -1.5t18.5 -3l9 -1.5q12 -4 20 -4l154 -25l-19 -59q-45 3 -123 6q-106 4 -215 4q-170 0 -313 -10l16 59l23 4q66 9 103.5 18.5t56.5 24.5q47 35 116 297q28 87 97 348q8 28 46 166t46 164q9 42 33 119l8 33q4 16 4 28
q0 22 -24 33.5t-85 24.5l-57 12q-7 0 -21 4zM575 692l-67 -239q-5 -13 -19 -70h154q184 0 262 31q81 29 137.5 84.5t84.5 124.5t28 141q0 99 -48.5 149t-107.5 61t-131 11h-204q-8 -26 -27.5 -90.5t-61.5 -202.5z" />
    <glyph glyph-name="germandbls" unicode="&#xdf;" horiz-adv-x="938" 
d="M162 813l10 47q81 26 147 53q29 109 43 155.5t37 93.5t53.5 84t79.5 77q167 135 316 135q105 0 143.5 -52t38.5 -106q0 -67 -38 -129.5t-86.5 -107t-80.5 -66.5q-95 -71 -125 -108.5t-30 -69.5q0 -50 112 -241q61 -109 86 -181q17 -51 17 -94q0 -50 -23.5 -108
t-70 -109.5t-116 -83t-151.5 -31.5q-110 0 -205 64q38 62 53.5 92t35.5 84h26q7 -48 16.5 -77.5t40 -53t87.5 -23.5q87 0 126 54t39 114q0 48 -20.5 105.5t-71.5 140.5q-71 119 -92.5 173t-21.5 87q0 36 11 66.5t50 80.5t117 128q55 55 108.5 126.5t53.5 141.5
q0 45 -24 74.5t-75 29.5q-61 0 -120.5 -53t-102.5 -166q-16 -42 -32.5 -96t-44.5 -153.5t-65.5 -239t-113.5 -418.5q-9 -42 -16 -62q-42 -157 -73.5 -245t-67.5 -144.5t-83 -99.5q-65 -59 -138 -95t-128 -36q-58 0 -137 53q40 56 74 133h24q24 -37 48 -57.5t77 -20.5
q67 0 110.5 62.5t83 194.5t113.5 436q48 196 61.5 251t21.5 86.5t14 53.5q2 10 4 18.5t3.5 13.5t4 14.5t2.5 10.5q-56 3 -135 -6z" />
    <glyph glyph-name="agrave" unicode="&#xe0;" horiz-adv-x="961" 
d="M905 244l33 -43q-60 -60 -131.5 -115t-126.5 -85t-78 -30q-47 0 -47 58q0 28 16.5 92.5t22.5 73.5q9 36 20 69l-4 4q-84 -107 -188 -202t-189 -95q-67 0 -116 65.5t-49 190.5q0 128 53.5 254t147.5 227t217 161.5t259 60.5q16 0 97.5 -10t93.5 -11l12 -24
q-58 -120 -109 -274t-81.5 -277t-30.5 -146q0 -41 25 -41q32 0 131 78q16 16 22 19zM760 817q-77 25 -121 25q-82 0 -156 -50.5t-131 -137t-90 -193.5t-33 -211q0 -79 26.5 -116.5t53.5 -37.5q39 0 119.5 66t149.5 170q45 65 75 145.5t86 272.5q2 5 10.5 32t10.5 35z
M862 1052h-53q-128 156 -154 187t-55 62.5t-80 82.5l8 16q75 -3 199 0q9 -23 11 -28.5t9 -26.5l34 -85t51.5 -131t29.5 -77z" />
    <glyph glyph-name="aacute" unicode="&#xe1;" horiz-adv-x="961" 
d="M905 244l33 -43q-60 -60 -131.5 -115t-126.5 -85t-78 -30q-47 0 -47 58q0 28 16.5 92.5t22.5 73.5q9 36 20 69l-4 4q-84 -107 -188 -202t-189 -95q-67 0 -116 65.5t-49 190.5q0 128 53.5 254t147.5 227t217 161.5t259 60.5q16 0 97.5 -10t93.5 -11l12 -24
q-58 -120 -109 -274t-81.5 -277t-30.5 -146q0 -41 25 -41q32 0 131 78q16 16 22 19zM760 817q-77 25 -121 25q-82 0 -156 -50.5t-131 -137t-90 -193.5t-33 -211q0 -79 26.5 -116.5t53.5 -37.5q39 0 119.5 66t149.5 170q45 65 75 145.5t86 272.5q2 5 10.5 32t10.5 35z
M643 1061h-53q2 6 29.5 77t55.5 141.5t29 74.5q4 14 21 55q124 -3 198 0l9 -16q-51 -51 -80 -82.5t-55 -62.5t-154 -187z" />
    <glyph glyph-name="acircumflex" unicode="&#xe2;" horiz-adv-x="961" 
d="M905 244l33 -43q-60 -60 -131.5 -115t-126.5 -85t-78 -30q-47 0 -47 58q0 28 16.5 92.5t22.5 73.5q9 36 20 69l-4 4q-84 -107 -188 -202t-189 -95q-67 0 -116 65.5t-49 190.5q0 128 53.5 254t147.5 227t217 161.5t259 60.5q16 0 97.5 -10t93.5 -11l12 -24
q-58 -120 -109 -274t-81.5 -277t-30.5 -146q0 -41 25 -41q32 0 131 78q16 16 22 19zM760 817q-77 25 -121 25q-82 0 -156 -50.5t-131 -137t-90 -193.5t-33 -211q0 -79 26.5 -116.5t53.5 -37.5q39 0 119.5 66t149.5 170q45 65 75 145.5t86 272.5q2 5 10.5 32t10.5 35z
M927 1061h-61q-9 12 -14 22l-66 97q-15 21 -24 34.5t-13.5 21.5t-9.5 15q-53 -36 -115 -84q-84 -65 -141 -106h-74q2 3 27 31q106 114 168 188q65 78 90 102l33 -2t49 -2q26 0 72 4q6 -18 6 -28q7 -35 28 -122t35 -140q1 -2 4 -12t6 -19z" />
    <glyph glyph-name="atilde" unicode="&#xe3;" horiz-adv-x="961" 
d="M905 244l33 -43q-60 -60 -131.5 -115t-126.5 -85t-78 -30q-47 0 -47 58q0 28 16.5 92.5t22.5 73.5q9 36 20 69l-4 4q-84 -107 -188 -202t-189 -95q-67 0 -116 65.5t-49 190.5q0 128 53.5 254t147.5 227t217 161.5t259 60.5q16 0 97.5 -10t93.5 -11l12 -24
q-58 -120 -109 -274t-81.5 -277t-30.5 -146q0 -41 25 -41q32 0 131 78q16 16 22 19zM760 817q-77 25 -121 25q-82 0 -156 -50.5t-131 -137t-90 -193.5t-33 -211q0 -79 26.5 -116.5t53.5 -37.5q39 0 119.5 66t149.5 170q45 65 75 145.5t86 272.5q2 5 10.5 32t10.5 35z
M964 1350h62q-45 -131 -98 -185.5t-95 -54.5q-40 0 -147 61q-95 52 -121 52q-59 0 -117 -113h-61q85 240 188 240q32 0 56 -10t106 -58q87 -45 119 -45q34 0 57.5 29.5t50.5 83.5z" />
    <glyph glyph-name="adieresis" unicode="&#xe4;" horiz-adv-x="961" 
d="M905 244l33 -43q-60 -60 -131.5 -115t-126.5 -85t-78 -30q-47 0 -47 58q0 28 16.5 92.5t22.5 73.5q9 36 20 69l-4 4q-84 -107 -188 -202t-189 -95q-67 0 -116 65.5t-49 190.5q0 128 53.5 254t147.5 227t217 161.5t259 60.5q16 0 97.5 -10t93.5 -11l12 -24
q-58 -120 -109 -274t-81.5 -277t-30.5 -146q0 -41 25 -41q32 0 131 78q16 16 22 19zM760 817q-77 25 -121 25q-82 0 -156 -50.5t-131 -137t-90 -193.5t-33 -211q0 -79 26.5 -116.5t53.5 -37.5q39 0 119.5 66t149.5 170q45 65 75 145.5t86 272.5q2 5 10.5 32t10.5 35z
M923 1335q31 0 53.5 -21.5t22.5 -60.5q0 -51 -32 -93t-76 -42q-36 0 -57 26.5t-21 63.5q0 47 32 87t78 40zM596 1335q30 0 52.5 -21t22.5 -61q0 -51 -32 -93t-76 -42q-36 0 -57 26.5t-21 63.5q0 47 32 87t79 40z" />
    <glyph glyph-name="aring" unicode="&#xe5;" horiz-adv-x="961" 
d="M905 244l33 -43q-60 -60 -131.5 -115t-126.5 -85t-78 -30q-47 0 -47 58q0 28 16.5 92.5t22.5 73.5q9 36 20 69l-4 4q-84 -107 -188 -202t-189 -95q-67 0 -116 65.5t-49 190.5q0 128 53.5 254t147.5 227t217 161.5t259 60.5q16 0 97.5 -10t93.5 -11l12 -24
q-58 -120 -109 -274t-81.5 -277t-30.5 -146q0 -41 25 -41q32 0 131 78q16 16 22 19zM760 817q-77 25 -121 25q-82 0 -156 -50.5t-131 -137t-90 -193.5t-33 -211q0 -79 26.5 -116.5t53.5 -37.5q39 0 119.5 66t149.5 170q45 65 75 145.5t86 272.5q2 5 10.5 32t10.5 35z
M712 1434q55 0 101.5 -28t73 -75t26.5 -100t-27 -100t-74 -74t-100 -27q-54 0 -100 27t-73 74t-27 100q0 83 58 143t142 60zM712 1348q-48 0 -83 -34t-35 -83q0 -52 34.5 -85.5t83.5 -33.5q50 0 83.5 34.5t33.5 84.5t-34.5 83.5t-82.5 33.5z" />
    <glyph glyph-name="ae" unicode="&#xe6;" horiz-adv-x="1280" 
d="M1159 231l39 -57q-118 -94 -211 -148.5t-190 -54.5q-79 0 -119.5 49t-53 108t-14.5 118q-118 -129 -207 -202t-178 -73q-92 0 -127 85t-35 163q0 115 48 238.5t137.5 230t209 169.5t255.5 63q52 0 92 -5.5t115 -15.5l10 -22q-22 -41 -43 -93l4 -4q53 53 133.5 101.5
t179.5 48.5q137 0 137 -121q0 -63 -44 -140.5t-170 -150t-353 -104.5q-14 -61 -14 -129q0 -105 35 -149t82 -44q70 0 139.5 41t142.5 98zM762 799q-31 19 -59 29t-70 10q-91 0 -166.5 -54.5t-129 -142.5t-82 -191.5t-28.5 -193.5q0 -158 84 -158q61 0 178 117
q64 65 99.5 117t78.5 165t95 302zM793 483q149 18 240 73.5t127 119t36 108.5q0 39 -22 52.5t-44 13.5q-37 0 -83.5 -25.5t-96 -74.5t-90 -116.5t-67.5 -150.5z" />
    <glyph glyph-name="ccedilla" unicode="&#xe7;" horiz-adv-x="725" 
d="M772 686h-59q-26 154 -133 154q-73 0 -157.5 -76.5t-142 -204t-57.5 -272.5q0 -61 22 -127t93 -66q103 0 287 168l51 -49q-94 -94 -176 -149.5t-135 -73.5q-27 -31 -70 -74q84 -27 84 -96q0 -102 -100.5 -154.5t-253.5 -93.5l-15 55q73 25 144 63t71 85q0 19 -15 31
t-36 12q-18 0 -35 -6l-18 28q76 66 139 131q-100 1 -150.5 80t-50.5 178q0 128 50.5 256.5t135.5 228.5t189.5 158t210.5 58q62 0 101.5 -14t87.5 -39q-26 -63 -34.5 -88.5t-27.5 -102.5z" />
    <glyph glyph-name="egrave" unicode="&#xe8;" horiz-adv-x="748" 
d="M623 233l41 -57q-252 -205 -402 -205q-77 0 -120.5 44.5t-58.5 106t-15 118.5q0 133 53 258t144 223.5t199 153.5t214 55q49 0 88 -25.5t39 -87.5q0 -97 -73 -183.5t-169 -129.5q-78 -37 -158.5 -57.5t-158.5 -32.5q0 -4 -6.5 -51.5t-6.5 -81.5q0 -69 22.5 -129t88.5 -60
q97 0 279 141zM266 485q238 42 315.5 134.5t77.5 166.5q0 68 -63 68q-69 0 -166.5 -85.5t-163.5 -283.5zM717 1061h-53q-128 156 -154 187t-55 62.5t-80 82.5l8 16q75 -3 199 0q9 -23 11 -28.5t9 -26.5l34 -85t51.5 -131t29.5 -77z" />
    <glyph glyph-name="eacute" unicode="&#xe9;" horiz-adv-x="748" 
d="M623 233l41 -57q-252 -205 -402 -205q-77 0 -120.5 44.5t-58.5 106t-15 118.5q0 133 53 258t144 223.5t199 153.5t214 55q49 0 88 -25.5t39 -87.5q0 -97 -73 -183.5t-169 -129.5q-78 -37 -158.5 -57.5t-158.5 -32.5q0 -4 -6.5 -51.5t-6.5 -81.5q0 -69 22.5 -129t88.5 -60
q97 0 279 141zM266 485q238 42 315.5 134.5t77.5 166.5q0 68 -63 68q-69 0 -166.5 -85.5t-163.5 -283.5zM537 1061h-53q2 6 29.5 77t55.5 141.5t29 74.5q4 14 21 55q124 -3 198 0l9 -16q-51 -51 -80 -82.5t-55 -62.5t-154 -187z" />
    <glyph glyph-name="ecircumflex" unicode="&#xea;" horiz-adv-x="748" 
d="M623 233l41 -57q-252 -205 -402 -205q-77 0 -120.5 44.5t-58.5 106t-15 118.5q0 133 53 258t144 223.5t199 153.5t214 55q49 0 88 -25.5t39 -87.5q0 -97 -73 -183.5t-169 -129.5q-78 -37 -158.5 -57.5t-158.5 -32.5q0 -4 -6.5 -51.5t-6.5 -81.5q0 -69 22.5 -129t88.5 -60
q97 0 279 141zM266 485q238 42 315.5 134.5t77.5 166.5q0 68 -63 68q-69 0 -166.5 -85.5t-163.5 -283.5zM821 1061h-61q-9 12 -14 22l-66 97q-15 21 -24 34.5t-13.5 21.5t-9.5 15q-53 -36 -115 -84q-84 -65 -141 -106h-74q2 3 27 31q106 114 168 188q65 78 90 102l33 -2
t49 -2q26 0 72 4q6 -18 6 -28q7 -35 28 -122t35 -140q1 -2 4 -12t6 -19z" />
    <glyph glyph-name="edieresis" unicode="&#xeb;" horiz-adv-x="748" 
d="M623 233l41 -57q-252 -205 -402 -205q-77 0 -120.5 44.5t-58.5 106t-15 118.5q0 133 53 258t144 223.5t199 153.5t214 55q49 0 88 -25.5t39 -87.5q0 -97 -73 -183.5t-169 -129.5q-78 -37 -158.5 -57.5t-158.5 -32.5q0 -4 -6.5 -51.5t-6.5 -81.5q0 -69 22.5 -129t88.5 -60
q97 0 279 141zM266 485q238 42 315.5 134.5t77.5 166.5q0 68 -63 68q-69 0 -166.5 -85.5t-163.5 -283.5zM817 1335q31 0 53.5 -21.5t22.5 -60.5q0 -51 -32 -93t-76 -42q-36 0 -57 26.5t-21 63.5q0 47 32 87t78 40zM490 1335q30 0 52.5 -21t22.5 -61q0 -51 -32 -93t-76 -42
q-36 0 -57 26.5t-21 63.5q0 47 32 87t79 40z" />
    <glyph glyph-name="igrave" unicode="&#xec;" horiz-adv-x="555" 
d="M469 240l39 -43q-91 -87 -192 -156.5t-156 -69.5q-22 0 -39 17t-17 43q0 39 29 129l74 207q7 23 62 191t55 175q0 25 -21 25q-15 0 -50 -25.5t-60 -54.5l-27 -27l-37 41q107 110 199 174t139 64q41 0 41 -39q0 -23 -23 -99.5t-59.5 -187.5t-56.5 -170q-26 -68 -56 -162
t-30 -114q0 -25 20 -25q38 0 137 86q5 3 15 10.5zM621 1061h-53q-128 156 -154 187t-55 62.5t-80 82.5l8 16q75 -3 199 0q9 -23 11 -28.5t9 -26.5l34 -85t51.5 -131t29.5 -77z" />
    <glyph glyph-name="iacute" unicode="&#xed;" horiz-adv-x="555" 
d="M469 240l39 -43q-91 -87 -192 -156.5t-156 -69.5q-22 0 -39 17t-17 43q0 39 29 129l74 207q7 23 62 191t55 175q0 25 -21 25q-15 0 -50 -25.5t-60 -54.5l-27 -27l-37 41q107 110 199 174t139 64q41 0 41 -39q0 -23 -23 -99.5t-59.5 -187.5t-56.5 -170q-26 -68 -56 -162
t-30 -114q0 -25 20 -25q38 0 137 86q5 3 15 10.5zM441 1061h-53q2 6 29.5 77t55.5 141.5t29 74.5q4 14 21 55q124 -3 198 0l9 -16q-51 -51 -80 -82.5t-55 -62.5t-154 -187z" />
    <glyph glyph-name="icircumflex" unicode="&#xee;" horiz-adv-x="555" 
d="M469 240l39 -43q-91 -87 -192 -156.5t-156 -69.5q-22 0 -39 17t-17 43q0 39 29 129l74 207q7 23 62 191t55 175q0 25 -21 25q-15 0 -50 -25.5t-60 -54.5l-27 -27l-37 41q107 110 199 174t139 64q41 0 41 -39q0 -23 -23 -99.5t-59.5 -187.5t-56.5 -170q-26 -68 -56 -162
t-30 -114q0 -25 20 -25q38 0 137 86q5 3 15 10.5zM725 1061h-61q-9 12 -14 22l-66 97q-15 21 -24 34.5t-13.5 21.5t-9.5 15q-53 -36 -115 -84q-84 -65 -141 -106h-74q2 3 27 31q106 114 168 188q65 78 90 102l33 -2t49 -2q26 0 72 4q6 -18 6 -28q7 -35 28 -122t35 -140
q1 -2 4 -12t6 -19z" />
    <glyph glyph-name="idieresis" unicode="&#xef;" horiz-adv-x="555" 
d="M469 240l39 -43q-91 -87 -192 -156.5t-156 -69.5q-22 0 -39 17t-17 43q0 39 29 129l74 207q7 23 62 191t55 175q0 25 -21 25q-15 0 -50 -25.5t-60 -54.5l-27 -27l-37 41q107 110 199 174t139 64q41 0 41 -39q0 -23 -23 -99.5t-59.5 -187.5t-56.5 -170q-26 -68 -56 -162
t-30 -114q0 -25 20 -25q38 0 137 86q5 3 15 10.5zM721 1335q31 0 53.5 -21.5t22.5 -60.5q0 -51 -32 -93t-76 -42q-36 0 -57 26.5t-21 63.5q0 47 32 87t78 40zM394 1335q30 0 52.5 -21t22.5 -61q0 -51 -32 -93t-76 -42q-36 0 -57 26.5t-21 63.5q0 47 32 87t79 40z" />
    <glyph glyph-name="eth" unicode="&#xf0;" horiz-adv-x="918" 
d="M442 1094l-36 65l204 113q-44 74 -94 139l47 47q47 -41 70 -68t57 -75l221 123l35 -66l-211 -119q42 -64 71.5 -127.5t51.5 -136.5t32.5 -146t10.5 -145q0 -159 -49 -292.5t-134.5 -232t-187.5 -150.5t-204 -52q-130 0 -185 102.5t-55 221.5q0 115 46.5 226t122 198.5
t164.5 139.5t165 52q48 0 81.5 -16.5t75.5 -46.5q-6 90 -32 186.5t-66 169.5zM735 604q0 105 -36.5 175.5t-125.5 70.5q-77 0 -153.5 -84.5t-125 -213.5t-48.5 -253q0 -95 42.5 -165.5t121.5 -70.5q102 0 176 92t111.5 219.5t37.5 229.5z" />
    <glyph glyph-name="ntilde" unicode="&#xf1;" horiz-adv-x="1044" 
d="M985 240l39 -41q-97 -91 -189 -159.5t-163 -68.5q-28 0 -42 17.5t-14 36.5q0 35 23.5 111.5t80.5 242t84 250.5t27 123q0 18 -8.5 28.5t-21.5 10.5q-25 0 -70.5 -27.5t-97.5 -73.5t-119 -119q-74 -85 -114.5 -151t-67.5 -137.5t-70 -206.5q-18 -62 -24 -76
q-102 -2 -164 -14q18 53 67 209q6 18 21.5 67.5t19.5 63.5q81 245 97 311q16 53 16 86q0 25 -19 25q-24 0 -72.5 -40.5t-68.5 -62.5l-35 45q60 66 109 107t99.5 72.5t85 46t46.5 14.5q17 -1 30 -13t13 -32q0 -59 -45 -183t-94 -243l4 -4q78 110 165 210.5t198 182.5t209 82
q86 0 86 -84q0 -37 -19 -92q-4 -14 -44 -141.5t-54.5 -175.5t-38.5 -121.5t-31 -92.5q-8 -24 -8 -51q0 -31 20 -31q38 0 154 99zM1007 1350h62q-45 -131 -98 -185.5t-95 -54.5q-40 0 -147 61q-95 52 -121 52q-59 0 -117 -113h-61q85 240 188 240q32 0 56 -10t106 -58
q87 -45 119 -45q34 0 57.5 29.5t50.5 83.5z" />
    <glyph glyph-name="ograve" unicode="&#xf2;" horiz-adv-x="897" 
d="M80 293q0 131 52 249t137 206t182.5 135t181.5 47q101 0 156.5 -59.5t74.5 -135.5t19 -141q0 -128 -50.5 -240.5t-135.5 -200t-184 -135t-187 -47.5q-128 0 -187 100t-59 222zM240 309q0 -88 36 -167t134 -79q87 0 159 77t114 201t42 253q0 83 -29 166.5t-131 83.5
q-88 0 -162.5 -88.5t-118.5 -216.5t-44 -230zM793 1061h-53q-128 156 -154 187t-55 62.5t-80 82.5l8 16q75 -3 199 0q9 -23 11 -28.5t9 -26.5l34 -85t51.5 -131t29.5 -77z" />
    <glyph glyph-name="oacute" unicode="&#xf3;" horiz-adv-x="897" 
d="M80 293q0 131 52 249t137 206t182.5 135t181.5 47q101 0 156.5 -59.5t74.5 -135.5t19 -141q0 -128 -50.5 -240.5t-135.5 -200t-184 -135t-187 -47.5q-128 0 -187 100t-59 222zM240 309q0 -88 36 -167t134 -79q87 0 159 77t114 201t42 253q0 83 -29 166.5t-131 83.5
q-88 0 -162.5 -88.5t-118.5 -216.5t-44 -230zM613 1061h-53q2 6 29.5 77t55.5 141.5t29 74.5q4 14 21 55q124 -3 198 0l9 -16q-51 -51 -80 -82.5t-55 -62.5t-154 -187z" />
    <glyph glyph-name="ocircumflex" unicode="&#xf4;" horiz-adv-x="897" 
d="M80 293q0 131 52 249t137 206t182.5 135t181.5 47q101 0 156.5 -59.5t74.5 -135.5t19 -141q0 -128 -50.5 -240.5t-135.5 -200t-184 -135t-187 -47.5q-128 0 -187 100t-59 222zM240 309q0 -88 36 -167t134 -79q87 0 159 77t114 201t42 253q0 83 -29 166.5t-131 83.5
q-88 0 -162.5 -88.5t-118.5 -216.5t-44 -230zM897 1061h-61q-9 12 -14 22l-66 97q-15 21 -24 34.5t-13.5 21.5t-9.5 15q-53 -36 -115 -84q-84 -65 -141 -106h-74q2 3 27 31q106 114 168 188q65 78 90 102l33 -2t49 -2q26 0 72 4q6 -18 6 -28q7 -35 28 -122t35 -140
q1 -2 4 -12t6 -19z" />
    <glyph glyph-name="otilde" unicode="&#xf5;" horiz-adv-x="897" 
d="M80 293q0 131 52 249t137 206t182.5 135t181.5 47q101 0 156.5 -59.5t74.5 -135.5t19 -141q0 -128 -50.5 -240.5t-135.5 -200t-184 -135t-187 -47.5q-128 0 -187 100t-59 222zM240 309q0 -88 36 -167t134 -79q87 0 159 77t114 201t42 253q0 83 -29 166.5t-131 83.5
q-88 0 -162.5 -88.5t-118.5 -216.5t-44 -230zM934 1350h62q-45 -131 -98 -185.5t-95 -54.5q-40 0 -147 61q-95 52 -121 52q-59 0 -117 -113h-61q85 240 188 240q32 0 56 -10t106 -58q87 -45 119 -45q34 0 57.5 29.5t50.5 83.5z" />
    <glyph glyph-name="odieresis" unicode="&#xf6;" horiz-adv-x="897" 
d="M80 293q0 131 52 249t137 206t182.5 135t181.5 47q101 0 156.5 -59.5t74.5 -135.5t19 -141q0 -128 -50.5 -240.5t-135.5 -200t-184 -135t-187 -47.5q-128 0 -187 100t-59 222zM240 309q0 -88 36 -167t134 -79q87 0 159 77t114 201t42 253q0 83 -29 166.5t-131 83.5
q-88 0 -162.5 -88.5t-118.5 -216.5t-44 -230zM893 1335q31 0 53.5 -21.5t22.5 -60.5q0 -51 -32 -93t-76 -42q-36 0 -57 26.5t-21 63.5q0 47 32 87t78 40zM566 1335q30 0 52.5 -21t22.5 -61q0 -51 -32 -93t-76 -42q-36 0 -57 26.5t-21 63.5q0 47 32 87t79 40z" />
    <glyph glyph-name="divide" unicode="&#xf7;" 
d="M874 1120q0 -33 -24.5 -58.5t-58.5 -25.5t-59 26t-25 58q0 34 25 60t59 26t58.5 -25.5t24.5 -60.5zM248 727h1087v-131h-1087v131zM874 203q0 -35 -24.5 -60.5t-58.5 -25.5t-59 26t-25 60t25 59t59 25t58.5 -24.5t24.5 -59.5z" />
    <glyph glyph-name="oslash" unicode="&#xf8;" horiz-adv-x="897" 
d="M139 70l-119 -111l-47 51l131 127q-24 87 -24 162q0 128 50.5 242t136 202.5t181.5 137.5t185 49q129 0 190 -105l111 107l53 -51l-129 -125q25 -74 25 -162q0 -128 -50.5 -240.5t-135.5 -200t-184 -135t-187 -47.5q-64 0 -106.5 22.5t-80.5 76.5zM725 629l-467 -445
q44 -121 152 -121q69 0 130 50t105 135t65 185t15 196zM242 268l469 451q-20 69 -60.5 97t-85.5 28q-72 0 -134.5 -58.5t-107 -150t-66 -193t-15.5 -174.5z" />
    <glyph glyph-name="ugrave" unicode="&#xf9;" horiz-adv-x="1044" 
d="M137 645l-35 45q113 120 208 180t132 60q17 0 29 -14.5t12 -36.5q0 -46 -35.5 -162t-68.5 -201q-111 -304 -111 -362q0 -41 37 -41q42 0 128.5 67.5t170.5 167.5q65 77 105.5 145.5t67 138t69.5 206.5l18 59q90 2 160 16q-2 -5 -69.5 -222.5t-82.5 -262.5
q-31 -110 -57 -188q-12 -45 -12 -70q0 -29 24 -29q26 0 136 80q3 2 11.5 9t10.5 8l35 -41q-97 -97 -170.5 -147t-115.5 -64.5t-64 -14.5q-19 0 -34 14t-15 35q0 34 15.5 89.5t43.5 130t76 194.5l-4 4q-136 -190 -289 -328.5t-289 -138.5q-30 0 -54 19.5t-24 60.5
q0 45 23 121q61 197 108 340.5t60 177.5q6 17 6 33q0 10 -5 16t-16 6q-29 0 -135 -100zM866 1061h-53q-128 156 -154 187t-55 62.5t-80 82.5l8 16q75 -3 199 0q9 -23 11 -28.5t9 -26.5l34 -85t51.5 -131t29.5 -77z" />
    <glyph glyph-name="uacute" unicode="&#xfa;" horiz-adv-x="1044" 
d="M137 645l-35 45q113 120 208 180t132 60q17 0 29 -14.5t12 -36.5q0 -46 -35.5 -162t-68.5 -201q-111 -304 -111 -362q0 -41 37 -41q42 0 128.5 67.5t170.5 167.5q65 77 105.5 145.5t67 138t69.5 206.5l18 59q90 2 160 16q-2 -5 -69.5 -222.5t-82.5 -262.5
q-31 -110 -57 -188q-12 -45 -12 -70q0 -29 24 -29q26 0 136 80q3 2 11.5 9t10.5 8l35 -41q-97 -97 -170.5 -147t-115.5 -64.5t-64 -14.5q-19 0 -34 14t-15 35q0 34 15.5 89.5t43.5 130t76 194.5l-4 4q-136 -190 -289 -328.5t-289 -138.5q-30 0 -54 19.5t-24 60.5
q0 45 23 121q61 197 108 340.5t60 177.5q6 17 6 33q0 10 -5 16t-16 6q-29 0 -135 -100zM686 1061h-53q2 6 29.5 77t55.5 141.5t29 74.5q4 14 21 55q124 -3 198 0l9 -16q-51 -51 -80 -82.5t-55 -62.5t-154 -187z" />
    <glyph glyph-name="ucircumflex" unicode="&#xfb;" horiz-adv-x="1044" 
d="M137 645l-35 45q113 120 208 180t132 60q17 0 29 -14.5t12 -36.5q0 -46 -35.5 -162t-68.5 -201q-111 -304 -111 -362q0 -41 37 -41q42 0 128.5 67.5t170.5 167.5q65 77 105.5 145.5t67 138t69.5 206.5l18 59q90 2 160 16q-2 -5 -69.5 -222.5t-82.5 -262.5
q-31 -110 -57 -188q-12 -45 -12 -70q0 -29 24 -29q26 0 136 80q3 2 11.5 9t10.5 8l35 -41q-97 -97 -170.5 -147t-115.5 -64.5t-64 -14.5q-19 0 -34 14t-15 35q0 34 15.5 89.5t43.5 130t76 194.5l-4 4q-136 -190 -289 -328.5t-289 -138.5q-30 0 -54 19.5t-24 60.5
q0 45 23 121q61 197 108 340.5t60 177.5q6 17 6 33q0 10 -5 16t-16 6q-29 0 -135 -100zM970 1061h-61q-9 12 -14 22l-66 97q-15 21 -24 34.5t-13.5 21.5t-9.5 15q-53 -36 -115 -84q-84 -65 -141 -106h-74q2 3 27 31q106 114 168 188q65 78 90 102l33 -2t49 -2q26 0 72 4
q6 -18 6 -28q7 -35 28 -122t35 -140q1 -2 4 -12t6 -19z" />
    <glyph glyph-name="udieresis" unicode="&#xfc;" horiz-adv-x="1044" 
d="M137 645l-35 45q113 120 208 180t132 60q17 0 29 -14.5t12 -36.5q0 -46 -35.5 -162t-68.5 -201q-111 -304 -111 -362q0 -41 37 -41q42 0 128.5 67.5t170.5 167.5q65 77 105.5 145.5t67 138t69.5 206.5l18 59q90 2 160 16q-2 -5 -69.5 -222.5t-82.5 -262.5
q-31 -110 -57 -188q-12 -45 -12 -70q0 -29 24 -29q26 0 136 80q3 2 11.5 9t10.5 8l35 -41q-97 -97 -170.5 -147t-115.5 -64.5t-64 -14.5q-19 0 -34 14t-15 35q0 34 15.5 89.5t43.5 130t76 194.5l-4 4q-136 -190 -289 -328.5t-289 -138.5q-30 0 -54 19.5t-24 60.5
q0 45 23 121q61 197 108 340.5t60 177.5q6 17 6 33q0 10 -5 16t-16 6q-29 0 -135 -100zM966 1335q31 0 53.5 -21.5t22.5 -60.5q0 -51 -32 -93t-76 -42q-36 0 -57 26.5t-21 63.5q0 47 32 87t78 40zM639 1335q30 0 52.5 -21t22.5 -61q0 -51 -32 -93t-76 -42q-36 0 -57 26.5
t-21 63.5q0 47 32 87t79 40z" />
    <glyph glyph-name="yacute" unicode="&#xfd;" horiz-adv-x="938" 
d="M129 664l-41 38q74 91 152.5 159.5t121.5 68.5q34 0 54.5 -38.5t29.5 -82.5q18 -71 30.5 -164t18.5 -177t9.5 -172.5t3.5 -156.5h4q110 145 205.5 298t95.5 259q0 90 -74 92l-8 19q60 55 113 123q69 -22 87.5 -70.5t18.5 -91.5q0 -88 -51 -189.5t-221 -336.5
q-130 -181 -249.5 -325t-192.5 -212q-143 -135 -240 -135q-71 0 -137 51q41 64 71 135h17q22 -34 42 -48.5t60 -14.5q49 0 116 49t206 229q1 124 -7 269t-22.5 263.5t-36 189.5t-47.5 71q-25 0 -100 -72zM633 1061h-53q2 6 29.5 77t55.5 141.5t29 74.5q4 14 21 55
q124 -3 198 0l9 -16q-51 -51 -80 -82.5t-55 -62.5t-154 -187z" />
    <glyph glyph-name="thorn" unicode="&#xfe;" horiz-adv-x="961" 
d="M309 1278l19 61q187 47 334 119l28 -26q-41 -86 -131 -357l-139 -436l4 -4q43 60 110.5 129.5t136.5 117.5t115 48q50 0 89 -34t60 -91.5t21 -132.5q0 -129 -46.5 -254.5t-129 -227t-187 -160.5t-216.5 -59q-68 0 -144 41q-8 -38 -16 -55q-6 -23 -24.5 -87.5
t-29.5 -108.5t-11 -64q0 -16 11 -26.5t43.5 -19.5t72.5 -16q23 -5 26 -6l-16 -59q-168 12 -250 12q-76 0 -232 -12l17 59q2 1 12 3t14 3q78 18 93 22.5t30 18.5q34 37 88 224q52 173 82 272.5t37 123t19 64.5q34 114 59 199t41 141q125 418 154 529q6 24 6 33q0 28 -33 28
q-9 0 -44 -3.5t-73 -8.5zM264 123q24 -19 44.5 -32.5t49.5 -22.5t68 -9q76 0 144.5 53t117.5 138t77 185t28 192q0 57 -14.5 113.5t-61.5 56.5q-38 0 -103.5 -53t-115.5 -111q-69 -78 -124.5 -196.5t-109.5 -313.5z" />
    <glyph glyph-name="ydieresis" unicode="&#xff;" horiz-adv-x="938" 
d="M129 664l-41 38q74 91 152.5 159.5t121.5 68.5q34 0 54.5 -38.5t29.5 -82.5q18 -71 30.5 -164t18.5 -177t9.5 -172.5t3.5 -156.5h4q110 145 205.5 298t95.5 259q0 90 -74 92l-8 19q60 55 113 123q69 -22 87.5 -70.5t18.5 -91.5q0 -88 -51 -189.5t-221 -336.5
q-130 -181 -249.5 -325t-192.5 -212q-143 -135 -240 -135q-71 0 -137 51q41 64 71 135h17q22 -34 42 -48.5t60 -14.5q49 0 116 49t206 229q1 124 -7 269t-22.5 263.5t-36 189.5t-47.5 71q-25 0 -100 -72zM913 1335q31 0 53.5 -21.5t22.5 -60.5q0 -51 -32 -93t-76 -42
q-36 0 -57 26.5t-21 63.5q0 47 32 87t78 40zM586 1335q30 0 52.5 -21t22.5 -61q0 -51 -32 -93t-76 -42q-36 0 -57 26.5t-21 63.5q0 47 32 87t79 40z" />
    <glyph glyph-name="dotlessi" unicode="&#x131;" horiz-adv-x="555" 
d="M469 240l39 -43q-91 -87 -192 -156.5t-156 -69.5q-22 0 -39 17t-17 43q0 39 29 129l74 207q7 23 62 191t55 175q0 25 -21 25q-15 0 -50 -25.5t-60 -54.5l-27 -27l-37 41q107 110 199 174t139 64q41 0 41 -39q0 -23 -23 -99.5t-59.5 -187.5t-56.5 -170q-26 -68 -56 -162
t-30 -114q0 -25 20 -25q38 0 137 86q5 3 15 10.5z" />
    <glyph glyph-name="OE" unicode="&#x152;" horiz-adv-x="2005" 
d="M1757 952h66q-11 -33 -11 -34q-74 -241 -102 -351q-25 -94 -29 -104h-69q4 39 9 91.5t5 59.5q0 50 -41 56q-30 5 -136 8.5t-171 3.5l-78 -285q-24 -80 -76 -278q0 -5 -3 -17t-3 -10h445q79 0 113 10.5t66 51.5t97 159l31 56h76q-5 -15 -19 -51t-23.5 -62t-17 -47
t-14.5 -43q-18 -64 -51 -150q0 -14 -9 -26q-95 4 -208 6t-211.5 3t-239.5 1q-212 0 -385 -6q-94 -4 -156.5 -2.5t-128 17t-121.5 52.5q-97 69 -143.5 178.5t-46.5 225.5q0 143 55 301t169.5 300t289 229t399.5 87q52 0 181 -6q130 -4 176 -4q439 0 680 12
q-23 -87 -46 -169.5t-34 -139.5q-6 -12 -6 -31h-74q4 43 4 119q0 65 -6.5 87t-32 29t-92.5 7h-377l-12 -47q-44 -139 -55 -174t-54 -182q-21 -67 -34 -117h225q73 0 102.5 7t52 36.5t58.5 108.5zM1255 1227q0 69 -188 69q-166 0 -298 -75.5t-220 -197.5t-133 -264t-45 -276
q0 -64 17 -131.5t59.5 -130t121 -102t195.5 -39.5q65 0 102 12.5t62 50.5t44.5 98.5t65.5 229.5q7 19 23.5 76t34.5 115q13 45 25.5 88t44.5 152.5t40 141.5q49 161 49 183z" />
    <glyph glyph-name="oe" unicode="&#x153;" horiz-adv-x="1343" 
d="M1221 229l39 -51q-63 -61 -132 -107t-138 -73t-120 -27q-66 0 -103.5 34t-50 72.5t-22.5 100.5q-47 -62 -104 -108t-126 -72.5t-140 -26.5q-118 0 -180 95t-62 229q0 132 53 249t138 203t180 134.5t176 48.5q91 0 140.5 -45t67 -101t19.5 -96q56 74 119.5 127t139.5 84
t155 31q137 0 137 -109q0 -68 -51 -153.5t-177.5 -158t-336.5 -95.5q-19 -78 -19 -119q0 -83 30 -144t93 -61q95 0 275 139zM858 481q174 27 262.5 87t112.5 117.5t24 100.5q0 33 -16 49.5t-41 16.5q-83 0 -185.5 -101t-156.5 -270zM244 289q0 -39 10.5 -88.5t47 -92
t104.5 -42.5q72 0 132 49.5t103.5 130.5t65.5 171.5t22 172.5q0 97 -25.5 153.5t-61 77.5t-69.5 21q-83 0 -159.5 -82.5t-123 -212.5t-46.5 -258z" />
    <glyph glyph-name="Scaron" unicode="&#x160;" horiz-adv-x="1110" 
d="M217 440h82q-3 -52 -4.5 -84.5t-1.5 -50.5q0 -113 55 -166q46 -42 101.5 -55.5t101.5 -13.5q97 0 157.5 45t86.5 110t26 123q0 102 -50 176.5t-126 145.5q-114 108 -162.5 159.5t-76 104t-27.5 110.5q0 90 57.5 175t165.5 139.5t250 54.5q77 0 143.5 -15t107.5 -31.5
t105 -47.5q-34 -103 -46 -151t-29 -146l-5 -31h-79q2 111 -2 163.5t-21 78.5q-25 43 -85.5 69.5t-125.5 26.5q-69 0 -128 -30t-92.5 -79t-33.5 -110q0 -64 41.5 -122t179.5 -193q132 -129 183 -206t51 -179q0 -107 -62.5 -211.5t-182 -172t-282.5 -67.5q-195 0 -374 102
q28 87 42 133t28 104t32 142zM1141 1800h74q-15 -18 -27 -30q-117 -128 -168 -189q-66 -77 -90 -102l-33 2t-49 2q-26 0 -72 -4q-6 18 -6 29q-23 111 -63 262q-3 8 -6 17.5t-5 12.5h62q9 -12 14 -22l66 -96q16 -23 29 -43.5t18 -28.5q14 10 25.5 18.5t38 28t51.5 37.5
q68 53 141 106z" />
    <glyph glyph-name="scaron" unicode="&#x161;" horiz-adv-x="662" 
d="M647 690h-47q-6 59 -38.5 112.5t-121.5 53.5q-61 0 -101 -35t-40 -86q0 -23 11 -46.5t42 -58.5t86 -87q81 -78 122.5 -145.5t41.5 -135.5q0 -73 -48.5 -140.5t-132.5 -109t-183 -41.5q-94 0 -149.5 24.5t-106.5 63.5q53 96 86 177l26 -7q15 -65 31 -86q27 -34 76 -55.5
t98 -21.5q72 0 115 38t43 99q0 41 -31.5 93t-122.5 146q-83 89 -111 135t-28 99q0 66 43 125t119 94t168 35q116 0 208 -58q-7 -22 -24 -80t-31 -102zM793 1386h74q-15 -18 -27 -30q-117 -128 -168 -189q-66 -77 -90 -102l-33 2t-49 2q-26 0 -72 -4q-6 18 -6 29
q-23 111 -63 262q-3 8 -6 17.5t-5 12.5h62q9 -12 14 -22l66 -96q16 -23 29 -43.5t18 -28.5q14 10 25.5 18.5t38 28t51.5 37.5q68 53 141 106z" />
    <glyph glyph-name="Ydieresis" unicode="&#x178;" horiz-adv-x="1300" 
d="M303 1325l19 59q8 0 72.5 -4.5t105 -6t84.5 -1.5q139 0 331 12l-14 -59q-21 -7 -39 -10q-136 -37 -151 -49q-19 -13 -19 -35q0 -36 58 -219l86 -277q15 18 27 33t58.5 74.5t133.5 171.5q65 82 168 221q4 4 9 15t5 18q0 18 -17 25.5t-85 23.5q-20 4 -27 8l14 59
q147 -12 228 -12q125 0 239 12l-18 -61q-80 -13 -115 -28t-84 -65t-149 -175q-36 -41 -164 -201q-135 -164 -191 -238q-3 -10 -9 -30.5t-13.5 -46.5t-20 -69t-37.5 -130q-4 -12 -21 -76.5t-25.5 -99t-8.5 -41.5q0 -21 12 -29.5t39 -13.5q52 -6 117 -23q24 -8 45 -8l-18 -59
q-42 3 -107 6q-90 4 -168 4q-110 0 -366 -10l16 59q1 0 10.5 1.5t18.5 3t10 1.5q128 25 154.5 37t44.5 55q23 60 147 469q8 20 8 29t-2.5 17.5t-5.5 15t-10 22.5q-30 83 -88 271q-22 70 -59.5 177.5t-53.5 123.5q-15 14 -39.5 21.5t-103.5 23.5q-25 5 -31 8zM1216 1749
q31 0 53.5 -21.5t22.5 -60.5q0 -51 -32 -93t-76 -42q-36 0 -57 26.5t-21 63.5q0 47 32 87t78 40zM889 1749q30 0 52.5 -21t22.5 -61q0 -51 -32 -93t-76 -42q-36 0 -57 26.5t-21 63.5q0 47 32 87t79 40z" />
    <glyph glyph-name="florin" unicode="&#x192;" horiz-adv-x="1044" 
d="M848 903l8 -20q-34 -46 -47 -76q-120 8 -195 8l-112 -678q-15 -97 -55.5 -224.5t-106.5 -217.5q-33 -46 -87 -85.5t-118 -39.5q-49 0 -75.5 13t-59.5 38q54 75 76 129h20q19 -34 50.5 -54t58.5 -20q48 0 74 50q26 64 49 233l118 856l-129 -4l11 51q55 9 133 45q0 1 6 43
q20 146 53 239t119 167q118 102 238 102q86 0 167 -45q-22 -54 -53 -170h-51q-9 64 -31.5 105t-83.5 41q-58 0 -91 -50.5t-54 -154.5q-17 -100 -29 -146q-4 -16 -4 -24l-18 -113q151 0 219 2z" />
    <glyph glyph-name="circumflex" unicode="&#x2c6;" horiz-adv-x="682" 
d="M788 1061h-61q-9 12 -14 22l-66 97q-15 21 -24 34.5t-13.5 21.5t-9.5 15q-53 -36 -115 -84q-84 -65 -141 -106h-74q2 3 27 31q106 114 168 188q65 78 90 102l33 -2t49 -2q26 0 72 4q6 -18 6 -28q7 -35 28 -122t35 -140q1 -2 4 -12t6 -19z" />
    <glyph glyph-name="caron" unicode="&#x2c7;" horiz-adv-x="682" 
d="M803 1386h74q-15 -18 -27 -30q-117 -128 -168 -189q-66 -77 -90 -102l-33 2t-49 2q-26 0 -72 -4q-6 18 -6 29q-23 111 -63 262q-3 8 -6 17.5t-5 12.5h62q9 -12 14 -22l66 -96q16 -23 29 -43.5t18 -28.5q14 10 25.5 18.5t38 28t51.5 37.5q68 53 141 106z" />
    <glyph glyph-name="breve" unicode="&#x2d8;" horiz-adv-x="682" 
d="M774 1362h64q-45 -99 -120.5 -182.5t-209.5 -83.5q-77 0 -133 51t-56 133q0 37 9 82h61q-10 -139 146 -139q72 0 134.5 38t104.5 101z" />
    <glyph glyph-name="dotaccent" unicode="&#x2d9;" horiz-adv-x="682" 
d="M621 1335q30 0 52.5 -21.5t22.5 -60.5q0 -51 -32 -93t-76 -42q-36 0 -57 26.5t-21 63.5q0 47 32 87t79 40z" />
    <glyph glyph-name="ring" unicode="&#x2da;" horiz-adv-x="682" 
d="M573 1434q55 0 101.5 -28t73 -75t26.5 -100t-27 -100t-74 -74t-100 -27q-54 0 -100 27t-73 74t-27 100q0 83 58 143t142 60zM573 1348q-48 0 -83 -34t-35 -83q0 -52 34.5 -85.5t83.5 -33.5q50 0 83.5 34.5t33.5 84.5t-34.5 83.5t-82.5 33.5z" />
    <glyph glyph-name="ogonek" unicode="&#x2db;" horiz-adv-x="682" 
d="M489 -195l37 -49q-56 -56 -128 -93.5t-136 -37.5q-53 0 -95 37t-42 102q0 142 180 254h94q-92 -59 -121.5 -115t-29.5 -91q0 -27 19 -51.5t59 -24.5q69 0 163 69z" />
    <glyph glyph-name="tilde" unicode="&#x2dc;" horiz-adv-x="682" 
d="M825 1350h62q-45 -131 -98 -185.5t-95 -54.5q-40 0 -147 61q-95 52 -121 52q-59 0 -117 -113h-61q85 240 188 240q32 0 56 -10t106 -58q87 -45 119 -45q34 0 57.5 29.5t50.5 83.5z" />
    <glyph glyph-name="hungarumlaut" unicode="&#x2dd;" horiz-adv-x="682" 
d="M350 1063h-53q2 5 54.5 138.5t60.5 154.5l7.5 22.5t4.5 12.5l8 20q124 -3 199 0l8 -16q-51 -51 -80 -82.5t-55 -62.5t-154 -187zM625 1063h-54q22 59 56 143t59 150q4 14 21 55q29 -1 47.5 -1.5t43.5 -0.5t51 0.5t56 1.5l8 -16q-51 -51 -74.5 -76.5t-54.5 -62.5
t-159 -193z" />
    <glyph glyph-name="pi1" unicode="&#x3c0;" horiz-adv-x="1124" 
d="M686 821h-231q-17 -201 -33 -329.5t-31 -221t-31 -168.5q-13 -59 -38 -92.5t-74 -46.5q-40 -10 -79.5 16t-47.5 62q-6 27 -3 45.5t11 34.5t18 29t21 26q3 4 34.5 41t47.5 67.5t20 67.5l60 469h-97q-41 0 -78 -19.5t-57 -45.5l-43 -64h-35q14 39 35 93.5t58 105.5
q29 43 78 74.5t114 31.5h764v-176h-258q-25 -239 -25 -481q0 -44 15 -86t37 -64q28 -26 68.5 -33.5t82.5 25.5q23 18 33.5 41t13.5 44l6 42h43q-1 -83 -25 -149.5t-57 -107t-65 -58.5q-36 -22 -84 -26.5t-88 22.5q-66 48 -100 151q-19 60 -21.5 158.5t6.5 192.5z" />
    <glyph glyph-name="endash" unicode="&#x2013;" horiz-adv-x="1024" 
d="M59 559h1049v-94h-1049v94z" />
    <glyph glyph-name="emdash" unicode="&#x2014;" horiz-adv-x="2048" 
d="M59 559h2073v-94h-2073v94z" />
    <glyph glyph-name="quoteleft" unicode="&#x2018;" horiz-adv-x="532" 
d="M608 1034l15 -43q-74 -60 -148 -141q-98 49 -98 164q0 99 75 206.5t212 192.5l36 -53q-174 -135 -174 -260q0 -48 24 -59.5t58 -6.5z" />
    <glyph glyph-name="quoteright" unicode="&#x2019;" horiz-adv-x="532" 
d="M414 1229l-15 43q70 56 148 141q63 -31 80.5 -79.5t17.5 -84.5q0 -62 -32 -132.5t-97 -139t-158 -127.5l-36 53q63 49 118.5 116t55.5 144t-82 66zM414 1229l-15 43q70 56 148 141q63 -31 80.5 -79.5t17.5 -84.5q0 -62 -32 -132.5t-97 -139t-158 -127.5l-36 53
q63 49 118.5 116t55.5 144t-82 66z" />
    <glyph glyph-name="quotesinglbase" unicode="&#x201a;" horiz-adv-x="532" 
d="M76 39l-15 43q70 56 148 141q63 -31 80.5 -79.5t17.5 -84.5q0 -62 -32 -132.5t-97 -139t-158 -127.5l-36 53q63 49 118.5 116.5t55.5 143.5q0 77 -82 66z" />
    <glyph glyph-name="quotedblleft" unicode="&#x201c;" horiz-adv-x="981" 
d="M606 1034l15 -43q-74 -60 -148 -141q-98 49 -98 164q0 99 75 206.5t212 192.5l36 -53q-174 -135 -174 -260q0 -47 23.5 -59t58.5 -7zM1057 1034l14 -43q-78 -64 -147 -141q-99 49 -99 164q0 99 75 206.5t212 192.5l37 -53q-174 -135 -174 -260q0 -47 23.5 -59t58.5 -7z
" />
    <glyph glyph-name="quotedblright" unicode="&#x201d;" horiz-adv-x="981" 
d="M864 1229l-14 43q57 47 77 66.5t70 74.5q61 -29 80 -78.5t19 -85.5q0 -62 -33 -133t-96 -138.5t-158 -127.5l-37 53q63 49 118.5 116t55.5 144t-82 66zM414 1229l-15 43q70 56 148 141q63 -31 80.5 -79.5t17.5 -84.5q0 -62 -32 -132.5t-97 -139t-158 -127.5l-36 53
q63 49 118.5 116t55.5 144t-82 66z" />
    <glyph glyph-name="quotedblbase" unicode="&#x201e;" horiz-adv-x="981" 
d="M524 39l-14 43q57 47 77 66.5t70 74.5q61 -29 80 -78.5t19 -85.5q0 -62 -33 -133t-96 -138.5t-158 -127.5l-37 53q63 49 118.5 116.5t55.5 143.5q0 77 -82 66zM74 39l-15 43q70 56 148 141q63 -31 80.5 -79.5t17.5 -84.5q0 -62 -32 -132.5t-97 -139t-158 -127.5l-36 53
q63 49 118.5 116.5t55.5 143.5q0 77 -82 66z" />
    <glyph glyph-name="dagger" unicode="&#x2020;" horiz-adv-x="874" 
d="M647 1458h203q-7 -17 -20 -45.5t-17 -38.5q-36 -82 -60 -136t-57 -134q-42 -101 -49 -117l45 6q78 15 139 21l89 16q26 4 46 7t44 7l-45 -172q-41 10 -100 20t-98 16l-65 10t-32 4q-3 1 -17 3t-16 3q-13 -47 -16.5 -61l-11.5 -46t-13.5 -57t-28.5 -119l-75 -315
q-55 -220 -89 -369q-66 -296 -71 -326l-17 -65h-206q35 95 127 371l120 364q13 37 23.5 69t64.5 200.5t69 215.5t28 91q12 36 12 47q-121 -8 -352 -56l47 172q18 -6 37 -6q237 -43 295 -51q9 55 24.5 163.5t23.5 168.5t19 139z" />
    <glyph glyph-name="daggerdbl" unicode="&#x2021;" horiz-adv-x="874" 
d="M645 1458h201q-13 -28 -24 -53t-64 -135q-7 -14 -19 -41t-33.5 -78t-31.5 -74q0 -6 -12 -30q126 11 278 38q27 9 45 9l-47 -166q-26 5 -46.5 8t-72.5 12q-101 20 -174 29q-30 -167 -35 -205l-30 -215q-7 -28 -7 -43q-32 -71 -62 -139t-53 -122t-30 -72.5t-49 -125.5
q124 16 149.5 19.5t122.5 19.5q25 0 49 8l-47 -168q-142 28 -297 52q-21 -103 -57 -416h-197q4 14 15 37q58 121 84.5 179.5t58.5 139.5q9 25 14 33q0 4 4.5 14t6.5 13q-58 -4 -287 -45q-14 -7 -35 -7l47 168q56 -12 161.5 -28t137.5 -19q6 32 13 71t9.5 54.5t16.5 120.5
q11 85 17 122t14 97q30 65 47.5 107t51.5 120.5t62 147t33 82.5q-70 -4 -141 -19q-134 -24 -182 -30l49 166q109 -25 293 -47q13 76 31 208l18 166q0 4 2 19t2 18z" />
    <glyph glyph-name="bullet" unicode="&#x2022;" horiz-adv-x="725" 
d="M735 678q0 -68 -33.5 -126t-90.5 -92t-126 -34q-104 0 -178 74t-74 178t74 177t178 73q69 0 126 -34t90.5 -91t33.5 -125z" />
    <glyph glyph-name="ellipsis" unicode="&#x2026;" horiz-adv-x="2048" 
d="M1024 188q44 0 77.5 -32.5t33.5 -79.5q0 -46 -32.5 -78.5t-78.5 -32.5q-47 0 -80 32t-33 79q0 48 34 80t79 32zM1704 188q47 0 80 -32t33 -80q0 -28 -15.5 -54.5t-42 -41.5t-55.5 -15q-47 0 -79 32t-32 79q0 48 34 80t77 32zM342 188q44 0 77.5 -32.5t33.5 -79.5
q0 -46 -31.5 -78.5t-79.5 -32.5q-47 0 -80 32t-33 79q0 48 34 80t79 32z" />
    <glyph glyph-name="perthousand" unicode="&#x2030;" horiz-adv-x="2068" 
d="M385 858q0 -137 78 -137q55 0 102 75.5t76 187.5t29 220q0 59 -20 93t-58 34q-56 0 -104 -80.5t-75.5 -194t-27.5 -198.5zM1264 1407h112l-1052 -1485h-113zM248 887q0 64 25 154t71 173.5t114.5 138t153.5 54.5q66 0 110.5 -35t64.5 -89.5t20 -115.5q0 -116 -50 -238
t-133.5 -201t-177.5 -79q-108 0 -153 78t-45 160zM778 158q0 64 24.5 154.5t71.5 175t115.5 138.5t153.5 54q66 0 110.5 -35t65 -90t20.5 -117q0 -113 -49.5 -235t-134 -201.5t-178.5 -79.5q-108 0 -153.5 78.5t-45.5 157.5zM918 129q0 -137 77 -137q53 0 101 75.5t77 190
t29 219.5q0 58 -21 92.5t-59 34.5q-57 0 -104 -82t-73.5 -196.5t-26.5 -196.5zM1442 158q0 64 24.5 154.5t71.5 175t115.5 138.5t152.5 54q67 0 111.5 -35t65 -90t20.5 -117q0 -113 -50 -235.5t-134.5 -201.5t-178.5 -79q-107 0 -152.5 78.5t-45.5 157.5zM1581 129
q0 -137 78 -137q53 0 101 75.5t77 190t29 219.5q0 59 -21 93t-59 34q-57 0 -104 -82t-74 -195.5t-27 -197.5z" />
    <glyph glyph-name="guilsinglleft" unicode="&#x2039;" horiz-adv-x="383" 
d="M399 797h90q-73 -92 -147 -183q-51 -62 -125 -157q8 -38 16 -82.5t19 -102.5l29 -153q0 -2 2 -14t2 -13h-74q-11 34 -40.5 118.5t-50 136t-54.5 126.5q32 32 120 116t138.5 133t74.5 75z" />
    <glyph glyph-name="guilsinglright" unicode="&#x203a;" horiz-adv-x="383" 
d="M49 92h-90q23 28 53.5 66.5t93.5 115.5q45 56 57 71t24.5 31t43.5 56q-9 48 -19.5 106t-14.5 78l-29 154q0 2 -2 14t-2 13h74q31 -90 44.5 -129t28 -79t35.5 -89t37 -84q-39 -39 -109.5 -105.5t-132.5 -126.5t-92 -92z" />
    <glyph glyph-name="Euro" unicode="&#x20ac;" horiz-adv-x="961" 
d="M195 545h-109l29 92h92q13 64 22 100h-96l29 92h96q104 273 285 426.5t375 153.5q128 0 245 -72q-63 -166 -108 -348l-70 4q8 71 8 131q0 187 -110 187q-127 0 -252 -127t-207 -355h571l-28 -92h-572q-10 -39 -20 -100h569l-29 -92h-548q-13 -205 50 -323t183 -118
q94 0 283 111l39 -74q-210 -176 -412 -176q-172 0 -255 165t-60 415z" />
    <glyph glyph-name="trademark" unicode="&#x2122;" horiz-adv-x="2005" 
d="M172 1458h727l23 -201h-35q-12 89 -62.5 115.5t-132.5 26.5h-74v-580q0 -54 7.5 -81.5t28.5 -38t71 -13.5v-35h-375v35q66 8 83.5 29t17.5 102v582h-78q-98 0 -136 -33.5t-53 -108.5h-34zM1276 1458l274 -571l265 571h278v-37q-53 -2 -74.5 -11.5t-29 -35t-7.5 -88.5
v-467q0 -82 17.5 -105.5t93.5 -27.5v-35h-397v35q77 3 98 27t21 104v492h-5l-303 -658h-32l-304 649h-4v-481q0 -73 14.5 -103t78.5 -30h36v-35h-307v35q52 2 76 12t31.5 35.5t7.5 83.5v467q0 62 -6 87.5t-30 37.5t-79 12v37h287z" />
    <glyph glyph-name="Ohm" unicode="&#x2126;" horiz-adv-x="1573" 
d="M641 311l33 -311h-604v332h30q20 -78 45.5 -101.5t90.5 -23.5h323l-4 57q-89 27 -145.5 53.5t-106.5 68.5t-90 101q-69 103 -90.5 212.5t-4 212t61.5 180.5q52 95 106.5 140t127.5 87q69 41 169.5 65.5t204.5 24.5q105 0 205.5 -24.5t169.5 -65.5q73 -42 127 -86
t107 -141q44 -78 61.5 -180.5t-4 -212t-90.5 -212.5q-60 -87 -137.5 -135.5t-204.5 -87.5l-4 -57h323q65 0 91.5 24.5t44.5 100.5h30v-332h-604l33 311q25 11 55.5 24.5t61.5 35.5t64 65.5t61 108.5q37 86 47.5 215.5t-22.5 261t-118 215.5q-106 106 -297 106t-296 -106
q-85 -84 -118 -215.5t-22.5 -261t47.5 -215.5q28 -65 60.5 -108t64.5 -66t61 -36t56 -24z" />
    <glyph glyph-name="partialdiff" unicode="&#x2202;" horiz-adv-x="1012" 
d="M220 1366l-80 102q76 34 177 52t194 -4q102 -24 188.5 -89t155.5 -186q42 -73 64 -164t28 -160.5t6 -111.5q0 -47 -10 -143t-34.5 -205.5t-61.5 -188.5q-48 -102 -91.5 -160t-121.5 -102q-102 -56 -208.5 -48.5t-191.5 65.5q-45 31 -80 70.5t-60.5 96.5t-31.5 129
q-9 111 27 204t86 155q58 71 128 109.5t163 35.5q88 -3 147 -31t160 -108q18 99 22 238q3 65 -19.5 168.5t-45.5 156.5q-24 59 -84.5 117.5t-144.5 65.5q-56 5 -89.5 3t-56.5 -9t-64 -26t-71 -32zM757 612q-59 67 -101 99.5t-121 31.5q-117 -3 -196 -110
q-41 -58 -62.5 -110.5t-31 -107t-9.5 -112.5q0 -74 17.5 -144.5t77.5 -111.5q44 -28 83.5 -29t86.5 19q103 45 165 190q36 88 57.5 186.5t33.5 198.5z" />
    <glyph glyph-name="increment" unicode="&#x2206;" horiz-adv-x="1253" 
d="M668 1409l577 -1409h-1233zM594 1059l-447 -959h844z" />
    <glyph glyph-name="product" unicode="&#x220f;" horiz-adv-x="1686" 
d="M1446 1288v-1282q0 -69 23.5 -105t67 -48.5t108.5 -12.5v-47h-627v47q100 0 148 33t48 133v1419h-733v-1419q0 -69 23.5 -105t67 -48.5t108.5 -12.5v-47h-629v47q102 0 150.5 33t48.5 133v1282q0 203 -195 203v47h1583v-47q-192 0 -192 -203z" />
    <glyph glyph-name="summation" unicode="&#x2211;" horiz-adv-x="1460" 
d="M1264 1526l12 -326h-41q-32 102 -50.5 139t-79 66t-183.5 29h-539l559 -734l-602 -694h760q83 0 128 19.5t77 66t71 146.5h47q-45 -185 -56 -245t-32 -214q-39 7 -80 14.5t-77 7.5h-1031q-14 0 -36.5 -1.5l-45 -3t-36.5 -1.5l714 815l-710 930q32 -2 105 -8t108 -6h1018z
" />
    <glyph glyph-name="fraction" unicode="&#x2215;" horiz-adv-x="213" 
d="M692 1407h115l-1055 -1485h-110z" />
    <glyph glyph-name="periodcentered" unicode="&#x2219;" horiz-adv-x="532" 
d="M279 659q0 76 41 111t81 35q37 0 61.5 -25.5t24.5 -66.5q0 -52 -33.5 -98t-84.5 -46q-48 0 -69 32t-21 58z" />
    <glyph glyph-name="radical" unicode="&#x221a;" horiz-adv-x="1124" 
d="M53 854l-33 68l299 147l404 -825l260 1634l72 -10l-307 -1946l-498 1028z" />
    <glyph glyph-name="infinity" unicode="&#x221e;" horiz-adv-x="1460" 
d="M738 608q75 67 110.5 97t72 53t81.5 43q72 32 143 27.5t131 -41t97 -93.5t43 -123q8 -78 -29.5 -154.5t-110 -123t-161.5 -37.5q-70 7 -134 34.5t-109 61t-87.5 76t-46.5 45.5q-24 -24 -56.5 -56t-76.5 -65.5t-108 -61t-136 -34.5q-89 -9 -161.5 37.5t-110 123
t-29.5 154.5q7 67 44 124t97 93t131 40.5t142 -27.5q45 -20 81.5 -43t72 -53t110.5 -97zM671 541q-88 75 -141.5 112t-102.5 54q-61 22 -110.5 12.5t-84.5 -40.5t-52 -71.5t-17 -77.5q1 -56 37 -101.5t91 -64.5t109 -6q81 19 124 50.5t147 132.5zM806 541q68 -67 105 -99.5
t73 -51.5t92 -32q55 -13 110 6t91 64.5t37 101.5q2 49 -29.5 102.5t-92 78t-143.5 -3.5q-50 -18 -103 -55.5t-140 -110.5z" />
    <glyph glyph-name="integral" unicode="&#x222b;" horiz-adv-x="561" 
d="M395 999l-2 -442q-2 -364 -70 -600q-21 -76 -59 -125q-17 -22 -75.5 -42t-104.5 1q-22 11 -41.5 36t-26.5 44q-12 35 0 65t49 48q34 17 60.5 5t56.5 -46q29 -30 48.5 -4t27.5 82.5t6 130.5q-2 76 -4 141t-4 119.5t-3 163t-1 219.5v295q0 90 2 192t7.5 181.5t16 139.5
t27.5 121q10 34 37.5 75.5t54.5 58.5q26 16 56.5 17.5t59.5 -8.5t44 -20q27 -17 40.5 -60t-13.5 -77q-15 -18 -43 -29.5t-56 -8.5t-47 24q-22 22 -40.5 24t-29 -11.5t-12.5 -33.5q-1 -26 2 -62.5t14 -173t17 -243t6 -197.5z" />
    <glyph glyph-name="approxequal" unicode="&#x2248;" horiz-adv-x="1365" 
d="M1171 564h52q-3 -139 -76 -221q-74 -83 -182 -83q-56 0 -116 19q-74 23 -260 101q-150 62 -214 62q-145 0 -180 -180h-52q6 159 82 232q75 72 168 72q102 0 381 -121q149 -64 216 -64q75 0 124 49q49 48 57 134zM1171 1064h52q-3 -139 -76 -221q-74 -83 -182 -83
q-57 0 -109 16q-64 19 -267 104q-150 62 -216 62q-144 0 -178 -181h-52q6 159 82 232t168 73q102 0 381 -121q151 -65 217 -65q75 0 124 49q48 48 56 135z" />
    <glyph glyph-name="notequal" unicode="&#x2260;" horiz-adv-x="1365" 
d="M139 834v131h601l209 530h110l-203 -530h369v-131h-422l-131 -337h553v-131h-604l-209 -529h-113l209 529h-369v131h420l131 337h-551z" />
    <glyph glyph-name="lessequal" unicode="&#x2264;" horiz-adv-x="1365" 
d="M139 -45v132h1088v-132h-1088zM139 809l1 119l1087 456v-142l-911 -374l911 -374v-142z" />
    <glyph glyph-name="greaterequal" unicode="&#x2265;" horiz-adv-x="1365" 
d="M139 87h1088v-132h-1088v132zM139 1384l1086 -456l2 -119l-1088 -457v142l910 374l-910 374v142z" />
    <glyph glyph-name="lozenge" unicode="&#x25ca;" horiz-adv-x="1365" 
d="M273 1071q59 -132 78 -216q18 -85 18 -194q0 -108 -18 -192q-19 -83 -78 -218q204 95 408 95q210 0 408 -95q-55 128 -74 208q-21 83 -21 202q0 110 19 193q18 87 76 217q-198 -95 -408 -95t-408 95zM110 1134l102 99q233 -125 470 -125q231 0 470 125l103 -99
q-128 -229 -128 -473t128 -473l-103 -99q-232 125 -470 125q-125 0 -232 -27q-112 -30 -238 -98l-102 99q127 227 127 473q0 240 -127 473z" />
    <glyph glyph-name="fi" unicode="&#xf001;" horiz-adv-x="1024" 
d="M975 1217h-47q-12 86 -56.5 124.5t-93.5 38.5q-133 0 -209 -168q-25 -59 -94 -315h187q72 0 142.5 7.5t117.5 19.5q8 4 26 4q11 0 22 -7.5t11 -23.5q0 -15 -16 -63l-121 -353q-58 -166 -70 -205q-15 -52 -20 -65q-11 -44 -11 -51q0 -23 21 -23q34 0 164 105l39 -43
q-80 -82 -191.5 -155t-154.5 -73q-56 0 -56 68q0 24 5.5 45t35.5 106q1 4 28 79t59 167t56 162.5t35 108.5q23 73 23 86q0 16 -21 18q-14 2 -61 2h-274q-14 -56 -68 -260q-9 -37 -40.5 -154.5t-35.5 -132.5q-54 -204 -84 -298.5t-70 -160t-110 -126.5q-56 -49 -120 -80
t-116 -31q-29 0 -55 8t-50 20.5t-40 22.5q31 38 45.5 63.5t32.5 69.5h20q24 -37 49.5 -56.5t77.5 -19.5q56 0 97.5 44.5t81.5 162.5q12 36 46 166t48 187t41.5 167.5t34.5 139.5q42 191 63 268q-92 -3 -133 -6l12 55q74 20 148 51q29 137 59.5 222t85.5 143
q91 97 186.5 138.5t178.5 41.5q54 0 97 -13.5t101 -41.5q-39 -118 -59 -186z" />
    <glyph glyph-name="fl" unicode="&#xf002;" horiz-adv-x="1024" 
d="M1145 1458l29 -28q-53 -126 -87 -226.5t-129 -406.5q-46 -150 -66 -216t-51.5 -173.5t-47 -168t-15.5 -71.5q0 -25 25 -25q29 0 125 76q5 5 12.5 11t13.5 12l41 -43q-248 -228 -354 -228q-26 0 -39.5 16.5t-13.5 41.5q0 13 17 70l59.5 199.5t71.5 237.5t44 150l36 120
t31.5 106t24.5 81q14 36 35 112t21 128q0 30 -15.5 63.5t-49 57.5t-83.5 24q-63 0 -108.5 -37.5t-78.5 -100t-60 -148.5t-56 -195q87 -2 215 2l13 -16q-25 -32 -50 -80q-86 6 -206 6q-14 -56 -30.5 -121t-43.5 -164l-80 -303q-47 -189 -86 -292.5t-91.5 -172t-137.5 -123.5
q-91 -63 -177 -63q-65 0 -143 49q26 35 43 63.5t35 69.5h22q27 -38 51 -57t74 -19q43 0 71.5 20.5t51.5 59.5q26 44 55 133.5t55 186t27 98.5q3 11 21.5 89t33 139.5t23.5 91.5q2 9 19 79l57 236q-80 0 -135 -4l10 53q63 17 150 51q27 126 59 213t90 152q66 74 157 129
t195 55q69 0 111 -21t78 -55q54 28 131 76z" />
    </font>
</defs>
</svg>
