<?xml version="1.0" standalone="no"?>
<!DOCTYPE svg PUBLIC "-//W3C//DTD SVG 1.1//EN" "http://www.w3.org/Graphics/SVG/1.1/DTD/svg11.dtd" >
<svg xmlns="http://www.w3.org/2000/svg" xmlns:xlink="http://www.w3.org/1999/xlink" version="1.1">
<metadata>
Created by FontForge 20201107 at Fri Nov  7 13:02:26 2014
 By Jimmy Wärting
Copyright (c) 2014 by Yellow Design Studio. All rights reserved.
</metadata>
<defs>
<font id="LuloCleanW01-One" horiz-adv-x="1008" >
  <font-face 
    font-family="LuloCleanW01-One"
    font-weight="400"
    font-stretch="normal"
    units-per-em="1000"
    panose-1="2 1 3 4 2 2 0 0 0 3"
    ascent="800"
    descent="-200"
    x-height="780"
    cap-height="780"
    bbox="-32 -279 1415 1070"
    underline-thickness="50"
    underline-position="-175"
    unicode-range="U+0020-2122"
  />
<missing-glyph horiz-adv-x="346" 
 />
    <glyph glyph-name=".notdef" horiz-adv-x="346" 
 />
    <glyph glyph-name=".null" horiz-adv-x="0" 
 />
    <glyph glyph-name="nonmarkingreturn" horiz-adv-x="333" 
 />
    <glyph glyph-name="space" unicode=" " horiz-adv-x="546" 
 />
    <glyph glyph-name="exclam" unicode="!" horiz-adv-x="458" 
d="M161 780l-9 -579h-46l-9 579h64zM77 39q0 21 15.5 36t36.5 15t36.5 -15t15.5 -36q0 -22 -15.5 -36.5t-36.5 -14.5t-36.5 14.5t-15.5 36.5z" />
    <glyph glyph-name="quotedbl" unicode="&#x22;" horiz-adv-x="648" 
d="M92 463l-6 317h58l-6 -317h-46zM308 463l-6 317h58l-6 -317h-46z" />
    <glyph glyph-name="numbersign" unicode="#" horiz-adv-x="947" 
d="M100 559h139l39 221h62l-39 -221h204l39 221h61l-39 -221h130v-57h-140l-39 -225h130v-56h-140l-38 -221h-61l38 221h-204l-38 -221h-62l38 221h-129v56h139l39 225h-129v57zM252 277h204l39 225h-204z" />
    <glyph glyph-name="dollar" unicode="$" horiz-adv-x="803" 
d="M120 237v-6q0 -24 13 -45.5t38 -37.5t59.5 -25.5t78.5 -9.5q85 0 128.5 32.5t43.5 80.5q0 30 -15.5 51t-41.5 36.5t-60 27t-71 22.5q-41 13 -81 28.5t-72 37t-52 52t-20 72.5q0 35 14.5 64.5t41.5 51t65 35t85 15.5v86h57v-87q45 -4 82 -18t63.5 -36t41 -50.5t14.5 -61.5
v-7h-58v6q0 24 -12.5 45t-36 37t-56.5 25t-74 9q-81 0 -123 -32t-42 -80q0 -29 13.5 -49t37.5 -35.5t57 -27.5t71 -24q37 -11 78.5 -25t76 -35t57 -52.5t22.5 -77.5q0 -36 -15 -65.5t-42.5 -52t-67 -35.5t-87.5 -16v-85h-57v86q-47 4 -86 18t-67 36t-43.5 51t-15.5 63v8h58z
" />
    <glyph glyph-name="percent" unicode="%" horiz-adv-x="1196" 
d="M44 611q0 38 14 71.5t39 58t58 39t72 14.5t72 -14.5t58 -39t39 -58t14 -71.5t-14 -71.5t-39 -58.5t-58 -39.5t-72 -14.5t-72 14.5t-58 39.5t-39 58.5t-14 71.5zM97 611q0 -27 10.5 -50.5t28.5 -41t41.5 -28t49.5 -10.5q27 0 50.5 10.5t41 28t27.5 41t10 50.5
q0 26 -10 49.5t-27.5 41.5t-41 28.5t-50.5 10.5q-26 0 -49.5 -10.5t-41.5 -28.5t-28.5 -41.5t-10.5 -49.5zM586 173q0 39 14 72t39 58t58 39t72 14t72.5 -14t58 -39t39 -58t14.5 -72t-14.5 -72.5t-39 -58t-58 -39t-72.5 -14.5t-72 14.5t-58 39t-39 58t-14 72.5zM639 173
q0 -27 10.5 -50.5t28.5 -41t41.5 -27.5t49.5 -10q27 0 50.5 10t41 27.5t28 41t10.5 50.5q0 26 -10.5 49.5t-28 41.5t-41 28.5t-50.5 10.5q-26 0 -49.5 -10.5t-41.5 -28.5t-28.5 -41.5t-10.5 -49.5zM181 0l562 780h69l-562 -780h-69z" />
    <glyph glyph-name="ampersand" unicode="&#x26;" horiz-adv-x="970" 
d="M652 0l-109 117q-31 -28 -64.5 -52t-69.5 -42t-73.5 -28t-76.5 -10q-51 0 -90.5 14.5t-66 39t-40 56t-13.5 64.5q0 47 20.5 83t52.5 65t72 52.5t78 46.5q-24 25 -45 48.5t-36 48.5t-23.5 52t-8.5 58q0 39 15 72.5t40.5 57.5t60.5 38t76 14q39 0 73.5 -14t60 -38t40 -56.5
t14.5 -68.5q0 -39 -15 -70t-40 -56.5t-57.5 -47.5t-67.5 -43l187 -200q38 39 70 80t58 79l45 -37q-27 -39 -60.5 -81.5t-72.5 -83.5l147 -158h-81zM259 42q63 0 125 33.5t119 84.5l-196 210q-39 -22 -74.5 -44t-63 -46.5t-44 -53t-16.5 -63.5q0 -23 10 -45t29 -39t47 -27
t64 -10zM216 613q0 -47 29 -86.5t78 -88.5q36 23 65.5 43t50.5 41t32.5 44t11.5 52q0 25 -10.5 48t-28.5 39.5t-42 26.5t-51 10q-29 0 -53.5 -10t-42.5 -27t-28.5 -40.5t-10.5 -51.5z" />
    <glyph glyph-name="quotesingle" unicode="'" horiz-adv-x="433" 
d="M93 463l-6 317h58l-6 -317h-46z" />
    <glyph glyph-name="parenleft" unicode="(" horiz-adv-x="571" 
d="M347 929q-45 -36 -87 -89t-73.5 -121.5t-50.5 -151t-19 -177.5t19 -177t50.5 -150.5t73.5 -121.5t87 -89l-37 -46q-49 40 -94.5 98t-80.5 132t-56 163t-21 191t21 191t56 163.5t80.5 132.5t94.5 98z" />
    <glyph glyph-name="parenright" unicode=")" horiz-adv-x="572" 
d="M24 -148q45 36 87 89t73.5 121.5t50.5 151t19 177.5t-19 177t-50.5 150.5t-73.5 121.5t-87 89l37 46q49 -40 94.5 -98t80.5 -132t56 -163t21 -191t-21 -191.5t-56 -163.5t-80.5 -132t-94.5 -98z" />
    <glyph glyph-name="asterisk" unicode="*" horiz-adv-x="727" 
d="M286 607l161 60l18 -55l-167 -46l107 -134l-47 -34l-95 145l-94 -143l-47 34l107 135l-165 45l19 55l160 -60l-7 171h58z" />
    <glyph glyph-name="plus" unicode="+" horiz-adv-x="768" 
d="M312 583v-190h190v-56h-190v-189h-56v189h-190v56h190v190h56z" />
    <glyph glyph-name="comma" unicode="," horiz-adv-x="444" 
d="M27 -135q9 9 22 21.5t26 29t24.5 36t16.5 40.5q-17 -3 -32.5 11t-15.5 36q0 21 15.5 36t36.5 15t37.5 -15.5t16.5 -43.5q0 -29 -12.5 -57.5t-30.5 -53.5t-39.5 -46.5t-39.5 -36.5z" />
    <glyph glyph-name="hyphen" unicode="-" horiz-adv-x="643" 
d="M358 297h-272v56h272v-56z" />
    <glyph glyph-name="period" unicode="." horiz-adv-x="442" 
d="M69 39q0 21 15.5 36t36.5 15t36 -15t15 -36q0 -22 -15 -36.5t-36 -14.5t-36.5 14.5t-15.5 36.5z" />
    <glyph glyph-name="slash" unicode="/" horiz-adv-x="874" 
d="M644 928l-548 -1076h-65l548 1076h65z" />
    <glyph glyph-name="zero" unicode="0" horiz-adv-x="928" 
d="M67 390q0 82 19 155.5t56.5 129t93 88t127.5 32.5t128 -32.5t93.5 -88t57 -129t19.5 -155.5t-19.5 -155.5t-57 -129t-93.5 -88t-128 -32.5t-127.5 32.5t-93 88t-56.5 129t-19 155.5zM126 390q0 -73 16 -136t47 -110t74.5 -74t99.5 -27t100.5 27t75 74t47 110t16.5 136
t-16.5 136t-47 110t-75 74t-100.5 27t-99.5 -27t-74.5 -74t-47 -110t-16 -136z" />
    <glyph glyph-name="one" unicode="1" horiz-adv-x="544" 
d="M41 721l171 59h41v-780h-59v711l-153 -52v62z" />
    <glyph glyph-name="two" unicode="2" horiz-adv-x="842" 
d="M576 0h-516v45l309 300q29 28 54.5 54t45 52t30.5 54t11 60q0 40 -14.5 72t-39 54t-58 34t-71.5 12t-74 -11t-64 -34.5t-44.5 -59.5t-16.5 -86v-13h-58v13q0 65 22.5 112t59.5 77.5t82.5 45t92.5 14.5q48 0 92 -16t77.5 -45.5t53 -72t19.5 -96.5q0 -42 -14.5 -78
t-37.5 -68t-51.5 -61t-57.5 -57l-250 -242h418v-59z" />
    <glyph glyph-name="three" unicode="3" horiz-adv-x="830" 
d="M91 108q59 -36 110 -50.5t99 -14.5q45 0 82.5 12.5t65 35t42.5 52t15 64.5q0 39 -19.5 70.5t-55.5 54.5t-87.5 35.5t-116.5 12.5v52q67 0 115 15.5t79 39.5t45.5 53.5t14.5 58.5q0 32 -13.5 58t-37 44t-54.5 28t-67 10q-35 0 -66 -9.5t-54 -27t-36 -41t-13 -50.5v-2h-57
v8q0 36 17.5 68t48 56.5t71.5 39t89 14.5q45 0 87 -13t73.5 -38t50.5 -60t19 -80q0 -28 -9.5 -56.5t-29.5 -54.5t-50.5 -48t-72.5 -37q88 -25 138.5 -77.5t50.5 -126.5q0 -47 -20.5 -87.5t-56.5 -69.5t-84 -45.5t-103 -16.5q-56 0 -117 17.5t-124 56.5z" />
    <glyph glyph-name="four" unicode="4" horiz-adv-x="878" 
d="M466 0v165h-428v44l319 571h67l-313 -558h355v215h58v-215h113v-57h-113v-165h-58z" />
    <glyph glyph-name="five" unicode="5" horiz-adv-x="862" 
d="M554 721h-343l-50 -307q10 9 27.5 20.5t41.5 22.5t54.5 18.5t66.5 7.5q58 0 105.5 -19.5t81.5 -52.5t52 -77.5t18 -93.5q0 -54 -21 -100.5t-58.5 -81t-88.5 -54t-110 -19.5q-47 0 -89.5 12.5t-78.5 34.5t-65 52t-49 65l51 29q35 -60 94 -97.5t136 -37.5q48 0 88 15
t69.5 42t46 63t16.5 78q0 37 -13.5 71t-40 60t-64.5 41.5t-86 15.5q-49 0 -99.5 -20t-101.5 -72l-51 23l72 420h389v-59z" />
    <glyph glyph-name="six" unicode="6" horiz-adv-x="853" 
d="M420 780l-184 -280q48 20 101 20q55 0 103.5 -20.5t84.5 -56t57 -84t21 -104.5t-21.5 -105t-58.5 -86t-86.5 -58t-106.5 -21q-56 0 -105 21t-86 58t-58 85.5t-21 104.5q0 37 10 76.5t30 68.5l248 381h72zM159 383q-41 -56 -41 -127q0 -45 16.5 -83.5t45 -67.5t67.5 -45.5
t83 -16.5q45 0 84 16.5t68.5 45t46 67.5t16.5 83q0 45 -16.5 84t-46 68.5t-68.5 46t-84 16.5q-54 0 -98 -23.5t-73 -63.5z" />
    <glyph glyph-name="seven" unicode="7" horiz-adv-x="797" 
d="M47 780h526v-47l-362 -733h-67l360 721h-457v59z" />
    <glyph glyph-name="eight" unicode="8" horiz-adv-x="880" 
d="M64 211q0 74 45 127t116 78q-57 23 -93.5 68t-36.5 108q0 44 19.5 81t53 64t78 42.5t93.5 15.5t94 -15.5t78.5 -42.5t53.5 -64t20 -81q0 -63 -37 -108t-95 -68q35 -12 65 -32t51.5 -46t33.5 -58t12 -69q0 -49 -22 -90.5t-60 -71.5t-88 -47t-106 -17t-106 17t-87.5 47
t-59.5 71.5t-22 90.5zM124 214q0 -37 16.5 -69t45.5 -55.5t68.5 -37t84.5 -13.5t84.5 13.5t69 37t46 55.5t16.5 69t-16.5 69.5t-46 56t-69 37t-84.5 13.5t-84.5 -13.5t-68.5 -37t-45.5 -56t-16.5 -69.5zM154 591q0 -32 14.5 -60t39 -48.5t58.5 -32t73 -11.5t73.5 11.5
t59.5 32t39.5 48.5t14.5 60q0 31 -14.5 59t-39.5 48t-59.5 32t-73.5 12t-73 -12t-58.5 -32t-39 -48t-14.5 -59z" />
    <glyph glyph-name="nine" unicode="9" horiz-adv-x="853" 
d="M233 0l184 280q-48 -20 -101 -20q-55 0 -103.5 20.5t-84.5 56t-57 84t-21 104.5t21.5 105t58.5 86t86.5 58t106.5 21q56 0 105 -21t86 -58t58 -86t21 -104q0 -37 -10 -76.5t-30 -68.5l-248 -381h-72zM494 397q41 56 41 127q0 45 -16.5 83.5t-45 67.5t-67.5 45.5t-83 16.5
q-45 0 -84 -16.5t-68.5 -45t-46 -67.5t-16.5 -83q0 -45 16.5 -84t46 -68.5t68.5 -46t84 -16.5q54 0 98 23.5t73 63.5z" />
    <glyph glyph-name="colon" unicode=":" horiz-adv-x="480" 
d="M88 39q0 21 15.5 36t36.5 15t36 -15t15 -36q0 -22 -15 -36.5t-36 -14.5t-36.5 14.5t-15.5 36.5zM88 396q0 21 15.5 36t36.5 15t36 -15t15 -36q0 -22 -15 -36.5t-36 -14.5t-36.5 14.5t-15.5 36.5z" />
    <glyph glyph-name="semicolon" unicode=";" horiz-adv-x="541" 
d="M85 -135q9 9 22 21.5t26 29t24.5 36t16.5 40.5q-17 -3 -32.5 11t-15.5 36q0 21 15.5 36t36.5 15t37.5 -15.5t16.5 -43.5q0 -29 -12.5 -57.5t-30.5 -53.5t-39.5 -46.5t-39.5 -36.5zM129 396q0 21 15.5 36t36.5 15t36 -15t15 -36q0 -22 -15 -36.5t-36 -14.5t-36.5 14.5
t-15.5 36.5z" />
    <glyph glyph-name="less" unicode="&#x3c;" horiz-adv-x="801" 
d="M54 391l451 221v-64l-378 -182l378 -182v-64l-451 221v50z" />
    <glyph glyph-name="equal" unicode="=" horiz-adv-x="818" 
d="M91 522h435v-56h-435v56zM91 266h435v-56h-435v56z" />
    <glyph glyph-name="greater" unicode="&#x3e;" horiz-adv-x="801" 
d="M547 341l-451 -221v64l378 182l-378 182v64l451 -221v-50z" />
    <glyph glyph-name="question" unicode="?" horiz-adv-x="732" 
d="M207 263v36q0 30 10 53t26.5 42t36.5 34.5t41 29.5q20 14 38 28.5t31.5 31t21.5 37t8 47.5q0 30 -11 55t-31 43t-47.5 28t-60.5 10q-30 0 -58.5 -8.5t-51 -26t-36 -42.5t-13.5 -58v-21h-58v25q0 46 19.5 81t51 58.5t70 35.5t77.5 12q43 0 80.5 -13.5t66 -38t45 -60
t16.5 -79.5q0 -36 -10.5 -63.5t-27.5 -49t-38.5 -39t-43.5 -32.5q-20 -14 -37.5 -27t-31.5 -27.5t-22 -32t-8 -39.5v-30h-53zM182 39q0 21 15.5 36t36.5 15t36 -15t15 -36q0 -22 -15 -36.5t-36 -14.5t-36.5 14.5t-15.5 36.5z" />
    <glyph glyph-name="at" unicode="@" horiz-adv-x="1194" 
d="M300 373q0 45 18 84.5t48.5 69t71 47t84.5 17.5q40 0 74 -15t59 -40.5t39 -59.5t14 -73q0 -35 -11.5 -67t-31.5 -59q10 -27 33.5 -45t57.5 -18q21 0 45.5 10.5t45.5 34t35 62t14 95.5q0 76 -27.5 142.5t-75.5 115.5t-113.5 77.5t-142.5 28.5q-86 0 -163 -33t-135.5 -90.5
t-93 -134t-34.5 -163.5q0 -75 27 -141t75 -115t113.5 -77.5t142.5 -28.5q48 0 96 11.5t93 34.5l24 -40q-50 -26 -104.5 -39.5t-112.5 -13.5q-87 0 -160.5 31.5t-127.5 86.5t-84.5 129t-30.5 159q0 97 38.5 183.5t104 151t152.5 102t184 37.5q87 0 161 -32t128 -87.5
t85 -130.5t31 -160q0 -69 -18 -117.5t-46 -79t-61 -44t-64 -13.5q-43 0 -76.5 20t-50.5 53q-30 -25 -66.5 -39.5t-77.5 -14.5q-40 0 -74 14.5t-59 40t-39 60t-14 73.5zM349 377q0 -30 10.5 -56t29.5 -45.5t45 -30.5t56 -11q34 0 64.5 13t53.5 35.5t37 52.5t14 64
q0 30 -11 56t-30 45.5t-45 30.5t-56 11q-34 0 -64.5 -13t-53.5 -35.5t-36.5 -52.5t-13.5 -64z" />
    <glyph glyph-name="A" unicode="A" 
d="M436 780l358 -780h-65l-80 176h-490l-79 -176h-66l358 780h64zM185 232h438l-219 484z" />
    <glyph glyph-name="B" unicode="B" horiz-adv-x="988" 
d="M112 780h352q57 0 99.5 -16.5t71.5 -44t43.5 -64t14.5 -76.5q0 -61 -32 -109t-86 -71q69 -21 109.5 -72.5t40.5 -118.5q0 -42 -16 -80t-45.5 -66.5t-71.5 -45t-94 -16.5h-386v780zM171 370v-315h322q40 0 72 13t54 35t34 51t12 60t-12 59t-34 49.5t-54 34.5t-72 13h-322z
M171 724v-304h306q36 0 64.5 12.5t49 34t31.5 49t11 57.5t-11 57t-32.5 48t-53.5 33.5t-75 12.5h-290z" />
    <glyph glyph-name="C" unicode="C" horiz-adv-x="1061" 
d="M815 189q-26 -46 -63.5 -83.5t-82.5 -64.5t-97.5 -41.5t-108.5 -14.5q-84 0 -158.5 32t-129.5 86.5t-87 128.5t-32 158t32 157.5t87 128.5t129.5 87t158.5 32q56 0 108 -14.5t97 -41.5t82 -64.5t64 -82.5l-54 -26q-23 38 -54.5 69t-69.5 53.5t-82 35t-91 12.5
q-72 0 -135 -27.5t-110 -74.5t-74.5 -110t-27.5 -134q0 -72 27.5 -135t74.5 -110t110 -74t135 -27q96 0 174 47t124 124z" />
    <glyph glyph-name="D" unicode="D" horiz-adv-x="1041" 
d="M112 780h305q89 0 157 -30.5t113.5 -83t69 -123.5t23.5 -153t-23.5 -153.5t-69 -124t-113.5 -82.5t-157 -30h-305v780zM171 722v-664h243q74 0 131 25.5t96 70t59.5 105t20.5 131.5t-20.5 131.5t-59.5 105t-96 70t-131 25.5h-243z" />
    <glyph glyph-name="E" unicode="E" horiz-adv-x="910" 
d="M112 780h536v-58h-477v-311h406v-56h-406v-297h477v-58h-536v780z" />
    <glyph glyph-name="F" unicode="F" horiz-adv-x="885" 
d="M112 780h516v-58h-457v-337h396v-56h-396v-329h-59v780z" />
    <glyph glyph-name="G" unicode="G" horiz-adv-x="1084" 
d="M472 401h341v-401h-53v134q-24 -35 -56.5 -62.5t-70.5 -46.5t-81 -29.5t-89 -10.5q-84 0 -158.5 32t-129.5 86.5t-87 128.5t-32 158t32 157.5t87 128.5t129.5 87t158.5 32q100 0 185 -45t141 -120l-49 -34q-48 64 -120 102t-157 38q-72 0 -135 -27.5t-110 -74.5
t-74.5 -110t-27.5 -134q0 -72 27.5 -135t74.5 -110t110 -74t135 -27q94 0 171 45.5t123 121.5v138h-285v52z" />
    <glyph glyph-name="H" unicode="H" horiz-adv-x="1078" 
d="M766 780v-780h-59v355h-536v-355h-59v780h59v-369h536v369h59z" />
    <glyph glyph-name="I" unicode="I" horiz-adv-x="482" 
d="M171 780v-780h-59v780h59z" />
    <glyph glyph-name="J" unicode="J" horiz-adv-x="881" 
d="M578 780v-520q0 -68 -21.5 -119t-58 -86t-84.5 -52.5t-102 -17.5t-102.5 17.5t-85 52.5t-58.5 86t-22 119v66h60v-66q0 -55 17 -96t45.5 -68t66 -40t79.5 -13q41 0 78.5 13t66 40t45.5 68t17 96v520h59z" />
    <glyph glyph-name="K" unicode="K" horiz-adv-x="978" 
d="M112 780h59v-476l503 476h80l-339 -322l353 -458h-75l-322 416l-200 -190v-226h-59v780z" />
    <glyph glyph-name="L" unicode="L" horiz-adv-x="855" 
d="M112 780h59v-722h451v-58h-510v780z" />
    <glyph glyph-name="M" unicode="M" horiz-adv-x="1215" 
d="M112 0v780h56l340 -676l340 676h56v-780h-59v656l-317 -631h-41l-316 629v-654h-59z" />
    <glyph glyph-name="N" unicode="N" horiz-adv-x="1075" 
d="M112 0v780h53l540 -679v679h59v-780h-53l-540 678v-678h-59z" />
    <glyph glyph-name="O" unicode="O" horiz-adv-x="1125" 
d="M56 390q0 84 32 157.5t87 128.5t129.5 87t158.5 32t158 -32t129 -87t87 -128.5t32 -157.5t-32 -158t-87 -128.5t-129 -86.5t-158 -32t-158.5 32t-129.5 86.5t-87 128.5t-32 158zM116 390q0 -72 27.5 -135t74.5 -110t110 -74t135 -27q71 0 134 27t110 74t74.5 110
t27.5 135q0 71 -27.5 134t-74.5 110t-110 74.5t-134 27.5q-72 0 -135 -27.5t-110 -74.5t-74.5 -110t-27.5 -134z" />
    <glyph glyph-name="P" unicode="P" horiz-adv-x="942" 
d="M112 780h301q68 0 121.5 -21.5t90 -58.5t55.5 -86t19 -103q0 -53 -19 -101.5t-55.5 -85.5t-90 -59t-121.5 -22h-242v-243h-59v780zM171 724v-425h240q54 0 96.5 17.5t72 47t44.5 68t15 79.5q0 43 -15 81.5t-44.5 68t-72 46.5t-96.5 17h-240z" />
    <glyph glyph-name="Q" unicode="Q" horiz-adv-x="1122" 
d="M56 390q0 84 32 157.5t86.5 128.5t128.5 87t158 32t157.5 -32t128.5 -87t87 -128.5t32 -157.5q0 -71 -22.5 -134t-63 -114.5t-95.5 -88.5t-119 -54q38 -19 76.5 -41t76 -40.5t73 -31t67.5 -12.5q33 0 60 12.5t49 41.5l46 -38q-17 -22 -36 -36t-39 -22.5t-40.5 -12
t-38.5 -3.5q-38 0 -77 12t-78 30.5t-77 40.5t-74.5 41t-72 32.5t-68.5 15.5q-75 9 -140.5 43.5t-113.5 88t-75.5 123t-27.5 147.5zM116 390q0 -72 27 -135t74 -110t110 -74t134 -27t133.5 27t109.5 74t74 110t27 135q0 71 -27 134t-74 110t-109.5 74.5t-133.5 27.5
t-134 -27.5t-110 -74.5t-74 -110t-27 -134z" />
    <glyph glyph-name="R" unicode="R" horiz-adv-x="994" 
d="M456 780q63 0 112.5 -20t83.5 -54.5t52 -80t18 -96.5q0 -41 -12 -79t-34.5 -70t-55.5 -55.5t-76 -36.5l205 -288h-72l-197 277q-6 -1 -12 -1h-12h-285v-276h-59v780h344zM171 724v-392h283q51 0 90 16t66 43t40.5 62.5t13.5 74.5t-13.5 74.5t-40.5 62.5t-66 43t-90 16
h-283z" />
    <glyph glyph-name="S" unicode="S" horiz-adv-x="904" 
d="M117 195v-4q0 -33 17 -60.5t49 -47.5t77 -31.5t102 -11.5q109 0 166 41t57 104q0 38 -19.5 65t-52.5 47t-77 35.5t-93 30.5q-48 15 -97 32.5t-89.5 43.5t-66 62.5t-25.5 89.5q0 46 19.5 83.5t55.5 64.5t87.5 41.5t114.5 14.5q64 0 118 -15t92.5 -42t60 -64t21.5 -81v-9
h-58v5q0 33 -16 60.5t-46.5 47.5t-74 31.5t-97.5 11.5q-105 0 -160 -41t-55 -104q0 -38 18.5 -64t50.5 -46t74 -35t90 -30q47 -14 98 -31.5t93 -44t69.5 -64t27.5 -92.5q0 -46 -20.5 -83.5t-58 -64t-90 -41t-117.5 -14.5q-67 0 -122.5 15t-95.5 42t-62.5 64t-22.5 81v8h58z
" />
    <glyph glyph-name="T" unicode="T" horiz-adv-x="876" 
d="M27 780h622v-58h-282v-722h-59v722h-281v58z" />
    <glyph glyph-name="U" unicode="U" horiz-adv-x="1056" 
d="M755 780v-485q0 -66 -21 -122.5t-62.5 -98t-102.5 -65.5t-141 -24t-141 24t-102.5 65.5t-62.5 98t-21 122.5v485h59v-483q0 -55 17.5 -101.5t51.5 -80.5t84 -53t115 -19q66 0 116 19t83.5 53t51 80.5t17.5 101.5v483h59z" />
    <glyph glyph-name="V" unicode="V" 
d="M373 0l-359 780h66l324 -717l325 717h65l-358 -780h-63z" />
    <glyph glyph-name="W" unicode="W" horiz-adv-x="1333" 
d="M275 0l-251 780h64l220 -692l229 692h58l229 -692l221 692h64l-251 -780h-65l-227 685l-226 -685h-65z" />
    <glyph glyph-name="X" unicode="X" horiz-adv-x="891" 
d="M345 441l253 339h70l-287 -387l293 -393h-71l-257 346l-257 -346h-72l293 393l-287 387h70z" />
    <glyph glyph-name="Y" unicode="Y" horiz-adv-x="933" 
d="M366 347l284 433h69l-323 -494v-286h-59v285l-323 495h69z" />
    <glyph glyph-name="Z" unicode="Z" horiz-adv-x="820" 
d="M50 780h530v-45l-467 -677h465v-58h-545v45l466 677h-449v58z" />
    <glyph glyph-name="bracketleft" unicode="[" horiz-adv-x="566" 
d="M331 -186h-241v1153h241v-57h-182v-1039h182v-57z" />
    <glyph glyph-name="backslash" unicode="\" horiz-adv-x="874" 
d="M96 927l548 -1076h-65l-548 1076h65z" />
    <glyph glyph-name="bracketright" unicode="]" horiz-adv-x="566" 
d="M35 967h241v-1153h-241v57h182v1039h-182v57z" />
    <glyph glyph-name="asciicircum" unicode="^" horiz-adv-x="810" 
d="M330 780l221 -432h-64l-182 358l-182 -358h-64l220 432h51z" />
    <glyph glyph-name="underscore" unicode="_" horiz-adv-x="827" 
d="M588 -134h-549v54h549v-54z" />
    <glyph glyph-name="grave" unicode="`" horiz-adv-x="475" 
d="M252 844l-252 138l29 51l246 -149z" />
    <glyph glyph-name="a" unicode="a" 
d="M436 780l358 -780h-65l-80 176h-490l-79 -176h-66l358 780h64zM185 232h438l-219 484z" />
    <glyph glyph-name="b" unicode="b" horiz-adv-x="988" 
d="M112 780h352q57 0 99.5 -16.5t71.5 -44t43.5 -64t14.5 -76.5q0 -61 -32 -109t-86 -71q69 -21 109.5 -72.5t40.5 -118.5q0 -42 -16 -80t-45.5 -66.5t-71.5 -45t-94 -16.5h-386v780zM171 370v-315h322q40 0 72 13t54 35t34 51t12 60t-12 59t-34 49.5t-54 34.5t-72 13h-322z
M171 724v-304h306q36 0 64.5 12.5t49 34t31.5 49t11 57.5t-11 57t-32.5 48t-53.5 33.5t-75 12.5h-290z" />
    <glyph glyph-name="c" unicode="c" horiz-adv-x="1061" 
d="M815 189q-26 -46 -63.5 -83.5t-82.5 -64.5t-97.5 -41.5t-108.5 -14.5q-84 0 -158.5 32t-129.5 86.5t-87 128.5t-32 158t32 157.5t87 128.5t129.5 87t158.5 32q56 0 108 -14.5t97 -41.5t82 -64.5t64 -82.5l-54 -26q-23 38 -54.5 69t-69.5 53.5t-82 35t-91 12.5
q-72 0 -135 -27.5t-110 -74.5t-74.5 -110t-27.5 -134q0 -72 27.5 -135t74.5 -110t110 -74t135 -27q96 0 174 47t124 124z" />
    <glyph glyph-name="d" unicode="d" horiz-adv-x="1041" 
d="M112 780h305q89 0 157 -30.5t113.5 -83t69 -123.5t23.5 -153t-23.5 -153.5t-69 -124t-113.5 -82.5t-157 -30h-305v780zM171 722v-664h243q74 0 131 25.5t96 70t59.5 105t20.5 131.5t-20.5 131.5t-59.5 105t-96 70t-131 25.5h-243z" />
    <glyph glyph-name="e" unicode="e" horiz-adv-x="910" 
d="M112 780h536v-58h-477v-311h406v-56h-406v-297h477v-58h-536v780z" />
    <glyph glyph-name="f" unicode="f" horiz-adv-x="885" 
d="M112 780h516v-58h-457v-337h396v-56h-396v-329h-59v780z" />
    <glyph glyph-name="g" unicode="g" horiz-adv-x="1084" 
d="M472 401h341v-401h-53v134q-24 -35 -56.5 -62.5t-70.5 -46.5t-81 -29.5t-89 -10.5q-84 0 -158.5 32t-129.5 86.5t-87 128.5t-32 158t32 157.5t87 128.5t129.5 87t158.5 32q100 0 185 -45t141 -120l-49 -34q-48 64 -120 102t-157 38q-72 0 -135 -27.5t-110 -74.5
t-74.5 -110t-27.5 -134q0 -72 27.5 -135t74.5 -110t110 -74t135 -27q94 0 171 45.5t123 121.5v138h-285v52z" />
    <glyph glyph-name="h" unicode="h" horiz-adv-x="1078" 
d="M766 780v-780h-59v355h-536v-355h-59v780h59v-369h536v369h59z" />
    <glyph glyph-name="i" unicode="i" horiz-adv-x="482" 
d="M171 780v-780h-59v780h59z" />
    <glyph glyph-name="j" unicode="j" horiz-adv-x="881" 
d="M578 780v-520q0 -68 -21.5 -119t-58 -86t-84.5 -52.5t-102 -17.5t-102.5 17.5t-85 52.5t-58.5 86t-22 119v66h60v-66q0 -55 17 -96t45.5 -68t66 -40t79.5 -13q41 0 78.5 13t66 40t45.5 68t17 96v520h59z" />
    <glyph glyph-name="k" unicode="k" horiz-adv-x="978" 
d="M112 780h59v-476l503 476h80l-339 -322l353 -458h-75l-322 416l-200 -190v-226h-59v780z" />
    <glyph glyph-name="l" unicode="l" horiz-adv-x="855" 
d="M112 780h59v-722h451v-58h-510v780z" />
    <glyph glyph-name="m" unicode="m" horiz-adv-x="1215" 
d="M112 0v780h56l340 -676l340 676h56v-780h-59v656l-317 -631h-41l-316 629v-654h-59z" />
    <glyph glyph-name="n" unicode="n" horiz-adv-x="1075" 
d="M112 0v780h53l540 -679v679h59v-780h-53l-540 678v-678h-59z" />
    <glyph glyph-name="o" unicode="o" horiz-adv-x="1125" 
d="M56 390q0 84 32 157.5t87 128.5t129.5 87t158.5 32t158 -32t129 -87t87 -128.5t32 -157.5t-32 -158t-87 -128.5t-129 -86.5t-158 -32t-158.5 32t-129.5 86.5t-87 128.5t-32 158zM116 390q0 -72 27.5 -135t74.5 -110t110 -74t135 -27q71 0 134 27t110 74t74.5 110
t27.5 135q0 71 -27.5 134t-74.5 110t-110 74.5t-134 27.5q-72 0 -135 -27.5t-110 -74.5t-74.5 -110t-27.5 -134z" />
    <glyph glyph-name="p" unicode="p" horiz-adv-x="942" 
d="M112 780h301q68 0 121.5 -21.5t90 -58.5t55.5 -86t19 -103q0 -53 -19 -101.5t-55.5 -85.5t-90 -59t-121.5 -22h-242v-243h-59v780zM171 724v-425h240q54 0 96.5 17.5t72 47t44.5 68t15 79.5q0 43 -15 81.5t-44.5 68t-72 46.5t-96.5 17h-240z" />
    <glyph glyph-name="q" unicode="q" horiz-adv-x="1122" 
d="M56 390q0 84 32 157.5t86.5 128.5t128.5 87t158 32t157.5 -32t128.5 -87t87 -128.5t32 -157.5q0 -71 -22.5 -134t-63 -114.5t-95.5 -88.5t-119 -54q38 -19 76.5 -41t76 -40.5t73 -31t67.5 -12.5q33 0 60 12.5t49 41.5l46 -38q-17 -22 -36 -36t-39 -22.5t-40.5 -12
t-38.5 -3.5q-38 0 -77 12t-78 30.5t-77 40.5t-74.5 41t-72 32.5t-68.5 15.5q-75 9 -140.5 43.5t-113.5 88t-75.5 123t-27.5 147.5zM116 390q0 -72 27 -135t74 -110t110 -74t134 -27t133.5 27t109.5 74t74 110t27 135q0 71 -27 134t-74 110t-109.5 74.5t-133.5 27.5
t-134 -27.5t-110 -74.5t-74 -110t-27 -134z" />
    <glyph glyph-name="r" unicode="r" horiz-adv-x="994" 
d="M456 780q63 0 112.5 -20t83.5 -54.5t52 -80t18 -96.5q0 -41 -12 -79t-34.5 -70t-55.5 -55.5t-76 -36.5l205 -288h-72l-197 277q-6 -1 -12 -1h-12h-285v-276h-59v780h344zM171 724v-392h283q51 0 90 16t66 43t40.5 62.5t13.5 74.5t-13.5 74.5t-40.5 62.5t-66 43t-90 16
h-283z" />
    <glyph glyph-name="s" unicode="s" horiz-adv-x="904" 
d="M117 195v-4q0 -33 17 -60.5t49 -47.5t77 -31.5t102 -11.5q109 0 166 41t57 104q0 38 -19.5 65t-52.5 47t-77 35.5t-93 30.5q-48 15 -97 32.5t-89.5 43.5t-66 62.5t-25.5 89.5q0 46 19.5 83.5t55.5 64.5t87.5 41.5t114.5 14.5q64 0 118 -15t92.5 -42t60 -64t21.5 -81v-9
h-58v5q0 33 -16 60.5t-46.5 47.5t-74 31.5t-97.5 11.5q-105 0 -160 -41t-55 -104q0 -38 18.5 -64t50.5 -46t74 -35t90 -30q47 -14 98 -31.5t93 -44t69.5 -64t27.5 -92.5q0 -46 -20.5 -83.5t-58 -64t-90 -41t-117.5 -14.5q-67 0 -122.5 15t-95.5 42t-62.5 64t-22.5 81v8h58z
" />
    <glyph glyph-name="t" unicode="t" horiz-adv-x="876" 
d="M27 780h622v-58h-282v-722h-59v722h-281v58z" />
    <glyph glyph-name="u" unicode="u" horiz-adv-x="1056" 
d="M755 780v-485q0 -66 -21 -122.5t-62.5 -98t-102.5 -65.5t-141 -24t-141 24t-102.5 65.5t-62.5 98t-21 122.5v485h59v-483q0 -55 17.5 -101.5t51.5 -80.5t84 -53t115 -19q66 0 116 19t83.5 53t51 80.5t17.5 101.5v483h59z" />
    <glyph glyph-name="v" unicode="v" 
d="M373 0l-359 780h66l324 -717l325 717h65l-358 -780h-63z" />
    <glyph glyph-name="w" unicode="w" horiz-adv-x="1333" 
d="M275 0l-251 780h64l220 -692l229 692h58l229 -692l221 692h64l-251 -780h-65l-227 685l-226 -685h-65z" />
    <glyph glyph-name="x" unicode="x" horiz-adv-x="891" 
d="M345 441l253 339h70l-287 -387l293 -393h-71l-257 346l-257 -346h-72l293 393l-287 387h70z" />
    <glyph glyph-name="y" unicode="y" horiz-adv-x="933" 
d="M366 347l284 433h69l-323 -494v-286h-59v285l-323 495h69z" />
    <glyph glyph-name="z" unicode="z" horiz-adv-x="820" 
d="M50 780h530v-45l-467 -677h465v-58h-545v45l466 677h-449v58z" />
    <glyph glyph-name="braceleft" unicode="{" horiz-adv-x="537" 
d="M50 416h7q27 0 47 9t34 23.5t21 33t7 37.5q0 30 -11.5 63t-26 68.5t-26 73.5t-11.5 78q0 31 9.5 61t30.5 53t54.5 37t80.5 14h21v-55h-21q-36 0 -59 -10.5t-36.5 -27t-18.5 -36.5t-5 -39q0 -35 12 -70.5t26.5 -70.5t26.5 -70t12 -69q0 -39 -19.5 -74t-57.5 -55
q38 -20 57.5 -55.5t19.5 -73.5q0 -33 -12 -68t-26.5 -70.5t-26.5 -71t-12 -69.5q0 -20 5 -40t18.5 -36t36.5 -26.5t59 -10.5h21v-55h-21q-47 0 -80.5 14t-54.5 37t-30.5 52.5t-9.5 61.5q0 40 11.5 77.5t26 73t26 68.5t11.5 63q0 19 -7 37.5t-21 33t-34 23.5t-47 9h-7v52z
" />
    <glyph glyph-name="bar" unicode="|" horiz-adv-x="437" 
d="M148 966v-1151h-58v1151h58z" />
    <glyph glyph-name="braceright" unicode="}" horiz-adv-x="537" 
d="M287 364h-7q-27 0 -47 -9t-34 -23.5t-21 -33t-7 -37.5q0 -30 11.5 -63t26 -68.5t26 -73.5t11.5 -78q0 -32 -9.5 -61.5t-30.5 -52.5t-54.5 -37t-80.5 -14h-21v55h21q36 0 59 10.5t36.5 27t18.5 36.5t5 39q0 35 -12 70.5t-26.5 70.5t-26.5 70t-12 69q0 39 19.5 74t57.5 55
q-38 20 -57.5 55.5t-19.5 73.5q0 33 12 68t26.5 70.5t26.5 70.5t12 70q0 19 -5 39.5t-18.5 36.5t-36.5 26.5t-59 10.5h-21v55h21q47 0 80.5 -14t54.5 -37t30.5 -52.5t9.5 -61.5q0 -40 -11.5 -78t-26 -73t-26 -68t-11.5 -63q0 -19 7 -37.5t21 -33t34 -23.5t47 -9h7v-52z" />
    <glyph glyph-name="asciitilde" unicode="~" horiz-adv-x="595" 
d="M92 259q0 22 5.5 47t17.5 46t32.5 34.5t50.5 13.5q26 0 47.5 -11.5t54.5 -43.5q18 -18 34.5 -31t36.5 -13q28 0 42.5 26t13.5 64h46q0 -22 -5 -47t-16.5 -46t-31 -34.5t-49.5 -13.5q-26 0 -46 12.5t-53 42.5q-21 19 -37.5 31.5t-36.5 12.5q-29 0 -45 -26t-16 -64h-45z
" />
    <glyph glyph-name="uni00A0" unicode="&#xa0;" horiz-adv-x="546" 
 />
    <glyph glyph-name="exclamdown" unicode="&#xa1;" horiz-adv-x="458" 
d="M97 0l9 579h46l9 -579h-64zM181 741q0 -21 -15.5 -36t-36.5 -15t-36.5 15t-15.5 36q0 22 15.5 36.5t36.5 14.5t36.5 -14.5t15.5 -36.5z" />
    <glyph glyph-name="cent" unicode="&#xa2;" horiz-adv-x="847" 
d="M578 192q-33 -54 -87.5 -88.5t-120.5 -42.5v-86h-57v86q-53 5 -98.5 28.5t-79 60.5t-53 84t-19.5 100q0 52 19.5 99.5t53 84t79 60t98.5 28.5v87h57v-87q66 -7 120 -42t87 -88l-51 -25q-29 45 -77.5 72t-106.5 27q-45 0 -85 -17t-69.5 -46.5t-46.5 -68.5t-17 -84
t17 -84.5t46.5 -68.5t69.5 -46t85 -17q59 0 107.5 27t77.5 72z" />
    <glyph glyph-name="sterling" unicode="&#xa3;" horiz-adv-x="800" 
d="M67 45q31 19 50.5 40t30 44t14.5 47.5t4 51.5q0 23 -2.5 44.5t-6.5 41.5h-87v55h75q-15 53 -30 102t-15 103t17.5 95t47.5 69t69.5 42.5t83.5 14.5q46 0 85 -15t67.5 -42t45 -64t16.5 -81v-9h-58v4q0 34 -12 61.5t-32.5 47t-48.5 30t-61 10.5t-62 -10.5t-51.5 -31
t-35.5 -51t-13 -70.5q0 -24 4.5 -48.5t11.5 -49.5t15.5 -51.5t15.5 -55.5h221v-55h-209q3 -20 5 -40.5t2 -43.5q0 -41 -10.5 -85t-45.5 -86h356v-59h-457v45z" />
    <glyph glyph-name="yen" unicode="&#xa5;" horiz-adv-x="979" 
d="M136 414h140l-239 366h69l283 -433l284 433h69l-240 -366h142v-52h-176l-49 -76v-55h225v-52h-225v-179h-59v179h-224v52h224v54l-50 77h-174v52z" />
    <glyph glyph-name="brokenbar" unicode="&#xa6;" horiz-adv-x="449" 
d="M154 321v-506h-58v506h58zM154 966v-506h-58v506h58z" />
    <glyph glyph-name="section" unicode="&#xa7;" horiz-adv-x="748" 
d="M479 378q0 -45 -29.5 -78.5t-84.5 -50.5q41 -20 67.5 -49.5t26.5 -76.5q0 -62 -49 -100t-135 -38q-42 0 -77 10t-60.5 30.5t-40 50.5t-14.5 70v8h56v-6q0 -30 10.5 -51.5t29 -35.5t43 -20.5t53.5 -6.5q63 0 95.5 27t32.5 65q0 22 -11.5 38.5t-32.5 30t-49.5 25
t-61.5 23.5q-27 10 -58.5 22.5t-58.5 31t-44.5 44t-17.5 60.5q0 45 29.5 79t84.5 51q-42 21 -68.5 50t-26.5 76q0 62 49 100t135 38q42 0 77 -10.5t61 -30.5t40.5 -50.5t14.5 -69.5v-9h-57v7q0 30 -10.5 51.5t-29 35.5t-43 20.5t-52.5 6.5q-64 0 -96 -26.5t-32 -64.5
q0 -23 12 -40t33 -30.5t49.5 -24.5t60.5 -23q27 -10 58.5 -22.5t58 -31t44.5 -44t18 -61.5zM262 498q-60 -3 -97.5 -29.5t-37.5 -68.5q0 -23 11.5 -40t32 -30t49 -23.5t61.5 -22.5l5 -2q60 3 97.5 29.5t37.5 68.5q0 23 -11.5 40t-32.5 30t-49 23.5t-61 22.5z" />
    <glyph glyph-name="dieresis" unicode="&#xa8;" horiz-adv-x="510" 
d="M0 923q0 19 13.5 32.5t32.5 13.5t32 -13.5t13 -32.5t-13 -32t-32 -13t-32.5 13t-13.5 32zM218 923q0 19 13.5 32.5t32.5 13.5t32.5 -13.5t13.5 -32.5t-13.5 -32t-32.5 -13t-32.5 13t-13.5 32z" />
    <glyph glyph-name="copyright" unicode="&#xa9;" horiz-adv-x="1135" 
d="M63 390q0 84 31.5 158t86 129t128.5 86.5t158 31.5q85 0 158.5 -31.5t128.5 -86.5t86.5 -129t31.5 -158q0 -85 -31.5 -159t-86.5 -128.5t-128.5 -86t-158.5 -31.5q-84 0 -158 31.5t-128.5 86t-86 128.5t-31.5 159zM111 390q0 -74 28 -139t76.5 -113t113 -76t138.5 -28
t139 28t113.5 76.5t76.5 113t28 138.5q0 73 -28 138t-76.5 114t-113.5 77t-139 28t-138.5 -28t-113 -77t-76.5 -114t-28 -138zM649 288q-26 -45 -72 -72t-102 -27q-41 0 -78 16t-64.5 43.5t-43.5 64t-16 78.5q0 41 16 78t43.5 64.5t64.5 43.5t78 16q55 0 101.5 -27.5
t72.5 -72.5l-44 -22q-20 32 -53.5 52t-76.5 20q-32 0 -59.5 -12t-48.5 -32.5t-33 -48.5t-12 -59q0 -32 12 -60t33 -48.5t48.5 -32.5t59.5 -12q43 0 76.5 20t54.5 52z" />
    <glyph glyph-name="ordfeminine" unicode="&#xaa;" horiz-adv-x="698" 
d="M359 515q-22 -29 -54 -45.5t-73 -16.5q-35 0 -66 13.5t-54 36.5t-36 54t-13 67q0 35 13 66t36 54.5t54 37t66 13.5q41 0 73 -17t54 -46v53h47v-322h-47v52zM111 624q0 -26 9.5 -48.5t26 -39t39 -26t48.5 -9.5t48.5 9.5t39.5 26t26.5 39t9.5 48.5q0 25 -9.5 48t-26.5 39.5
t-39.5 26.5t-48.5 10t-48.5 -10t-39 -26.5t-26 -39.5t-9.5 -48z" />
    <glyph glyph-name="guillemotleft" unicode="&#xab;" horiz-adv-x="874" 
d="M60 389l252 226v-74l-195 -175l195 -175v-74l-252 225v47zM325 389l252 226v-74l-195 -175l195 -175v-74l-252 225v47z" />
    <glyph glyph-name="registered" unicode="&#xae;" horiz-adv-x="808" 
d="M61 552q0 50 19 94.5t52 77.5t77.5 52t94.5 19t94.5 -19t77.5 -52t52 -77.5t19 -94.5t-19 -94.5t-52 -77.5t-77.5 -52t-94.5 -19t-94.5 19t-77.5 52t-52 77.5t-19 94.5zM93 552q0 -44 16.5 -82.5t45 -67t67 -45t82.5 -16.5t82.5 16.5t67 45t45 67t16.5 82.5t-16.5 82.5
t-45 67t-67 45t-82.5 16.5t-82.5 -16.5t-67 -45t-45 -67t-16.5 -82.5zM376 440l-48 83h-81v-83h-30v235h108q38 0 59 -22.5t21 -53.5q0 -23 -12 -42.5t-35 -27.5l52 -89h-34zM247 645v-92h77q24 0 37.5 14.5t13.5 31.5t-13.5 31.5t-37.5 14.5h-77z" />
    <glyph glyph-name="macron" unicode="&#xaf;" horiz-adv-x="527" 
d="M327 878h-327v49h327v-49z" />
    <glyph glyph-name="degree" unicode="&#xb0;" horiz-adv-x="680" 
d="M62 617q0 37 14 69.5t38 56.5t56 38t69 14t69.5 -14t57 -38t38.5 -56.5t14 -69.5t-14 -69t-38.5 -56t-57 -38t-69.5 -14t-69 14t-56 38t-38 56t-14 69zM108 617q0 -27 10 -51t28 -42t42 -28.5t51 -10.5q28 0 52 10.5t42 28.5t28.5 42t10.5 51t-10.5 51t-28.5 42t-42 28.5
t-52 10.5q-27 0 -51 -10.5t-42 -28.5t-28 -42t-10 -51z" />
    <glyph glyph-name="plusminus" unicode="&#xb1;" horiz-adv-x="816" 
d="M336 592v-190h190v-56h-190v-189h-56v189h-190v56h190v190h56zM526 48h-436v56h436v-56z" />
    <glyph glyph-name="uni00B2" unicode="&#xb2;" horiz-adv-x="655" 
d="M401 273h-353v36l209 192q19 18 36 34t30 32.5t20 34t7 37.5q0 49 -34.5 77t-84.5 28q-25 0 -48.5 -7t-41.5 -21t-28.5 -36.5t-10.5 -53.5v-9h-47v9q0 43 15.5 74t40.5 51t56.5 29.5t63.5 9.5q33 0 63.5 -10.5t53 -30t36 -47.5t13.5 -63q0 -28 -9.5 -52t-25.5 -45
t-35.5 -39.5t-38.5 -36.5l-159 -146h272v-47z" />
    <glyph glyph-name="uni00B3" unicode="&#xb3;" horiz-adv-x="648" 
d="M71 350q39 -23 73.5 -32t65.5 -9q60 0 97.5 29t37.5 72q0 47 -48.5 76.5t-136.5 29.5v40q45 0 77 9.5t52 24.5t29.5 33t9.5 36q0 39 -32 63t-79 24t-79 -22t-32 -57v-2h-45v6q0 24 12 46t33 38t49.5 25.5t61.5 9.5q31 0 59.5 -8.5t50.5 -25t35 -40t13 -52.5
q0 -36 -25 -71.5t-79 -55.5q57 -17 89.5 -50t32.5 -80q0 -31 -14 -57.5t-39 -45.5t-58 -30t-70 -11q-38 0 -80 11.5t-86 37.5z" />
    <glyph glyph-name="acute" unicode="&#xb4;" horiz-adv-x="475" 
d="M0 884l246 149l29 -51l-252 -138z" />
    <glyph glyph-name="paragraph" unicode="&#xb6;" horiz-adv-x="911" 
d="M561 0v724h-150v-724h-58v283h-59q-52 0 -97 19.5t-78.5 53t-53 78.5t-19.5 97t19.5 97t53 79t78.5 53.5t97 19.5h326v-780h-59zM104 531q0 -39 15 -74t41 -61.5t60.5 -41.5t73.5 -15h59v385h-59q-39 0 -73.5 -15.5t-60.5 -41.5t-41 -61t-15 -75z" />
    <glyph glyph-name="periodcentered" unicode="&#xb7;" horiz-adv-x="477" 
d="M87 366q0 21 15.5 36t36.5 15t36 -15t15 -36q0 -22 -15 -36.5t-36 -14.5t-36.5 14.5t-15.5 36.5z" />
    <glyph glyph-name="cedilla" unicode="&#xb8;" horiz-adv-x="472" 
d="M151 6l-23 -67q33 -2 57 -11.5t39.5 -24t23 -32t7.5 -35.5q0 -20 -8 -38t-23.5 -32.5t-38 -23t-50.5 -8.5q-23 0 -46 5t-40 11q-21 7 -39 16l20 41q14 -7 42 -17.5t61 -10.5q42 0 61.5 19.5t19.5 42.5q0 12 -6 24.5t-19 22t-34.5 14.5t-52.5 2l-19 21l30 81h38z" />
    <glyph glyph-name="uni00B9" unicode="&#xb9;" horiz-adv-x="455" 
d="M36 742l116 38h32v-507h-47v452l-101 -33v50z" />
    <glyph glyph-name="ordmasculine" unicode="&#xba;" horiz-adv-x="669" 
d="M63 624q0 35 13.5 66t36.5 54.5t54 37t67 13.5t67 -13.5t54.5 -37t37 -54.5t13.5 -66q0 -36 -13.5 -67t-37 -54t-54.5 -36.5t-67 -13.5t-67 13.5t-54 36.5t-36.5 54t-13.5 67zM111 624q0 -26 9.5 -48.5t26 -39t39 -26t48.5 -9.5t48.5 9.5t39.5 26t26.5 39t9.5 48.5
q0 25 -9.5 48t-26.5 39.5t-39.5 26.5t-48.5 10t-48.5 -10t-39 -26.5t-26 -39.5t-9.5 -48z" />
    <glyph glyph-name="guillemotright" unicode="&#xbb;" horiz-adv-x="875" 
d="M349 343l-252 -226v74l195 175l-195 175v74l252 -225v-47zM615 343l-252 -226v74l195 175l-195 175v74l252 -225v-47z" />
    <glyph glyph-name="onequarter" unicode="&#xbc;" horiz-adv-x="1146" 
d="M43 742l116 38h32v-507h-47v452l-101 -33v50zM784 0v106h-288v35l216 366h52l-210 -357h230v136h46v-136h75v-44h-75v-106h-46zM174 0l462 780h53l-462 -780h-53z" />
    <glyph glyph-name="onehalf" unicode="&#xbd;" horiz-adv-x="1215" 
d="M42 742l116 38h32v-507h-47v452l-101 -33v50zM956 0h-353v36l209 192q19 18 36 34t30 32.5t20 34t7 37.5q0 49 -34.5 77t-84.5 28q-25 0 -48.5 -7t-41.5 -21t-28.5 -36.5t-10.5 -53.5v-9h-47v9q0 43 15.5 74t40.5 51t56.5 29.5t63.5 9.5q33 0 63.5 -10.5t53 -30t36 -47.5
t13.5 -63q0 -28 -9.5 -52t-25.5 -45t-35.5 -39.5t-38.5 -36.5l-159 -146h272v-47zM173 0l462 780h53l-462 -780h-53z" />
    <glyph glyph-name="threequarters" unicode="&#xbe;" horiz-adv-x="1268" 
d="M906 0v106h-288v35l216 366h52l-210 -357h230v136h46v-136h75v-44h-75v-106h-46zM296 0l462 780h53l-462 -780h-53zM87 350q39 -23 73.5 -32t65.5 -9q60 0 97.5 29t37.5 72q0 47 -48.5 76.5t-136.5 29.5v40q45 0 77 9.5t52 24.5t29.5 33t9.5 36q0 39 -32 63t-79 24
t-79 -22t-32 -57v-2h-45v6q0 24 12 46t33 38t49.5 25.5t61.5 9.5q31 0 59.5 -8.5t50.5 -25t35 -40t13 -52.5q0 -36 -25 -71.5t-79 -55.5q57 -17 89.5 -50t32.5 -80q0 -31 -14 -57.5t-39 -45.5t-58 -30t-70 -11q-38 0 -80 11.5t-86 37.5z" />
    <glyph glyph-name="questiondown" unicode="&#xbf;" horiz-adv-x="732" 
d="M325 516v-36q0 -30 -10 -53.5t-26.5 -42t-36.5 -34t-41 -29.5q-20 -14 -38 -28.5t-31.5 -31t-21.5 -37t-8 -47.5q0 -30 11 -55t31 -43t47.5 -28t60.5 -10q30 0 58.5 8.5t51 26t36 42.5t13.5 58v21h58v-25q0 -46 -19.5 -81t-51 -58.5t-70 -35.5t-77.5 -12q-43 0 -80.5 13
t-66 38t-45 60.5t-16.5 79.5q0 36 10.5 63.5t27.5 49t38.5 39t43.5 32.5q19 14 37 27t32 27.5t22 32t8 39.5v30h53zM247 740q0 21 15.5 36t36.5 15t36 -15t15 -36q0 -22 -15 -36.5t-36 -14.5t-36.5 14.5t-15.5 36.5z" />
    <glyph glyph-name="Agrave" unicode="&#xc0;" 
d="M436 780l358 -780h-65l-80 176h-490l-79 -176h-66l358 780h64zM185 232h438l-219 484zM519 844l-252 138l29 51l246 -149z" />
    <glyph glyph-name="Aacute" unicode="&#xc1;" 
d="M436 780l358 -780h-65l-80 176h-490l-79 -176h-66l358 780h64zM185 232h438l-219 484zM267 884l246 149l29 -51l-252 -138z" />
    <glyph glyph-name="Acircumflex" unicode="&#xc2;" 
d="M436 780l358 -780h-65l-80 176h-490l-79 -176h-66l358 780h64zM185 232h438l-219 484zM548 861l-145 104l-143 -104l-30 37l173 129l175 -129z" />
    <glyph glyph-name="Atilde" unicode="&#xc3;" 
d="M436 780l358 -780h-65l-80 176h-490l-79 -176h-66l358 780h64zM185 232h438l-219 484zM213 863q0 22 5.5 47t17.5 46t32.5 34.5t50.5 13.5q26 0 47.5 -11.5t54.5 -43.5q18 -18 34.5 -31t36.5 -13q28 0 42.5 26t13.5 64h46q0 -22 -5 -47t-16.5 -46t-31 -34.5t-49.5 -13.5
q-26 0 -46 12.5t-53 42.5q-21 19 -37.5 31.5t-36.5 12.5q-29 0 -45 -26t-16 -64h-45z" />
    <glyph glyph-name="Adieresis" unicode="&#xc4;" 
d="M436 780l358 -780h-65l-80 176h-490l-79 -176h-66l358 780h64zM185 232h438l-219 484zM249 923q0 19 13.5 32.5t32.5 13.5t32 -13.5t13 -32.5t-13 -32t-32 -13t-32.5 13t-13.5 32zM467 923q0 19 13.5 32.5t32.5 13.5t32.5 -13.5t13.5 -32.5t-13.5 -32t-32.5 -13t-32.5 13
t-13.5 32z" />
    <glyph glyph-name="Aring" unicode="&#xc5;" 
d="M436 780l358 -780h-65l-80 176h-490l-79 -176h-66l358 780h64zM185 232h438l-219 484zM290 956q0 24 9 44.5t24.5 36t36.5 24.5t45 9t44.5 -9t36 -24t24.5 -36t9 -45t-9 -45t-24.5 -36.5t-36 -24.5t-44.5 -9t-45 9t-36.5 24.5t-24.5 36.5t-9 45zM333 956q0 -30 21 -51
t51 -21q29 0 50 21t21 51q0 29 -21 50t-50 21q-30 0 -51 -21t-21 -50z" />
    <glyph glyph-name="AE" unicode="&#xc6;" horiz-adv-x="1449" 
d="M650 176h-423l-142 -176h-77l632 780h546v-58h-477v-311h406v-56h-406v-297h477v-58h-536v176zM650 232v467l-378 -467h378z" />
    <glyph glyph-name="Ccedilla" unicode="&#xc7;" horiz-adv-x="1061" 
d="M815 189q-26 -46 -63.5 -83.5t-82.5 -64.5t-97.5 -41.5t-108.5 -14.5h-1l-20 -59q33 -2 57 -11.5t39.5 -24t23 -32t7.5 -35.5q0 -20 -8 -38t-23.5 -32.5t-38 -23t-50.5 -8.5q-23 0 -46 5t-40 11q-21 7 -39 16l20 41q14 -7 42 -17.5t61 -10.5q42 0 61.5 19.5t19.5 42.5
q0 12 -6 24.5t-19 22t-34.5 14.5t-52.5 2l-19 21l28 75q-78 7 -145 41t-117 88t-78.5 124t-28.5 150q0 84 32 157.5t87 128.5t129.5 87t158.5 32q56 0 108 -14.5t97 -41.5t82 -64.5t64 -82.5l-54 -26q-23 38 -54.5 69t-69.5 53.5t-82 35t-91 12.5q-72 0 -135 -27.5
t-110 -74.5t-74.5 -110t-27.5 -134q0 -72 27.5 -135t74.5 -110t110 -74t135 -27q96 0 174 47t124 124z" />
    <glyph glyph-name="Egrave" unicode="&#xc8;" horiz-adv-x="910" 
d="M112 780h536v-58h-477v-311h406v-56h-406v-297h477v-58h-536v780zM494 844l-252 138l29 51l246 -149z" />
    <glyph glyph-name="Eacute" unicode="&#xc9;" horiz-adv-x="910" 
d="M112 780h536v-58h-477v-311h406v-56h-406v-297h477v-58h-536v780zM242 884l246 149l29 -51l-252 -138z" />
    <glyph glyph-name="Ecircumflex" unicode="&#xca;" horiz-adv-x="910" 
d="M112 780h536v-58h-477v-311h406v-56h-406v-297h477v-58h-536v780zM524 861l-145 104l-143 -104l-30 37l173 129l175 -129z" />
    <glyph glyph-name="Edieresis" unicode="&#xcb;" horiz-adv-x="910" 
d="M112 780h536v-58h-477v-311h406v-56h-406v-297h477v-58h-536v780zM225 923q0 19 13.5 32.5t32.5 13.5t32 -13.5t13 -32.5t-13 -32t-32 -13t-32.5 13t-13.5 32zM443 923q0 19 13.5 32.5t32.5 13.5t32.5 -13.5t13.5 -32.5t-13.5 -32t-32.5 -13t-32.5 13t-13.5 32z" />
    <glyph glyph-name="Igrave" unicode="&#xcc;" horiz-adv-x="482" 
d="M171 780v-780h-59v780h59zM256 844l-252 138l29 51l246 -149z" />
    <glyph glyph-name="Iacute" unicode="&#xcd;" horiz-adv-x="482" 
d="M171 780v-780h-59v780h59zM4 884l246 149l29 -51l-252 -138z" />
    <glyph glyph-name="Icircumflex" unicode="&#xce;" horiz-adv-x="482" 
d="M171 780v-780h-59v780h59zM286 861l-145 104l-143 -104l-30 37l173 129l175 -129z" />
    <glyph glyph-name="Idieresis" unicode="&#xcf;" horiz-adv-x="482" 
d="M171 780v-780h-59v780h59zM-14 923q0 19 13.5 32.5t32.5 13.5t32 -13.5t13 -32.5t-13 -32t-32 -13t-32.5 13t-13.5 32zM204 923q0 19 13.5 32.5t32.5 13.5t32.5 -13.5t13.5 -32.5t-13.5 -32t-32.5 -13t-32.5 13t-13.5 32z" />
    <glyph glyph-name="Eth" unicode="&#xd0;" horiz-adv-x="1042" 
d="M113 362h-88v53h88v365h305q89 0 157 -30.5t113.5 -83t69 -123.5t23.5 -153t-23.5 -153.5t-69 -124t-113.5 -82.5t-157 -30h-305v362zM452 362h-280v-304h243q74 0 131 25.5t96 70t59.5 105t20.5 131.5t-20.5 131.5t-59.5 105t-96 70t-131 25.5h-243v-307h280v-53z" />
    <glyph glyph-name="Ntilde" unicode="&#xd1;" horiz-adv-x="1075" 
d="M112 0v780h53l540 -679v679h59v-780h-53l-540 678v-678h-59zM247 863q0 22 5.5 47t17.5 46t32.5 34.5t50.5 13.5q26 0 47.5 -11.5t54.5 -43.5q18 -18 34.5 -31t36.5 -13q28 0 42.5 26t13.5 64h46q0 -22 -5 -47t-16.5 -46t-31 -34.5t-49.5 -13.5q-26 0 -46 12.5t-53 42.5
q-21 19 -37.5 31.5t-36.5 12.5q-29 0 -45 -26t-16 -64h-45z" />
    <glyph glyph-name="Ograve" unicode="&#xd2;" horiz-adv-x="1125" 
d="M56 390q0 84 32 157.5t87 128.5t129.5 87t158.5 32t158 -32t129 -87t87 -128.5t32 -157.5t-32 -158t-87 -128.5t-129 -86.5t-158 -32t-158.5 32t-129.5 86.5t-87 128.5t-32 158zM116 390q0 -72 27.5 -135t74.5 -110t110 -74t135 -27q71 0 134 27t110 74t74.5 110
t27.5 135q0 71 -27.5 134t-74.5 110t-110 74.5t-134 27.5q-72 0 -135 -27.5t-110 -74.5t-74.5 -110t-27.5 -134zM577 844l-252 138l29 51l246 -149z" />
    <glyph glyph-name="Oacute" unicode="&#xd3;" horiz-adv-x="1125" 
d="M56 390q0 84 32 157.5t87 128.5t129.5 87t158.5 32t158 -32t129 -87t87 -128.5t32 -157.5t-32 -158t-87 -128.5t-129 -86.5t-158 -32t-158.5 32t-129.5 86.5t-87 128.5t-32 158zM116 390q0 -72 27.5 -135t74.5 -110t110 -74t135 -27q71 0 134 27t110 74t74.5 110
t27.5 135q0 71 -27.5 134t-74.5 110t-110 74.5t-134 27.5q-72 0 -135 -27.5t-110 -74.5t-74.5 -110t-27.5 -134zM325 884l246 149l29 -51l-252 -138z" />
    <glyph glyph-name="Ocircumflex" unicode="&#xd4;" horiz-adv-x="1125" 
d="M56 390q0 84 32 157.5t87 128.5t129.5 87t158.5 32t158 -32t129 -87t87 -128.5t32 -157.5t-32 -158t-87 -128.5t-129 -86.5t-158 -32t-158.5 32t-129.5 86.5t-87 128.5t-32 158zM116 390q0 -72 27.5 -135t74.5 -110t110 -74t135 -27q71 0 134 27t110 74t74.5 110
t27.5 135q0 71 -27.5 134t-74.5 110t-110 74.5t-134 27.5q-72 0 -135 -27.5t-110 -74.5t-74.5 -110t-27.5 -134zM607 861l-145 104l-143 -104l-30 37l173 129l175 -129z" />
    <glyph glyph-name="Otilde" unicode="&#xd5;" horiz-adv-x="1125" 
d="M56 390q0 84 32 157.5t87 128.5t129.5 87t158.5 32t158 -32t129 -87t87 -128.5t32 -157.5t-32 -158t-87 -128.5t-129 -86.5t-158 -32t-158.5 32t-129.5 86.5t-87 128.5t-32 158zM116 390q0 -72 27.5 -135t74.5 -110t110 -74t135 -27q71 0 134 27t110 74t74.5 110
t27.5 135q0 71 -27.5 134t-74.5 110t-110 74.5t-134 27.5q-72 0 -135 -27.5t-110 -74.5t-74.5 -110t-27.5 -134zM272 863q0 22 5.5 47t17.5 46t32.5 34.5t50.5 13.5q26 0 47.5 -11.5t54.5 -43.5q18 -18 34.5 -31t36.5 -13q28 0 42.5 26t13.5 64h46q0 -22 -5 -47t-16.5 -46
t-31 -34.5t-49.5 -13.5q-26 0 -46 12.5t-53 42.5q-21 19 -37.5 31.5t-36.5 12.5q-29 0 -45 -26t-16 -64h-45z" />
    <glyph glyph-name="Odieresis" unicode="&#xd6;" horiz-adv-x="1125" 
d="M56 390q0 84 32 157.5t87 128.5t129.5 87t158.5 32t158 -32t129 -87t87 -128.5t32 -157.5t-32 -158t-87 -128.5t-129 -86.5t-158 -32t-158.5 32t-129.5 86.5t-87 128.5t-32 158zM116 390q0 -72 27.5 -135t74.5 -110t110 -74t135 -27q71 0 134 27t110 74t74.5 110
t27.5 135q0 71 -27.5 134t-74.5 110t-110 74.5t-134 27.5q-72 0 -135 -27.5t-110 -74.5t-74.5 -110t-27.5 -134zM308 923q0 19 13.5 32.5t32.5 13.5t32 -13.5t13 -32.5t-13 -32t-32 -13t-32.5 13t-13.5 32zM526 923q0 19 13.5 32.5t32.5 13.5t32.5 -13.5t13.5 -32.5
t-13.5 -32t-32.5 -13t-32.5 13t-13.5 32z" />
    <glyph glyph-name="multiply" unicode="&#xd7;" horiz-adv-x="795" 
d="M87 194l171 171l-171 172l39 39l171 -172l172 172l39 -39l-172 -172l172 -171l-39 -39l-172 171l-171 -171z" />
    <glyph glyph-name="Oslash" unicode="&#xd8;" horiz-adv-x="1125" 
d="M56 390q0 84 32 157.5t87 128.5t129.5 87t158.5 32q73 0 138.5 -24.5t118.5 -68.5l72 78h61l-100 -108q54 -55 85 -127.5t31 -154.5q0 -84 -32 -158t-87.5 -128.5t-129 -86.5t-157.5 -32q-74 0 -139.5 24t-119.5 68l-71 -77h-61l99 107q-54 55 -84.5 127.5t-30.5 155.5z
M116 390q0 -70 25.5 -131t70.5 -108l468 508q-45 36 -100 56.5t-117 20.5q-72 0 -135 -27.5t-110 -74.5t-74.5 -110t-27.5 -134zM809 390q0 69 -25.5 130t-70.5 108l-468 -507q45 -36 100 -56.5t118 -20.5q71 0 134 27t110 74t74.5 110t27.5 135z" />
    <glyph glyph-name="Ugrave" unicode="&#xd9;" horiz-adv-x="1056" 
d="M755 780v-485q0 -66 -21 -122.5t-62.5 -98t-102.5 -65.5t-141 -24t-141 24t-102.5 65.5t-62.5 98t-21 122.5v485h59v-483q0 -55 17.5 -101.5t51.5 -80.5t84 -53t115 -19q66 0 116 19t83.5 53t51 80.5t17.5 101.5v483h59zM542 844l-252 138l29 51l246 -149z" />
    <glyph glyph-name="Uacute" unicode="&#xda;" horiz-adv-x="1056" 
d="M755 780v-485q0 -66 -21 -122.5t-62.5 -98t-102.5 -65.5t-141 -24t-141 24t-102.5 65.5t-62.5 98t-21 122.5v485h59v-483q0 -55 17.5 -101.5t51.5 -80.5t84 -53t115 -19q66 0 116 19t83.5 53t51 80.5t17.5 101.5v483h59zM290 884l246 149l29 -51l-252 -138z" />
    <glyph glyph-name="Ucircumflex" unicode="&#xdb;" horiz-adv-x="1056" 
d="M755 780v-485q0 -66 -21 -122.5t-62.5 -98t-102.5 -65.5t-141 -24t-141 24t-102.5 65.5t-62.5 98t-21 122.5v485h59v-483q0 -55 17.5 -101.5t51.5 -80.5t84 -53t115 -19q66 0 116 19t83.5 53t51 80.5t17.5 101.5v483h59zM572 861l-145 104l-143 -104l-30 37l173 129
l175 -129z" />
    <glyph glyph-name="Udieresis" unicode="&#xdc;" horiz-adv-x="1056" 
d="M755 780v-485q0 -66 -21 -122.5t-62.5 -98t-102.5 -65.5t-141 -24t-141 24t-102.5 65.5t-62.5 98t-21 122.5v485h59v-483q0 -55 17.5 -101.5t51.5 -80.5t84 -53t115 -19q66 0 116 19t83.5 53t51 80.5t17.5 101.5v483h59zM273 923q0 19 13.5 32.5t32.5 13.5t32 -13.5
t13 -32.5t-13 -32t-32 -13t-32.5 13t-13.5 32zM491 923q0 19 13.5 32.5t32.5 13.5t32.5 -13.5t13.5 -32.5t-13.5 -32t-32.5 -13t-32.5 13t-13.5 32z" />
    <glyph glyph-name="Yacute" unicode="&#xdd;" horiz-adv-x="933" 
d="M230 884l246 149l29 -51l-252 -138zM366 347l284 433h69l-323 -494v-286h-59v285l-323 495h69z" />
    <glyph glyph-name="Thorn" unicode="&#xde;" horiz-adv-x="943" 
d="M112 780h59v-121h242q68 0 121.5 -21.5t90 -58.5t55.5 -86t19 -103q0 -53 -19 -101.5t-55.5 -85.5t-90 -59t-121.5 -22h-242v-122h-59v780zM171 603v-425h240q54 0 96.5 17.5t72 47t44.5 67.5t15 80q0 43 -15 81.5t-44.5 68t-72 46.5t-96.5 17h-240z" />
    <glyph glyph-name="germandbls" unicode="&#xdf;" horiz-adv-x="1110" 
d="M376 149q52 -62 107 -86t111 -24q46 0 84 14t65 38t42 57t15 71q0 42 -21 78.5t-59 60.5t-92 32t-121 -8l-29 42l260 239q-11 4 -39 15t-67.5 22.5t-88 20t-101.5 8.5q-78 0 -132 -21t-87.5 -56.5t-49 -82.5t-15.5 -99v-470h-57v473q0 61 18.5 117.5t60 100t106.5 69
t158 25.5q52 0 103.5 -8t99 -20t87.5 -27t69 -28v-49l-234 -216q62 8 115 -6t91.5 -44t60.5 -73.5t22 -94.5q0 -50 -18.5 -93t-53 -74.5t-82.5 -49.5t-107 -18q-73 0 -141 30.5t-128 102.5z" />
    <glyph glyph-name="agrave" unicode="&#xe0;" 
d="M436 780l358 -780h-65l-80 176h-490l-79 -176h-66l358 780h64zM185 232h438l-219 484zM519 844l-252 138l29 51l246 -149z" />
    <glyph glyph-name="aacute" unicode="&#xe1;" 
d="M436 780l358 -780h-65l-80 176h-490l-79 -176h-66l358 780h64zM185 232h438l-219 484zM267 884l246 149l29 -51l-252 -138z" />
    <glyph glyph-name="acircumflex" unicode="&#xe2;" 
d="M436 780l358 -780h-65l-80 176h-490l-79 -176h-66l358 780h64zM185 232h438l-219 484zM548 861l-145 104l-143 -104l-30 37l173 129l175 -129z" />
    <glyph glyph-name="atilde" unicode="&#xe3;" 
d="M436 780l358 -780h-65l-80 176h-490l-79 -176h-66l358 780h64zM185 232h438l-219 484zM213 863q0 22 5.5 47t17.5 46t32.5 34.5t50.5 13.5q26 0 47.5 -11.5t54.5 -43.5q18 -18 34.5 -31t36.5 -13q28 0 42.5 26t13.5 64h46q0 -22 -5 -47t-16.5 -46t-31 -34.5t-49.5 -13.5
q-26 0 -46 12.5t-53 42.5q-21 19 -37.5 31.5t-36.5 12.5q-29 0 -45 -26t-16 -64h-45z" />
    <glyph glyph-name="adieresis" unicode="&#xe4;" 
d="M436 780l358 -780h-65l-80 176h-490l-79 -176h-66l358 780h64zM185 232h438l-219 484zM249 923q0 19 13.5 32.5t32.5 13.5t32 -13.5t13 -32.5t-13 -32t-32 -13t-32.5 13t-13.5 32zM467 923q0 19 13.5 32.5t32.5 13.5t32.5 -13.5t13.5 -32.5t-13.5 -32t-32.5 -13t-32.5 13
t-13.5 32z" />
    <glyph glyph-name="aring" unicode="&#xe5;" 
d="M436 780l358 -780h-65l-80 176h-490l-79 -176h-66l358 780h64zM185 232h438l-219 484zM290 956q0 24 9 44.5t24.5 36t36.5 24.5t45 9t44.5 -9t36 -24t24.5 -36t9 -45t-9 -45t-24.5 -36.5t-36 -24.5t-44.5 -9t-45 9t-36.5 24.5t-24.5 36.5t-9 45zM333 956q0 -30 21 -51
t51 -21q29 0 50 21t21 51q0 29 -21 50t-50 21q-30 0 -51 -21t-21 -50z" />
    <glyph glyph-name="ae" unicode="&#xe6;" horiz-adv-x="1449" 
d="M650 176h-423l-142 -176h-77l632 780h546v-58h-477v-311h406v-56h-406v-297h477v-58h-536v176zM650 232v467l-378 -467h378z" />
    <glyph glyph-name="ccedilla" unicode="&#xe7;" horiz-adv-x="1061" 
d="M815 189q-26 -46 -63.5 -83.5t-82.5 -64.5t-97.5 -41.5t-108.5 -14.5h-1l-20 -59q33 -2 57 -11.5t39.5 -24t23 -32t7.5 -35.5q0 -20 -8 -38t-23.5 -32.5t-38 -23t-50.5 -8.5q-23 0 -46 5t-40 11q-21 7 -39 16l20 41q14 -7 42 -17.5t61 -10.5q42 0 61.5 19.5t19.5 42.5
q0 12 -6 24.5t-19 22t-34.5 14.5t-52.5 2l-19 21l28 75q-78 7 -145 41t-117 88t-78.5 124t-28.5 150q0 84 32 157.5t87 128.5t129.5 87t158.5 32q56 0 108 -14.5t97 -41.5t82 -64.5t64 -82.5l-54 -26q-23 38 -54.5 69t-69.5 53.5t-82 35t-91 12.5q-72 0 -135 -27.5
t-110 -74.5t-74.5 -110t-27.5 -134q0 -72 27.5 -135t74.5 -110t110 -74t135 -27q96 0 174 47t124 124z" />
    <glyph glyph-name="egrave" unicode="&#xe8;" horiz-adv-x="910" 
d="M112 780h536v-58h-477v-311h406v-56h-406v-297h477v-58h-536v780zM494 844l-252 138l29 51l246 -149z" />
    <glyph glyph-name="eacute" unicode="&#xe9;" horiz-adv-x="910" 
d="M112 780h536v-58h-477v-311h406v-56h-406v-297h477v-58h-536v780zM242 884l246 149l29 -51l-252 -138z" />
    <glyph glyph-name="ecircumflex" unicode="&#xea;" horiz-adv-x="910" 
d="M112 780h536v-58h-477v-311h406v-56h-406v-297h477v-58h-536v780zM524 861l-145 104l-143 -104l-30 37l173 129l175 -129z" />
    <glyph glyph-name="edieresis" unicode="&#xeb;" horiz-adv-x="910" 
d="M112 780h536v-58h-477v-311h406v-56h-406v-297h477v-58h-536v780zM225 923q0 19 13.5 32.5t32.5 13.5t32 -13.5t13 -32.5t-13 -32t-32 -13t-32.5 13t-13.5 32zM443 923q0 19 13.5 32.5t32.5 13.5t32.5 -13.5t13.5 -32.5t-13.5 -32t-32.5 -13t-32.5 13t-13.5 32z" />
    <glyph glyph-name="igrave" unicode="&#xec;" horiz-adv-x="482" 
d="M171 780v-780h-59v780h59zM256 844l-252 138l29 51l246 -149z" />
    <glyph glyph-name="iacute" unicode="&#xed;" horiz-adv-x="482" 
d="M171 780v-780h-59v780h59zM4 884l246 149l29 -51l-252 -138z" />
    <glyph glyph-name="icircumflex" unicode="&#xee;" horiz-adv-x="482" 
d="M171 780v-780h-59v780h59zM286 861l-145 104l-143 -104l-30 37l173 129l175 -129z" />
    <glyph glyph-name="idieresis" unicode="&#xef;" horiz-adv-x="482" 
d="M171 780v-780h-59v780h59zM-14 923q0 19 13.5 32.5t32.5 13.5t32 -13.5t13 -32.5t-13 -32t-32 -13t-32.5 13t-13.5 32zM204 923q0 19 13.5 32.5t32.5 13.5t32.5 -13.5t13.5 -32.5t-13.5 -32t-32.5 -13t-32.5 13t-13.5 32z" />
    <glyph glyph-name="eth" unicode="&#xf0;" horiz-adv-x="1042" 
d="M113 362h-88v53h88v365h305q89 0 157 -30.5t113.5 -83t69 -123.5t23.5 -153t-23.5 -153.5t-69 -124t-113.5 -82.5t-157 -30h-305v362zM452 362h-280v-304h243q74 0 131 25.5t96 70t59.5 105t20.5 131.5t-20.5 131.5t-59.5 105t-96 70t-131 25.5h-243v-307h280v-53z" />
    <glyph glyph-name="ntilde" unicode="&#xf1;" horiz-adv-x="1075" 
d="M112 0v780h53l540 -679v679h59v-780h-53l-540 678v-678h-59zM247 863q0 22 5.5 47t17.5 46t32.5 34.5t50.5 13.5q26 0 47.5 -11.5t54.5 -43.5q18 -18 34.5 -31t36.5 -13q28 0 42.5 26t13.5 64h46q0 -22 -5 -47t-16.5 -46t-31 -34.5t-49.5 -13.5q-26 0 -46 12.5t-53 42.5
q-21 19 -37.5 31.5t-36.5 12.5q-29 0 -45 -26t-16 -64h-45z" />
    <glyph glyph-name="ograve" unicode="&#xf2;" horiz-adv-x="1125" 
d="M56 390q0 84 32 157.5t87 128.5t129.5 87t158.5 32t158 -32t129 -87t87 -128.5t32 -157.5t-32 -158t-87 -128.5t-129 -86.5t-158 -32t-158.5 32t-129.5 86.5t-87 128.5t-32 158zM116 390q0 -72 27.5 -135t74.5 -110t110 -74t135 -27q71 0 134 27t110 74t74.5 110
t27.5 135q0 71 -27.5 134t-74.5 110t-110 74.5t-134 27.5q-72 0 -135 -27.5t-110 -74.5t-74.5 -110t-27.5 -134zM577 844l-252 138l29 51l246 -149z" />
    <glyph glyph-name="oacute" unicode="&#xf3;" horiz-adv-x="1125" 
d="M56 390q0 84 32 157.5t87 128.5t129.5 87t158.5 32t158 -32t129 -87t87 -128.5t32 -157.5t-32 -158t-87 -128.5t-129 -86.5t-158 -32t-158.5 32t-129.5 86.5t-87 128.5t-32 158zM116 390q0 -72 27.5 -135t74.5 -110t110 -74t135 -27q71 0 134 27t110 74t74.5 110
t27.5 135q0 71 -27.5 134t-74.5 110t-110 74.5t-134 27.5q-72 0 -135 -27.5t-110 -74.5t-74.5 -110t-27.5 -134zM325 884l246 149l29 -51l-252 -138z" />
    <glyph glyph-name="ocircumflex" unicode="&#xf4;" horiz-adv-x="1125" 
d="M56 390q0 84 32 157.5t87 128.5t129.5 87t158.5 32t158 -32t129 -87t87 -128.5t32 -157.5t-32 -158t-87 -128.5t-129 -86.5t-158 -32t-158.5 32t-129.5 86.5t-87 128.5t-32 158zM116 390q0 -72 27.5 -135t74.5 -110t110 -74t135 -27q71 0 134 27t110 74t74.5 110
t27.5 135q0 71 -27.5 134t-74.5 110t-110 74.5t-134 27.5q-72 0 -135 -27.5t-110 -74.5t-74.5 -110t-27.5 -134zM607 861l-145 104l-143 -104l-30 37l173 129l175 -129z" />
    <glyph glyph-name="otilde" unicode="&#xf5;" horiz-adv-x="1125" 
d="M56 390q0 84 32 157.5t87 128.5t129.5 87t158.5 32t158 -32t129 -87t87 -128.5t32 -157.5t-32 -158t-87 -128.5t-129 -86.5t-158 -32t-158.5 32t-129.5 86.5t-87 128.5t-32 158zM116 390q0 -72 27.5 -135t74.5 -110t110 -74t135 -27q71 0 134 27t110 74t74.5 110
t27.5 135q0 71 -27.5 134t-74.5 110t-110 74.5t-134 27.5q-72 0 -135 -27.5t-110 -74.5t-74.5 -110t-27.5 -134zM272 863q0 22 5.5 47t17.5 46t32.5 34.5t50.5 13.5q26 0 47.5 -11.5t54.5 -43.5q18 -18 34.5 -31t36.5 -13q28 0 42.5 26t13.5 64h46q0 -22 -5 -47t-16.5 -46
t-31 -34.5t-49.5 -13.5q-26 0 -46 12.5t-53 42.5q-21 19 -37.5 31.5t-36.5 12.5q-29 0 -45 -26t-16 -64h-45z" />
    <glyph glyph-name="odieresis" unicode="&#xf6;" horiz-adv-x="1125" 
d="M56 390q0 84 32 157.5t87 128.5t129.5 87t158.5 32t158 -32t129 -87t87 -128.5t32 -157.5t-32 -158t-87 -128.5t-129 -86.5t-158 -32t-158.5 32t-129.5 86.5t-87 128.5t-32 158zM116 390q0 -72 27.5 -135t74.5 -110t110 -74t135 -27q71 0 134 27t110 74t74.5 110
t27.5 135q0 71 -27.5 134t-74.5 110t-110 74.5t-134 27.5q-72 0 -135 -27.5t-110 -74.5t-74.5 -110t-27.5 -134zM308 923q0 19 13.5 32.5t32.5 13.5t32 -13.5t13 -32.5t-13 -32t-32 -13t-32.5 13t-13.5 32zM526 923q0 19 13.5 32.5t32.5 13.5t32.5 -13.5t13.5 -32.5
t-13.5 -32t-32.5 -13t-32.5 13t-13.5 32z" />
    <glyph glyph-name="divide" unicode="&#xf7;" horiz-adv-x="808" 
d="M522 337h-436v56h436v-56zM252 559q0 21 15.5 36t36.5 15t36 -15t15 -36q0 -22 -15 -36.5t-36 -14.5t-36.5 14.5t-15.5 36.5zM252 170q0 21 15.5 36t36.5 15t36 -15t15 -36q0 -22 -15 -36.5t-36 -14.5t-36.5 14.5t-15.5 36.5z" />
    <glyph glyph-name="oslash" unicode="&#xf8;" horiz-adv-x="1125" 
d="M56 390q0 84 32 157.5t87 128.5t129.5 87t158.5 32q73 0 138.5 -24.5t118.5 -68.5l72 78h61l-100 -108q54 -55 85 -127.5t31 -154.5q0 -84 -32 -158t-87.5 -128.5t-129 -86.5t-157.5 -32q-74 0 -139.5 24t-119.5 68l-71 -77h-61l99 107q-54 55 -84.5 127.5t-30.5 155.5z
M116 390q0 -70 25.5 -131t70.5 -108l468 508q-45 36 -100 56.5t-117 20.5q-72 0 -135 -27.5t-110 -74.5t-74.5 -110t-27.5 -134zM809 390q0 69 -25.5 130t-70.5 108l-468 -507q45 -36 100 -56.5t118 -20.5q71 0 134 27t110 74t74.5 110t27.5 135z" />
    <glyph glyph-name="ugrave" unicode="&#xf9;" horiz-adv-x="1056" 
d="M755 780v-485q0 -66 -21 -122.5t-62.5 -98t-102.5 -65.5t-141 -24t-141 24t-102.5 65.5t-62.5 98t-21 122.5v485h59v-483q0 -55 17.5 -101.5t51.5 -80.5t84 -53t115 -19q66 0 116 19t83.5 53t51 80.5t17.5 101.5v483h59zM542 844l-252 138l29 51l246 -149z" />
    <glyph glyph-name="uacute" unicode="&#xfa;" horiz-adv-x="1056" 
d="M755 780v-485q0 -66 -21 -122.5t-62.5 -98t-102.5 -65.5t-141 -24t-141 24t-102.5 65.5t-62.5 98t-21 122.5v485h59v-483q0 -55 17.5 -101.5t51.5 -80.5t84 -53t115 -19q66 0 116 19t83.5 53t51 80.5t17.5 101.5v483h59zM290 884l246 149l29 -51l-252 -138z" />
    <glyph glyph-name="ucircumflex" unicode="&#xfb;" horiz-adv-x="1056" 
d="M755 780v-485q0 -66 -21 -122.5t-62.5 -98t-102.5 -65.5t-141 -24t-141 24t-102.5 65.5t-62.5 98t-21 122.5v485h59v-483q0 -55 17.5 -101.5t51.5 -80.5t84 -53t115 -19q66 0 116 19t83.5 53t51 80.5t17.5 101.5v483h59zM572 861l-145 104l-143 -104l-30 37l173 129
l175 -129z" />
    <glyph glyph-name="udieresis" unicode="&#xfc;" horiz-adv-x="1056" 
d="M755 780v-485q0 -66 -21 -122.5t-62.5 -98t-102.5 -65.5t-141 -24t-141 24t-102.5 65.5t-62.5 98t-21 122.5v485h59v-483q0 -55 17.5 -101.5t51.5 -80.5t84 -53t115 -19q66 0 116 19t83.5 53t51 80.5t17.5 101.5v483h59zM273 923q0 19 13.5 32.5t32.5 13.5t32 -13.5
t13 -32.5t-13 -32t-32 -13t-32.5 13t-13.5 32zM491 923q0 19 13.5 32.5t32.5 13.5t32.5 -13.5t13.5 -32.5t-13.5 -32t-32.5 -13t-32.5 13t-13.5 32z" />
    <glyph glyph-name="yacute" unicode="&#xfd;" horiz-adv-x="933" 
d="M230 884l246 149l29 -51l-252 -138zM366 347l284 433h69l-323 -494v-286h-59v285l-323 495h69z" />
    <glyph glyph-name="thorn" unicode="&#xfe;" horiz-adv-x="943" 
d="M112 780h59v-121h242q68 0 121.5 -21.5t90 -58.5t55.5 -86t19 -103q0 -53 -19 -101.5t-55.5 -85.5t-90 -59t-121.5 -22h-242v-122h-59v780zM171 603v-425h240q54 0 96.5 17.5t72 47t44.5 67.5t15 80q0 43 -15 81.5t-44.5 68t-72 46.5t-96.5 17h-240z" />
    <glyph glyph-name="ydieresis" unicode="&#xff;" horiz-adv-x="933" 
d="M212 923q0 19 13.5 32.5t32.5 13.5t32 -13.5t13 -32.5t-13 -32t-32 -13t-32.5 13t-13.5 32zM430 923q0 19 13.5 32.5t32.5 13.5t32.5 -13.5t13.5 -32.5t-13.5 -32t-32.5 -13t-32.5 13t-13.5 32zM366 347l284 433h69l-323 -494v-286h-59v285l-323 495h69z" />
    <glyph glyph-name="dotlessi" unicode="&#x131;" horiz-adv-x="482" 
d="M171 780v-780h-59v780h59z" />
    <glyph glyph-name="OE" unicode="&#x152;" horiz-adv-x="1372" 
d="M489 0q-102 0 -182 30.5t-135.5 83.5t-84.5 124t-29 152t29 152t84.5 124t135.5 83.5t182 30.5h620v-58h-477v-311h406v-56h-406v-297h477v-58h-620zM118 390q0 -69 25 -129.5t72.5 -105.5t116.5 -71t157 -26h84v664h-84q-88 0 -157 -26t-116.5 -71t-72.5 -105.5
t-25 -129.5z" />
    <glyph glyph-name="oe" unicode="&#x153;" horiz-adv-x="1372" 
d="M489 0q-102 0 -182 30.5t-135.5 83.5t-84.5 124t-29 152t29 152t84.5 124t135.5 83.5t182 30.5h620v-58h-477v-311h406v-56h-406v-297h477v-58h-620zM118 390q0 -69 25 -129.5t72.5 -105.5t116.5 -71t157 -26h84v664h-84q-88 0 -157 -26t-116.5 -71t-72.5 -105.5
t-25 -129.5z" />
    <glyph glyph-name="Scaron" unicode="&#x160;" horiz-adv-x="904" 
d="M117 195v-4q0 -33 17 -60.5t49 -47.5t77 -31.5t102 -11.5q109 0 166 41t57 104q0 38 -19.5 65t-52.5 47t-77 35.5t-93 30.5q-48 15 -97 32.5t-89.5 43.5t-66 62.5t-25.5 89.5q0 46 19.5 83.5t55.5 64.5t87.5 41.5t114.5 14.5q64 0 118 -15t92.5 -42t60 -64t21.5 -81v-9
h-58v5q0 33 -16 60.5t-46.5 47.5t-74 31.5t-97.5 11.5q-105 0 -160 -41t-55 -104q0 -38 18.5 -64t50.5 -46t74 -35t90 -30q47 -14 98 -31.5t93 -44t69.5 -64t27.5 -92.5q0 -46 -20.5 -83.5t-58 -64t-90 -41t-117.5 -14.5q-67 0 -122.5 15t-95.5 42t-62.5 64t-22.5 81v8h58z
M516 990l-175 -129l-173 129l30 37l143 -104l145 104z" />
    <glyph glyph-name="scaron" unicode="&#x161;" horiz-adv-x="904" 
d="M117 195v-4q0 -33 17 -60.5t49 -47.5t77 -31.5t102 -11.5q109 0 166 41t57 104q0 38 -19.5 65t-52.5 47t-77 35.5t-93 30.5q-48 15 -97 32.5t-89.5 43.5t-66 62.5t-25.5 89.5q0 46 19.5 83.5t55.5 64.5t87.5 41.5t114.5 14.5q64 0 118 -15t92.5 -42t60 -64t21.5 -81v-9
h-58v5q0 33 -16 60.5t-46.5 47.5t-74 31.5t-97.5 11.5q-105 0 -160 -41t-55 -104q0 -38 18.5 -64t50.5 -46t74 -35t90 -30q47 -14 98 -31.5t93 -44t69.5 -64t27.5 -92.5q0 -46 -20.5 -83.5t-58 -64t-90 -41t-117.5 -14.5q-67 0 -122.5 15t-95.5 42t-62.5 64t-22.5 81v8h58z
M516 990l-175 -129l-173 129l30 37l143 -104l145 104z" />
    <glyph glyph-name="Ydieresis" unicode="&#x178;" horiz-adv-x="933" 
d="M212 923q0 19 13.5 32.5t32.5 13.5t32 -13.5t13 -32.5t-13 -32t-32 -13t-32.5 13t-13.5 32zM430 923q0 19 13.5 32.5t32.5 13.5t32.5 -13.5t13.5 -32.5t-13.5 -32t-32.5 -13t-32.5 13t-13.5 32zM366 347l284 433h69l-323 -494v-286h-59v285l-323 495h69z" />
    <glyph glyph-name="Zcaron" unicode="&#x17d;" horiz-adv-x="820" 
d="M50 780h530v-45l-467 -677h465v-58h-545v45l466 677h-449v58zM481 990l-175 -129l-173 129l30 37l143 -104l145 104z" />
    <glyph glyph-name="zcaron" unicode="&#x17e;" horiz-adv-x="820" 
d="M50 780h530v-45l-467 -677h465v-58h-545v45l466 677h-449v58zM481 990l-175 -129l-173 129l30 37l143 -104l145 104z" />
    <glyph glyph-name="circumflex" unicode="&#x2c6;" horiz-adv-x="555" 
d="M322 861l-145 104l-143 -104l-30 37l173 129l175 -129z" />
    <glyph glyph-name="tilde" unicode="&#x2dc;" horiz-adv-x="595" 
d="M7 863q0 22 5.5 47t17.5 46t32.5 34.5t50.5 13.5q26 0 47.5 -11.5t54.5 -43.5q18 -18 34.5 -31t36.5 -13q28 0 42.5 26t13.5 64h46q0 -22 -5 -47t-16.5 -46t-31 -34.5t-49.5 -13.5q-26 0 -46 12.5t-53 42.5q-21 19 -37.5 31.5t-36.5 12.5q-29 0 -45 -26t-16 -64h-45z" />
    <glyph glyph-name="endash" unicode="&#x2013;" horiz-adv-x="829" 
d="M543 297h-457v56h457v-56z" />
    <glyph glyph-name="emdash" unicode="&#x2014;" horiz-adv-x="990" 
d="M703 297h-616v56h616v-56z" />
    <glyph glyph-name="quoteleft" unicode="&#x2018;" horiz-adv-x="475" 
d="M217 778q-9 -9 -22 -21.5t-26 -29t-24.5 -36t-16.5 -40.5q17 3 32.5 -11t15.5 -36q0 -21 -15.5 -36t-36.5 -15t-37.5 15.5t-16.5 43.5q0 29 12.5 57.5t30.5 53.5t39.5 46.5t39.5 36.5z" />
    <glyph glyph-name="quoteright" unicode="&#x2019;" horiz-adv-x="478" 
d="M71 570q9 9 22 21.5t26 29t24.5 36t16.5 40.5q-17 -3 -32.5 11t-15.5 36q0 21 15.5 36t36.5 15t37.5 -15.5t16.5 -43.5q0 -29 -12.5 -57.5t-30.5 -53.5t-39.5 -46.5t-39.5 -36.5z" />
    <glyph glyph-name="quotesinglbase" unicode="&#x201a;" horiz-adv-x="444" 
d="M27 -135q9 9 22 21.5t26 29t24.5 36t16.5 40.5q-17 -3 -32.5 11t-15.5 36q0 21 15.5 36t36.5 15t37.5 -15.5t16.5 -43.5q0 -29 -12.5 -57.5t-30.5 -53.5t-39.5 -46.5t-39.5 -36.5z" />
    <glyph glyph-name="quotedblleft" unicode="&#x201c;" horiz-adv-x="656" 
d="M217 778q-9 -9 -22 -21.5t-26 -29t-24.5 -36t-16.5 -40.5q17 3 32.5 -11t15.5 -36q0 -21 -15.5 -36t-36.5 -15t-37.5 15.5t-16.5 43.5q0 29 12.5 57.5t30.5 53.5t39.5 46.5t39.5 36.5zM398 778q-9 -9 -22 -21.5t-26 -29t-24.5 -36t-16.5 -40.5q17 3 32.5 -11t15.5 -36
q0 -21 -15.5 -36t-36.5 -15t-37.5 15.5t-16.5 43.5q0 29 12.5 57.5t30.5 53.5t39.5 46.5t39.5 36.5z" />
    <glyph glyph-name="quotedblright" unicode="&#x201d;" horiz-adv-x="659" 
d="M71 570q9 9 22 21.5t26 29t24.5 36t16.5 40.5q-17 -3 -32.5 11t-15.5 36q0 21 15.5 36t36.5 15t37.5 -15.5t16.5 -43.5q0 -29 -12.5 -57.5t-30.5 -53.5t-39.5 -46.5t-39.5 -36.5zM252 570q9 9 22 21.5t26 29t24.5 36t16.5 40.5q-17 -3 -32.5 11t-15.5 36q0 21 15.5 36
t36.5 15t37.5 -15.5t16.5 -43.5q0 -29 -12.5 -57.5t-30.5 -53.5t-39.5 -46.5t-39.5 -36.5z" />
    <glyph glyph-name="quotedblbase" unicode="&#x201e;" horiz-adv-x="628" 
d="M27 -135q9 9 22 21.5t26 29t24.5 36t16.5 40.5q-17 -3 -32.5 11t-15.5 36q0 21 15.5 36t36.5 15t37.5 -15.5t16.5 -43.5q0 -29 -12.5 -57.5t-30.5 -53.5t-39.5 -46.5t-39.5 -36.5zM208 -135q9 9 22 21.5t26 29t24.5 36t16.5 40.5q-17 -3 -32.5 11t-15.5 36q0 21 15.5 36
t36.5 15t37.5 -15.5t16.5 -43.5q0 -29 -12.5 -57.5t-30.5 -53.5t-39.5 -46.5t-39.5 -36.5z" />
    <glyph glyph-name="dagger" unicode="&#x2020;" horiz-adv-x="660" 
d="M177 743q0 21 15.5 36.5t36.5 15.5t36 -15.5t15 -36.5q0 -28 -23 -43v-182h149v-52h-149v-613h-56v613h-147v52h147v182q-24 14 -24 43z" />
    <glyph glyph-name="daggerdbl" unicode="&#x2021;" horiz-adv-x="669" 
d="M182 743q0 21 15 36.5t36 15.5t36.5 -15.5t15.5 -36.5q0 -14 -6.5 -25t-17.5 -18v-182h150v-52h-150v-158h150v-52h-150v-403h-55v403h-148v52h148v158h-148v52h148v181q-11 7 -17.5 18.5t-6.5 25.5z" />
    <glyph glyph-name="bullet" unicode="&#x2022;" horiz-adv-x="653" 
d="M98 325q0 27 10 50.5t27.5 40.5t41 27t50.5 10t50.5 -10t40.5 -27t27 -40.5t10 -50.5t-10 -50.5t-27 -40.5t-40.5 -27t-50.5 -10t-50.5 10t-41 27t-27.5 40.5t-10 50.5z" />
    <glyph glyph-name="ellipsis" unicode="&#x2026;" horiz-adv-x="790" 
d="M69 39q0 21 15.5 36t36.5 15t36 -15t15 -36q0 -22 -15 -36.5t-36 -14.5t-36.5 14.5t-15.5 36.5zM244 39q0 21 15.5 36t36.5 15t36 -15t15 -36q0 -22 -15 -36.5t-36 -14.5t-36.5 14.5t-15.5 36.5zM418 39q0 21 15.5 36t36.5 15t36 -15t15 -36q0 -22 -15 -36.5t-36 -14.5
t-36.5 14.5t-15.5 36.5z" />
    <glyph glyph-name="perthousand" unicode="&#x2030;" horiz-adv-x="1656" 
d="M44 611q0 38 14 71.5t39 58t58.5 39t71.5 14.5q39 0 72 -14.5t58 -39t39 -58t14 -71.5t-14 -71.5t-39 -58.5t-58 -39.5t-72 -14.5q-38 0 -71.5 14.5t-58.5 39.5t-39 58.5t-14 71.5zM98 611q0 -27 10.5 -50.5t28 -41t41 -28t49.5 -10.5q27 0 50.5 10.5t41 28t28 41
t10.5 50.5q0 26 -10.5 49.5t-28 41.5t-41 28.5t-50.5 10.5q-26 0 -49.5 -10.5t-41 -28.5t-28 -41.5t-10.5 -49.5zM586 173q0 39 14 72t39 58t58.5 39t71.5 14q39 0 72.5 -14t58 -39t39 -58t14.5 -72t-14.5 -72.5t-39 -58t-58 -39t-72.5 -14.5q-38 0 -71.5 14.5t-58.5 39
t-39 58t-14 72.5zM640 173q0 -27 10.5 -50.5t28 -41t41 -27.5t49.5 -10q27 0 50.5 10t41 27.5t28 41t10.5 50.5q0 26 -10.5 49.5t-28 41.5t-41 28.5t-50.5 10.5q-26 0 -49.5 -10.5t-41 -28.5t-28 -41.5t-10.5 -49.5zM182 0l562 780h68l-562 -780h-68zM1048 173q0 39 14 72
t39 58t58.5 39t71.5 14q39 0 72.5 -14t58 -39t39 -58t14.5 -72t-14.5 -72.5t-39 -58t-58 -39t-72.5 -14.5q-38 0 -71.5 14.5t-58.5 39t-39 58t-14 72.5zM1101 173q0 -27 10.5 -50.5t28.5 -41t41.5 -27.5t49.5 -10q27 0 50.5 10t41 27.5t28 41t10.5 50.5q0 26 -10.5 49.5
t-28 41.5t-41 28.5t-50.5 10.5q-26 0 -49.5 -10.5t-41.5 -28.5t-28.5 -41.5t-10.5 -49.5z" />
    <glyph glyph-name="guilsinglleft" unicode="&#x2039;" horiz-adv-x="609" 
d="M60 389l252 226v-74l-195 -175l195 -175v-74l-252 225v47z" />
    <glyph glyph-name="guilsinglright" unicode="&#x203a;" horiz-adv-x="609" 
d="M349 343l-252 -226v74l195 175l-195 175v74l252 -225v-47z" />
    <glyph glyph-name="Euro" unicode="&#x20ac;" horiz-adv-x="1162" 
d="M895 189q-26 -46 -63 -83.5t-82.5 -64.5t-98 -41.5t-108.5 -14.5q-69 0 -131.5 21.5t-113.5 60t-88.5 91t-56.5 115.5h-97v45h86q-6 34 -6 72q0 35 6 68h-86v45h96q18 63 55.5 116.5t89 92.5t114.5 61t132 22q56 0 108 -14.5t97.5 -41.5t82.5 -64.5t63 -82.5l-54 -26
q-23 38 -54.5 69t-69.5 53.5t-82 35t-91 12.5q-57 0 -108.5 -17.5t-94.5 -48.5t-75 -73.5t-50 -93.5h326v-45h-339q-6 -33 -6 -68q0 -40 7 -72h296v-45h-283q18 -50 50 -92t75 -72.5t94.5 -47.5t107.5 -17q96 0 174 47t124 124z" />
    <glyph glyph-name="trademark" unicode="&#x2122;" horiz-adv-x="1026" 
d="M685 479v226l-114 -188h-31l-114 188v-226h-47v301h50l126 -209l127 209h50v-301h-47zM55 780h269v-47h-111v-254h-47v254h-111v47z" />
    </font>
</defs>
</svg>
