<?xml version="1.0" standalone="no"?>
<!DOCTYPE svg PUBLIC "-//W3C//DTD SVG 1.1//EN" "http://www.w3.org/Graphics/SVG/1.1/DTD/svg11.dtd" >
<svg xmlns="http://www.w3.org/2000/svg" xmlns:xlink="http://www.w3.org/1999/xlink" version="1.1">
<metadata>
Created by FontForge 20201107 at Wed Apr 27 23:09:14 2005
 By Jimmy Wärting
Copyright 2005 Adobe Systems Incorporated. All Rights Reserved. Garamond Premier is either a registered trademark or a trademark of Adobe Systems Incorporated in the United States and/or other countries.
</metadata>
<defs>
<font id="GaramondPremrPro-Smbd" horiz-adv-x="400" >
  <font-face 
    font-family="Garamond Premiere Pro"
    font-weight="600"
    font-stretch="normal"
    units-per-em="1000"
    panose-1="2 2 6 2 6 5 6 2 4 3"
    ascent="725"
    descent="-275"
    x-height="397"
    cap-height="636"
    bbox="-227 -329 1401 917"
    underline-thickness="50"
    underline-position="-100"
    stemh="54"
    stemv="104"
    unicode-range="U+0020-FB04"
  />
<missing-glyph horiz-adv-x="500" 
d="M0 0v700h500v-700h-500zM250 395l170 255h-340zM280 350l170 -255v510zM80 50h340l-170 255zM50 605v-510l170 255z" />
    <glyph glyph-name="T_h" unicode="Th" horiz-adv-x="1068" 
d="M340 632c56 0 166 0 179 1c16 0 118 2 140 6c12 3 25 10 36 19c13 10 31 22 36 22c7 0 12 -8 12 -11c-2 -26 -10 -75 -13 -140c-3 -88 -3 -157 -3 -168c0 -1 3 -8 7 -5c36 32 81 51 118 51c51 0 86 -19 107 -48c20 -27 29 -67 29 -110c1 -63 3 -136 4 -180
c1 -25 13 -34 39 -41c20 -5 27 -11 27 -18c0 -8 -9 -14 -29 -14c-29 0 -57 4 -82 4c-37 0 -57 -3 -93 -3c-17 0 -24 7 -24 13s7 12 20 16c24 7 28 17 32 50c2 22 1 147 1 167c0 51 -12 71 -25 82c-14 13 -34 22 -60 22c-31 0 -54 -11 -58 -14c-3 -3 -11 -19 -12 -34
c-2 -53 -2 -188 -2 -217c2 -34 11 -46 35 -52c15 -4 24 -11 24 -17c0 -11 -16 -14 -30 -14c-8 0 -43 1 -91 1c-41 0 -68 -3 -86 -3c-11 0 -25 5 -25 14c0 6 7 13 28 19c30 11 34 28 36 49c4 35 9 143 9 291c0 146 0 175 -3 189c-3 18 -12 29 -19 29c-23 2 -168 2 -197 -2
c-6 -1 -10 -8 -10 -12c0 -46 -1 -122 -1 -208c0 -115 1 -221 5 -271c3 -32 11 -52 78 -66c14 -3 25 -14 25 -20c0 -9 -17 -13 -28 -13c-8 0 -121 4 -148 4c-31 0 -108 -6 -125 -6c-19 0 -31 4 -31 11c0 10 12 19 22 21c65 16 70 30 73 100c4 59 9 258 9 334
c0 57 -1 91 -1 117c0 9 -8 14 -11 14c-18 3 -89 3 -111 3c-16 0 -44 -10 -55 -23c-10 -11 -21 -28 -34 -51c-12 -20 -18 -28 -22 -28c-10 0 -15 13 -15 23c0 19 18 84 19 134c0 5 9 21 16 21s13 -8 19 -15c3 -5 23 -15 42 -17c22 -2 149 -6 217 -6z" />
    <glyph glyph-name="f_f" unicode="ff" horiz-adv-x="582" 
d="M358 344h-156c-3 0 -8 -8 -8 -20c0 -16 2 -216 2 -227c2 -52 14 -56 41 -65c16 -6 25 -12 25 -17c0 -10 -13 -18 -27 -18c-23 0 -77 3 -97 3c-37 0 -72 -5 -92 -5c-15 0 -26 6 -26 13c0 6 5 13 21 17c39 11 41 28 42 55c1 17 3 170 3 241c0 6 -3 14 -10 15l-37 7
c-4 1 -8 8 -8 13c0 16 32 26 45 36c8 5 11 9 11 17c0 48 16 98 29 127c15 31 48 74 89 101c34 23 89 43 136 43c44 0 89 -16 111 -35c2 -1 9 -2 11 0c29 30 88 60 147 60c39 0 94 -17 94 -60c0 -19 -16 -44 -32 -50c-6 -3 -17 -6 -22 -6c-8 0 -15 3 -30 19
c-20 21 -48 50 -76 50c-17 0 -29 -10 -40 -24c-18 -24 -33 -97 -32 -234c0 -3 6 -7 7 -7h99c7 -1 13 -25 13 -42c0 -5 -9 -13 -16 -13s-84 2 -95 2c-2 0 -7 -7 -7 -12c0 -19 0 -213 3 -246c1 -31 5 -44 56 -55c18 -4 25 -13 25 -17c0 -7 -12 -15 -30 -15c-12 0 -71 5 -97 5
c-61 0 -85 -6 -108 -6c-11 0 -24 5 -24 15c0 5 10 13 20 16c41 12 43 23 44 70c0 39 2 181 2 237c0 4 -3 12 -6 12zM202 393h153c5 0 9 6 9 8c0 56 14 127 36 167c2 4 2 12 1 15c-22 25 -68 57 -111 57c-22 0 -44 -16 -56 -32c-22 -26 -40 -86 -40 -203c0 -5 4 -12 8 -12z
" />
    <glyph glyph-name="f_f_b" unicode="ffb" horiz-adv-x="1091" 
d="M356 344h-154c-5 0 -8 -9 -8 -18c0 -16 2 -218 2 -229c2 -52 14 -56 41 -65c16 -6 25 -12 25 -17c0 -10 -13 -18 -27 -18c-23 0 -77 3 -97 3c-37 0 -72 -5 -92 -5c-15 0 -26 6 -26 13c0 6 5 13 21 17c39 11 41 28 42 55c1 17 3 170 3 241c0 6 -3 14 -10 15l-38 7
c-5 1 -8 8 -8 13c0 16 33 26 46 36c8 5 11 9 11 17c0 48 16 98 29 127c15 31 48 73 90 101c34 22 88 43 135 43c46 0 89 -15 111 -33c3 -2 9 -3 12 0c29 29 88 58 147 58c25 0 59 -8 83 -19c5 -2 9 0 14 3c19 15 31 20 35 20c6 0 13 -9 13 -16s-2 -137 -4 -237
c0 -23 0 -50 1 -72c0 -6 6 -9 7 -9c32 20 75 30 103 30c52 0 96 -16 128 -44c44 -38 68 -90 68 -156c0 -81 -46 -140 -94 -175c-43 -32 -109 -44 -146 -44c-38 0 -101 11 -135 21c-4 2 -11 1 -21 -4c-5 -2 -10 -5 -12 -5c-4 0 -12 7 -12 14c5 78 7 252 7 334
c1 43 -1 204 -3 241c-2 20 -7 36 -11 41c-9 12 -41 33 -74 33c-22 0 -44 -14 -56 -33c-21 -31 -30 -117 -30 -227c0 -4 6 -8 8 -8c60 0 95 1 99 1c7 0 18 -26 18 -46c0 -3 -14 -11 -19 -11c-7 0 -87 2 -98 2c-3 0 -7 -7 -7 -12c0 -19 0 -212 3 -245c1 -32 4 -43 58 -54
c18 -4 24 -14 24 -18c0 -6 -12 -14 -30 -14c-11 0 -72 4 -98 4c-61 0 -84 -5 -107 -5c-11 0 -25 6 -25 15c0 5 10 13 21 16c41 13 42 22 43 69c0 39 2 181 2 237c0 5 -5 12 -8 12zM203 393h152c5 0 9 6 9 8c0 56 14 128 36 168c2 3 2 12 1 14c-22 25 -64 56 -110 56
c-22 0 -44 -16 -56 -31c-22 -27 -41 -86 -41 -203c0 -5 4 -12 9 -12zM939 185c0 40 -15 93 -44 126c-17 22 -54 43 -94 43c-17 0 -29 -4 -38 -8c-3 -1 -8 -8 -8 -11c-2 -15 -2 -35 -2 -56c0 -76 3 -139 8 -174c1 -11 9 -39 28 -57c21 -21 46 -27 62 -27c8 0 27 8 47 30
c27 30 41 86 41 134z" />
    <glyph glyph-name="f_f_h" unicode="ffh" horiz-adv-x="1090" 
d="M873 407c101 0 137 -69 137 -158c0 -50 2 -148 4 -180c0 -29 29 -37 48 -44c10 -4 17 -8 17 -15c0 -8 -8 -14 -29 -14c-28 0 -56 4 -81 4c-38 0 -58 -3 -93 -3c-18 0 -24 7 -24 13s7 12 21 16c23 7 27 17 30 50c2 17 2 101 2 139c0 103 -22 132 -86 132
c-29 0 -53 -11 -57 -14c-3 -3 -11 -19 -12 -34c-1 -54 -3 -187 -2 -217c2 -38 24 -48 40 -55c10 -4 18 -7 18 -14c0 -11 -15 -14 -29 -14h-20c-16 0 -66 1 -94 1c-27 -1 -48 -3 -62 -3c-12 0 -26 5 -26 14c0 7 8 14 28 21c18 6 31 14 35 47c4 35 9 151 9 401
c0 37 0 116 -8 130c-17 25 -57 48 -91 48c-21 0 -39 -15 -49 -36c-16 -32 -28 -110 -27 -221c0 -4 7 -8 9 -8h98c7 -1 13 -25 13 -42c0 -5 -9 -13 -16 -13s-83 2 -94 2c-4 0 -9 -7 -9 -13c0 -36 1 -190 4 -245c1 -32 1 -46 40 -55c18 -4 25 -13 25 -17c0 -7 -12 -15 -30 -15
c-11 0 -49 4 -75 5c-12 0 -24 -1 -33 -1c-41 -1 -62 -5 -82 -5c-11 0 -25 5 -25 15c0 5 11 13 21 15c41 13 42 24 43 71c1 53 3 176 3 238c1 8 -4 11 -10 11h-151c-4 0 -8 -9 -8 -19v-10c1 -56 2 -180 2 -210c0 -60 11 -64 41 -73c16 -6 24 -12 24 -17
c0 -10 -12 -18 -26 -18h-17c-22 0 -56 2 -74 3c-10 0 -19 -1 -26 -1c-30 0 -57 -4 -72 -4s-27 6 -27 13s6 13 22 17c38 11 41 28 42 55v6c1 34 2 171 3 235c0 18 -21 17 -37 19c-6 1 -12 3 -15 5c-2 3 -6 7 -6 11c0 9 10 16 20 21c16 10 39 17 39 32c1 97 35 170 113 224
c32 22 89 47 142 47c43 0 89 -15 110 -34c2 -2 9 -3 12 0c29 29 89 59 148 59c26 0 56 -6 77 -19c5 -3 8 -5 15 -2c18 7 42 18 45 18c5 0 11 -9 11 -12c-11 -76 -12 -312 -12 -329c0 -1 3 -8 7 -5c36 32 80 51 117 51zM203 393h152c6 0 9 5 9 10c0 55 16 125 38 165
c2 4 2 12 0 15c-22 25 -66 57 -109 57c-41 0 -98 -33 -98 -235c0 -4 4 -12 8 -12z" />
    <glyph glyph-name="f_f_i" unicode="ffi" horiz-adv-x="822" 
d="M355 344h-151c-5 0 -10 -9 -10 -19c0 -16 2 -209 3 -224c3 -52 13 -60 40 -69c16 -5 26 -12 26 -17c0 -10 -14 -18 -28 -18c-23 0 -77 3 -97 3c-37 0 -72 -5 -92 -5c-15 0 -27 6 -27 13c0 6 6 13 22 18c38 11 41 27 42 54c1 17 3 173 3 241c0 11 -5 15 -8 15l-41 6
c-13 3 -6 20 -1 26c8 8 30 17 40 24c8 5 12 9 12 17c0 48 15 97 28 126c15 31 49 74 90 101c34 23 89 44 136 44c46 0 93 -18 115 -36c2 -2 8 -3 11 0c29 29 99 61 158 61s91 -21 109 -43c7 -8 10 -19 10 -29c0 -26 -40 -57 -58 -57c-6 0 -23 9 -38 25c-21 24 -63 53 -92 53
c-24 0 -37 -7 -50 -24c-17 -20 -37 -99 -37 -225c0 -5 5 -10 10 -10c24 -2 54 -1 92 -1c74 -1 113 7 133 12c10 3 24 6 30 6c8 0 11 -9 11 -72c0 -126 -2 -199 1 -272c1 -28 11 -30 33 -37c22 -8 26 -12 26 -20c0 -9 -15 -14 -29 -14c-13 0 -62 3 -86 3c-33 0 -68 -3 -87 -3
c-11 0 -26 3 -26 16c0 7 12 11 28 18c20 8 27 20 28 36c3 65 4 233 4 264c0 6 -7 13 -11 14c-46 2 -99 3 -147 0c-2 0 -7 -5 -7 -11c0 -19 1 -219 3 -252c2 -32 2 -44 56 -56c18 -4 24 -12 24 -16c0 -7 -12 -15 -30 -15c-11 0 -70 5 -96 5c-61 0 -86 -6 -109 -6
c-11 0 -24 5 -24 14c0 5 10 13 21 16c40 13 42 24 43 71c1 39 2 181 2 237c0 4 -4 12 -8 12zM203 393h153c5 0 8 5 8 8c0 56 17 125 39 166c2 3 1 12 0 14c-26 31 -65 58 -112 58c-22 0 -44 -16 -56 -31c-22 -27 -41 -86 -41 -203c0 -4 3 -12 9 -12z" />
    <glyph glyph-name="f_f_j" unicode="ffj" horiz-adv-x="817" 
d="M357 344h-153c-5 0 -8 -9 -8 -19c0 -16 2 -213 3 -226c2 -54 12 -58 39 -67c16 -5 26 -11 26 -17c0 -10 -13 -18 -28 -18c-23 0 -76 3 -96 3c-38 0 -73 -5 -93 -5c-15 0 -26 5 -26 12s6 14 21 18c39 11 41 27 43 55c0 17 2 170 3 241c0 4 -5 14 -8 14c-15 3 -30 6 -41 8
c-4 1 -7 8 -7 13c0 16 32 26 45 36c8 5 12 9 12 17c0 48 16 98 29 126c14 32 48 74 89 102c34 23 89 43 136 43c46 0 89 -18 112 -39c2 -2 9 -3 11 0c29 29 93 64 160 64c59 0 90 -20 108 -42c7 -8 10 -19 10 -30c0 -25 -40 -56 -58 -56c-6 0 -23 9 -38 25
c-21 23 -62 52 -91 52c-24 0 -36 -12 -49 -28c-18 -21 -34 -96 -34 -223c0 -7 7 -10 13 -10c24 -1 53 0 86 0c75 -1 113 7 131 12c10 4 25 7 28 7c5 0 11 -8 11 -18c-1 -53 -3 -320 -3 -346c-2 -64 -16 -128 -41 -170c-25 -41 -56 -78 -88 -105c-27 -23 -61 -40 -68 -40
c-6 0 -18 5 -23 12c-3 2 -2 9 2 12c50 30 56 41 63 49c28 34 49 109 49 239c0 49 -1 250 -4 284c0 7 -4 15 -10 15c-46 1 -82 1 -138 0c-3 0 -7 -5 -7 -15c0 -19 0 -213 4 -247c3 -32 1 -43 55 -55c18 -4 24 -13 24 -17c0 -7 -12 -15 -30 -15c-11 0 -71 5 -97 5
c-60 0 -84 -5 -107 -5c-11 0 -25 6 -25 15c0 5 11 13 21 16c41 13 42 22 43 69c1 39 1 181 1 237c1 5 -5 12 -7 12zM204 393h153c4 0 8 6 8 8c0 56 15 122 37 162c2 4 1 13 0 15c-23 32 -63 61 -110 61c-22 0 -44 -15 -56 -31c-22 -27 -40 -86 -40 -203c0 -5 5 -12 8 -12z
" />
    <glyph glyph-name="f_f_k" unicode="ffk" horiz-adv-x="1071" 
d="M356 344h-153c-5 0 -8 -11 -8 -19c0 -16 3 -213 3 -227c3 -52 13 -57 40 -66c16 -6 25 -12 25 -17c0 -10 -13 -18 -27 -18c-24 0 -77 3 -97 3c-37 0 -72 -5 -93 -5c-14 0 -25 6 -25 13c0 6 5 13 21 17c38 11 41 28 42 55c1 17 2 170 3 241c0 6 -4 14 -9 15l-39 7
c-5 1 -10 8 -10 14c0 15 39 27 53 36c3 3 6 9 6 16c0 48 16 98 29 126c15 32 48 75 89 102c34 23 88 43 135 43c46 0 90 -15 112 -34c2 -1 9 -2 11 0c29 30 85 59 144 59c26 0 59 -9 83 -20c4 -2 10 0 14 3c18 16 28 21 32 21c6 0 13 -9 17 -19c-3 -24 -7 -260 -7 -364
c0 -23 0 -87 3 -100c2 -5 4 -6 8 -6c5 0 9 5 16 11c30 25 92 89 110 111c4 5 7 17 -22 23c-18 3 -26 10 -26 16c0 7 10 12 21 12h41c60 0 118 11 145 11c6 0 9 -2 9 -8c0 -12 -17 -23 -21 -24c-58 -13 -81 -24 -123 -56c-19 -13 -57 -47 -61 -57c-2 -2 -2 -7 -1 -7
c14 -22 116 -157 152 -192c18 -17 32 -27 60 -34c16 -5 25 -12 25 -16c0 -12 -12 -16 -31 -16c-24 0 -90 6 -142 5l-48 -1c-11 0 -26 3 -26 14c0 6 6 10 22 15c15 5 20 13 13 23c-25 37 -50 66 -97 129c-9 13 -14 20 -19 20c-3 0 -4 -5 -5 -9c-4 -11 -3 -105 1 -126
c3 -19 7 -30 35 -37c11 -3 22 -10 22 -15c0 -13 -16 -15 -28 -15c-25 0 -70 3 -95 3c-34 0 -75 -4 -88 -4c-20 0 -28 5 -28 13c0 9 16 14 29 18c30 8 37 15 39 45c2 19 7 230 7 362c0 43 -1 116 -4 153c-2 21 -6 34 -11 41c-9 13 -37 33 -70 33c-21 0 -44 -15 -56 -33
c-21 -31 -30 -110 -30 -227c0 -4 4 -8 6 -8c60 0 97 1 101 1c7 0 14 -26 14 -46c0 -3 -11 -11 -15 -11c-7 0 -87 2 -98 2c-4 0 -8 -7 -8 -12c0 -19 -1 -212 2 -245c1 -33 11 -48 48 -56c18 -4 23 -12 23 -16c0 -10 -11 -15 -28 -15c-12 0 -62 5 -88 5c-60 0 -84 -6 -107 -6
c-12 0 -25 5 -25 15c0 5 11 13 21 16c41 12 42 23 43 70c1 40 2 181 2 237c1 6 -5 12 -8 12zM204 393h153c4 0 7 6 7 8c0 56 15 127 37 167c2 4 2 12 1 14c-22 25 -63 57 -110 57c-22 0 -45 -15 -57 -31c-22 -27 -40 -86 -40 -203c0 -6 4 -12 9 -12z" />
    <glyph glyph-name="f_f_l" unicode="ffl" horiz-adv-x="820" 
d="M357 344h-155c-6 0 -8 -11 -8 -19c0 -16 3 -215 3 -226c2 -52 13 -58 40 -67c16 -6 26 -12 26 -17c0 -10 -14 -18 -28 -18c-23 0 -77 3 -97 3c-37 0 -72 -5 -92 -5c-15 0 -26 5 -26 12s5 14 21 18c38 11 41 28 42 55c1 17 3 170 3 241c0 6 -3 14 -10 15
c-12 3 -23 5 -35 7c-5 1 -11 8 -11 13c0 16 33 26 46 35c8 5 11 10 11 17c0 49 17 99 30 128c15 31 48 74 89 101c35 23 83 43 136 43c42 0 89 -14 111 -32c2 -2 8 -4 11 -1c32 28 81 54 140 54c25 0 57 -6 81 -17c5 -1 12 -1 15 2c18 15 33 22 37 22c6 0 13 -9 13 -16
s-4 -233 -5 -333c-1 -109 0 -246 2 -284c1 -23 2 -37 38 -47c12 -3 22 -10 22 -14c0 -14 -15 -17 -23 -17c-20 0 -68 3 -88 3c-37 1 -71 -3 -86 -3c-26 0 -32 9 -32 15c0 8 11 13 24 17c29 9 32 24 33 50c3 55 4 206 3 252c0 5 -2 12 -6 13c-36 2 -110 1 -153 1
c-3 0 -7 -4 -7 -11c0 -19 1 -219 4 -252c1 -33 5 -43 49 -54c18 -5 24 -13 24 -17c0 -7 -11 -14 -29 -14c-12 0 -64 3 -90 3c-61 0 -85 -5 -108 -5c-11 0 -25 6 -25 15c0 5 11 13 21 16c41 13 43 22 44 69c0 39 2 182 2 238c0 4 -3 11 -7 11zM204 394h155c3 0 5 4 5 8
c0 55 15 129 37 169c2 4 1 10 0 12c-24 31 -64 56 -110 56c-22 0 -44 -15 -56 -31c-22 -27 -41 -85 -41 -202c0 -8 5 -12 10 -12zM554 656c-22 0 -42 -14 -54 -33c-20 -31 -30 -110 -30 -220c0 -4 6 -9 9 -9c-1 0 120 -1 150 1c4 0 9 5 9 11c0 18 -1 137 -3 171
c-1 21 -6 37 -11 44c-9 12 -37 35 -70 35z" />
    <glyph glyph-name="f_f_t" unicode="fft" horiz-adv-x="872" 
d="M205 394h149c7 0 10 3 10 8c0 55 15 131 37 171c1 2 1 8 0 10c-23 29 -66 56 -109 56c-41 0 -98 -31 -98 -233c0 -10 3 -12 11 -12zM353 341h-149c-7 0 -10 -7 -10 -19v-8c1 -54 2 -182 3 -210c2 -60 9 -62 40 -72c16 -6 26 -12 26 -17c0 -10 -14 -18 -28 -18h-17
c-34 2 -69 2 -100 2c-30 0 -56 -4 -72 -4c-15 0 -26 6 -26 13s5 13 21 17c35 10 40 27 41 47c3 36 4 176 4 255c0 5 -15 12 -41 15c-9 2 -14 7 -14 15c0 11 14 17 41 33c6 4 15 11 15 16c0 98 35 173 114 228c35 21 87 46 141 46c43 0 90 -15 113 -35c2 -1 6 -2 9 1
c27 28 83 56 140 59c7 0 15 -1 23 -1c37 -4 78 -23 78 -59c0 -23 -20 -47 -39 -53c-5 -1 -15 -2 -22 2c-23 6 -46 44 -85 60c-7 2 -13 3 -20 3c-20 -2 -33 -17 -43 -42c-14 -33 -24 -108 -24 -212c0 -6 4 -10 8 -10c30 0 102 -1 134 0c11 0 26 9 47 31c22 18 46 46 49 46
c7 0 20 -11 20 -17c0 -8 0 -26 -1 -51c0 -3 5 -9 9 -9c22 0 103 3 107 3c7 0 18 3 18 -45c0 -10 -19 -12 -26 -12h-96c-6 0 -9 -12 -10 -42c-1 -51 0 -140 0 -174c0 -49 30 -64 66 -64c8 0 26 5 42 14c8 6 13 7 17 7c3 0 7 -5 7 -16c0 -38 -75 -76 -129 -76
c-41 0 -77 20 -94 43c-12 17 -17 32 -17 71c0 37 4 179 4 214c0 6 1 22 -9 23c-31 5 -102 3 -138 2c-2 0 -7 -5 -7 -12c0 -36 0 -200 4 -247c2 -32 3 -43 57 -55c18 -4 23 -13 23 -17c0 -6 -11 -14 -29 -14c-25 0 -93 3 -125 3c-41 -1 -62 -4 -82 -4c-11 0 -24 5 -24 15
c0 5 10 12 20 15c41 13 43 24 44 71c1 35 3 189 3 233c0 8 -5 12 -11 12z" />
    <glyph glyph-name="f_h" unicode="fh" horiz-adv-x="812" 
d="M480 692c0 -7 -6 -230 -7 -331c0 -1 2 -8 6 -5c35 32 79 51 117 51c51 0 86 -19 107 -48c20 -27 29 -67 29 -110c1 -63 2 -136 4 -180c0 -25 13 -34 40 -41c19 -5 26 -11 26 -18c0 -8 -9 -14 -29 -14c-29 0 -56 4 -82 4c-37 0 -57 -3 -92 -3c-19 0 -25 7 -25 13
s7 12 21 16c23 7 28 17 31 50c2 22 1 147 1 167c0 51 -12 71 -25 82c-15 13 -34 22 -60 22c-30 0 -54 -11 -58 -14c-3 -3 -10 -19 -12 -34c-2 -53 -3 -188 -1 -217c1 -34 10 -46 33 -52c16 -4 25 -11 25 -17c0 -11 -16 -14 -30 -14c-8 0 -44 1 -91 1c-42 0 -67 -3 -85 -3
c-12 0 -26 5 -26 14c0 6 7 13 28 19c30 11 33 28 35 49c4 35 9 121 9 311c1 43 -1 153 -4 190c-1 22 -6 34 -11 41c-8 12 -41 33 -75 33c-21 0 -44 -13 -56 -32c-20 -31 -31 -109 -30 -220c0 -4 7 -9 9 -9c60 0 95 1 99 1c7 0 14 -26 14 -46c0 -3 -10 -11 -15 -11
c-7 0 -85 2 -96 2c-4 0 -9 -7 -9 -12c-1 -28 0 -170 2 -220c2 -62 12 -67 41 -75c15 -6 25 -12 25 -16c0 -10 -13 -19 -25 -19c-28 0 -74 3 -94 3c-45 0 -74 -5 -98 -5c-14 0 -26 6 -26 13s5 12 22 17c35 10 39 29 41 46c1 14 3 169 3 248c0 7 -3 16 -10 17
c-12 2 -27 5 -38 7c-4 1 -7 6 -7 9c0 19 32 30 45 39c7 5 11 10 11 17c0 34 6 71 11 91c17 63 45 110 97 152c33 26 90 50 139 50c28 0 55 -6 79 -17c5 -2 12 -1 16 2c18 16 34 22 38 22c6 0 13 -9 13 -16z" />
    <glyph glyph-name="f_i" unicode="fi" horiz-adv-x="546" 
d="M205 394c21 -1 64 -1 91 -1c74 0 113 7 132 13c11 3 27 5 32 5c8 0 10 -8 10 -72c0 -126 -2 -198 1 -271c1 -28 11 -31 33 -38s26 -12 26 -19c0 -9 -15 -14 -29 -14c-13 0 -63 3 -86 3c-33 0 -68 -3 -87 -3c-11 0 -26 3 -26 15c0 8 12 12 28 18c19 9 26 21 27 37
c4 65 5 229 5 264c0 5 -8 13 -12 14c-46 2 -97 3 -146 0c-1 0 -9 -6 -9 -13c-1 -22 1 -225 3 -255c3 -29 8 -36 46 -48c17 -6 20 -12 20 -17c0 -6 -7 -15 -22 -15c-13 0 -80 3 -107 3c-34 0 -84 -6 -94 -6c-12 0 -20 7 -20 14c0 5 7 12 19 15c39 13 41 24 43 65
c2 34 3 171 3 233c0 4 -4 14 -9 15c-14 2 -25 4 -38 6c-4 1 -11 5 -10 11c0 12 18 22 46 37c7 4 12 10 12 15c0 48 11 107 33 151c22 45 52 77 94 105c40 28 92 44 138 44c55 0 89 -21 107 -43c7 -8 10 -19 10 -29c0 -26 -40 -57 -58 -57c-6 0 -23 9 -38 25
c-22 24 -63 52 -93 52c-24 0 -38 -8 -50 -24c-18 -21 -37 -98 -37 -225c0 -5 7 -10 12 -10z" />
    <glyph glyph-name="f_j" unicode="fj" horiz-adv-x="531" 
d="M336 345c-59 1 -76 2 -132 0c-3 0 -9 -4 -9 -14c-1 -23 1 -228 3 -258c2 -26 11 -33 43 -44c17 -6 20 -12 20 -17c0 -7 -7 -15 -22 -15c-13 0 -77 3 -105 3c-33 0 -82 -5 -93 -5c-12 0 -20 7 -20 14c0 4 7 12 19 16c39 12 41 24 43 63c2 34 3 171 3 233c0 5 -2 14 -9 15
c-14 2 -24 4 -37 6c-4 1 -12 5 -12 11c0 12 18 22 47 37c7 4 12 9 12 14c1 48 11 108 33 152c22 45 53 77 95 105c40 28 90 44 135 44c56 0 88 -20 107 -42c7 -8 10 -19 10 -30c0 -25 -40 -56 -58 -56c-6 0 -23 9 -38 24c-22 24 -62 52 -92 52c-24 0 -36 -8 -49 -24
c-17 -21 -37 -98 -37 -225c0 -7 6 -10 13 -10c34 -1 51 -1 80 -1c75 0 114 5 134 12c10 5 24 7 29 7c7 0 13 -8 13 -18c-1 -53 -2 -320 -3 -346c-2 -64 -16 -128 -41 -170c-25 -41 -56 -78 -89 -105c-26 -23 -60 -40 -67 -40c-6 0 -18 5 -23 12c-2 2 -2 9 2 12
c49 30 57 41 63 49c29 34 49 109 49 239c0 49 -2 252 -4 286c-1 7 -7 14 -13 14z" />
    <glyph glyph-name="f_k" unicode="fk" horiz-adv-x="795" 
d="M473 361c0 -23 -1 -122 2 -135c2 -5 4 -6 8 -6c5 0 9 5 16 11c30 25 92 89 110 111c4 5 7 17 -22 23c-18 3 -26 10 -26 16c0 7 10 12 21 12h41c60 0 118 11 145 11c6 0 10 -2 10 -8c0 -12 -18 -23 -22 -24c-58 -13 -81 -24 -124 -56c-19 -13 -55 -47 -60 -57
c-1 -2 -1 -7 -1 -7c14 -22 116 -157 151 -192c19 -17 34 -27 61 -34c16 -5 25 -12 25 -16c0 -12 -12 -16 -31 -16c-24 0 -90 6 -142 5c-15 0 -32 -1 -48 -1c-11 0 -26 3 -26 14c0 6 5 10 22 15c15 5 20 13 13 23c-26 37 -50 66 -97 129c-10 13 -14 20 -19 20
c-3 0 -4 -5 -5 -9c-4 -11 -3 -105 1 -126c3 -19 7 -30 35 -37c11 -3 21 -10 21 -15c0 -13 -16 -15 -27 -15c-25 0 -70 3 -95 3c-35 0 -78 -4 -91 -4c-21 0 -29 5 -29 13c0 9 17 14 30 18c31 9 39 18 42 45c1 19 7 156 7 288c0 43 -2 183 -5 220c-1 22 -6 35 -11 42
c-9 12 -41 32 -74 32c-22 0 -44 -13 -57 -32c-20 -32 -30 -109 -30 -220c0 -4 8 -9 9 -9c61 0 96 1 100 1c7 0 14 -26 14 -46c0 -3 -11 -11 -15 -11c-7 0 -86 2 -97 2c-4 0 -9 -7 -9 -12c-1 -28 0 -170 2 -220c2 -62 10 -67 38 -75c16 -6 26 -12 26 -16
c0 -10 -14 -19 -26 -19c-28 0 -71 3 -91 3c-44 0 -74 -5 -98 -5c-14 0 -26 6 -26 13s5 12 23 17c34 10 39 29 40 46c1 14 3 169 4 248c0 7 -3 16 -10 17c-13 2 -27 5 -39 7c-3 1 -6 6 -6 9c0 19 32 30 44 39c7 5 11 10 11 17c1 34 6 70 11 90c17 63 46 112 99 154
c32 25 88 49 139 49c27 0 55 -6 79 -17c4 -2 12 -1 16 3c18 15 32 21 36 21c6 0 13 -9 13 -16s-5 -230 -6 -331z" />
    <glyph glyph-name="f_l" unicode="fl" horiz-adv-x="543" 
d="M331 701c25 0 54 -6 78 -17c4 -2 12 -1 17 3c18 16 30 21 35 21c6 0 13 -9 13 -16s-4 -233 -6 -333c-1 -109 1 -246 3 -284c1 -23 2 -37 37 -47c12 -3 22 -10 22 -14c0 -14 -15 -17 -23 -17c-20 0 -68 3 -87 3c-37 1 -72 -3 -87 -3c-26 0 -31 9 -31 15c0 8 10 13 23 17
c29 8 32 24 33 50c3 55 4 205 3 250c0 4 0 15 -8 15c-21 2 -122 3 -150 3c-4 0 -9 -5 -9 -12c-1 -28 0 -179 2 -229c2 -62 11 -67 40 -75c15 -6 25 -13 25 -17c0 -10 -15 -17 -27 -17c-28 0 -71 3 -91 3c-44 0 -74 -5 -98 -5c-14 0 -26 6 -26 13s5 12 23 17
c34 10 39 29 40 46c1 14 3 169 4 248c0 7 -3 16 -10 17l-40 7c-3 1 -6 6 -6 9c0 19 33 30 45 39c7 5 11 10 11 17c1 34 6 67 11 88c17 66 46 114 98 156c33 25 85 49 136 49zM277 654c-21 0 -43 -13 -55 -32c-21 -32 -29 -109 -29 -219c0 -4 5 -9 12 -9c-1 0 112 -2 147 1
c5 0 9 6 9 11c1 19 -2 137 -4 171c-1 21 -5 37 -10 44c-9 12 -37 33 -70 33z" />
    <glyph glyph-name="f_t" unicode="ft" horiz-adv-x="605" 
d="M463 393c22 0 103 2 107 2c2 0 8 -2 12 -12c3 -7 3 -12 3 -33c0 -11 -19 -12 -26 -12h-94c-3 0 -8 -4 -9 -10c-3 -51 0 -171 0 -205c0 -49 30 -64 64 -64c18 0 54 21 61 21c3 0 7 -5 7 -16c0 -38 -75 -76 -129 -76c-41 0 -78 20 -94 43c-13 18 -18 31 -18 71
c0 37 4 187 4 222c0 6 -3 16 -8 16h-139c-3 0 -8 -7 -8 -11c-1 -18 1 -214 4 -249c3 -31 7 -42 58 -52c18 -4 25 -13 25 -17c0 -7 -12 -14 -30 -14c-12 -1 -47 3 -72 3h-27c-48 -1 -91 -4 -107 -4c-12 0 -25 4 -25 14c0 4 10 13 21 16c40 13 41 22 42 68c1 41 2 171 2 225
c0 15 -4 20 -8 20c-13 -1 -30 -1 -43 -2c-4 0 -11 9 -10 16c0 4 62 39 62 54c0 43 10 101 33 145c42 87 127 149 205 153c6 0 13 0 20 -1c34 -2 79 -20 79 -59c0 -34 -32 -57 -57 -57c-20 0 -52 53 -91 63c-5 2 -11 3 -17 2c-14 -1 -21 -6 -29 -16c-22 -27 -36 -77 -36 -236
c0 -3 6 -8 7 -8c40 0 115 1 138 1c7 0 11 0 18 6c15 12 73 73 77 73c8 0 20 -11 20 -17l-1 -54c0 -3 5 -9 9 -9z" />
    <glyph glyph-name="longs_b" unicode="&#x17f;b" horiz-adv-x="796" 
d="M460 689c0 -69 -2 -197 -3 -301c0 -7 7 -10 8 -10c31 19 73 29 103 29c52 0 96 -16 128 -44c44 -38 68 -91 68 -156c0 -85 -47 -140 -95 -175c-42 -32 -109 -44 -145 -44c-47 -1 -105 12 -136 21c-4 2 -10 1 -20 -4c-5 -2 -10 -4 -12 -4c-4 0 -12 6 -12 13
c4 78 7 253 7 334c0 169 -1 230 -3 246c-1 15 -6 26 -13 34c-14 14 -38 26 -60 26s-39 -10 -50 -27c-16 -22 -29 -102 -30 -217c0 -88 1 -247 5 -321c2 -38 9 -51 43 -60c18 -4 25 -12 25 -16c0 -8 -12 -17 -29 -17s-63 4 -87 4c-45 0 -88 -6 -105 -6c-11 0 -24 5 -24 14
c0 5 9 13 21 17c37 11 39 23 41 60c1 36 2 178 2 242c0 4 -4 10 -11 11l-33 6c-4 1 -10 6 -10 13s23 21 42 36c7 6 12 10 12 15c1 51 17 107 33 138c19 43 48 83 93 116c33 23 79 41 120 41c20 0 54 -6 69 -15c7 -4 14 0 25 12c5 5 14 14 23 14c7 0 10 -18 10 -25zM643 187
c0 41 -13 92 -41 125c-18 22 -54 44 -95 44c-17 0 -31 -4 -40 -8c-3 -2 -7 -8 -8 -11c-1 -15 -2 -34 -2 -55c0 -76 3 -141 8 -176c2 -12 10 -41 30 -59c19 -18 38 -23 55 -23c12 0 31 6 51 28c29 31 42 84 42 135z" />
    <glyph glyph-name="longs_h" unicode="&#x17f;h" horiz-adv-x="793" 
d="M87 327c0 4 -4 10 -11 11c-8 2 -21 4 -33 6c-4 1 -10 6 -10 13s23 21 42 36c7 6 12 10 12 15c1 51 17 107 33 138c19 43 48 83 93 116c33 24 79 42 120 42c21 0 54 -6 69 -15c7 -4 14 0 26 14c5 6 13 13 22 13c7 0 10 -18 10 -25c0 -69 -6 -221 -6 -325c0 -3 3 -9 7 -6
c32 27 80 47 116 47c51 0 87 -19 108 -48c20 -27 29 -67 29 -110c1 -63 1 -136 3 -180c0 -25 13 -34 40 -41c20 -4 25 -10 25 -18c0 -7 -8 -14 -28 -14c-29 0 -57 4 -83 4c-36 0 -57 -4 -92 -4c-19 0 -25 9 -25 15s7 11 20 16c23 7 29 18 32 49c2 22 3 132 3 170
c0 55 -14 70 -27 81c-16 13 -34 20 -59 20c-31 0 -54 -10 -59 -13s-10 -16 -10 -23c-3 -60 -3 -204 -2 -230c1 -34 9 -45 33 -51c15 -4 24 -11 24 -18c0 -10 -15 -14 -29 -14c-7 0 -44 2 -91 2c-41 0 -64 -3 -82 -3c-11 0 -25 5 -25 14c0 6 7 13 28 20c30 10 31 27 33 48
c3 35 8 156 8 355c0 41 -1 116 -2 157c-1 15 -7 30 -14 37c-14 15 -38 26 -60 26s-39 -11 -51 -28c-15 -21 -28 -101 -29 -216c0 -88 1 -247 5 -320c2 -41 5 -53 36 -61c16 -4 23 -12 23 -16c0 -7 -11 -16 -27 -16c-17 0 -56 3 -80 3c-45 0 -88 -5 -105 -5
c-11 0 -24 5 -24 15c0 5 9 12 21 16c37 12 39 24 41 61c1 35 2 176 2 240z" />
    <glyph glyph-name="longs_i" unicode="&#x17f;i" horiz-adv-x="537" 
d="M193 399c0 -109 1 -269 2 -320c2 -30 11 -43 42 -51c18 -4 24 -12 24 -17c0 -7 -10 -15 -28 -15c-12 0 -63 4 -89 4c-37 0 -79 -4 -98 -4c-11 0 -24 5 -24 15c0 4 8 12 19 15c39 12 42 21 43 70c1 41 3 178 3 232c0 4 -6 11 -13 12l-32 3c-4 0 -11 8 -11 16
c0 4 20 16 42 34c7 6 13 10 13 15c0 42 11 100 34 144c21 44 53 81 95 109c40 28 91 44 136 44c56 0 89 -21 107 -43c8 -8 10 -19 10 -29c0 -26 -40 -57 -57 -57c-7 0 -24 9 -39 25c-22 24 -62 52 -92 52c-24 0 -37 -8 -50 -24c-17 -21 -37 -104 -37 -230zM354 227
c0 48 -1 67 -2 79c-2 10 -12 18 -30 32c-8 7 -14 13 -14 18c0 9 13 15 28 18c39 7 99 29 116 33c5 1 10 -6 10 -11c-2 -33 -4 -166 -4 -224c0 -31 1 -66 2 -101c1 -30 11 -35 34 -42c16 -5 24 -11 24 -19s-13 -13 -28 -13c-7 0 -61 3 -83 3c-33 0 -74 -4 -92 -4
c-15 0 -26 7 -26 14s7 11 27 17c22 8 29 19 32 29c4 14 6 80 6 171z" />
    <glyph glyph-name="longs_k" unicode="&#x17f;k" horiz-adv-x="778" 
d="M88 327c0 4 -4 10 -11 11c-10 2 -24 4 -33 6c-4 1 -11 6 -11 13s24 21 43 36c7 6 12 10 12 15c0 51 16 107 32 138c19 43 48 84 94 117c33 23 78 41 120 41c21 0 54 -6 69 -15c6 -4 11 -2 22 10c5 5 17 17 26 17c7 0 10 -18 10 -25c0 -69 -5 -251 -6 -355
c0 -23 0 -97 3 -109c1 -6 3 -7 7 -7c6 0 12 5 18 11c30 24 91 89 109 111c4 5 5 16 -24 22c-18 3 -25 11 -25 17c0 7 10 12 21 12h43c61 0 114 10 141 10c8 0 13 -3 13 -9c0 -12 -18 -21 -22 -22c-60 -14 -79 -22 -121 -55c-20 -15 -48 -41 -61 -58c-3 -3 -2 -8 -1 -9
c22 -32 117 -156 153 -190c18 -17 34 -26 60 -33c16 -4 24 -11 24 -15c0 -12 -12 -17 -32 -17c-24 0 -88 5 -140 4c-19 0 -38 -1 -52 -1c-11 0 -26 3 -26 14c0 6 5 11 21 16c15 4 23 13 15 23c-29 42 -53 71 -96 128c-9 13 -14 18 -20 18c-4 0 -4 -3 -6 -8
c-2 -9 -2 -109 1 -125c3 -19 8 -29 36 -37c12 -3 21 -9 21 -15c0 -12 -15 -16 -27 -16c-25 0 -70 4 -95 4c-35 0 -72 -4 -85 -4c-21 0 -28 6 -28 14c0 9 13 14 26 18c32 9 35 16 39 43c4 21 6 161 6 293c0 40 0 187 -2 227c0 15 -6 29 -13 37c-14 15 -39 26 -60 26
c-23 0 -39 -11 -51 -28c-15 -21 -29 -101 -29 -216c0 -88 1 -248 5 -322c2 -40 6 -53 36 -60c17 -5 24 -12 24 -16c0 -8 -13 -16 -29 -16c-17 0 -55 4 -79 4c-45 0 -88 -6 -106 -6c-10 0 -23 5 -23 14c0 5 8 13 21 17c36 11 39 23 40 60c2 36 3 178 3 242z" />
    <glyph glyph-name="longs_l" unicode="&#x17f;l" horiz-adv-x="537" 
d="M88 327c0 4 -4 10 -11 11c-11 2 -24 4 -33 6c-4 1 -11 6 -11 13s24 21 43 36c7 6 12 10 12 15c0 51 16 107 32 138c19 43 48 83 94 116c33 24 78 42 120 42c21 0 54 -6 69 -15c7 -5 14 0 26 14c5 6 13 13 22 13c7 0 10 -18 10 -25c0 -69 -3 -294 -3 -398
c-1 -78 2 -191 4 -222c1 -23 7 -34 44 -45c15 -5 21 -10 21 -17c0 -9 -14 -13 -26 -13c-24 0 -84 4 -102 4c-23 0 -65 -4 -87 -4c-23 0 -29 9 -29 13c0 11 13 15 24 18c34 9 36 19 39 71c3 45 6 93 6 250c0 128 -1 202 -3 243c0 15 -6 29 -13 37c-14 15 -39 26 -60 26
c-23 0 -39 -11 -51 -28c-15 -21 -29 -101 -29 -216c0 -88 1 -248 5 -322c2 -40 5 -52 36 -61c16 -4 24 -12 24 -16c0 -7 -12 -15 -29 -15s-55 4 -79 4c-45 0 -88 -6 -106 -6c-10 0 -24 5 -24 14c0 5 9 13 22 17c36 11 39 23 40 60c2 36 3 178 3 242z" />
    <glyph glyph-name="longs_longs" unicode="&#x17f;s" horiz-adv-x="551" 
d="M88 329c0 4 -5 10 -12 11c-10 2 -19 3 -30 5c-9 1 -14 11 -10 18s16 16 35 26c10 6 17 13 17 21c0 53 18 104 31 130c15 28 45 67 84 94c34 23 85 46 132 46c35 0 67 -10 86 -24c17 -2 30 -6 39 -10c18 18 56 39 102 40c26 11 64 14 92 7c21 -5 44 -29 44 -48
c0 -20 -14 -41 -30 -48c-5 -3 -18 -6 -23 -6c-8 0 -15 3 -29 18c-21 20 -49 48 -73 48c-17 0 -29 -8 -40 -23c-19 -25 -35 -77 -35 -230c0 -32 3 -293 3 -312c2 -38 8 -55 41 -62c20 -5 25 -13 25 -20c0 -6 -14 -14 -25 -14c-30 0 -51 4 -95 4c-46 0 -68 -4 -92 -4
c-18 0 -27 8 -27 16c0 5 11 13 25 17c29 10 36 26 37 59c0 33 2 179 2 239c0 4 -4 13 -11 14c-11 2 -20 3 -32 5c-10 2 -15 10 -11 18c4 7 18 16 37 27c9 5 16 13 16 21c6 68 16 124 36 159c2 5 4 12 1 16c-24 25 -63 51 -108 51c-22 0 -42 -12 -54 -27
c-36 -36 -40 -185 -40 -272c0 -72 1 -231 3 -262c0 -29 9 -39 35 -46c19 -6 26 -13 26 -19c0 -15 -19 -15 -30 -15c-26 0 -54 3 -88 3c-55 0 -65 -4 -93 -4c-19 0 -26 6 -26 14c0 4 7 14 24 18c40 12 37 27 39 72c0 33 2 173 2 229z" />
    <glyph glyph-name="longs_longs_i" unicode="&#x17f;si" horiz-adv-x="818" 
d="M336 680c50 0 90 -15 117 -37c3 -3 8 1 10 3c29 30 78 59 139 59c40 0 96 -17 97 -60c0 -20 -15 -41 -30 -48c-6 -3 -18 -6 -23 -6c-8 0 -16 3 -30 18c-20 20 -48 48 -72 48c-18 0 -30 -8 -40 -23c-19 -25 -36 -80 -36 -233c0 -27 3 -293 3 -309c2 -38 6 -54 39 -61
c20 -5 25 -14 25 -21c0 -6 -14 -14 -25 -14c-30 0 -49 4 -93 4c-46 0 -69 -5 -93 -5c-18 0 -26 9 -26 17c0 5 11 14 24 18c30 10 37 25 38 58c0 25 2 168 2 239c0 4 -4 13 -11 14l-32 5c-10 2 -15 11 -11 20c4 6 16 14 34 25c10 5 19 13 19 21c6 71 17 125 36 160
c2 4 -1 15 -2 17c-24 25 -59 49 -104 49c-22 0 -44 -15 -56 -30c-36 -36 -39 -178 -39 -265c0 -63 1 -241 3 -266c0 -29 9 -38 35 -45c19 -6 26 -11 26 -18c0 -15 -19 -18 -30 -18c-26 0 -54 4 -88 4c-55 0 -65 -4 -93 -4c-19 0 -26 5 -27 13c0 4 6 13 23 18
c40 12 39 28 41 73c0 33 2 173 2 229c0 4 -5 10 -12 11l-30 5c-9 1 -14 11 -10 18s16 16 35 26c10 6 17 13 17 21c0 53 17 103 31 129c15 28 45 68 84 95c35 23 86 46 133 46zM587 355c0 7 12 15 27 18c41 8 104 32 120 36c5 0 10 -8 10 -11c-3 -34 -5 -168 -5 -226
c0 -31 1 -66 2 -101c1 -30 13 -34 38 -42c16 -5 24 -11 24 -19s-14 -13 -29 -13c-7 0 -61 3 -82 3c-33 0 -77 -4 -95 -4c-16 0 -28 6 -28 13s7 12 27 18c24 7 31 19 34 29c3 14 5 85 5 156c0 21 1 78 -2 90c-2 7 -12 18 -33 36c-8 6 -13 11 -13 17z" />
    <glyph glyph-name="longs_longs_l" unicode="&#x17f;sl" horiz-adv-x="806" 
d="M336 680c50 0 88 -14 116 -35c3 -2 9 -1 11 1c31 30 81 56 142 56c26 0 48 -5 72 -17c5 -1 11 -1 15 4c16 15 30 23 33 23c6 0 13 -9 13 -16s-4 -229 -5 -337c-3 -110 0 -239 2 -284c1 -23 1 -37 39 -47c13 -3 23 -11 23 -15c0 -13 -16 -16 -25 -16c-21 0 -68 3 -87 3
c-33 1 -76 -3 -92 -3c-27 0 -33 8 -33 15c0 8 12 13 25 16c33 9 35 25 37 59c2 40 5 264 4 303c0 20 -1 156 -3 193c0 19 -6 34 -13 42c-9 12 -33 29 -59 29c-18 0 -33 -8 -44 -23c-19 -25 -39 -77 -39 -230c0 -28 3 -291 3 -309c2 -38 6 -54 39 -61c20 -5 25 -14 25 -21
c0 -6 -14 -14 -25 -14c-30 0 -49 4 -93 4c-46 0 -70 -5 -94 -5c-18 0 -25 8 -25 16c0 5 10 14 23 18c30 10 38 26 39 59c1 25 2 168 2 239c0 4 -4 13 -11 14l-32 5c-10 2 -15 11 -11 20c4 6 16 14 34 25c10 5 19 13 19 21c5 72 17 125 37 160c2 4 3 12 0 15
c-22 25 -62 51 -107 51c-22 0 -45 -15 -57 -30c-36 -36 -38 -177 -38 -265c0 -91 1 -231 3 -266c0 -29 13 -38 38 -45c19 -6 29 -13 29 -20c0 -15 -22 -16 -32 -16c-26 0 -58 4 -92 4c-55 0 -66 -4 -94 -4c-19 0 -26 5 -27 13c0 4 7 13 23 18c40 12 40 28 41 73
c1 33 3 173 3 229c0 4 -5 10 -12 11l-30 5c-7 1 -12 13 -10 18c4 7 17 16 35 26c10 6 17 13 17 21c0 53 18 103 31 130c15 28 45 67 84 94c34 23 86 46 133 46z" />
    <glyph glyph-name="longs_t" unicode="&#x17f;t" horiz-adv-x="608" 
d="M76 338c-11 2 -23 3 -32 4c-4 1 -11 8 -11 16c0 4 23 20 43 36c11 9 13 10 13 26c0 79 35 161 99 215c26 21 74 51 130 51c100 0 140 -62 140 -120v-162c0 -3 5 -9 9 -9c22 0 97 1 101 1s16 -2 17 -12c0 3 3 -27 3 -39c0 -11 -19 -12 -26 -12c-4 0 -88 1 -94 1
c-7 0 -8 -14 -8 -18v-190c0 -25 4 -38 14 -49s31 -19 48 -19c13 0 35 9 44 15c8 6 13 8 17 8s8 -9 8 -18c0 -8 -13 -25 -20 -31c-24 -26 -62 -44 -108 -44c-40 0 -78 21 -94 44c-12 17 -18 31 -18 70c0 37 4 190 4 225c0 6 -11 7 -49 16c-6 1 -11 5 -11 12c0 4 4 11 9 14
c11 7 34 18 40 22c7 7 8 9 11 22c7 31 7 117 7 158c0 22 -15 45 -27 56c-15 13 -26 17 -51 17c-44 0 -87 -47 -88 -221c0 -35 2 -286 3 -345c1 -31 7 -41 34 -48c19 -5 28 -11 28 -18c0 -13 -21 -16 -31 -16c-26 0 -53 4 -89 4c-55 0 -63 -4 -92 -4c-18 0 -25 5 -25 13
c0 4 4 12 21 17c41 12 40 27 41 72c1 36 2 175 2 231c0 4 -5 8 -12 9z" />
    <glyph glyph-name="Tcommaaccent_h" unicode="&#x162;h" horiz-adv-x="1068" 
d="M340 632c56 0 166 0 179 1c16 0 118 2 140 6c12 3 25 10 36 19c13 10 31 22 36 22c7 0 12 -8 12 -11c-2 -26 -10 -75 -13 -140c-3 -88 -3 -157 -3 -168c0 -1 3 -8 7 -5c36 32 81 51 118 51c51 0 86 -19 107 -48c20 -27 29 -67 29 -110c1 -63 3 -136 4 -180
c1 -25 13 -34 39 -41c20 -5 27 -11 27 -18c0 -8 -9 -14 -29 -14c-29 0 -57 4 -82 4c-37 0 -57 -3 -93 -3c-17 0 -24 7 -24 13s7 12 20 16c24 7 28 17 32 50c2 22 1 147 1 167c0 51 -12 71 -25 82c-14 13 -34 22 -60 22c-31 0 -54 -11 -58 -14c-3 -3 -11 -19 -12 -34
c-2 -53 -2 -188 -2 -217c2 -34 11 -46 35 -52c15 -4 24 -11 24 -17c0 -11 -16 -14 -30 -14c-8 0 -43 1 -91 1c-41 0 -68 -3 -86 -3c-11 0 -25 5 -25 14c0 6 7 13 28 19c30 11 34 28 36 49c4 35 9 143 9 291c0 146 0 175 -3 189c-3 18 -12 29 -19 29c-23 2 -168 2 -197 -2
c-6 -1 -10 -8 -10 -12c0 -46 -1 -122 -1 -208c0 -115 1 -221 5 -271c3 -32 11 -52 78 -66c14 -3 25 -14 25 -20c0 -9 -17 -13 -28 -13c-8 0 -121 4 -148 4c-31 0 -108 -6 -125 -6c-19 0 -31 4 -31 11c0 10 12 19 22 21c65 16 70 30 73 100c4 59 9 258 9 334
c0 57 -1 91 -1 117c0 9 -8 14 -11 14c-18 3 -89 3 -111 3c-16 0 -44 -10 -55 -23c-10 -11 -21 -28 -34 -51c-12 -20 -18 -28 -22 -28c-10 0 -15 13 -15 23c0 19 18 84 19 134c0 5 9 21 16 21s13 -8 19 -15c3 -5 23 -15 42 -17c22 -2 149 -6 217 -6zM322 -46
c38 0 76 -31 76 -88c0 -81 -91 -107 -110 -107c-8 0 -17 3 -17 9c0 7 9 15 16 18c22 8 55 30 55 59c0 18 -8 25 -30 29c-11 3 -38 10 -38 39c0 30 29 41 48 41z" />
    <glyph glyph-name="Tcaron_h" unicode="&#x164;h" horiz-adv-x="1068" 
d="M340 632c56 0 166 0 179 1c16 0 118 2 140 6c12 3 25 10 36 19c13 10 31 22 36 22c7 0 12 -8 12 -11c-2 -26 -10 -75 -13 -140c-3 -88 -3 -157 -3 -168c0 -1 3 -8 7 -5c36 32 81 51 118 51c51 0 86 -19 107 -48c20 -27 29 -67 29 -110c1 -63 3 -136 4 -180
c1 -25 13 -34 39 -41c20 -5 27 -11 27 -18c0 -8 -9 -14 -29 -14c-29 0 -57 4 -82 4c-37 0 -57 -3 -93 -3c-17 0 -24 7 -24 13s7 12 20 16c24 7 28 17 32 50c2 22 1 147 1 167c0 51 -12 71 -25 82c-14 13 -34 22 -60 22c-31 0 -54 -11 -58 -14c-3 -3 -11 -19 -12 -34
c-2 -53 -2 -188 -2 -217c2 -34 11 -46 35 -52c15 -4 24 -11 24 -17c0 -11 -16 -14 -30 -14c-8 0 -43 1 -91 1c-41 0 -68 -3 -86 -3c-11 0 -25 5 -25 14c0 6 7 13 28 19c30 11 34 28 36 49c4 35 9 143 9 291c0 146 0 175 -3 189c-3 18 -12 29 -19 29c-23 2 -168 2 -197 -2
c-6 -1 -10 -8 -10 -12c0 -46 -1 -122 -1 -208c0 -115 1 -221 5 -271c3 -32 11 -52 78 -66c14 -3 25 -14 25 -20c0 -9 -17 -13 -28 -13c-8 0 -121 4 -148 4c-31 0 -108 -6 -125 -6c-19 0 -31 4 -31 11c0 10 12 19 22 21c65 16 70 30 73 100c4 59 9 258 9 334
c0 57 -1 91 -1 117c0 9 -8 14 -11 14c-18 3 -89 3 -111 3c-16 0 -44 -10 -55 -23c-10 -11 -21 -28 -34 -51c-12 -20 -18 -28 -22 -28c-10 0 -15 13 -15 23c0 19 18 84 19 134c0 5 9 21 16 21s13 -8 19 -15c3 -5 23 -15 42 -17c22 -2 149 -6 217 -6zM333 675
c-8 0 -23 10 -41 25c-14 14 -48 44 -86 80c-8 5 -22 29 1 29c8 0 23 -6 30 -8c32 -16 64 -33 90 -48c7 -3 14 -2 19 0c21 13 59 29 90 45c7 4 24 10 31 10c11 0 14 -13 -8 -33c-24 -22 -61 -53 -87 -76c-15 -13 -33 -24 -39 -24z" />
    <glyph glyph-name="gamma_gamma" unicode="&#x3b3;&#x3b3;" horiz-adv-x="795" 
d="M127 412c43 0 95 -23 121 -141c7 -33 14 -108 14 -152c0 -6 7 -3 9 3c44 129 89 212 123 247c22 30 61 44 77 44c38 0 89 -17 114 -135c7 -33 17 -111 17 -155c0 -6 7 -3 10 3c28 56 59 120 82 174c24 57 33 84 39 117c0 2 17 5 21 1c11 -7 32 -28 38 -49
c4 -22 -6 -52 -9 -59c-25 -56 -134 -209 -157 -308c-3 -15 -5 -21 -5 -29c0 -28 -3 -190 -6 -201c-1 -6 -17 -18 -23 -16c-27 7 -65 24 -79 53c-4 9 -7 26 -5 33c16 59 37 122 55 172c7 22 8 63 6 87c-4 79 -39 209 -120 209c-13 0 -30 -5 -43 -14
c-56 -37 -95 -152 -121 -269c-3 -15 -3 -37 -3 -45c1 -60 -8 -211 -13 -231c-2 -6 -23 -20 -29 -19c-28 5 -65 27 -78 56c-4 9 -7 27 -5 34c16 60 52 149 71 199c8 22 5 85 1 109c-10 65 -53 167 -127 167c-36 0 -68 -20 -81 -32c-10 -9 -16 -3 -18 9c-3 15 6 49 14 63
c19 31 62 75 110 75z" />
    <glyph glyph-name="lambda_lambda" unicode="&#x3bb;&#x3bb;" horiz-adv-x="771" 
d="M103 679c46 0 78 -28 112 -142c16 -49 58 -249 78 -322c35 -131 63 -128 77 -130c6 -1 17 14 19 19c43 73 105 198 123 227c8 14 23 36 27 41c7 7 7 12 5 24c-13 67 -49 214 -153 214c-34 0 -57 -3 -86 -22c-3 -2 -11 11 -11 15c0 9 8 29 18 42c26 36 59 60 108 60
c52 0 97 -37 128 -148c14 -48 78 -351 101 -414c4 -10 31 -54 71 -54c9 0 38 1 55 5c3 1 3 -8 4 -12c1 -2 1 -9 -2 -21c-9 -44 -43 -79 -77 -79c-38 0 -61 27 -74 70c-13 42 -50 205 -52 216c-2 10 -11 3 -12 -1c-3 -10 -87 -217 -122 -258c-10 -16 -32 -26 -46 -26
c-74 0 -98 76 -113 129c-11 42 -39 151 -41 162c-2 10 -13 2 -14 -2c-3 -10 -86 -227 -91 -236c-11 -25 -28 -55 -39 -55c-16 0 -45 11 -67 30c-6 5 -10 19 -9 22c9 32 134 256 147 280c12 25 28 56 33 62c6 6 10 15 5 31c-20 88 -30 176 -123 176c-35 0 -52 -5 -68 -10
c-3 -1 -13 8 -13 12c0 9 1 25 18 49c20 30 50 46 84 46z" />
    <glyph glyph-name=".notdef" horiz-adv-x="500" 
d="M0 0v700h500v-700h-500zM250 395l170 255h-340zM280 350l170 -255v510zM80 50h340l-170 255zM50 605v-510l170 255z" />
    <glyph glyph-name="space" unicode=" " horiz-adv-x="193" 
 />
    <glyph glyph-name="exclam" unicode="!" horiz-adv-x="288" 
d="M161 612c52 0 72 -68 69 -102c-4 -46 -34 -222 -49 -282c-2 -13 -12 -35 -26 -35c-5 0 -18 12 -23 36c-10 51 -40 209 -46 276c-5 73 40 107 75 107zM156 140c44 0 74 -39 74 -75c0 -39 -33 -77 -75 -77c-40 0 -73 32 -73 77s39 75 74 75z" />
    <glyph glyph-name="quotedbl" unicode="&#x22;" horiz-adv-x="351" 
d="M131 677c7 0 17 -12 17 -31c0 -36 -22 -158 -34 -197c-4 -13 -17 -35 -29 -35c-9 0 -16 16 -17 28c-9 77 -17 146 -21 173c0 2 4 14 9 19c14 14 46 43 75 43zM290 688c7 0 18 -9 18 -31c0 -38 -23 -159 -36 -204c-4 -14 -17 -37 -30 -37c-8 0 -15 20 -16 29
c-9 89 -15 159 -17 185c0 4 5 15 11 20c15 13 46 38 70 38z" />
    <glyph glyph-name="numbersign" unicode="#" horiz-adv-x="497" 
d="M458 438c-6 -24 -14 -46 -22 -46l-74 -3c-2 0 -7 -6 -8 -10l-25 -99c-1 -3 1 -7 4 -6l77 2c5 0 7 -20 6 -26c-2 -16 -15 -51 -26 -51l-73 -3c-5 0 -9 -5 -9 -7l-41 -158c-3 -8 -17 -14 -28 -14c-5 0 -15 3 -12 11l40 158c1 5 -4 9 -6 9l-95 -4c-2 0 -10 -6 -10 -8
l-42 -160c-2 -8 -22 -11 -25 -11c-7 0 -15 9 -14 13l40 155c1 4 0 10 -6 10l-72 -2c-3 0 -7 19 -7 21c4 20 16 55 24 55l75 4c4 0 7 1 9 7l25 99c0 3 0 9 -5 9l-78 -2c-3 0 -8 20 -3 42c4 11 16 32 21 33l77 4c5 0 8 5 9 7l37 142c3 6 17 12 28 12c4 0 12 -6 12 -9l-35 -142
c0 -3 2 -7 3 -7l97 3c4 0 8 2 9 7l39 147c2 6 15 9 30 9c2 0 10 -4 7 -14l-36 -139c-2 -8 2 -9 3 -9l76 1c4 -5 5 -25 4 -30zM315 377c1 6 1 11 -4 10l-101 -3c-4 0 -5 -4 -6 -8l-25 -100c-1 -2 2 -9 6 -8l94 4c4 0 8 3 10 9z" />
    <glyph glyph-name="dollar" unicode="$" horiz-adv-x="497" 
d="M260 234l-21 -197c0 -3 3 -5 5 -5c50 6 105 38 105 103c0 43 -23 70 -83 103c-2 1 -6 2 -6 -4zM244 385l20 189c0 4 -3 8 -6 8c-59 -2 -98 -39 -98 -100c0 -45 32 -78 78 -101c1 0 6 1 6 4zM270 618l8 64c0 2 3 6 6 6c10 0 25 -5 25 -10l-8 -60c0 -3 1 -7 4 -7
c37 -4 76 -15 92 -22c5 -1 10 -9 16 -29c4 -16 10 -53 10 -65c0 -15 -5 -29 -11 -29s-13 4 -17 14c-22 57 -54 84 -92 97c-4 1 -8 0 -8 -5l-20 -203c0 -4 1 -8 5 -9c99 -48 166 -89 166 -188c0 -53 -34 -98 -73 -128c-30 -23 -86 -37 -132 -41c-5 -1 -7 -4 -7 -8l-8 -75
c-2 -4 -16 -8 -21 -7c-1 0 -8 2 -12 6l8 76c0 4 -1 8 -4 8c-20 1 -45 7 -61 11c-26 6 -52 12 -62 15c-8 2 -16 13 -19 24c-3 17 -12 94 -12 97c0 5 2 18 9 18c12 0 22 -8 41 -43c37 -66 64 -81 106 -91c5 -1 6 1 6 4l23 212c1 4 0 7 -3 9c-84 41 -153 84 -154 189
c0 45 23 82 49 108c31 30 87 53 143 55c4 0 6 1 7 7z" />
    <glyph glyph-name="percent" unicode="%" horiz-adv-x="729" 
d="M191 625c97 0 142 -102 142 -172c0 -93 -48 -184 -147 -184c-108 0 -146 100 -146 172c0 96 46 184 151 184zM195 297c42 0 52 73 52 142c0 54 -13 158 -67 158c-48 0 -55 -84 -55 -142c0 -49 17 -158 70 -158zM560 638c16 0 29 -16 25 -21
c-145 -227 -278 -442 -410 -645c-3 -3 -15 -1 -21 4c-8 7 -12 14 -7 22c133 212 273 428 398 627c4 5 11 13 15 13zM545 342c98 0 143 -101 143 -170c0 -96 -43 -186 -149 -186c-105 0 -144 100 -144 168c0 96 43 188 150 188zM550 13c51 0 52 99 52 142
c0 55 -17 159 -67 159c-44 0 -55 -84 -55 -142c0 -49 16 -159 70 -159z" />
    <glyph glyph-name="ampersand" unicode="&#x26;" horiz-adv-x="782" 
d="M278 609c88 -1 143 -66 143 -127c1 -58 -52 -81 -94 -108c-2 -2 -3 -7 0 -9c35 -23 109 -92 153 -145c4 -5 8 -3 13 2c35 35 77 96 90 119c7 14 12 27 12 34s-15 16 -49 22c-5 1 -11 5 -11 10c-1 5 10 18 23 18c22 0 98 3 117 5c24 2 54 7 65 7c16 0 25 -6 25 -10
c0 -7 -5 -15 -21 -19c-53 -15 -73 -30 -120 -79c-30 -32 -87 -102 -115 -135c-3 -3 -5 -9 -3 -12c13 -17 33 -44 52 -70c21 -29 61 -50 108 -51c27 0 53 12 71 21c4 3 8 -4 8 -10c0 -9 -5 -21 -17 -33c-43 -45 -104 -55 -145 -55c-20 0 -53 5 -72 12c-16 6 -29 16 -40 33
c-17 26 -36 59 -45 70c-2 2 -7 0 -9 -1c-25 -31 -59 -66 -94 -88c-27 -18 -64 -30 -97 -29c-112 2 -183 79 -183 177c0 75 56 117 89 142c16 13 46 33 51 36c4 1 4 7 1 9c-33 31 -59 70 -59 113c0 65 34 98 53 113c28 23 71 38 100 38zM263 578c-15 0 -52 -16 -52 -76
c0 -42 44 -91 80 -111c8 -5 9 -4 13 -2c9 5 17 15 24 28c9 14 13 42 13 61c0 25 -20 100 -78 100zM285 64c34 0 88 27 112 57c3 4 5 10 1 16c-50 69 -156 168 -182 181c-4 3 -10 1 -14 -3c-34 -33 -55 -69 -55 -118c0 -35 18 -76 45 -99c26 -22 60 -34 93 -34z" />
    <glyph glyph-name="quoteright" unicode="&#x2019;" horiz-adv-x="230" 
d="M104 680c49 0 85 -38 85 -105c0 -102 -107 -141 -130 -141c-9 0 -20 3 -20 10c0 10 9 19 16 22c44 18 66 46 66 77c0 25 -13 35 -46 43c-13 3 -32 8 -32 39c0 33 31 55 61 55z" />
    <glyph glyph-name="parenleft" unicode="(" horiz-adv-x="331" 
d="M139 285c0 -213 48 -297 144 -433c7 -9 4 -16 -1 -21c-7 -4 -23 -16 -35 -16c-6 0 -19 4 -31 17c-103 123 -146 268 -146 432c0 203 94 360 167 441c7 8 23 17 28 17c13 0 29 -11 30 -17c1 -3 2 -7 -6 -15c-95 -104 -150 -266 -150 -405z" />
    <glyph glyph-name="parenright" unicode=")" horiz-adv-x="331" 
d="M200 250c0 208 -51 303 -146 432c-6 9 -3 17 2 22c7 4 23 16 36 16c6 0 20 -3 32 -17c103 -127 144 -265 144 -428c0 -203 -95 -362 -168 -442c-7 -8 -21 -17 -26 -17c-12 0 -27 10 -28 16c-2 3 -3 7 4 16c95 105 150 265 150 402z" />
    <glyph glyph-name="asterisk" unicode="*" horiz-adv-x="323" 
d="M156 649c7 1 15 -8 18 -17c8 -22 14 -50 23 -89c0 -2 4 -5 9 -2c26 18 61 37 74 41c13 3 23 1 24 -6s-4 -14 -11 -22c-14 -14 -40 -35 -67 -54c-4 -4 -3 -6 1 -9c43 -24 66 -38 79 -47c14 -11 14 -16 14 -22c0 -10 -17 -10 -25 -8c-23 5 -60 18 -86 31c-3 3 -6 -2 -6 -4
c1 -30 1 -54 1 -75c0 -27 -9 -35 -16 -35c-10 0 -18 14 -21 25c-2 8 -11 52 -15 81c0 4 -6 6 -7 4c-26 -15 -65 -33 -79 -38c-15 -6 -29 -2 -29 6c0 10 7 17 13 22c14 12 42 32 68 51c5 3 1 7 -1 8c-25 13 -52 26 -71 42c-9 6 -14 13 -14 18c0 11 14 13 26 10
c17 -3 42 -13 82 -29c1 -1 5 2 5 5c-3 39 -4 72 -1 90c1 15 5 22 12 23z" />
    <glyph glyph-name="plus" unicode="+" horiz-adv-x="624" 
d="M279 498c0 8 40 15 54 15c5 0 15 -4 15 -11l-3 -211c0 -4 4 -7 7 -7h201c4 0 10 -7 10 -15c0 -24 -8 -45 -14 -45l-196 -2c-5 0 -8 -6 -8 -10l-1 -210c0 -11 -30 -17 -49 -17c-7 0 -15 7 -15 14l-1 212c0 6 -3 11 -7 11h-195c-13 0 -17 8 -17 22c0 13 6 40 14 40h197
c5 0 8 4 8 7v207z" />
    <glyph glyph-name="comma" unicode="," horiz-adv-x="240" 
d="M109 143c45 0 89 -39 89 -110c0 -103 -112 -146 -138 -146c-7 0 -20 2 -20 12s13 16 20 19c37 20 67 49 67 79c0 23 -22 33 -39 36c-8 2 -41 11 -41 49c0 39 36 61 62 61z" />
    <glyph glyph-name="hyphen" unicode="-" horiz-adv-x="311" 
d="M59 234c35 7 183 22 202 23c5 0 12 -6 12 -11c1 -22 -8 -63 -22 -64c-37 -3 -136 -11 -196 -17c-9 -1 -16 10 -16 16c0 21 10 51 20 53z" />
    <glyph glyph-name="period" unicode="." horiz-adv-x="240" 
d="M122 133c51 0 68 -50 68 -73c-2 -47 -36 -72 -69 -72c-30 0 -67 23 -67 72c0 54 45 73 68 73z" />
    <glyph glyph-name="slash" unicode="/" horiz-adv-x="415" 
d="M47 -49c90 231 179 464 268 695c6 11 12 21 19 21s25 -4 30 -6c7 -2 11 -11 8 -19c-90 -232 -180 -461 -270 -692c-6 -16 -14 -23 -31 -16c-8 0 -16 6 -16 2c-7 4 -9 12 -8 15z" />
    <glyph glyph-name="zero" unicode="0" horiz-adv-x="497" 
d="M252 625c165 0 214 -194 214 -311c0 -163 -54 -261 -116 -298c-30 -19 -68 -30 -100 -29c-169 0 -219 199 -219 318c0 160 54 249 124 293c27 16 61 27 97 27zM239 594c-24 0 -41 -18 -54 -42c-18 -34 -37 -98 -37 -224c0 -159 39 -310 114 -310c32 0 49 32 52 38
c17 33 34 100 34 247c0 174 -42 255 -68 275c-11 10 -21 16 -41 16z" />
    <glyph glyph-name="one" unicode="1" horiz-adv-x="497" 
d="M98 7c0 9 11 16 34 22c57 14 59 28 63 65c4 29 9 159 9 294c0 63 1 107 -2 121c-1 8 -7 19 -15 21c-17 5 -37 7 -45 9c-14 3 -24 11 -24 19c0 7 12 13 22 15c42 10 101 21 128 37c18 9 39 17 46 17c4 1 9 -4 9 -10c0 -11 -2 -56 -3 -129c-1 -71 -1 -247 0 -366
c0 -67 -1 -76 65 -92c11 -3 24 -11 24 -22c0 -8 -16 -12 -27 -12c-16 0 -72 4 -111 4c-76 0 -135 -6 -146 -6c-14 0 -27 4 -27 13z" />
    <glyph glyph-name="two" unicode="2" horiz-adv-x="497" 
d="M53 -3c-7 0 -23 10 -23 16c-1 5 4 14 12 21c45 41 115 120 162 179c51 65 88 140 88 209c0 82 -51 119 -105 119c-48 0 -89 -28 -118 -58c-13 -13 -18 -19 -21 -19c-4 0 -13 9 -13 15s3 16 16 35c45 67 111 111 186 111c97 0 172 -73 172 -175c0 -58 -36 -120 -84 -172
c-49 -53 -101 -105 -177 -179c-2 -3 2 -7 5 -8c45 -5 204 -5 231 0c18 3 37 13 56 37c7 9 16 18 22 18c15 0 12 -21 5 -36c-20 -43 -31 -81 -36 -105c-1 -6 -9 -10 -15 -10c-5 0 -218 5 -264 5c-34 0 -74 -2 -99 -3z" />
    <glyph glyph-name="three" unicode="3" horiz-adv-x="497" 
d="M247 625c99 0 149 -72 149 -123c0 -43 -22 -72 -36 -86c-17 -15 -31 -26 -65 -46c-3 -2 -2 -6 3 -8c58 -10 101 -35 127 -68c15 -20 28 -52 28 -92c0 -88 -58 -165 -144 -215c-52 -30 -117 -45 -165 -45c-50 0 -101 23 -101 53c0 6 6 21 8 26c10 14 26 24 35 24
c4 0 22 -10 28 -15c32 -27 66 -42 103 -42c21 0 43 6 64 22c41 30 59 90 59 130c0 37 -10 82 -35 109s-53 34 -86 34c-21 0 -59 -8 -77 -14c-5 -1 -9 6 -8 12c4 13 14 20 21 26c8 6 33 20 48 27c64 28 89 68 89 117c0 58 -45 102 -96 102c-40 0 -76 -17 -105 -52
c-11 -13 -17 -18 -23 -18c-8 0 -10 6 -10 15c-1 15 29 56 60 81c36 30 76 46 129 46z" />
    <glyph glyph-name="four" unicode="4" horiz-adv-x="497" 
d="M388 441v-194c0 -3 3 -9 5 -9l86 3c4 0 10 -5 10 -10c0 -9 -11 -40 -21 -44l-74 2c-3 0 -5 -4 -6 -7c0 -15 -1 -58 1 -85c3 -51 9 -55 54 -69c13 -4 22 -9 22 -17c0 -5 -7 -15 -27 -15c-23 -1 -78 4 -110 4c-38 0 -81 -4 -116 -4c-15 0 -25 4 -25 13c0 8 13 15 28 20
c52 13 49 22 54 71c2 27 2 71 2 77c0 4 -2 9 -7 9c-65 1 -206 3 -240 0c-12 -1 -18 3 -18 9c0 11 9 21 23 42l317 440c4 7 13 15 21 15l16 -1c10 0 13 -5 13 -8c0 -2 0 -7 -3 -11l-312 -422c-3 -5 -2 -7 1 -8c22 -4 96 -4 185 -4c1 0 5 6 5 8l1 178c0 6 4 15 10 19
c12 7 74 24 91 24c5 0 14 -6 14 -26z" />
    <glyph glyph-name="five" unicode="5" horiz-adv-x="497" 
d="M439 186c0 -74 -41 -134 -93 -174c-66 -52 -182 -77 -228 -77h-21c-16 0 -24 5 -24 10c0 6 14 23 20 23c102 11 238 67 238 178c0 55 -38 99 -97 124c-48 20 -103 37 -162 48c-4 1 -16 22 -16 30c0 35 38 161 57 205c4 8 21 34 24 34c23 10 186 38 252 38
c3 0 13 -7 13 -11c0 -34 -41 -99 -61 -102c-56 -10 -160 -15 -198 -15c-6 0 -16 -8 -17 -11c-6 -14 -14 -38 -15 -46c-1 -4 5 -12 9 -13c64 -14 179 -53 216 -74c69 -40 103 -97 103 -167z" />
    <glyph glyph-name="six" unicode="6" horiz-adv-x="497" 
d="M327 369c103 0 142 -87 142 -152c0 -89 -44 -151 -102 -191c-42 -31 -88 -43 -126 -43c-135 0 -211 97 -211 231c0 151 105 307 241 397c69 44 141 72 182 72c18 0 25 -8 25 -14s-2 -9 -17 -15c-42 -17 -106 -52 -173 -117c-74 -72 -139 -194 -139 -307
c0 -126 62 -203 139 -203c12 0 33 6 48 19c22 20 35 54 35 98c0 89 -43 148 -114 148c-12 0 -43 -9 -58 -15c-5 -2 -11 3 -11 7c0 7 4 19 13 28c10 9 37 28 61 39c24 12 44 18 65 18z" />
    <glyph glyph-name="seven" unicode="7" horiz-adv-x="497" 
d="M261 611c65 -1 130 2 157 3c24 1 40 2 44 2c7 0 15 -6 16 -11c1 -3 -1 -9 -3 -11c-25 -36 -140 -272 -209 -412c-55 -112 -98 -197 -104 -212c-5 -10 -12 -14 -15 -14c-8 0 -29 11 -29 20c0 7 8 24 17 40c94 180 176 336 248 483c2 4 -1 9 -3 9c-25 3 -81 5 -205 5
c-18 0 -53 0 -71 -6c-15 -2 -30 -18 -53 -51c-6 -9 -17 -17 -23 -17c-8 0 -9 6 -9 13c0 4 0 11 9 31c13 36 23 99 26 112c2 9 9 18 13 23c5 2 7 1 12 0c16 -4 70 -5 182 -7z" />
    <glyph glyph-name="eight" unicode="8" horiz-adv-x="497" 
d="M245 643c103 0 180 -64 180 -153c0 -43 -25 -72 -55 -96c-16 -13 -38 -28 -54 -40c-4 -2 -4 -7 0 -9c66 -46 127 -102 127 -184c0 -54 -32 -97 -66 -124c-46 -37 -105 -49 -147 -49c-136 0 -195 87 -195 153c0 64 42 97 71 120c22 16 43 30 56 38c1 1 4 4 1 7
c-20 13 -42 32 -58 50c-32 33 -52 70 -52 116c0 57 26 97 60 125c31 26 79 46 132 46zM250 22c60 0 87 46 87 99c0 58 -61 111 -128 158c-5 3 -13 8 -17 6c-28 -16 -63 -72 -63 -133c0 -32 13 -63 33 -87c23 -26 57 -43 88 -43zM233 610c-50 0 -83 -36 -83 -92
c0 -64 65 -112 126 -149c2 -2 9 -3 12 0c10 8 26 25 35 44c7 16 17 43 17 75c0 50 -45 122 -107 122z" />
    <glyph glyph-name="nine" unicode="9" horiz-adv-x="497" 
d="M254 625c133 0 207 -115 207 -243c0 -148 -106 -314 -251 -399c-58 -34 -101 -48 -132 -48c-7 0 -23 5 -23 15c0 3 4 8 7 9c57 29 117 71 169 135c67 81 110 184 110 283c0 69 -17 149 -60 187c-18 14 -45 22 -60 22c-59 0 -86 -68 -86 -119c0 -86 44 -151 120 -151
c15 0 33 7 40 10c6 3 11 -3 11 -7c0 -6 -2 -13 -5 -19c-3 -5 -8 -14 -19 -23c-26 -21 -64 -36 -96 -36c-84 0 -152 62 -152 169c0 57 26 137 113 186c29 16 74 29 107 29z" />
    <glyph glyph-name="colon" unicode=":" horiz-adv-x="297" 
d="M150 386c48 0 66 -48 66 -71c-2 -45 -36 -68 -68 -68c-29 0 -67 19 -67 71s47 68 69 68zM150 128c48 0 66 -49 66 -71c-2 -45 -36 -68 -68 -68c-29 0 -67 19 -67 70c0 53 47 69 69 69z" />
    <glyph glyph-name="semicolon" unicode=";" horiz-adv-x="297" 
d="M150 386c48 0 66 -48 66 -71c-2 -46 -36 -68 -68 -68c-27 0 -67 18 -67 70s47 69 69 69zM136 135c44 0 85 -37 85 -105c0 -99 -106 -141 -131 -141c-6 0 -19 3 -19 12c0 10 10 15 18 19c36 16 64 43 64 76c0 21 -14 27 -31 30c-16 3 -46 17 -46 51c0 37 35 58 60 58z" />
    <glyph glyph-name="less" unicode="&#x3c;" horiz-adv-x="527" 
d="M465 86c5 -3 -3 -36 -20 -54c-6 -6 -10 -4 -18 1l-325 179c-36 20 -41 27 -41 33c0 4 2 8 5 14c9 12 20 24 33 31l325 182c12 7 14 7 20 2c11 -11 32 -45 18 -52l-303 -161c-3 -1 -7 -7 -1 -11z" />
    <glyph glyph-name="equal" unicode="=" horiz-adv-x="624" 
d="M552 381c5 0 11 -4 11 -12c0 -24 -4 -50 -10 -50l-479 -2c-10 0 -14 10 -14 17c0 14 7 43 15 43zM554 192c5 0 9 -9 9 -18c0 -25 -8 -44 -14 -44l-476 2c-6 0 -13 13 -13 25c0 14 8 35 15 35h479z" />
    <glyph glyph-name="greater" unicode="&#x3e;" horiz-adv-x="527" 
d="M465 260c0 -6 -3 -9 -6 -14c-8 -12 -19 -24 -32 -31l-330 -185c-5 -3 -14 2 -21 7c-11 11 -21 41 -15 44c101 53 208 111 306 163c4 2 5 7 1 10c-127 67 -205 109 -307 164c-5 3 -2 34 15 52c2 2 13 7 15 5c103 -56 217 -119 333 -183c35 -20 41 -25 41 -32z" />
    <glyph glyph-name="question" unicode="?" horiz-adv-x="376" 
d="M138 608c37 0 78 -22 114 -48c10 -8 82 -79 82 -146c0 -63 -20 -89 -42 -109c-23 -14 -68 -42 -91 -53c-22 -9 -18 -25 -20 -43c-1 -17 -18 -23 -25 -23c-4 0 -12 16 -22 42c-7 20 -15 50 -15 74c0 42 40 69 117 104c31 13 43 24 43 45c-1 30 -15 54 -64 54
c-10 0 -57 -13 -76 -13s-47 41 -47 71c0 21 23 45 46 45zM181 132c46 0 69 -36 69 -70c0 -41 -31 -74 -71 -74c-39 0 -69 30 -69 73s37 71 71 71z" />
    <glyph glyph-name="at" unicode="@" horiz-adv-x="861" 
d="M474 317c-17 0 -41 -5 -70 -37c-42 -45 -79 -118 -79 -163c0 -20 7 -32 18 -32c8 0 28 3 61 34c56 49 99 128 116 168c2 6 0 15 -3 17c-10 7 -23 13 -43 13zM511 375c12 0 26 -6 34 -13c2 -2 7 -1 9 3c5 14 13 28 17 31s11 6 17 6c16 0 35 -6 45 -12c4 -3 5 -12 5 -15
c-16 -38 -89 -213 -102 -285c-4 -27 6 -40 33 -40c104 0 190 97 190 226c0 165 -122 261 -286 261c-241 0 -361 -198 -361 -394c0 -148 93 -309 306 -309c83 0 167 31 221 75c6 5 13 0 13 -11c0 -4 -3 -13 -10 -22c-63 -69 -180 -90 -250 -90c-175 0 -355 114 -355 358
c0 268 239 430 432 430c223 0 338 -143 338 -296c0 -146 -121 -274 -293 -274c-48 0 -74 19 -75 32c0 6 0 17 3 28l26 71c2 4 -2 8 -7 3c-70 -71 -149 -134 -202 -134c-20 0 -36 23 -36 46c-1 35 27 99 96 182c57 70 146 143 192 143z" />
    <glyph glyph-name="A" unicode="A" horiz-adv-x="677" 
d="M356 650c5 0 9 -2 17 -22c9 -24 27 -75 40 -112c55 -155 123 -336 143 -386c33 -81 55 -91 89 -101c17 -5 26 -11 26 -18s-10 -15 -33 -15c-25 0 -100 4 -131 4c-33 0 -72 -2 -98 -2c-20 0 -32 6 -32 15c0 5 7 13 26 17c41 10 42 26 40 42c-2 26 -23 82 -46 146
c-1 4 -12 15 -24 15c-106 1 -154 -2 -168 -3c-3 0 -9 -7 -11 -10c-32 -80 -43 -125 -43 -145s10 -34 47 -44c20 -5 29 -11 29 -20c0 -8 -14 -13 -30 -13c-18 0 -43 2 -80 2c-39 0 -84 -4 -99 -4c-23 0 -29 6 -29 12c0 7 4 14 25 20c51 14 62 30 91 89c24 48 132 333 174 432
c1 2 5 14 5 18c0 3 -1 6 2 8c14 14 45 51 52 62c6 9 13 13 18 13zM371 281c1 0 5 4 4 8c-15 47 -59 168 -73 201c-2 7 -8 5 -11 -3c-18 -48 -66 -174 -72 -198c-1 -5 3 -10 7 -10c39 1 113 2 145 2z" />
    <glyph glyph-name="B" unicode="B" horiz-adv-x="619" 
d="M534 487c0 -76 -52 -109 -79 -128c-3 -1 -2 -9 1 -9c69 -29 120 -79 120 -165c0 -66 -37 -113 -85 -145c-48 -34 -139 -44 -179 -44c-28 0 -138 2 -183 3c-36 1 -60 -1 -76 -1c-18 0 -32 7 -32 16s17 15 28 17c61 12 65 27 69 61c2 21 8 121 8 319c0 85 -3 136 -6 150
c-5 22 -11 30 -63 40c-13 2 -26 8 -26 19c0 8 15 13 28 13h66c32 0 154 7 195 7c58 0 114 -11 144 -30c49 -30 70 -74 70 -123zM417 475c0 83 -56 129 -128 129c-6 0 -24 -3 -35 -6c-2 -1 -8 -10 -9 -16c-2 -16 -4 -45 -4 -213c0 -5 5 -13 11 -13c36 0 93 6 117 24
c31 22 48 56 48 95zM444 176c0 59 -30 106 -74 130c-23 13 -52 19 -86 19c-14 0 -31 -4 -34 -7s-8 -8 -8 -47c-1 -26 2 -146 4 -176c1 -8 6 -24 13 -32c17 -18 45 -34 63 -34c64 0 122 64 122 147z" />
    <glyph glyph-name="C" unicode="C" horiz-adv-x="710" 
d="M426 650c46 0 94 -7 130 -16c24 -6 49 -12 72 -15c7 0 15 -12 15 -27c1 -28 3 -63 5 -92c1 -21 -6 -38 -17 -38c-5 0 -14 12 -19 27c-10 31 -25 58 -42 71c-43 36 -94 58 -148 58c-159 0 -234 -126 -234 -278c0 -67 12 -125 34 -169c55 -110 146 -149 224 -149
c13 0 62 2 97 23c37 21 64 50 87 91c12 22 19 31 27 31c11 0 11 -26 8 -37c-5 -25 -21 -69 -30 -87c-3 -9 -21 -25 -36 -32c-14 -5 -83 -29 -175 -29c-148 0 -253 66 -294 113c-38 44 -84 114 -84 225c0 121 68 206 110 240c85 70 188 90 270 90z" />
    <glyph glyph-name="D" unicode="D" horiz-adv-x="760" 
d="M354 641c139 0 228 -59 267 -96c54 -52 94 -136 94 -218c0 -142 -89 -243 -158 -281c-59 -34 -143 -55 -229 -55c-41 0 -141 3 -200 6c-30 1 -52 1 -68 1c-22 0 -33 8 -33 16s14 15 26 17c61 8 67 22 70 113c2 55 3 95 2 138c0 52 1 164 -3 231c-4 63 -6 80 -61 88
c-11 2 -24 10 -24 17c0 8 12 15 27 15h52c49 0 164 8 238 8zM309 606c-24 0 -39 -4 -52 -11c-6 -4 -8 -9 -8 -14c-2 -24 -4 -88 -4 -176v-145c0 -69 1 -120 4 -164c2 -24 11 -35 20 -44c16 -14 53 -27 67 -27c41 0 95 13 150 59c61 51 93 148 93 243c0 70 -29 156 -80 208
c-44 45 -120 71 -190 71z" />
    <glyph glyph-name="E" unicode="E" horiz-adv-x="587" 
d="M250 633h150c33 0 74 4 88 6c4 1 11 -6 12 -13c1 -18 1 -87 1 -107c0 -14 -7 -28 -16 -28s-17 15 -19 25c-13 56 -41 71 -64 75c-19 3 -62 7 -139 6c-4 0 -12 -4 -13 -28c-2 -25 -5 -164 -4 -219c0 -3 4 -10 10 -10h80c71 0 69 4 88 48c6 15 13 26 22 26
c8 0 11 -17 10 -28c-2 -28 -4 -46 -4 -69c0 -27 2 -43 4 -68c1 -18 -5 -30 -13 -30s-16 12 -19 22c-13 44 -26 51 -65 54c-32 3 -69 3 -100 3c-4 0 -13 -10 -13 -12c-4 -28 -3 -106 -2 -139c1 -24 0 -61 4 -82c3 -9 12 -22 22 -24c16 -3 47 -6 81 -6c30 0 67 0 92 9
c30 11 57 35 79 74c14 26 23 35 31 35c10 0 9 -21 8 -29c0 -8 -29 -100 -38 -116c-3 -7 -19 -13 -24 -13c-11 0 -258 5 -333 5c-67 0 -78 -5 -114 -5c-19 0 -34 3 -34 13c0 9 13 16 30 20c51 12 64 22 68 76c3 42 8 118 8 242c0 118 1 164 -1 193c-2 36 -10 56 -53 64
c-21 4 -32 8 -32 18c0 9 17 15 31 15c47 0 129 -3 181 -3z" />
    <glyph glyph-name="F" unicode="F" horiz-adv-x="544" 
d="M196 633h132c116 0 155 3 164 4c7 1 13 -6 13 -12c-2 -29 3 -77 4 -111c1 -13 -5 -28 -15 -28c-8 0 -16 10 -23 33c-12 39 -32 68 -67 73c-31 3 -118 3 -139 2c-6 0 -15 -9 -15 -11c-5 -30 -6 -148 -6 -214c0 -16 4 -35 12 -35c30 0 94 -1 116 2c31 5 42 12 53 46
c5 14 11 26 21 26c8 0 12 -15 12 -24c0 -13 -4 -46 -4 -64c0 -35 2 -60 2 -76c0 -24 -9 -33 -17 -33c-4 0 -12 7 -18 26c-10 36 -26 45 -41 48c-13 3 -43 6 -65 6c-17 0 -47 -1 -62 -3c-4 -1 -8 -9 -9 -11c0 -66 4 -165 4 -182c2 -41 10 -53 61 -63c16 -3 29 -10 29 -20
c0 -8 -15 -15 -33 -15c-26 0 -63 3 -101 3c-51 0 -110 -6 -143 -6c-20 0 -29 6 -29 12c0 10 11 17 29 21c44 12 53 29 55 53c3 31 8 91 8 287c0 93 0 151 -2 177c-2 33 -14 48 -53 57c-21 6 -32 11 -32 21c0 9 16 14 30 14c44 0 89 -3 129 -3z" />
    <glyph glyph-name="G" unicode="G" horiz-adv-x="743" 
d="M424 650c68 0 124 -11 163 -21c16 -4 36 -7 45 -8c4 0 11 -9 12 -23c1 -29 15 -80 15 -120c0 -13 -6 -25 -17 -25c-5 0 -13 11 -19 26c-7 19 -23 51 -38 70c-22 26 -80 68 -160 68c-151 0 -240 -135 -240 -291c0 -70 13 -130 42 -180c43 -77 122 -130 211 -130
c12 0 41 5 63 20c12 8 21 36 21 70c0 35 -1 77 -4 89c-6 23 -14 43 -80 49c-15 1 -29 10 -29 19c0 7 14 14 34 14c37 0 93 -4 120 -4c24 0 79 6 116 6c19 0 27 -7 27 -15c0 -6 -11 -15 -23 -19c-34 -9 -33 -21 -35 -35c-2 -12 -5 -83 -5 -124c0 -14 4 -18 16 -30
c8 -6 11 -10 11 -17c0 -5 -8 -13 -15 -15c-17 -5 -51 -14 -91 -22c-43 -9 -123 -20 -148 -20c-108 0 -208 33 -268 87c-46 44 -103 117 -103 249c0 102 42 181 111 241c63 56 165 91 268 91z" />
    <glyph glyph-name="H" unicode="H" horiz-adv-x="817" 
d="M246 361c1 -8 5 -13 12 -13c68 0 200 4 305 4c4 0 8 10 9 25c2 13 2 130 -2 169c-4 36 -9 46 -49 57c-14 4 -29 10 -29 20c0 7 10 13 33 13c13 0 87 -3 113 -3c32 0 95 4 107 4c19 0 31 -5 31 -13c0 -10 -9 -16 -32 -22c-36 -8 -42 -24 -44 -53c-5 -47 -8 -137 -8 -279
c0 -98 3 -150 4 -183c1 -39 11 -42 51 -55c18 -6 28 -13 28 -21c0 -11 -14 -14 -32 -14c-17 0 -71 3 -101 3c-22 0 -102 -5 -122 -5c-24 0 -34 5 -34 14s13 17 27 21c49 13 51 21 56 95c3 40 4 134 2 161c0 9 -4 13 -8 13c-80 0 -285 3 -305 1c-5 -1 -13 -9 -13 -15
c-2 -37 0 -144 1 -176c1 -47 7 -62 48 -74c21 -6 35 -14 35 -25c1 -10 -19 -13 -32 -13c-7 0 -90 3 -125 3c-23 0 -74 -4 -108 -4c-26 0 -35 5 -35 13c0 11 11 17 28 22c44 12 53 23 58 65c4 40 9 189 9 326c0 30 2 85 0 125c-2 33 -11 44 -44 54c-23 7 -34 14 -34 22
c0 10 13 14 31 14c27 0 82 -4 108 -4c42 0 87 3 111 3c21 0 33 -4 33 -13c0 -11 -13 -17 -34 -22c-42 -9 -45 -28 -46 -69c-2 -36 -6 -152 -3 -171z" />
    <glyph glyph-name="I" unicode="I" horiz-adv-x="369" 
d="M124 334c0 51 0 155 -3 193c-3 48 -3 63 -52 75c-24 6 -30 13 -30 20c0 8 14 14 32 14c29 0 81 -3 114 -3c49 0 84 3 119 3c17 0 31 -4 31 -14c0 -9 -14 -17 -31 -20c-50 -9 -53 -35 -55 -61c-3 -25 -4 -60 -4 -232c0 -121 1 -164 3 -194c4 -59 10 -71 66 -86
c18 -4 28 -11 28 -21s-19 -13 -31 -13c-40 0 -108 6 -150 5c-29 0 -59 -3 -96 -3c-24 0 -31 7 -31 17c0 7 9 14 30 19c46 11 53 32 55 75c3 38 5 141 5 226z" />
    <glyph glyph-name="J" unicode="J" horiz-adv-x="357" 
d="M-77 -168c0 11 20 39 31 50c4 5 24 15 29 15c4 0 18 -3 31 -11c24 -17 48 -29 63 -29c12 0 20 3 27 12c14 17 18 45 20 65c4 57 3 187 3 331c0 143 -3 243 -5 285c-1 19 -11 40 -56 51c-22 5 -32 14 -32 22c0 7 8 14 31 14c31 0 71 -4 114 -4c55 0 91 3 122 3
c15 0 28 -4 28 -12s-6 -16 -30 -22c-34 -8 -47 -21 -48 -70c-1 -82 -5 -345 -7 -430c-4 -120 -61 -217 -126 -264c-49 -35 -96 -51 -123 -51c-31 0 -72 17 -72 45z" />
    <glyph glyph-name="K" unicode="K" horiz-adv-x="703" 
d="M43 622c0 9 15 14 30 14c24 0 75 -3 106 -3c30 0 84 2 108 2c20 0 32 -5 32 -13c0 -10 -17 -15 -27 -18c-38 -11 -47 -16 -49 -61c-3 -38 -2 -163 -1 -206c0 -5 2 -7 7 -7s16 8 17 9c34 25 161 151 209 210c23 26 24 43 -18 53c-12 3 -24 8 -24 16s8 14 25 14h42
c64 0 131 5 159 5c19 0 28 -4 28 -12s-14 -16 -36 -20c-58 -11 -93 -41 -137 -76c-38 -30 -116 -103 -159 -151c-3 -3 -3 -7 -1 -10c23 -35 188 -225 251 -291c32 -33 51 -41 95 -50c11 -3 21 -13 21 -17c0 -10 -18 -16 -29 -16c-27 0 -142 8 -170 8c-36 0 -60 -2 -83 -2
c-16 0 -22 8 -22 16c0 6 8 11 47 23c4 2 2 11 0 14c-31 43 -132 168 -178 218c-26 30 -31 37 -37 37s-7 -5 -7 -23c-1 -78 3 -172 4 -208c0 -18 8 -33 51 -44c18 -5 28 -12 28 -20c0 -9 -16 -15 -32 -15c-22 0 -93 2 -124 2s-81 -4 -113 -4c-14 0 -27 8 -27 15
c0 9 8 14 29 19c50 10 60 26 63 85c3 42 3 119 3 226c0 159 -2 156 -4 192c-1 47 -10 58 -48 69c-26 7 -29 15 -29 20z" />
    <glyph glyph-name="L" unicode="L" horiz-adv-x="586" 
d="M43 621c0 10 12 14 30 14c27 0 71 -2 100 -2c39 0 108 4 132 4c23 0 31 -5 31 -12c0 -9 -12 -16 -22 -19c-54 -13 -62 -28 -63 -40c-7 -50 -7 -151 -7 -299c0 -69 1 -151 5 -185c2 -24 32 -38 36 -39c19 -3 55 -5 83 -5c22 0 54 1 72 5c9 2 20 4 31 14c13 13 37 36 63 78
c9 13 20 20 27 20s8 -11 4 -27c-11 -35 -26 -90 -32 -118c-2 -6 -19 -17 -23 -17c-15 0 -104 7 -307 7c-48 0 -117 -6 -148 -6c-18 0 -30 4 -30 13c0 7 9 16 25 19c55 10 64 28 69 72c2 25 5 130 5 274c0 97 0 136 -1 169c-1 34 -6 50 -52 61c-19 5 -28 12 -28 19z" />
    <glyph glyph-name="M" unicode="M" horiz-adv-x="886" 
d="M46 624c0 9 7 13 29 13c62 0 83 -4 162 -4c2 0 10 -9 11 -14c9 -29 18 -48 38 -90c50 -103 144 -300 163 -325c2 -2 8 -4 9 -3c23 42 135 262 167 340c5 12 24 56 29 77c1 4 10 15 12 15c70 0 150 4 159 4c12 0 27 -3 27 -12c0 -10 -11 -15 -29 -19
c-16 -4 -29 -9 -45 -17c-17 -8 -24 -29 -24 -80c0 -168 6 -365 12 -415c5 -33 14 -50 64 -63c17 -4 27 -14 27 -21c0 -11 -15 -15 -30 -15c-11 0 -105 5 -141 5c-18 0 -72 -3 -95 -3c-16 0 -29 4 -29 14c0 9 14 18 28 21c41 10 44 41 47 81c4 49 6 307 5 357
c0 10 -6 15 -10 7c-33 -65 -117 -243 -146 -309c-26 -58 -47 -111 -60 -143c-12 -29 -23 -31 -28 -31s-14 11 -19 22c-5 16 -18 55 -37 102c-52 128 -139 315 -158 352c-3 6 -6 4 -6 -3c-8 -67 -17 -241 -16 -349c1 -57 10 -70 61 -86c21 -7 29 -13 29 -22
c0 -8 -12 -14 -29 -14c-30 0 -68 4 -92 4s-66 -4 -89 -4c-15 0 -31 2 -31 14c0 7 10 13 27 19c55 19 66 32 75 102c9 76 32 314 33 403c0 13 -2 51 -38 60c-16 5 -29 9 -41 12c-7 2 -21 9 -21 18z" />
    <glyph glyph-name="N" unicode="N" horiz-adv-x="772" 
d="M22 622c0 8 12 15 30 15c22 0 101 -4 152 -4c5 0 19 -10 22 -13c15 -18 43 -49 84 -97c49 -60 245 -263 298 -319c5 -5 9 4 9 6c5 29 2 142 2 226c0 34 -3 81 -6 107c-2 20 -12 43 -62 56c-20 5 -33 11 -33 23c0 7 11 12 29 12c25 0 48 -1 68 -1c48 0 89 5 115 5
c17 0 24 -6 24 -13c0 -6 -7 -15 -25 -20c-52 -17 -57 -35 -62 -75c-3 -36 -10 -289 -10 -374c0 -42 6 -130 6 -156c0 -9 -11 -19 -16 -19c-21 0 -45 26 -54 38c-19 25 -38 48 -65 81c-94 115 -257 287 -346 392c-5 6 -11 -2 -11 -5c-2 -27 -4 -50 -5 -129
c-1 -139 -3 -215 2 -264c4 -32 15 -49 63 -64c21 -6 28 -13 28 -19c0 -11 -14 -15 -33 -15c-29 0 -52 4 -87 4c-22 0 -78 -3 -95 -3c-14 0 -26 5 -26 13c0 10 12 15 22 18c46 14 70 22 73 97c5 112 18 304 18 376c0 40 -3 52 -6 56c-18 22 -25 36 -77 48
c-11 2 -26 10 -26 17z" />
    <glyph glyph-name="O" unicode="O" horiz-adv-x="783" 
d="M388 650c221 0 349 -164 349 -324c0 -131 -56 -216 -126 -272c-57 -44 -142 -72 -219 -72c-105 0 -197 40 -260 107c-54 58 -86 137 -86 229c0 122 54 200 129 260c45 35 129 72 213 72zM364 615c-45 0 -90 -28 -113 -51c-34 -33 -70 -105 -70 -224
c0 -154 94 -321 240 -321c55 0 89 28 102 41c42 42 77 128 77 235c0 79 -31 199 -104 266c-34 30 -88 54 -132 54z" />
    <glyph glyph-name="P" unicode="P" horiz-adv-x="584" 
d="M419 444c0 80 -54 164 -136 164c-9 0 -23 -6 -27 -9c-3 -3 -8 -14 -9 -37c-1 -20 -1 -144 -2 -258c0 -91 2 -156 2 -181c1 -61 4 -79 62 -94c20 -4 28 -12 28 -21c0 -8 -17 -14 -31 -14c-26 0 -83 6 -127 6c-29 0 -78 -4 -109 -4c-23 0 -37 5 -37 16c0 7 14 15 24 18
c49 12 61 27 64 73c3 40 6 105 6 156c0 32 0 256 -2 285c-3 35 -8 51 -63 58c-13 2 -23 9 -23 15c0 8 9 14 21 16c6 1 24 1 33 1c64 0 146 8 191 8c96 0 161 -18 202 -58c47 -46 58 -100 58 -135c0 -82 -37 -126 -66 -151c-26 -22 -81 -45 -120 -45c-11 0 -39 2 -52 7
c-14 6 -21 11 -21 20c0 4 7 10 15 10h15c42 0 104 50 104 154z" />
    <glyph glyph-name="Q" unicode="Q" horiz-adv-x="782" 
d="M394 650c182 0 342 -131 342 -325c0 -127 -47 -195 -108 -252c-33 -30 -72 -52 -119 -71c-5 -2 -7 -8 -2 -14c17 -22 85 -74 130 -101c79 -48 127 -60 167 -60c31 0 48 5 64 8c7 1 15 -2 15 -7c0 -14 -13 -24 -21 -30c-26 -19 -83 -32 -114 -32c-90 0 -161 28 -236 75
c-36 21 -86 62 -150 109c-49 35 -71 46 -96 55c-130 50 -220 161 -220 308c0 129 62 217 139 272c51 37 117 65 209 65zM370 613c-36 0 -69 -9 -103 -36c-62 -50 -86 -144 -86 -255c0 -71 29 -155 79 -217c41 -50 108 -85 150 -85c39 0 76 6 105 26c60 42 85 176 85 239
c0 89 -29 201 -93 267c-35 37 -93 61 -137 61z" />
    <glyph glyph-name="R" unicode="R" horiz-adv-x="651" 
d="M541 476c0 -54 -26 -93 -70 -128c-4 -3 -25 -14 -39 -21c-5 -2 -4 -10 -2 -14c19 -40 101 -178 151 -236c27 -32 56 -44 86 -50c10 -2 18 -10 18 -14c0 -6 -9 -13 -16 -15c-16 -6 -54 -8 -67 -8c-91 0 -130 36 -151 65c-28 38 -79 120 -121 192c-9 15 -24 37 -32 42
c-7 6 -29 13 -48 13c-4 0 -10 -5 -11 -10c-2 -20 0 -153 3 -199c3 -43 10 -53 56 -65c17 -5 24 -12 24 -19c0 -11 -19 -15 -31 -15c-35 0 -79 6 -128 6c-35 0 -85 -4 -96 -4c-25 0 -32 7 -32 16c0 6 11 12 24 16c46 14 57 26 60 58c6 77 6 161 6 246c0 107 -2 192 -5 219
c-2 24 -11 39 -58 50c-14 4 -25 11 -25 19c0 7 12 14 29 14h73c37 0 120 5 174 5c46 0 126 -4 174 -44c31 -25 54 -73 54 -119zM417 464c0 26 -9 71 -43 106c-23 24 -54 35 -81 35c-4 0 -30 -3 -38 -7c-5 -3 -11 -16 -12 -21c-3 -34 -7 -209 -3 -235c1 -6 8 -12 13 -12
c51 0 97 15 108 22c27 20 56 56 56 112z" />
    <glyph glyph-name="S" unicode="S" horiz-adv-x="498" 
d="M286 650c46 0 99 -12 126 -17c4 -1 12 -15 13 -20c0 -13 10 -90 10 -94c0 -15 -3 -25 -9 -25c-8 0 -24 9 -29 24c-10 33 -31 61 -43 71c-24 20 -49 28 -80 28c-47 0 -102 -39 -102 -104c0 -59 44 -91 134 -148c123 -75 147 -139 147 -200c0 -52 -30 -112 -88 -147
c-34 -21 -92 -36 -140 -36c-59 0 -103 10 -144 26c-8 4 -26 25 -26 29c-8 35 -17 78 -17 107c0 7 11 21 16 21c8 0 24 -24 39 -55c30 -61 88 -92 139 -92c46 0 104 36 104 100c0 42 -21 82 -113 142c-102 67 -157 122 -157 211c0 57 29 105 61 131c33 28 80 48 159 48z" />
    <glyph glyph-name="T" unicode="T" horiz-adv-x="678" 
d="M342 632c56 0 183 1 216 3c49 4 64 8 77 16c8 5 12 8 16 8c5 0 13 -11 9 -25c-8 -28 -18 -79 -21 -116c0 -9 -7 -26 -19 -26c-7 0 -13 5 -17 31c-10 57 -23 66 -72 68c-24 0 -97 -1 -122 -5c-6 -1 -10 -8 -10 -12c0 -46 -1 -122 -1 -208c0 -115 1 -221 5 -271
c3 -32 11 -52 78 -66c14 -3 25 -14 25 -20c0 -9 -17 -13 -28 -13c-8 0 -122 4 -148 4c-31 0 -108 -6 -125 -6c-19 0 -31 4 -31 12c0 9 12 18 22 21c65 16 69 29 73 99c4 59 9 258 9 334c0 57 -1 91 -1 117c0 9 -8 14 -11 14c-19 3 -91 4 -113 4c-16 0 -44 -10 -55 -23
c-10 -11 -21 -29 -34 -53c-12 -20 -18 -26 -22 -26c-10 0 -15 12 -15 22c0 19 18 84 19 135c0 4 9 20 16 20s11 -8 17 -16c3 -4 22 -14 41 -16c22 -2 154 -6 222 -6z" />
    <glyph glyph-name="U" unicode="U" horiz-adv-x="763" 
d="M33 623c0 8 13 14 30 14c42 0 81 -4 117 -4c37 0 93 4 115 4c19 0 29 -7 29 -15s-11 -16 -30 -20c-36 -7 -48 -19 -54 -58c-5 -33 -4 -129 -4 -270c0 -116 24 -151 56 -185c28 -28 93 -44 122 -44c69 0 150 22 175 131c12 53 19 137 19 275c0 65 -3 86 -5 97
c-3 30 -20 46 -66 57c-10 3 -27 11 -27 20c0 6 10 12 27 12c24 0 60 -4 92 -4c40 0 65 4 93 4c16 0 25 -7 25 -15c0 -6 -12 -14 -26 -17c-49 -12 -64 -31 -65 -94c0 -47 -6 -166 -8 -218c-7 -169 -58 -238 -129 -279c-46 -26 -97 -31 -137 -31c-90 0 -155 31 -188 61
c-56 52 -80 112 -80 272c0 75 -3 231 -4 243c-2 19 -12 37 -50 45c-11 3 -27 10 -27 19z" />
    <glyph glyph-name="V" unicode="V" horiz-adv-x="674" 
d="M-4 623c0 9 14 15 29 15c20 0 70 -5 119 -5c34 0 96 2 119 2c13 0 24 -5 24 -12c0 -8 -7 -16 -25 -21c-45 -12 -44 -26 -36 -54c15 -49 122 -315 146 -364c2 -3 8 -3 9 0c8 16 114 263 144 342c22 59 -5 63 -45 78c-11 4 -22 11 -22 17c0 7 11 15 27 15c31 0 52 -3 85 -3
c29 0 69 4 90 4c17 0 30 -6 30 -14c0 -9 -10 -16 -27 -19c-45 -11 -66 -32 -91 -84c-22 -49 -84 -170 -144 -318c-33 -79 -55 -135 -75 -196c-4 -11 -17 -26 -27 -26c-11 0 -20 17 -22 24c-5 22 -23 80 -52 153c-34 91 -111 275 -149 366c-21 47 -36 69 -81 82
c-12 3 -26 7 -26 18z" />
    <glyph glyph-name="W" unicode="W" horiz-adv-x="982" 
d="M-5 623c0 8 12 14 29 14c49 0 76 -4 122 -4c40 0 81 3 90 3c17 0 28 -6 28 -13c0 -8 -6 -15 -28 -23c-22 -7 -28 -20 -22 -36c20 -50 105 -237 183 -407c2 -3 5 -6 9 1c7 13 45 81 69 139c2 3 2 9 0 14c-38 92 -68 155 -99 214c-25 51 -32 68 -69 78c-17 5 -24 12 -24 20
c0 9 16 14 32 14c14 0 62 -4 96 -4c47 0 93 3 104 3c13 0 25 -5 25 -14c0 -8 -11 -16 -25 -20c-25 -6 -31 -17 -21 -45c11 -29 20 -50 57 -130c2 -5 5 -4 8 1c24 47 31 60 50 103c24 55 7 63 -21 72c-12 5 -24 12 -24 19s6 13 30 13c20 0 36 -2 69 -2c32 0 64 2 80 2
s24 -5 24 -11c0 -10 -9 -16 -29 -21c-35 -12 -53 -19 -83 -69c-10 -17 -38 -64 -79 -142c-2 -5 -2 -11 1 -16c33 -73 76 -166 102 -214c3 -5 7 -2 10 3c48 102 101 221 159 364c18 47 7 64 -34 76c-14 4 -26 11 -26 18c0 12 15 14 30 14c23 0 49 -4 69 -4c32 0 58 3 90 3
c18 0 30 -4 30 -11c0 -9 -11 -16 -29 -21c-38 -8 -51 -20 -79 -73c-13 -24 -66 -135 -134 -284c-68 -155 -73 -162 -101 -235c-5 -14 -20 -25 -29 -25c-6 0 -14 5 -18 19c-29 74 -76 166 -114 249c-2 3 -5 5 -7 1c-52 -97 -93 -186 -120 -253c-5 -11 -23 -23 -32 -23
c-7 4 -9 3 -16 19c-7 18 -22 66 -63 158c-39 90 -130 297 -166 367c-25 49 -33 69 -77 80c-11 2 -27 9 -27 19z" />
    <glyph glyph-name="X" unicode="X" horiz-adv-x="718" 
d="M33 623c0 7 8 15 30 15c20 0 109 -5 145 -5c40 0 57 2 88 2c19 0 29 -4 29 -11c0 -10 -10 -18 -30 -25c-15 -4 -20 -15 -13 -30c20 -41 73 -127 104 -172c4 -5 9 -3 10 -1c30 34 101 131 122 167c10 20 -5 32 -36 39c-19 4 -26 15 -26 20c0 8 8 13 27 13
c31 0 61 -2 89 -2c25 0 85 4 109 4c13 0 25 -3 25 -11c0 -9 -14 -18 -25 -20c-59 -14 -93 -31 -131 -74c-40 -48 -88 -101 -133 -163c-1 -2 -3 -10 -1 -15c8 -22 106 -173 144 -228c36 -52 59 -80 132 -98c19 -4 24 -14 24 -19c0 -9 -11 -14 -34 -14c-25 0 -126 6 -174 6
c-29 0 -72 -5 -85 -5c-19 0 -25 8 -25 14c0 8 6 14 23 19c14 5 22 7 30 12c4 2 7 12 5 17c-18 33 -110 186 -122 197c-4 4 -8 4 -10 2c-29 -34 -77 -97 -99 -132c-40 -66 -26 -80 13 -93c17 -5 25 -13 25 -19c0 -10 -12 -15 -25 -15c-27 0 -70 3 -103 3
c-41 0 -77 -5 -100 -5c-24 0 -33 5 -33 12c1 12 12 18 36 23c50 11 90 43 114 70c29 32 98 114 150 185c5 6 3 11 2 14c-6 21 -93 163 -156 249c-25 34 -48 45 -86 53c-19 4 -30 14 -29 21z" />
    <glyph glyph-name="Y" unicode="Y" horiz-adv-x="641" 
d="M5 626c0 8 13 12 30 12c24 0 84 -6 130 -6c28 0 58 2 97 2c16 0 25 -5 25 -11c0 -7 -8 -18 -23 -21c-34 -7 -36 -23 -23 -49c12 -22 72 -126 115 -199c2 -3 10 -1 13 3c16 25 86 136 111 185c17 31 16 51 -31 61c-14 3 -27 12 -27 22c0 7 14 10 22 10c26 0 45 -2 68 -2
c28 0 103 5 119 5c14 0 23 -2 23 -11s-11 -16 -28 -21c-47 -12 -68 -37 -101 -77c-42 -52 -102 -147 -133 -195c-4 -7 -14 -30 -14 -54c0 -56 3 -165 7 -198c3 -26 10 -39 64 -53c19 -5 26 -12 26 -19c0 -8 -11 -14 -31 -14c-14 0 -87 5 -110 5c-66 0 -132 -7 -145 -7
c-15 0 -26 4 -26 12c0 6 8 16 29 21c53 15 64 31 65 46c3 46 1 156 1 193c0 10 -6 43 -9 49c-17 34 -76 129 -119 199c-44 70 -63 84 -96 92c-18 4 -29 11 -29 20z" />
    <glyph glyph-name="Z" unicode="Z" horiz-adv-x="632" 
d="M308 631c110 0 209 2 235 6c11 2 20 -2 20 -7c0 -4 -4 -18 -13 -30c-13 -17 -46 -61 -82 -117c-93 -142 -228 -370 -251 -417c-2 -5 1 -15 5 -16c16 -7 77 -12 113 -13c34 0 70 0 101 1c51 2 94 32 142 108c11 17 20 28 26 28c10 0 12 -11 12 -24
c-1 -12 -22 -74 -51 -137c-4 -9 -22 -18 -57 -18c-123 0 -325 4 -370 4c-44 0 -78 -2 -90 -2c-7 0 -17 5 -17 13s21 35 32 49c64 83 300 474 319 518c2 6 -1 12 -4 12c-20 3 -90 5 -149 5c-16 0 -46 -3 -62 -6c-36 -7 -68 -24 -98 -79c-6 -12 -18 -26 -24 -26
c-10 0 -15 14 -10 30c5 25 36 88 47 138c2 11 5 12 12 12c6 0 12 -3 16 -8c11 -15 23 -17 49 -20c34 -3 87 -4 149 -4z" />
    <glyph glyph-name="bracketleft" unicode="[" horiz-adv-x="338" 
d="M129 704c57 0 127 1 143 1c13 0 25 -10 25 -17c0 -8 -12 -16 -23 -18c-15 -2 -71 -8 -88 -9c-7 0 -16 -12 -17 -24c-3 -56 -4 -172 -4 -322c0 -108 4 -231 7 -391c0 -30 7 -49 17 -50c29 -2 86 -10 91 -10c6 0 26 -9 26 -18c0 -8 -19 -18 -31 -17h-74
c-28 0 -79 -1 -87 -1c-6 0 -14 8 -14 33v585c0 158 -1 222 -1 234c0 7 3 18 7 21c3 3 12 3 23 3z" />
    <glyph glyph-name="backslash" unicode="\" horiz-adv-x="381" 
d="M352 -51c2 -3 -2 -13 -8 -15c-5 -3 -26 -9 -30 -9c-7 -1 -13 10 -17 21c-88 231 -176 466 -263 698c-1 4 3 12 9 15c8 3 28 9 33 9s11 -10 15 -19c86 -231 173 -468 261 -700z" />
    <glyph glyph-name="bracketright" unicode="]" horiz-adv-x="338" 
d="M217 -171c-58 0 -124 -1 -140 -1c-15 0 -28 10 -28 17s16 17 30 19c19 3 66 9 83 10c7 0 13 11 14 23c3 55 4 170 4 321c0 108 -4 230 -7 391c0 24 -5 49 -17 50c-31 2 -75 8 -89 10c-9 1 -26 10 -26 17c0 9 18 21 32 19c8 0 43 -1 71 -1s81 1 88 1c6 0 14 -8 14 -33
v-585c0 -157 1 -225 1 -237c0 -7 -3 -15 -7 -18c-3 -3 -12 -3 -23 -3z" />
    <glyph glyph-name="asciicircum" unicode="^" horiz-adv-x="485" 
d="M243 626c10 0 21 -17 33 -40l160 -304c5 -11 6 -14 1 -20c-16 -15 -52 -27 -55 -19l-137 275c-4 6 -8 5 -11 -1l-134 -271c-6 -11 -39 5 -51 18c-6 6 -5 8 1 20l156 299c12 24 29 43 37 43z" />
    <glyph glyph-name="underscore" unicode="_" horiz-adv-x="495" 
d="M0 -124h495v-49h-495v49z" />
    <glyph glyph-name="quoteleft" unicode="&#x2018;" horiz-adv-x="230" 
d="M125 434c-50 0 -86 38 -86 105c0 98 104 141 131 141c9 0 20 -3 20 -10c0 -10 -10 -19 -18 -21c-42 -19 -65 -47 -65 -78c0 -25 19 -36 46 -42c13 -3 32 -9 32 -39c0 -34 -31 -56 -60 -56z" />
    <glyph glyph-name="a" unicode="a" horiz-adv-x="418" 
d="M218 407c61 0 89 -32 104 -54c12 -16 22 -41 22 -86c0 -39 -4 -158 -4 -169c0 -28 20 -40 37 -40c5 0 25 8 35 12c3 2 4 1 6 -1c2 -4 3 -11 3 -14c0 -19 -47 -68 -103 -68c-29 0 -60 9 -75 48c-1 4 -7 6 -9 4c-25 -18 -66 -36 -79 -42c-11 -4 -31 -8 -44 -8
c-37 0 -77 45 -77 101c0 18 8 37 18 51s27 20 36 24c22 9 113 34 136 41c12 4 18 11 18 15c1 9 3 64 2 77c-1 24 -22 64 -67 64c-14 0 -25 -2 -32 -7c-4 -2 -6 -12 -6 -46c0 -4 -2 -7 -4 -9c-7 -7 -82 -40 -88 -40s-13 8 -13 14c0 29 22 56 84 96c37 24 86 37 100 37z
M190 49c9 0 29 6 38 12c5 3 9 15 9 19c2 14 4 56 4 89c0 4 -4 10 -7 10c-17 0 -63 -15 -81 -26c-12 -9 -18 -14 -18 -40c0 -44 36 -64 55 -64z" />
    <glyph glyph-name="b" unicode="b" horiz-adv-x="516" 
d="M484 207c0 -81 -47 -140 -94 -175c-43 -32 -109 -44 -147 -44c-37 0 -101 11 -134 21c-4 2 -11 1 -21 -4c-5 -2 -11 -4 -13 -4c-4 0 -11 6 -11 13c5 78 6 252 6 334c0 95 -1 222 -3 237c-1 6 -5 17 -21 31c-19 14 -29 18 -29 23c0 7 11 17 17 19c34 9 75 17 108 34
c19 10 28 13 33 13c3 0 11 -10 11 -16c-3 -71 -9 -153 -9 -231c0 -23 0 -54 1 -76c0 -5 4 -5 4 -5c32 20 78 30 106 30c51 0 96 -16 128 -44c44 -38 68 -90 68 -156zM364 187c0 40 -15 93 -43 126c-18 22 -55 43 -95 43c-17 0 -30 -4 -39 -8c-3 -2 -7 -8 -8 -11
c-1 -15 -2 -35 -2 -56c0 -76 4 -139 9 -174c1 -11 8 -39 28 -57c20 -21 46 -27 61 -27c9 0 28 9 49 30c25 30 40 86 40 134z" />
    <glyph glyph-name="c" unicode="c" horiz-adv-x="414" 
d="M273 402c30 0 80 -8 98 -22c13 -9 17 -23 17 -36c0 -18 -33 -47 -39 -47c-9 0 -25 7 -46 25c-27 22 -48 43 -79 43c-11 0 -28 -6 -43 -22c-25 -26 -39 -76 -39 -122c0 -66 27 -99 32 -105c19 -26 55 -54 109 -54c29 0 62 12 96 33c5 3 13 0 13 -8c0 -10 -8 -23 -16 -31
c-34 -36 -92 -67 -154 -67c-73 0 -129 38 -157 80c-20 31 -33 75 -33 116c0 78 40 135 100 174c35 24 101 43 141 43z" />
    <glyph glyph-name="d" unicode="d" horiz-adv-x="522" 
d="M274 405c25 0 39 0 55 -2c4 -1 7 5 8 9c5 30 1 163 -2 188c-1 8 -1 24 -42 42c-9 4 -14 8 -14 10c0 5 12 18 18 19c26 4 98 18 126 29c7 3 13 5 19 5c4 0 10 -10 9 -20c-4 -38 -9 -155 -9 -380c0 -201 2 -174 3 -193c0 -61 8 -70 17 -70c8 0 38 4 50 4c4 0 6 -7 6 -8
c0 -6 -16 -25 -21 -27c-27 -4 -87 -13 -106 -20c-24 -8 -39 -11 -44 -11s-12 8 -12 14c0 8 2 23 2 38c0 5 -5 8 -7 7c-35 -29 -86 -47 -123 -47c-52 0 -90 20 -120 48c-40 37 -55 93 -55 141c0 103 59 157 108 186c38 23 98 38 134 38zM238 369c-16 0 -38 -9 -59 -30
c-27 -29 -37 -87 -37 -122c0 -85 57 -167 134 -167c19 0 35 4 48 15c4 2 14 32 14 47c1 35 2 135 -1 173c-1 5 -9 30 -18 40c-28 33 -61 44 -81 44z" />
    <glyph glyph-name="e" unicode="e" horiz-adv-x="414" 
d="M241 407c40 0 81 -16 107 -42c23 -22 38 -53 38 -88c0 -7 -10 -24 -22 -24h-218c-5 0 -10 -3 -11 -7c-3 -8 -4 -24 -4 -36c0 -22 12 -68 31 -93c25 -32 67 -50 111 -50c42 0 71 10 90 35c4 6 9 12 13 12s9 -7 9 -13s-3 -17 -8 -25c-31 -48 -78 -87 -160 -87
c-115 0 -185 87 -185 201c0 80 44 160 127 198c25 12 55 19 82 19zM234 379c-42 0 -81 -40 -93 -85c-1 -5 3 -10 7 -10c26 -1 57 0 107 0c16 0 35 10 35 34c0 28 -28 61 -56 61z" />
    <glyph glyph-name="f" unicode="f" horiz-adv-x="304" 
d="M202 393c60 0 97 1 101 1c7 0 14 -26 14 -46c0 -3 -10 -11 -15 -11c-7 0 -87 2 -98 2c-3 0 -8 -7 -8 -11c-1 -18 1 -213 4 -248c3 -31 7 -42 58 -52c18 -4 25 -13 25 -17c0 -7 -12 -14 -30 -14c-12 0 -53 3 -78 3c-61 0 -109 -4 -128 -4c-12 0 -25 4 -25 14
c0 4 10 13 21 16c40 13 41 22 42 68c1 41 2 171 2 225c0 15 -4 19 -8 19c-13 -1 -30 -1 -43 -2c-4 0 -11 9 -10 16c1 4 29 23 52 41c7 6 10 9 10 14c0 43 10 101 33 145c23 49 51 84 96 114c40 28 80 38 114 39c26 1 52 -7 69 -18c11 -7 25 -27 25 -42
c0 -21 -19 -47 -36 -53c-5 -2 -16 -4 -21 -4c-8 0 -16 4 -30 20c-20 20 -46 46 -72 46c-18 0 -29 -7 -39 -23c-18 -26 -32 -75 -32 -230c0 -3 6 -8 7 -8z" />
    <glyph glyph-name="g" unicode="g" horiz-adv-x="455" 
d="M225 411c41 0 67 -7 95 -15c11 -3 20 -6 27 -7c23 0 96 -4 113 -7c6 -1 10 -7 10 -12c0 -14 -18 -38 -22 -38c-6 0 -34 0 -58 2c-5 0 -7 -6 -6 -8c3 -12 6 -26 6 -43c0 -54 -18 -95 -57 -125c-45 -33 -98 -38 -121 -38c-6 0 -30 1 -40 2c-7 1 -11 1 -14 -2
c-8 -5 -19 -18 -19 -26c0 -19 25 -36 37 -37c44 -2 159 -5 188 -9c10 -2 33 -10 51 -24c27 -24 43 -59 43 -92c0 -81 -63 -135 -103 -160c-51 -32 -103 -44 -152 -44c-51 0 -89 10 -126 34c-33 23 -53 58 -53 90c0 35 18 50 31 59c20 13 51 32 64 41c3 2 4 5 0 7
c-9 3 -28 10 -41 19c-23 16 -39 43 -39 79c0 3 4 10 7 12c9 7 65 38 81 57c2 1 2 7 -2 10c-29 14 -81 54 -81 126c0 45 21 84 60 113c30 22 71 36 121 36zM215 383c-15 0 -31 -9 -39 -21c-15 -19 -23 -48 -23 -85c0 -64 32 -129 80 -129c7 0 20 6 31 15c16 15 27 58 27 101
c0 15 -7 60 -22 82c-15 23 -34 37 -54 37zM248 -224c27 0 55 5 78 17c34 20 45 53 45 79c0 15 -5 36 -17 49c-13 14 -29 22 -56 26c-35 5 -52 5 -104 5c-22 0 -40 -6 -48 -12c-20 -18 -30 -42 -30 -64c0 -29 14 -54 35 -71c26 -21 63 -29 97 -29z" />
    <glyph glyph-name="h" unicode="h" horiz-adv-x="525" 
d="M308 407c52 0 87 -19 108 -48c20 -27 28 -67 28 -110c1 -63 3 -136 4 -180c1 -25 13 -34 40 -41c20 -5 26 -11 26 -18c0 -8 -8 -14 -29 -14c-29 0 -56 4 -82 4c-37 0 -57 -3 -92 -3c-18 0 -25 7 -25 13s8 12 21 16c24 7 28 17 31 50c2 22 2 147 2 167c0 51 -12 71 -25 82
c-15 13 -35 22 -61 22c-30 0 -53 -11 -57 -14s-11 -19 -12 -34c-3 -53 -3 -188 -2 -217c1 -34 10 -46 34 -52c16 -4 24 -11 24 -17c0 -11 -16 -14 -29 -14c-8 0 -44 1 -91 1c-42 0 -69 -3 -86 -3c-11 0 -25 5 -25 14c0 6 7 13 28 19c29 11 33 28 35 49c4 35 9 151 9 401
c0 33 0 87 -3 107c-3 23 -10 26 -37 45c-4 2 -10 12 -10 19c0 3 3 7 7 7c17 4 94 19 130 40c8 5 12 7 17 7c4 0 10 -10 10 -13c-11 -75 -13 -314 -12 -331c0 -2 4 -7 7 -5c35 32 80 51 117 51z" />
    <glyph glyph-name="i" unicode="i" horiz-adv-x="272" 
d="M42 354c0 8 11 16 27 19c41 8 104 32 120 36c5 0 10 -8 10 -11c-2 -34 -5 -168 -5 -226c0 -31 1 -66 2 -101c1 -30 13 -34 39 -42c15 -5 22 -11 22 -19s-14 -13 -28 -13c-7 0 -61 3 -83 3c-32 0 -80 -4 -97 -4c-16 0 -28 6 -28 13s7 12 26 18c24 7 35 19 37 29
c4 14 6 85 6 156c0 21 0 78 -2 90c-1 8 -13 18 -34 36c-6 6 -12 11 -12 16zM148 616c35 0 53 -39 53 -62c0 -33 -35 -61 -60 -61c-9 0 -29 6 -40 17c-10 10 -19 24 -19 44c0 12 5 32 16 44c12 11 31 18 50 18z" />
    <glyph glyph-name="j" unicode="j" horiz-adv-x="259" 
d="M29 354c0 5 6 9 17 12c27 7 89 26 118 42c7 4 14 6 18 6s11 -9 11 -13c-1 -53 -3 -327 -4 -353c-2 -69 -16 -127 -42 -170c-24 -41 -55 -79 -88 -105c-26 -23 -60 -40 -67 -40c-5 0 -19 5 -24 12c-2 2 -2 9 3 12c46 29 56 41 62 48c28 34 49 113 49 243
c0 49 -1 210 -3 241c-1 14 -5 25 -39 48c-3 2 -11 10 -11 17zM123 619c52 0 67 -46 67 -62c0 -45 -40 -62 -62 -62c-20 0 -57 25 -58 61c-1 19 9 38 23 50c8 8 16 13 30 13z" />
    <glyph glyph-name="k" unicode="k" horiz-adv-x="505" 
d="M291 393h42c60 0 118 11 145 11c5 0 9 -3 9 -8c0 -12 -17 -23 -21 -24c-58 -13 -81 -24 -124 -56c-19 -13 -55 -47 -60 -57c-1 -2 -1 -7 -1 -7c14 -22 116 -157 151 -192c19 -17 34 -27 61 -34c16 -5 25 -12 25 -16c0 -12 -12 -16 -31 -16c-24 0 -90 6 -142 5l-48 -1
c-11 0 -26 3 -26 14c0 6 5 10 22 15c15 5 20 13 13 23c-26 37 -50 66 -97 129c-10 13 -15 20 -19 20s-4 -5 -5 -9c-4 -11 -3 -105 1 -126c3 -19 7 -30 35 -37c11 -3 21 -10 21 -15c0 -13 -16 -15 -27 -15c-25 0 -70 3 -95 3c-35 0 -78 -4 -91 -4c-21 0 -28 5 -28 13
c0 9 16 14 29 18c30 9 39 18 42 45c1 19 7 176 7 307c0 129 -3 193 -6 221c-1 7 -6 14 -30 28c-10 5 -16 16 -16 21c0 3 7 8 16 10c32 7 93 24 118 38c10 5 16 9 21 9c3 0 10 -9 9 -13c-5 -29 -9 -274 -9 -372c0 -24 -1 -82 3 -95c1 -5 3 -6 8 -6c4 0 9 5 16 11
c30 25 92 89 110 111c4 5 7 17 -27 23c-14 3 -21 9 -21 14c0 6 10 14 20 14z" />
    <glyph glyph-name="l" unicode="l" horiz-adv-x="264" 
d="M33 646c0 5 7 13 18 17c43 12 91 20 130 45c3 2 12 -6 12 -10c-3 -36 -8 -237 -8 -387c0 -78 1 -210 4 -240c3 -23 7 -35 45 -46c14 -5 21 -10 21 -17c0 -9 -16 -12 -27 -12c-24 0 -81 4 -99 4c-23 0 -72 -4 -93 -4c-22 0 -29 7 -29 12c0 11 13 15 24 17
c33 9 39 24 42 76c3 44 6 157 6 315c0 52 -1 146 -1 175c0 12 -6 18 -27 34c-13 11 -18 16 -18 21z" />
    <glyph glyph-name="m" unicode="m" horiz-adv-x="783" 
d="M47 347c0 6 12 16 19 18c25 8 84 33 108 46c5 2 7 1 9 0c5 -3 9 -11 9 -13c0 -14 -3 -33 -3 -43c0 -2 4 -9 7 -6c39 32 86 58 135 58c31 0 57 -8 73 -20c17 -13 28 -32 33 -40c2 -3 7 -3 8 -3c12 8 53 33 73 43c23 12 41 15 58 15c41 0 66 -15 86 -36
c27 -26 36 -62 38 -100c2 -33 4 -137 5 -201c1 -17 9 -32 35 -40c13 -4 20 -10 20 -16c0 -7 -10 -13 -28 -13c-20 0 -53 4 -80 4c-34 0 -59 -3 -82 -3c-19 0 -25 8 -25 15c0 6 9 11 20 15c26 8 30 17 32 56c1 26 -1 137 -1 170c0 16 -2 35 -14 54s-33 34 -64 34
c-35 0 -51 -12 -61 -20c-5 -4 -8 -21 -8 -31c0 -7 -1 -191 1 -213c3 -32 7 -41 42 -51c11 -3 21 -8 21 -15s-10 -14 -26 -14c-22 0 -67 3 -90 3c-21 0 -61 -2 -82 -2c-25 0 -29 7 -29 15c0 3 7 10 20 14c27 8 36 18 36 54l1 172c1 40 -7 57 -12 63c-13 18 -36 32 -65 32
c-23 0 -47 -10 -61 -21c-5 -4 -9 -15 -9 -23c-1 -65 -1 -156 -1 -232c0 -21 8 -34 35 -43c19 -6 24 -10 24 -18c0 -6 -13 -13 -27 -13c-4 0 -60 2 -98 2c-33 0 -63 -4 -84 -4c-14 0 -28 4 -28 13c0 6 7 12 25 17c35 8 38 21 42 64c2 27 5 105 5 193c0 9 0 17 -6 22
c-24 24 -36 36 -36 42z" />
    <glyph glyph-name="n" unicode="n" horiz-adv-x="534" 
d="M49 350c0 6 11 19 18 22c20 6 65 22 81 30s29 15 34 15c4 0 11 -11 11 -15c0 -11 -1 -35 -1 -44c0 -6 7 -5 7 -5c40 30 82 54 127 54c49 0 78 -24 92 -40c23 -26 36 -70 36 -121c0 -21 2 -168 3 -182c2 -15 9 -27 35 -34c19 -5 26 -10 26 -18s-12 -14 -29 -14
c-24 0 -63 2 -91 2c-25 0 -65 -3 -79 -3s-27 3 -27 14c0 7 11 13 24 17c23 9 28 18 30 51s2 157 2 186c0 20 -8 47 -22 60c-11 10 -36 21 -57 21c-35 0 -52 -10 -66 -20c-4 -3 -9 -16 -10 -22c-1 -17 1 -232 2 -244c1 -14 4 -21 35 -31c9 -4 17 -11 17 -17
c0 -7 -11 -14 -28 -14c-19 0 -56 2 -77 2c-37 0 -76 -3 -93 -3s-27 6 -27 15c0 8 10 13 21 16c33 11 38 19 41 56c3 30 5 110 5 211c0 11 -7 21 -29 41c-8 8 -11 11 -11 14z" />
    <glyph glyph-name="o" unicode="o" horiz-adv-x="504" 
d="M261 407c100 0 211 -78 211 -208c0 -85 -52 -146 -89 -170c-41 -29 -92 -41 -138 -41c-45 0 -101 21 -138 52c-43 35 -75 98 -75 154c0 70 31 123 69 155c30 26 86 58 160 58zM242 374c-17 0 -33 -7 -49 -22c-23 -21 -41 -65 -41 -131c0 -33 4 -71 12 -96
c21 -70 67 -104 109 -104c10 0 29 8 44 25c21 27 37 80 37 137c0 42 -9 107 -40 151c-18 23 -44 40 -72 40z" />
    <glyph glyph-name="p" unicode="p" horiz-adv-x="514" 
d="M319 405c40 0 86 -25 113 -56s49 -77 49 -131c0 -73 -32 -132 -86 -174c-56 -44 -119 -51 -154 -51c-18 0 -37 1 -49 3c-4 1 -8 -9 -8 -14c-1 -45 1 -126 4 -148c3 -27 8 -42 48 -54c20 -6 27 -14 27 -21c0 -9 -16 -14 -28 -14c-28 0 -97 5 -133 5c-25 0 -38 -3 -81 -3
c-17 0 -29 7 -29 16c0 6 10 14 26 18c47 10 53 22 55 81c2 35 4 112 4 213c0 67 1 179 -1 217c-1 21 -4 25 -8 28c-17 14 -37 31 -37 36s10 19 21 23c20 6 75 23 102 39c10 6 18 9 20 9c4 0 12 -9 12 -14c-2 -18 -2 -31 -3 -47c0 -4 5 -8 8 -7c18 12 45 26 59 32
c17 7 40 14 69 14zM250 346c-18 0 -40 -5 -53 -12c-3 -3 -10 -15 -11 -26c-6 -44 -6 -125 -4 -178c0 -18 4 -35 10 -46c21 -37 61 -57 82 -57c11 0 22 3 33 12c53 38 61 135 61 151c0 21 -5 78 -42 119c-22 24 -59 37 -76 37z" />
    <glyph glyph-name="q" unicode="q" horiz-adv-x="511" 
d="M267 407c14 0 62 -3 86 -10c18 -6 28 -10 34 -10c4 0 16 7 23 13c12 12 27 19 34 19c5 0 9 -6 7 -17c-10 -64 -10 -185 -10 -363c0 -70 0 -135 3 -200c1 -36 7 -47 52 -55c8 -2 23 -8 23 -16c0 -11 -14 -16 -28 -16c-88 0 -196 -11 -214 -11c-22 0 -31 3 -31 13
c0 7 11 14 24 18c61 16 62 39 63 61c2 28 5 105 5 177c0 4 -2 10 -6 8c-32 -16 -80 -30 -105 -30c-67 0 -109 22 -143 56c-32 32 -52 90 -52 140c0 97 54 154 101 185c31 20 92 38 134 38zM240 373c-14 0 -29 -5 -44 -18c-24 -20 -47 -60 -47 -141c0 -63 22 -111 52 -143
c26 -25 66 -34 90 -34c9 0 27 5 36 11c6 3 11 22 11 32c0 37 -2 161 -8 196c-3 18 -8 41 -18 56c-18 27 -53 41 -72 41z" />
    <glyph glyph-name="r" unicode="r" horiz-adv-x="359" 
d="M44 348c0 2 2 16 13 19c38 12 83 27 101 38c11 7 21 12 24 12c6 0 12 -9 12 -12c0 -18 -3 -37 -3 -56c0 -3 5 -7 8 -4c31 33 75 62 106 62c44 0 58 -27 58 -41c0 -3 -3 -11 -6 -16c-11 -17 -42 -58 -49 -59c-4 0 -15 1 -18 4c-11 10 -44 28 -63 28c-9 0 -19 -1 -25 -6
s-9 -11 -9 -20c0 -20 5 -194 6 -209c2 -31 9 -49 23 -52c10 -2 31 -9 43 -13c16 -5 20 -12 20 -16c0 -8 -12 -12 -28 -12c-30 0 -82 5 -141 5c-21 0 -42 -3 -66 -3c-11 0 -24 3 -24 14c0 7 15 12 23 15c36 13 38 24 39 84v165c0 18 -2 33 -8 38c-16 13 -36 31 -36 35z" />
    <glyph glyph-name="s" unicode="s" horiz-adv-x="347" 
d="M196 407c23 0 44 -3 57 -6c13 -2 34 -10 36 -11c4 -3 8 -9 9 -17c2 -14 4 -57 4 -64c0 -9 -8 -21 -15 -21s-16 13 -22 24c-22 42 -47 65 -83 65c-25 0 -50 -25 -50 -51c0 -36 38 -58 88 -86c86 -46 98 -81 98 -126c0 -47 -30 -80 -63 -101c-21 -14 -72 -25 -101 -25
c-31 0 -82 7 -101 23c-4 5 -19 47 -19 82c0 15 6 23 10 23c10 0 17 -11 24 -23c33 -56 72 -75 97 -75c12 0 30 6 40 13c14 11 20 29 20 45c0 17 -8 35 -40 55c-27 17 -39 25 -69 43c-37 23 -70 61 -70 112c0 37 21 77 63 100c22 12 50 21 87 21z" />
    <glyph glyph-name="t" unicode="t" horiz-adv-x="331" 
d="M190 393c22 0 102 3 106 3s15 -4 15 -11c0 3 3 -29 3 -41c0 -10 -19 -12 -26 -12h-95c-6 0 -10 -5 -10 -7c0 -50 -1 -143 -1 -202c0 -25 5 -37 16 -47s33 -17 49 -17c10 0 31 7 44 14c8 5 13 7 17 7c3 0 7 -5 7 -16c0 -9 -10 -22 -16 -29c-27 -28 -67 -47 -114 -47
c-40 0 -77 20 -93 43c-13 17 -18 32 -18 71c0 37 4 182 4 217c0 7 -17 14 -38 22c-8 3 -12 11 -12 17c0 4 1 6 5 9c50 33 83 57 105 80c12 14 19 22 23 22c7 0 20 -10 20 -17v-50c0 -3 5 -9 9 -9z" />
    <glyph glyph-name="u" unicode="u" horiz-adv-x="513" 
d="M256 51c15 0 39 6 61 24c4 3 10 19 10 23l1 224c0 7 -6 18 -17 23c-16 5 -27 10 -40 15c-7 2 -16 10 -16 18c0 4 9 10 17 10c40 0 103 7 132 13c10 2 17 4 24 4s10 -12 10 -16c-2 -36 -5 -290 -5 -322c0 -3 2 -18 13 -18c10 1 32 7 45 7c4 0 11 -23 12 -26
c1 -2 -7 -11 -12 -11c-27 -2 -79 -15 -102 -21c-17 -5 -49 -13 -52 -13c-4 0 -11 7 -11 14c0 6 1 24 2 41c0 5 -4 9 -6 7c-25 -18 -57 -39 -70 -44c-17 -8 -35 -15 -64 -15c-47 0 -80 20 -102 53c-7 10 -11 40 -11 53c0 71 -1 168 -3 221c-1 29 -17 35 -34 42
c-9 4 -18 12 -18 21c0 5 6 11 16 11c28 0 134 11 138 11s8 -11 8 -15c2 -76 -1 -226 -1 -272c0 -19 9 -34 19 -43c16 -12 37 -19 56 -19z" />
    <glyph glyph-name="v" unicode="v" horiz-adv-x="424" 
d="M-12 386c0 6 15 12 28 12c12 0 92 -5 104 -5c26 0 57 3 70 3c16 0 24 -5 24 -12s-9 -15 -24 -19c-25 -6 -25 -16 -18 -34c23 -69 68 -168 76 -181c3 -5 6 -2 8 2c11 20 58 139 68 170c8 26 0 37 -31 46c-9 3 -20 8 -20 16c0 6 9 12 25 12c12 0 36 -3 55 -3
c20 0 47 5 67 5c11 0 23 -4 23 -11s-5 -13 -23 -19c-23 -8 -37 -20 -54 -48c-25 -48 -54 -116 -81 -181c-29 -71 -34 -86 -49 -131c-5 -15 -20 -26 -28 -26c-5 0 -11 7 -15 18c-7 21 -15 47 -39 105c-25 64 -78 187 -99 223c-9 16 -18 31 -43 39c-15 6 -24 10 -24 19z" />
    <glyph glyph-name="w" unicode="w" horiz-adv-x="658" 
d="M111 393c25 0 49 3 68 3c18 0 25 -7 25 -12s-6 -12 -23 -17c-18 -4 -22 -14 -15 -33c14 -41 70 -182 77 -197c3 -4 7 -4 9 -1c11 23 38 80 55 120c3 7 3 13 3 17c-3 12 -14 42 -22 59c-11 19 -18 29 -37 36c-15 5 -22 10 -22 19c0 5 7 10 25 10c14 0 53 -4 78 -4
c18 0 62 4 85 4c16 0 23 -5 23 -11c0 -7 -7 -14 -20 -17c-24 -7 -28 -17 -28 -22c0 -7 3 -16 8 -28c6 -13 58 -147 74 -181c2 -4 5 -4 8 0c12 29 32 81 50 126c12 32 21 59 21 73c0 10 -5 22 -41 31c-13 4 -24 8 -24 17c0 7 12 12 24 12s43 -4 65 -4c30 0 58 5 76 5
c13 0 22 -4 22 -10c0 -10 -13 -15 -29 -19c-21 -7 -33 -19 -49 -47c-29 -55 -73 -158 -98 -216c-17 -42 -33 -84 -40 -101c-3 -10 -10 -19 -15 -19c-12 0 -21 12 -27 19c-3 7 -17 49 -27 74c-19 45 -37 92 -58 140c0 2 -6 3 -7 0c-29 -57 -62 -125 -88 -187
c-4 -10 -20 -48 -31 -48c-7 0 -15 3 -19 15c-2 5 -17 47 -27 74c-7 20 -79 194 -101 238c-14 31 -21 48 -51 57c-15 4 -24 9 -24 15c0 7 8 14 29 14c19 0 75 -4 98 -4z" />
    <glyph glyph-name="x" unicode="x" horiz-adv-x="434" 
d="M9 386c0 8 14 13 28 13c20 0 66 -6 109 -6c23 0 44 2 61 2c11 0 22 -4 22 -12s-4 -12 -18 -17c-17 -7 -17 -12 -17 -18c0 -8 33 -63 49 -85c1 -3 5 -2 6 0c20 25 38 50 49 70c10 15 7 25 -9 30c-26 9 -29 13 -29 20s10 12 20 12c12 0 37 -2 56 -2c26 0 62 5 80 5
c12 0 22 -3 22 -11s-6 -11 -19 -16c-37 -9 -62 -23 -85 -50c-24 -27 -40 -47 -69 -84c-2 -4 -2 -6 -1 -7c9 -21 59 -104 89 -151c24 -34 46 -45 69 -51c20 -5 25 -11 25 -17c0 -9 -12 -15 -25 -15c-15 0 -96 4 -125 4c-21 0 -41 -3 -63 -3c-11 0 -22 7 -22 14s7 13 22 17
c18 5 28 9 11 38c-14 24 -30 54 -46 77c-1 2 -5 3 -7 1c-22 -27 -57 -77 -57 -89c0 -11 5 -21 32 -31c7 -2 14 -8 14 -15s-14 -11 -22 -11c-23 0 -31 2 -47 2c-35 0 -60 -4 -85 -4c-11 0 -31 1 -31 12c0 9 15 15 24 18c32 8 49 20 72 42c21 22 53 63 84 105c2 3 2 5 -1 11
c-4 11 -44 82 -74 129c-23 34 -42 47 -64 53c-19 6 -28 10 -28 20z" />
    <glyph glyph-name="y" unicode="y" horiz-adv-x="426" 
d="M-13 385c0 4 8 12 24 12c35 0 69 -4 99 -4s67 2 81 2c9 0 24 -4 24 -12s-6 -13 -24 -19c-27 -8 -28 -14 -19 -40c15 -50 63 -162 77 -189c2 -3 7 -3 10 3c12 29 64 157 72 181c7 24 -2 37 -38 47c-13 4 -21 12 -21 16c0 9 12 13 25 13c19 0 45 -2 59 -2c15 0 44 4 70 4
c14 0 21 -5 21 -12c0 -8 -11 -14 -24 -18c-21 -6 -35 -20 -52 -49c-22 -46 -95 -223 -113 -268c-33 -83 -76 -191 -108 -272c-8 -22 -38 -34 -57 -34c-37 0 -53 31 -53 55c0 16 14 49 45 49c6 0 35 -1 46 -1c9 0 14 7 18 17c9 16 37 93 44 113c2 7 3 17 1 21
c-4 7 -13 31 -17 43c-25 63 -96 231 -123 287c-11 20 -16 28 -44 37c-14 5 -23 10 -23 20z" />
    <glyph glyph-name="z" unicode="z" horiz-adv-x="401" 
d="M209 393c72 0 117 4 139 4c4 0 11 -2 15 -5s3 -10 1 -14c-9 -13 -27 -42 -50 -78c-27 -40 -101 -177 -143 -248c-4 -4 1 -9 4 -10c7 -3 64 -7 103 -7c9 0 19 5 25 13c7 7 36 39 53 61c11 16 19 22 23 22c9 0 11 -14 10 -20c-3 -22 -25 -72 -31 -103c-1 -4 -9 -14 -15 -14
s-161 6 -208 6c-44 0 -75 -4 -98 -5c-3 0 -12 7 -12 16c0 6 34 58 64 103c30 44 90 157 134 232c2 3 3 9 -1 10c-8 1 -61 5 -107 5c-9 0 -41 -33 -62 -67c-6 -8 -11 -17 -18 -17s-13 10 -11 20c1 9 3 20 8 35c6 20 9 50 9 67c0 5 0 6 5 10c6 4 10 4 13 3
c14 -10 37 -19 55 -19h95z" />
    <glyph glyph-name="braceleft" unicode="{" horiz-adv-x="345" 
d="M38 296c72 16 98 58 98 94c0 35 -25 142 -25 166c0 40 22 88 60 120c55 39 94 43 122 43c14 0 20 -7 20 -12c0 -4 -8 -14 -12 -16c-5 -3 -25 -9 -38 -14c-48 -15 -68 -56 -68 -112c0 -42 26 -108 26 -158c0 -52 -56 -93 -119 -119c-6 -3 -5 -7 -1 -9
c78 -32 121 -73 121 -139c0 -38 -19 -110 -23 -127c-8 -31 -8 -45 -8 -57c0 -52 37 -88 100 -105c7 -1 15 -5 15 -8c0 -14 -17 -21 -26 -21c-113 0 -172 69 -172 164c0 39 22 117 22 161c0 64 -18 90 -73 107c-21 7 -30 26 -30 33c0 4 3 6 11 9z" />
    <glyph glyph-name="bar" unicode="|" horiz-adv-x="271" 
d="M99 743h73v-991h-73v991z" />
    <glyph glyph-name="braceright" unicode="}" horiz-adv-x="345" 
d="M304 265c-73 -15 -97 -66 -97 -102c0 -47 23 -157 23 -180c0 -40 -21 -87 -61 -120c-52 -38 -95 -41 -120 -41c-12 0 -18 7 -18 12s7 11 11 13c6 4 23 11 39 16c47 15 65 58 65 112c0 42 -24 109 -24 170c0 59 53 106 118 128c5 2 7 6 1 9c-79 33 -118 68 -118 135
c0 38 15 89 19 107c8 30 8 44 8 56c0 52 -37 90 -101 109c-6 1 -14 8 -14 11c0 12 17 19 25 19c113 0 173 -71 173 -166c0 -38 -18 -106 -18 -139c0 -63 15 -90 69 -108c22 -8 31 -23 31 -30c0 -5 -3 -7 -11 -11z" />
    <glyph glyph-name="asciitilde" unicode="~" horiz-adv-x="624" 
d="M214 347c78 0 159 -115 204 -115c35 0 55 22 91 105c3 7 6 9 11 9c15 0 46 -14 41 -28c-30 -87 -75 -152 -149 -152c-84 0 -148 115 -206 115c-30 0 -60 -30 -88 -100c-4 -11 -7 -15 -13 -15c-9 0 -46 13 -42 26c26 81 71 155 151 155z" />
    <glyph glyph-name="exclamdown" unicode="&#xa1;" horiz-adv-x="282" 
d="M127 -158c-55 0 -71 71 -69 102c4 46 34 217 49 284c2 13 12 33 26 33c6 0 18 -10 22 -34c9 -53 41 -211 46 -279c6 -72 -40 -106 -74 -106zM132 315c-43 0 -73 38 -73 74c0 40 32 77 74 77c39 0 71 -31 71 -76c0 -44 -37 -75 -72 -75z" />
    <glyph glyph-name="cent" unicode="&#xa2;" horiz-adv-x="497" 
d="M167 336c0 -75 37 -133 83 -156c3 -1 7 2 7 6l29 299c0 2 -3 6 -5 6c-69 0 -114 -84 -114 -155zM61 293c0 92 46 151 107 191c24 16 77 34 115 41c5 1 8 3 8 6l7 68c0 1 2 7 6 7c7 0 28 -4 28 -8l-6 -65c0 -3 1 -6 5 -7c42 -2 74 -14 92 -27c12 -10 16 -22 16 -29
c0 -15 -22 -37 -38 -37c-14 0 -25 16 -48 34c-8 5 -18 13 -28 16c-3 1 -5 -2 -5 -5l-29 -304c0 -1 1 -7 5 -8c9 -2 13 -3 22 -3c42 0 91 29 104 40c4 2 11 1 11 -5c0 -10 -6 -26 -14 -34c-32 -38 -89 -58 -130 -64c-3 0 -7 -3 -7 -6l-7 -76c-2 -3 -21 -8 -26 -8
c-7 0 -10 4 -10 7l8 76c1 4 -1 8 -6 8c-65 9 -120 44 -148 85c-18 28 -32 73 -32 107z" />
    <glyph glyph-name="sterling" unicode="&#xa3;" horiz-adv-x="497" 
d="M353 625c65 0 101 -33 103 -75c1 -32 -32 -62 -57 -62c-5 0 -13 5 -13 9c0 7 1 18 1 22c1 41 -18 79 -44 79c-45 0 -73 -81 -93 -259c0 -4 3 -7 7 -7l112 6c4 0 9 -4 8 -15c0 -8 -6 -20 -10 -20l-116 -9c-3 -1 -10 -9 -11 -13c-16 -70 -39 -114 -80 -152
c-2 -2 -3 -7 2 -7c22 0 65 -10 97 -24c41 -20 88 -56 119 -56c39 0 51 19 52 51c0 21 -3 42 -6 58c-1 5 5 11 10 11c20 0 45 -14 43 -51c-2 -59 -98 -150 -178 -150c-45 0 -74 26 -127 74c-31 27 -45 29 -56 29c-5 0 -14 -11 -25 -23c-39 -41 -65 -57 -77 -57
c-14 0 -26 12 -25 26c0 34 45 81 91 103c7 3 13 8 16 13c15 20 24 64 30 154c0 3 -2 7 -5 7l-59 -3c-3 0 -8 8 -7 14c0 9 5 19 9 20l60 6c3 0 7 7 7 9c14 122 43 202 113 255c19 16 63 37 109 37z" />
    <glyph glyph-name="fraction" unicode="&#x2044;" horiz-adv-x="85" 
d="M246 638c12 0 24 -15 19 -21c-159 -247 -310 -481 -420 -646c-1 -2 -8 -7 -14 -3c-10 6 -17 20 -11 28c141 213 309 479 407 630c8 11 13 12 19 12z" />
    <glyph glyph-name="yen" unicode="&#xa5;" horiz-adv-x="497" 
d="M0 605c0 8 14 12 25 12c15 0 64 -4 89 -4c29 0 83 2 102 2c15 0 24 -4 24 -12c0 -9 -11 -15 -24 -19c-22 -7 -24 -14 -15 -36c13 -29 53 -110 82 -174c1 -3 6 -3 9 1c27 50 39 79 60 125c19 41 22 54 22 63c0 8 -9 17 -33 23c-16 4 -22 11 -22 18s13 11 26 11
c20 0 43 -2 62 -2c24 -1 44 4 67 4c12 0 24 -3 24 -12c0 -10 -16 -16 -21 -17c-39 -12 -51 -27 -78 -74c-27 -46 -64 -119 -89 -171c-2 -5 1 -8 3 -8l96 -1c3 0 5 -4 5 -10c0 -10 -5 -23 -10 -23h-97c-3 0 -6 -4 -6 -6v-59c0 -4 4 -8 7 -8h98c4 0 6 -5 6 -12
c0 -10 -5 -22 -10 -22h-95c-3 0 -6 -7 -6 -11v-24c0 -100 4 -113 27 -122c14 -6 19 -7 31 -10c11 -3 19 -8 19 -15c0 -5 -11 -14 -24 -14c-23 0 -70 2 -103 2c-29 0 -78 -4 -107 -4c-15 0 -25 4 -25 12c0 9 8 15 24 18c41 10 42 24 46 85c2 27 2 59 2 73c0 3 -3 10 -7 10
h-95c-4 0 -6 4 -6 11c0 9 4 23 9 23h92c4 0 7 4 7 8v54c0 8 -1 11 -10 11h-89c-3 0 -6 4 -6 11c0 9 5 23 10 23h82c4 0 5 8 4 11c-25 54 -69 136 -103 192c-18 29 -24 38 -55 47c-12 3 -24 11 -24 20z" />
    <glyph glyph-name="florin" unicode="&#x192;" horiz-adv-x="497" 
d="M392 649c59 0 88 -37 88 -63c0 -46 -36 -66 -55 -66c-8 0 -18 3 -17 10v16c-1 36 -17 73 -36 73c-16 0 -29 -11 -45 -47c-18 -40 -34 -120 -51 -213c-1 -3 3 -6 6 -6l96 4c4 0 6 -7 6 -15c0 -10 -6 -22 -10 -23l-98 -6c-4 0 -9 -6 -10 -11c-20 -96 -30 -145 -49 -248
c-16 -88 -62 -144 -132 -193c-34 -23 -76 -38 -108 -38c-36 0 -67 21 -67 48c0 23 18 46 28 53c3 3 12 6 17 2c22 -24 63 -54 80 -54c21 0 32 7 56 134c18 98 39 209 54 296c1 3 -2 8 -5 8l-78 -3c-3 0 -7 3 -7 11c0 10 7 25 11 25l81 5c5 0 7 6 8 9c26 121 75 212 130 254
c35 25 69 38 107 38z" />
    <glyph glyph-name="section" unicode="&#xa7;" horiz-adv-x="460" 
d="M288 631c18 0 39 -8 52 -16c8 -6 13 -16 13 -23c0 -14 -22 -40 -29 -45c-4 -3 -23 -4 -29 -1c-19 10 -49 33 -71 33c-34 0 -45 -30 -45 -49c0 -41 75 -108 111 -143c59 -56 120 -129 120 -217c0 -95 -43 -174 -73 -210c-44 -56 -83 -87 -137 -107c-16 -5 -28 -8 -49 -8
c-52 0 -66 29 -66 39c0 9 22 39 50 54c4 3 16 0 24 -5c17 -14 52 -26 69 -26c24 0 45 15 45 49c0 28 -59 95 -103 133c-54 50 -88 99 -104 129c-12 24 -20 60 -20 99c0 67 36 130 69 174c8 35 24 61 57 91c34 32 74 50 116 49zM359 91c0 75 -61 149 -113 205
c-52 54 -103 102 -124 145c-3 7 -5 1 -6 0c-7 -17 -15 -36 -15 -66c0 -64 53 -134 109 -188c64 -60 111 -119 127 -166c0 -3 3 -5 5 1c11 18 17 47 17 69z" />
    <glyph glyph-name="currency" unicode="&#xa4;" horiz-adv-x="497" 
d="M466 470l-52 -59c-1 -3 -1 -8 0 -11c19 -31 31 -70 31 -108c0 -36 -12 -73 -33 -103c-2 -2 -3 -6 -2 -7l55 -64c5 -5 3 -22 -11 -35c-7 -8 -23 -14 -28 -9l-63 60c-2 2 -8 0 -10 -1c-27 -18 -57 -32 -89 -32c-35 0 -65 10 -93 27c-2 1 -5 3 -12 -1l-55 -56
c-5 -5 -15 -4 -30 9c-16 17 -13 35 -11 38l49 54c1 2 3 7 0 11c-19 32 -30 70 -30 108c0 39 12 72 31 102c1 1 3 10 0 13l-53 63c-6 8 7 29 14 35c10 10 24 16 31 10l52 -56c3 -3 12 -5 15 -3c28 17 60 26 92 26c33 0 67 -11 96 -28c2 -1 7 -2 9 1l52 57c4 4 14 8 34 -10
c13 -11 15 -25 11 -31zM264 417c-71 0 -122 -53 -122 -126c0 -75 58 -124 122 -124c63 0 122 50 122 124c0 71 -64 126 -122 126z" />
    <glyph glyph-name="quotesingle" unicode="'" horiz-adv-x="201" 
d="M137 683c7 0 19 -10 19 -31c0 -38 -19 -145 -34 -194c-5 -14 -18 -39 -30 -39c-8 0 -19 17 -20 29c-5 49 -17 137 -25 173c0 2 3 13 8 18c15 11 58 44 82 44z" />
    <glyph glyph-name="quotedblleft" unicode="&#x201c;" horiz-adv-x="405" 
d="M126 434c-50 0 -86 38 -86 104c0 102 108 142 131 142c8 0 20 -2 20 -10c0 -10 -10 -19 -18 -21c-42 -19 -65 -47 -65 -78c0 -25 16 -37 46 -42c13 -1 32 -9 32 -39c0 -34 -31 -56 -60 -56zM303 434c-50 0 -86 39 -86 105c0 102 109 141 131 141c8 0 21 -2 21 -10
c0 -10 -9 -19 -19 -21c-42 -19 -64 -47 -64 -78c0 -25 18 -36 45 -42c13 -2 33 -9 33 -39c0 -34 -32 -56 -61 -56z" />
    <glyph glyph-name="guillemotleft" unicode="&#xab;" horiz-adv-x="685" 
d="M103 179c-11 6 -11 21 -6 24c93 51 189 120 224 149c14 12 31 23 39 23s12 -12 1 -28c-26 -40 -109 -110 -143 -141c-9 -8 -6 -13 -3 -16c48 -44 111 -103 143 -150c6 -8 13 -31 -2 -31c-4 0 -17 3 -25 10c-55 50 -142 111 -228 160zM328 179c-11 7 -11 21 -6 24
c94 53 187 119 223 149c14 12 31 23 39 23s12 -12 1 -28c-26 -39 -110 -114 -144 -143c-6 -5 -5 -10 -2 -14c47 -41 114 -103 144 -151c6 -9 7 -29 -2 -30c-3 0 -13 2 -23 10c-56 50 -152 115 -230 160z" />
    <glyph glyph-name="guilsinglleft" unicode="&#x2039;" horiz-adv-x="471" 
d="M103 179c-11 6 -11 21 -6 24c93 51 201 121 237 149c14 12 28 23 37 23c8 0 11 -10 0 -27c-26 -41 -106 -110 -148 -144c-9 -7 -4 -12 0 -15c48 -42 116 -102 148 -152c6 -9 12 -27 -4 -28c-5 -1 -19 6 -27 13c-49 43 -157 114 -237 157z" />
    <glyph glyph-name="guilsinglright" unicode="&#x203a;" horiz-adv-x="471" 
d="M368 203c12 -6 12 -21 6 -24c-93 -51 -201 -121 -237 -149c-14 -11 -28 -22 -36 -22s-11 10 -1 27c26 41 106 110 148 144c9 6 4 12 1 15c-49 42 -117 102 -149 152c-6 9 -11 26 5 28c4 1 18 -7 26 -14c50 -42 157 -114 237 -157z" />
    <glyph glyph-name="endash" unicode="&#x2013;" horiz-adv-x="547" 
d="M69 247l418 1c2 0 10 -6 10 -11c1 -22 -10 -54 -25 -54l-407 1c-8 0 -15 9 -15 15c0 17 9 48 19 48z" />
    <glyph glyph-name="dagger" unicode="&#x2020;" horiz-adv-x="447" 
d="M222 594c18 0 42 -25 42 -53c0 -38 -14 -85 -23 -150c0 -3 3 -7 8 -6c38 3 77 19 116 19c27 0 41 -22 41 -36s-17 -39 -45 -39c-35 0 -76 17 -114 20c-5 1 -7 -3 -7 -8c4 -136 20 -352 20 -379c0 -38 -24 -57 -39 -57c-13 0 -40 14 -40 54c0 39 18 267 20 383
c0 4 1 7 -5 7c-40 -2 -74 -20 -114 -20c-24 0 -46 19 -46 37s21 38 46 38c41 0 72 -19 114 -20c2 0 4 5 4 7c-6 59 -24 108 -24 148c0 33 25 55 46 55z" />
    <glyph glyph-name="daggerdbl" unicode="&#x2021;" horiz-adv-x="447" 
d="M220 593c18 0 39 -27 39 -56c0 -27 -4 -73 -7 -124c0 -4 0 -7 4 -7c40 4 71 15 102 15c28 0 44 -22 44 -35c0 -14 -15 -37 -44 -36c-28 1 -66 14 -103 17c-2 0 -6 -3 -6 -6l-3 -108c0 -4 2 -7 6 -6c46 5 75 13 108 13c26 0 42 -22 42 -33c0 -14 -16 -36 -45 -36
c-28 0 -60 13 -106 16c-4 1 -7 -3 -7 -6c-2 -121 -7 -231 -8 -249c-1 -37 -12 -45 -20 -45s-20 10 -21 47c-1 19 -3 138 -5 248c0 3 -2 5 -6 5c-40 -4 -79 -16 -103 -16c-28 0 -45 19 -45 35c0 13 17 34 44 34c28 0 69 -11 102 -13c3 0 6 3 6 7l-3 108c0 2 -2 6 -5 5
c-36 -5 -78 -17 -102 -17c-28 0 -42 21 -42 33c0 15 20 38 46 38c29 0 63 -11 97 -15c2 0 4 3 4 7c-2 47 -6 96 -6 123c0 24 18 57 43 57z" />
    <glyph glyph-name="periodcentered" unicode="&#xb7;" horiz-adv-x="240" 
d="M123 266c52 0 71 -53 71 -77c-2 -48 -38 -72 -73 -72c-31 0 -71 20 -71 75c0 56 50 74 73 74z" />
    <glyph glyph-name="paragraph" unicode="&#xb6;" horiz-adv-x="555" 
d="M471 619h36c13 0 18 -18 18 -23c0 -7 -6 -16 -11 -16h-105c-5 0 -11 -16 -11 -32c0 -299 1 -548 1 -573c0 -101 -17 -236 -145 -236c-55 0 -104 39 -104 97c0 59 41 90 84 90c28 0 51 -25 51 -47c0 -34 -29 -54 -38 -54c-12 0 -17 1 -25 6c-6 5 -9 7 -14 7
s-11 -5 -11 -14c0 -34 33 -53 65 -53c66 0 95 69 96 170c1 97 0 138 -3 166c-1 6 -6 12 -10 12c-161 1 -299 78 -299 248c0 74 25 123 73 172c44 44 121 67 162 72c30 2 160 8 190 8z" />
    <glyph glyph-name="bullet" unicode="&#x2022;" horiz-adv-x="419" 
d="M208 346c79 0 150 -68 150 -157c0 -87 -70 -154 -150 -154c-82 0 -149 67 -149 154c0 89 69 157 149 157z" />
    <glyph glyph-name="quotesinglbase" unicode="&#x201a;" horiz-adv-x="243" 
d="M111 143c50 0 89 -42 89 -111c0 -102 -114 -145 -138 -145c-7 0 -19 1 -19 12c0 10 11 16 18 20c42 19 68 47 68 78c0 26 -18 34 -40 39c-16 3 -41 17 -41 48c0 35 34 59 63 59z" />
    <glyph glyph-name="quotedblbase" unicode="&#x201e;" horiz-adv-x="453" 
d="M114 143c51 0 90 -42 90 -111c0 -100 -114 -145 -138 -145c-7 0 -20 2 -20 12s12 17 19 20c41 18 67 46 67 79c0 26 -17 32 -40 37c-16 3 -40 18 -40 50c0 35 34 58 62 58zM315 143c49 0 89 -42 89 -111c0 -102 -114 -145 -137 -145c-8 0 -21 2 -21 12s11 17 20 20
c40 18 66 47 66 79c0 27 -17 32 -39 37c-16 3 -41 15 -41 50s35 58 63 58z" />
    <glyph glyph-name="quotedblright" unicode="&#x201d;" horiz-adv-x="405" 
d="M106 680c50 0 85 -38 85 -105c0 -102 -109 -141 -131 -141c-9 0 -20 3 -20 10c0 10 9 18 17 22c43 22 65 46 65 77c0 25 -15 35 -46 43c-13 3 -31 10 -31 41c0 33 31 53 61 53zM284 680c49 0 85 -38 85 -105c0 -102 -110 -141 -132 -141c-7 0 -20 3 -20 10
c0 10 10 18 18 22c40 21 65 46 65 77c0 25 -14 34 -47 43c-12 3 -31 10 -31 41c0 33 33 53 62 53z" />
    <glyph glyph-name="guillemotright" unicode="&#xbb;" horiz-adv-x="685" 
d="M582 204c11 -6 11 -20 6 -23c-92 -52 -189 -121 -224 -150c-14 -12 -30 -22 -39 -22c-8 0 -11 11 0 27c25 40 108 111 143 141c8 8 5 13 2 16c-47 44 -112 104 -143 151c-6 9 -13 30 3 31c4 0 16 -4 24 -11c55 -50 142 -111 228 -160zM357 204c12 -7 12 -20 7 -23
c-94 -54 -188 -120 -224 -150c-14 -12 -31 -22 -39 -22s-12 10 -1 27c26 39 111 114 144 143c6 5 5 11 2 14c-46 42 -114 104 -145 152c-6 9 -6 28 3 30c4 0 14 -3 23 -11c57 -49 152 -115 230 -160z" />
    <glyph glyph-name="ellipsis" unicode="&#x2026;" horiz-adv-x="802" 
d="M126 132c50 0 69 -50 68 -74c-2 -46 -37 -69 -70 -69c-30 0 -69 19 -69 72c0 54 49 71 71 71zM393 133c50 0 69 -51 68 -75c-1 -46 -37 -70 -70 -70c-31 0 -70 19 -70 73c0 55 49 72 72 72zM668 133c50 0 69 -51 69 -75c-2 -46 -38 -70 -72 -70c-30 0 -69 19 -69 73
c0 55 49 72 72 72z" />
    <glyph glyph-name="perthousand" unicode="&#x2030;" horiz-adv-x="1060" 
d="M190 625c96 0 143 -102 143 -172c0 -93 -48 -184 -147 -184c-108 0 -146 100 -146 172c0 96 45 184 150 184zM195 297c46 0 52 73 52 142c0 54 -16 158 -69 158c-48 0 -53 -84 -53 -142c0 -49 17 -158 70 -158zM560 638c16 0 29 -16 25 -21
c-145 -227 -278 -442 -410 -645c-3 -3 -17 -1 -23 4c-8 8 -10 15 -6 22c133 212 274 428 399 627c4 5 10 13 15 13zM545 342c98 0 143 -99 143 -169c0 -96 -39 -187 -149 -187c-105 0 -144 99 -144 167c0 95 43 189 150 189zM550 13c51 0 52 99 52 142c0 55 -17 159 -67 159
c-44 0 -55 -84 -55 -142c0 -49 16 -159 70 -159zM877 342c98 0 143 -99 143 -169c0 -96 -39 -187 -149 -187c-106 0 -144 99 -144 167c0 95 43 189 150 189zM882 13c52 0 52 99 52 142c0 55 -17 159 -67 159c-42 0 -55 -84 -55 -142c0 -49 16 -159 70 -159z" />
    <glyph glyph-name="questiondown" unicode="&#xbf;" horiz-adv-x="355" 
d="M238 -154c-37 0 -80 21 -114 47c-10 8 -82 76 -82 147c0 57 19 90 41 109c23 17 71 40 91 52c21 12 24 26 26 43c1 17 19 24 25 24c5 0 13 -23 18 -42c4 -21 13 -49 13 -74c0 -41 -38 -69 -115 -103c-30 -13 -43 -24 -43 -45c0 -36 16 -54 63 -54c11 0 57 11 76 11
c16 0 46 -37 46 -70c0 -22 -23 -45 -45 -45zM194 317c-45 0 -71 36 -71 72c0 42 32 76 73 76c40 0 71 -31 71 -75s-37 -73 -73 -73z" />
    <glyph glyph-name="grave" unicode="`" 
d="M157 655c9 0 21 -14 29 -35c10 -24 38 -100 52 -145c5 -16 5 -33 -5 -33c-9 0 -20 9 -25 16c-32 41 -85 131 -94 147c-5 10 -7 22 -6 28c2 7 10 13 21 17c7 3 20 5 28 5z" />
    <glyph glyph-name="acute" unicode="&#xb4;" 
d="M246 634c3 8 17 18 29 18c13 0 41 -2 43 -15c1 -6 -1 -18 -7 -28c-19 -35 -79 -124 -101 -149c-7 -7 -17 -16 -27 -16c-9 0 -10 13 -4 31c12 37 52 129 67 159z" />
    <glyph glyph-name="circumflex" unicode="&#x2c6;" 
d="M199 651c8 0 19 -15 32 -39c11 -21 39 -72 68 -129c4 -9 14 -37 -3 -37c-9 0 -25 14 -30 21c-21 30 -44 59 -63 85c-3 4 -10 4 -12 0c-20 -27 -42 -55 -64 -86c-4 -6 -16 -18 -27 -18c-7 0 -11 15 -6 27c16 38 50 96 74 142c11 20 22 34 31 34z" />
    <glyph glyph-name="tilde" unicode="&#x2dc;" 
d="M124 511c-9 0 -21 -20 -31 -31c-4 -4 -6 -4 -9 -4c-4 0 -18 16 -18 18s33 57 73 81c6 5 15 6 17 5c21 -5 67 -10 96 -10c16 0 26 1 34 6c11 9 23 24 30 31c3 4 22 -12 22 -17c0 -3 0 -5 -4 -8c-14 -14 -64 -68 -70 -74c-5 -5 -8 -8 -13 -8c-17 0 -83 11 -127 11z" />
    <glyph glyph-name="macron" unicode="&#xaf;" 
d="M98 571l212 3c4 0 7 -15 7 -25c0 -21 -12 -41 -18 -41l-207 -1c-2 0 -8 8 -8 17c0 22 11 47 14 47z" />
    <glyph glyph-name="breve" unicode="&#x2d8;" 
d="M193 471c-51 0 -98 32 -100 116c-1 17 11 30 19 30c7 0 12 -7 14 -18c11 -46 38 -65 72 -65c29 0 62 18 77 67c2 8 15 16 23 16c6 0 9 -17 9 -19c-2 -42 -26 -127 -114 -127z" />
    <glyph glyph-name="dotaccent" unicode="&#x2d9;" 
d="M203 616c36 0 56 -37 56 -64c0 -36 -36 -59 -61 -59c-24 0 -57 17 -57 61c0 30 26 62 62 62z" />
    <glyph glyph-name="dieresis" unicode="&#xa8;" 
d="M109 605c32 0 51 -33 51 -58c0 -35 -32 -55 -57 -55c-23 0 -52 17 -52 56c0 28 23 57 58 57zM298 605c31 0 51 -33 51 -58c0 -33 -32 -55 -57 -55c-24 0 -53 18 -53 56c0 29 26 57 59 57z" />
    <glyph glyph-name="ring" unicode="&#x2da;" 
d="M200 628c50 0 83 -40 83 -83c0 -44 -33 -84 -83 -84s-83 40 -83 84c0 43 33 83 83 83zM200 594c-25 0 -43 -22 -43 -49c0 -32 19 -50 43 -50c25 0 43 17 43 51c0 26 -18 48 -43 48z" />
    <glyph glyph-name="cedilla" unicode="&#xb8;" 
d="M278 -140c0 -34 -36 -70 -60 -86c-34 -23 -50 -30 -68 -30c-7 0 -15 3 -22 13c-5 9 -3 26 4 34c6 9 11 8 15 8c11 -2 28 -5 36 -5c23 0 35 18 35 37c0 28 -29 45 -59 45c-4 0 -9 0 -15 -1c-6 0 -19 15 -19 20c0 3 1 5 8 13c25 26 65 76 82 97h34c-19 -24 -35 -46 -37 -49
c-4 -7 -3 -9 5 -14c43 -21 61 -47 61 -82z" />
    <glyph glyph-name="hungarumlaut" unicode="&#x2dd;" 
d="M169 635c16 0 40 -5 41 -17c1 -6 -2 -15 -7 -26c-21 -43 -47 -88 -69 -124c-4 -6 -13 -19 -25 -19c-8 0 -10 13 -7 28c9 39 32 114 44 140c4 9 14 18 23 18zM304 650c16 0 44 -9 44 -21c0 -6 -3 -16 -9 -27c-17 -32 -44 -87 -69 -127c-6 -9 -17 -22 -26 -22
c-11 0 -10 15 -6 31c7 36 32 111 44 146c4 12 17 20 22 20z" />
    <glyph glyph-name="ogonek" unicode="&#x2db;" 
d="M244 12h33c-52 -47 -88 -101 -88 -146c0 -23 16 -47 46 -47c17 0 41 7 53 14c6 2 11 -4 11 -9c0 -9 -7 -23 -9 -25c-16 -24 -52 -53 -102 -53c-62 0 -87 50 -87 86c0 61 56 123 143 180z" />
    <glyph glyph-name="caron" unicode="&#x2c7;" 
d="M195 446c-8 0 -19 16 -32 40c-10 21 -39 72 -68 129c-4 8 -14 36 3 36c9 0 25 -14 30 -21c23 -30 43 -59 62 -85c3 -4 11 -4 13 -1c21 30 40 54 64 88c4 6 16 17 27 17c7 0 11 -14 6 -26c-17 -42 -50 -96 -74 -142c-11 -20 -22 -35 -31 -35z" />
    <glyph glyph-name="emdash" unicode="&#x2014;" horiz-adv-x="925" 
d="M69 247l797 1c2 0 9 -6 9 -11c1 -22 -10 -54 -24 -54l-786 1c-8 0 -15 9 -15 15c0 17 9 48 19 48z" />
    <glyph glyph-name="AE" unicode="&#xc6;" horiz-adv-x="914" 
d="M491 633h227c49 0 87 8 90 8c4 0 14 -10 14 -18c0 -7 13 -91 14 -111c0 -9 -7 -23 -14 -23c-8 0 -16 11 -22 26c-17 38 -36 71 -63 75c-24 4 -114 5 -135 5c-13 0 -16 -9 -16 -15c-1 -14 -3 -141 -3 -239c0 -7 1 -19 8 -19c75 0 101 3 120 7c13 3 25 18 35 47
c6 15 16 25 24 25c6 0 12 -11 10 -26c-7 -42 -6 -110 -3 -157c0 -11 -7 -22 -13 -22c-12 0 -19 15 -22 23c-12 38 -15 57 -60 57c-20 0 -42 1 -87 1c-5 0 -10 -4 -11 -10c-1 -11 0 -146 0 -167c1 -50 21 -59 48 -61c38 0 76 -1 118 0c49 1 74 38 105 87c10 19 20 26 27 26
s13 -14 11 -33c-4 -28 -31 -101 -34 -107c-5 -9 -16 -16 -32 -16c-23 0 -200 4 -268 4c-25 0 -143 -4 -170 -4c-11 0 -27 3 -27 14c0 8 16 16 33 20c53 11 60 26 65 64c3 26 4 75 4 172c0 4 -4 9 -8 9c-49 0 -123 0 -167 -2c-2 0 -15 -8 -19 -15c-26 -46 -96 -174 -96 -194
c0 -12 16 -25 46 -33c15 -4 23 -14 23 -18c0 -8 -9 -16 -26 -16c-24 0 -58 3 -99 3c-28 0 -90 -5 -105 -5c-9 0 -22 9 -22 15c0 7 12 17 33 21c50 9 75 28 115 90c42 62 254 425 272 455c5 10 1 14 -6 16c-16 4 -55 9 -71 14c-12 3 -19 8 -19 15s10 14 31 14
c35 0 104 -2 145 -2zM466 570c0 14 -9 12 -21 -8c-30 -49 -110 -185 -133 -230c-4 -8 4 -12 9 -12h134c6 0 9 6 9 16c0 7 2 211 2 234z" />
    <glyph glyph-name="ordfeminine" unicode="&#xaa;" horiz-adv-x="293" 
d="M154 535c53 0 85 -39 85 -92c0 -16 -1 -62 -3 -91c-1 -21 13 -31 24 -31c8 0 17 2 24 7c3 2 6 -2 6 -12c0 -8 -4 -14 -6 -17c-20 -24 -43 -32 -65 -32c-21 0 -43 11 -52 31c-2 3 -5 5 -8 3c-21 -15 -55 -34 -74 -34c-28 0 -60 28 -60 66c0 27 16 42 42 52
c8 3 62 20 91 30c3 1 6 5 7 9c1 7 1 18 1 29c0 28 -21 47 -44 47c-9 0 -15 -1 -23 -5c-6 -4 -5 -17 -7 -37c0 -3 -3 -4 -7 -7c-4 -1 -37 -15 -47 -18c-5 -1 -13 2 -13 10c0 14 21 43 47 60c21 15 57 32 82 32zM100 345c0 -16 15 -31 31 -31c7 0 17 4 24 9c5 4 7 6 7 12
c1 6 1 38 1 49c0 6 -3 7 -7 5c-41 -12 -56 -26 -56 -44z" />
    <glyph glyph-name="Lslash" unicode="&#x141;" horiz-adv-x="586" 
d="M126 317c0 124 0 186 -1 219c-1 41 -8 57 -50 66c-20 4 -30 12 -30 19c0 10 10 14 27 14c27 0 80 -2 109 -2c39 0 106 4 130 4c17 0 24 -7 24 -14c0 -6 -10 -15 -26 -19c-50 -13 -56 -20 -59 -56c-1 -23 -4 -77 -4 -182c0 -4 3 -8 6 -6c41 16 98 38 138 55
c3 2 10 0 12 -3c3 -5 8 -16 8 -19c0 -5 -5 -12 -22 -19c-42 -19 -99 -42 -136 -58c-1 0 -6 -5 -6 -11c0 -142 1 -172 4 -221c1 -21 21 -40 40 -41c37 -4 115 -6 133 -5c57 2 82 51 113 98c9 14 17 19 20 19c8 0 14 -13 11 -24c-4 -16 -31 -112 -36 -127
c-4 -7 -11 -10 -23 -10c-17 0 -87 6 -289 6c-39 0 -125 -6 -164 -6c-18 0 -28 7 -28 16c0 7 10 12 25 16c50 14 62 20 68 70c3 20 4 71 5 161c0 5 -2 8 -6 7c-19 -8 -44 -16 -62 -23c-5 -1 -12 -2 -15 1c-4 5 -8 18 -8 22c0 2 1 6 5 8c27 11 56 24 81 35c3 1 6 8 6 10z" />
    <glyph glyph-name="Oslash" unicode="&#xd8;" horiz-adv-x="783" 
d="M390 650c71 0 130 -17 181 -45c3 -2 8 -1 11 3c11 14 22 28 32 40c9 12 15 16 18 16c6 0 14 -7 18 -13c3 -3 1 -10 -1 -13c-11 -15 -24 -33 -37 -51c-2 -3 -1 -7 0 -8c81 -64 125 -159 125 -255c0 -130 -58 -215 -128 -271c-57 -44 -137 -72 -217 -72
c-69 0 -134 20 -188 51c-4 3 -9 1 -11 -2c-27 -34 -44 -54 -54 -66c-2 -2 -19 -2 -24 2c-7 6 -9 16 -5 20c10 14 29 38 51 67c4 5 -1 9 -3 10c-69 60 -112 147 -112 254c0 124 58 203 128 260c45 36 131 73 216 73zM366 614c-42 0 -89 -25 -112 -48
c-35 -33 -73 -108 -73 -236c0 -66 19 -130 48 -180c2 -3 5 -3 7 -1c92 120 200 268 286 380c2 3 2 10 0 12c-37 41 -94 73 -156 73zM424 18c23 0 61 6 96 38c42 41 82 132 82 240c0 55 -17 134 -50 198c-2 3 -6 6 -8 3c-99 -131 -196 -265 -284 -379c-4 -4 -6 -8 -2 -13
c41 -50 103 -87 166 -87z" />
    <glyph glyph-name="OE" unicode="&#x152;" horiz-adv-x="1072" 
d="M389 613c-51 0 -88 -17 -123 -48c-39 -32 -85 -114 -85 -239c0 -137 80 -302 242 -302c34 0 74 13 106 36c48 39 83 117 83 247c0 114 -18 184 -74 241c-42 44 -89 65 -149 65zM740 633h140c33 0 71 2 85 5c5 2 15 -4 16 -11c0 -4 2 -89 1 -108c-1 -14 -9 -32 -18 -32
c-8 0 -15 13 -19 24c-12 35 -26 74 -44 78c-18 3 -57 6 -151 6c-6 0 -12 -6 -14 -15c-4 -25 -7 -183 -5 -230c1 -4 4 -10 11 -10h72c64 0 77 9 96 59c5 14 14 21 18 21c11 0 14 -11 13 -25c-1 -20 -4 -45 -4 -67c-1 -32 2 -63 4 -86c0 -18 -12 -29 -19 -29s-13 11 -16 22
c-15 39 -23 57 -56 60c-32 2 -23 2 -112 2c-4 0 -7 -6 -7 -8c0 -52 0 -127 1 -173c0 -25 4 -53 8 -59c11 -14 25 -22 92 -22c106 0 120 5 174 93c10 16 20 30 29 30c11 0 12 -16 12 -23c0 -8 -40 -121 -47 -129c-7 -10 -18 -11 -25 -11c-11 0 -197 5 -229 5
c-26 0 -97 -3 -122 -4c-6 0 -12 7 -12 24l1 53c1 4 -3 8 -8 3c-44 -46 -113 -95 -236 -95c-182 0 -323 153 -323 333c0 128 67 212 128 263c50 41 136 74 206 74c92 0 170 -33 226 -89c4 -5 8 -4 8 6c-1 18 -2 24 -2 41c0 16 3 24 11 24h117z" />
    <glyph glyph-name="ordmasculine" unicode="&#xba;" horiz-adv-x="335" 
d="M166 535c89 0 145 -60 145 -134c0 -69 -55 -134 -144 -134c-83 0 -143 60 -143 134c0 78 68 134 142 134zM162 509c-39 0 -52 -58 -52 -100c0 -60 27 -114 65 -114c43 0 50 65 50 103c0 56 -29 111 -63 111z" />
    <glyph glyph-name="ae" unicode="&#xe6;" horiz-adv-x="589" 
d="M32 274c0 13 14 35 36 56c35 30 68 47 103 64c22 11 39 14 47 14c53 0 84 -28 103 -52c3 -3 6 -3 10 0c46 33 76 52 120 52c86 0 115 -74 115 -118c0 -7 -10 -22 -18 -23c-21 -6 -149 -40 -188 -52c-14 -5 -17 -9 -17 -15c0 -77 2 -87 20 -108c14 -17 53 -30 78 -30
c56 0 99 31 113 44c5 5 13 -2 13 -11c0 -10 -5 -19 -11 -28c-27 -41 -86 -79 -150 -79c-62 0 -114 18 -146 57c-3 3 -10 7 -14 5c-39 -27 -83 -63 -125 -63c-36 0 -89 36 -89 98c0 41 23 64 61 77c21 9 106 39 132 49c10 3 16 9 17 14c2 52 3 94 -12 113
c-11 14 -27 24 -51 24c-15 0 -25 -7 -33 -13c-5 -3 -7 -14 -5 -30c1 -11 -1 -17 -4 -20c-2 -2 -83 -40 -92 -40c-4 0 -13 10 -13 15zM407 361c-29 0 -53 -21 -61 -34c-4 -6 -6 -14 -6 -23c1 -9 3 -40 3 -58c0 -3 6 -6 8 -5c28 7 83 25 98 32c24 11 24 26 24 33
c0 13 -13 55 -66 55zM182 49c13 0 36 7 52 24c3 4 5 16 6 23c2 22 0 66 0 81c0 3 -5 7 -10 5c-50 -18 -96 -37 -96 -79c0 -34 23 -54 48 -54z" />
    <glyph glyph-name="dotlessi" unicode="&#x131;" horiz-adv-x="272" 
d="M42 355c0 7 11 15 27 18c41 8 104 32 120 36c5 0 10 -8 10 -11c-2 -34 -5 -168 -5 -226c0 -31 1 -66 2 -101c1 -30 13 -34 39 -42c15 -5 22 -11 22 -19s-14 -13 -28 -13c-7 0 -61 3 -83 3c-32 0 -80 -4 -97 -4c-16 0 -28 6 -28 13s7 12 26 18c24 7 35 19 37 29
c4 14 6 85 6 156c0 21 0 78 -2 90c-1 8 -12 18 -34 36c-6 6 -12 11 -12 17z" />
    <glyph glyph-name="lslash" unicode="&#x142;" horiz-adv-x="275" 
d="M22 315c16 9 38 20 53 29c4 3 6 5 6 10c0 71 1 175 -2 236c0 14 -5 20 -26 36c-14 11 -18 16 -18 24c0 2 7 10 18 13c54 14 109 32 132 45c3 2 11 -6 11 -10c-2 -27 -7 -154 -8 -291c0 -6 2 -8 5 -7c17 10 36 18 51 27c4 2 8 -1 10 -3c2 -5 6 -13 6 -17
c0 -9 -4 -12 -13 -18c-15 -9 -38 -21 -53 -29c-2 -1 -6 -6 -6 -9c-1 -31 1 -247 4 -279c2 -23 7 -35 43 -47c15 -4 23 -9 23 -17c0 -9 -16 -12 -27 -12c-24 0 -85 4 -102 4c-23 0 -69 -4 -91 -4s-29 8 -29 12c0 11 14 15 24 18c34 8 39 20 42 73c2 23 5 111 6 199
c0 5 -1 7 -5 5c-13 -6 -26 -13 -37 -19c-6 -3 -13 -1 -15 1c-5 4 -8 14 -8 18c0 6 1 10 6 12z" />
    <glyph glyph-name="oslash" unicode="&#xf8;" horiz-adv-x="508" 
d="M263 407c36 0 73 -9 102 -25c1 0 6 -2 8 1l20 24c6 8 13 13 17 13c14 0 22 -18 18 -21c-11 -15 -15 -20 -26 -35c-1 -2 -1 -6 2 -8c41 -37 72 -91 72 -159c0 -81 -52 -143 -89 -167c-40 -29 -94 -42 -139 -42c-32 0 -70 11 -103 27c-3 1 -10 1 -11 -2l-33 -39
c-2 -2 -7 -1 -11 1c-11 8 -13 18 -10 21c12 16 16 21 28 36c1 2 -1 7 -2 8c-40 34 -74 90 -74 152c0 72 31 125 69 157c30 25 88 58 162 58zM188 71c20 -29 48 -50 79 -50c27 0 45 17 58 31c23 30 35 88 35 133c0 26 -4 61 -14 93c-1 4 -5 5 -6 4
c-51 -66 -101 -132 -152 -197c-3 -4 -3 -11 0 -14zM242 375c-20 0 -37 -11 -51 -24c-18 -17 -41 -68 -41 -134c0 -38 6 -72 15 -96c0 -2 6 -5 8 -3c50 66 103 133 151 198c2 3 1 9 -1 11c-17 23 -43 48 -81 48z" />
    <glyph glyph-name="oe" unicode="&#x153;" horiz-adv-x="738" 
d="M259 407c62 0 114 -31 143 -65c4 -3 11 -2 13 -1c34 33 82 65 150 65c88 0 147 -66 147 -128c0 -9 -18 -30 -36 -30h-204c-4 0 -8 -3 -9 -7c-3 -8 -4 -11 -4 -27c0 -97 61 -148 135 -148c57 0 83 26 101 43c5 4 13 4 13 -9c0 -8 -4 -20 -11 -31c-37 -51 -93 -80 -159 -80
c-55 0 -104 25 -134 60c-2 2 -6 4 -11 -1c-38 -37 -94 -60 -147 -60c-116 0 -214 91 -214 205c0 71 29 127 74 161c33 26 84 53 153 53zM238 374c-15 0 -33 -11 -44 -22c-19 -17 -42 -64 -42 -135c0 -111 47 -195 117 -195c19 0 40 12 51 27c20 33 29 87 29 140
c0 55 -17 185 -111 185zM553 376c-42 0 -73 -40 -84 -81c-2 -8 1 -13 10 -15c21 -1 54 0 94 0c21 1 40 18 40 39c0 19 -12 57 -60 57z" />
    <glyph glyph-name="germandbls" unicode="&#xdf;" horiz-adv-x="520" 
d="M327 705c112 0 146 -92 146 -142c0 -61 -19 -71 -41 -95c-14 -16 -38 -38 -53 -53c-20 -20 -30 -36 -30 -51c0 -23 11 -36 20 -43c10 -9 52 -44 68 -59c29 -27 55 -58 55 -113c0 -61 -54 -118 -109 -144c-28 -13 -55 -16 -62 -16c-23 0 -58 6 -58 38c0 10 13 31 19 37
c4 4 14 8 21 4c26 -17 51 -28 67 -28c34 0 46 20 46 44c0 33 -30 60 -91 108c-37 29 -66 65 -66 119c0 23 15 44 25 52c15 16 35 33 59 58c49 48 58 93 58 134s-27 116 -102 116c-52 0 -76 -43 -91 -111c-10 -43 -14 -171 -14 -303c0 -136 2 -176 4 -197
c2 -18 12 -24 28 -30c14 -6 21 -9 21 -17c0 -9 -11 -15 -25 -15s-47 3 -78 3c-21 0 -82 -6 -97 -6c-18 0 -25 8 -25 14c0 8 9 13 27 18c27 9 31 21 34 33c4 19 2 112 2 160c0 49 1 91 -1 104c-1 14 -6 16 -10 17c-6 0 -20 4 -32 5c-10 1 -13 16 -8 20c9 8 26 20 38 28
c7 6 14 13 14 22c0 69 25 160 80 219c37 39 88 70 161 70z" />
    <glyph glyph-name="logicalnot" unicode="&#xac;" horiz-adv-x="624" 
d="M75 349h460c8 0 12 -12 12 -21l-1 -278c0 -10 -36 -16 -52 -16c-5 0 -12 4 -12 12l-2 218c0 16 -7 25 -17 25h-382c-18 0 -21 1 -21 15s7 45 15 45z" />
    <glyph glyph-name="mu" unicode="&#xb5;" horiz-adv-x="485" 
d="M104 412c21 0 50 -11 65 -21c6 -4 10 -28 10 -33c0 -15 -16 -73 -26 -112c-9 -35 -23 -90 -27 -104c-3 -14 -3 -24 1 -35c5 -15 23 -27 38 -27c43 0 104 68 129 131c4 11 7 25 8 35c7 81 9 119 12 135c2 14 11 32 18 32c36 0 70 -19 79 -28c7 -7 9 -22 7 -45
c-6 -49 -47 -152 -69 -190c-6 -11 -4 -13 -3 -21c1 -39 38 -47 57 -47c28 0 57 17 73 29c3 6 12 0 14 -11c2 -6 -4 -46 -11 -59c-21 -39 -47 -61 -82 -61c-45 0 -69 33 -76 111c0 3 -7 5 -9 1c-52 -80 -83 -107 -121 -107c-41 0 -71 53 -79 68c-5 11 -8 -7 -9 -18
c-2 -32 -5 -107 2 -139c10 -45 64 -89 77 -96c4 -4 0 -22 -1 -25c-4 -8 -22 -27 -36 -35c-10 -6 -22 -10 -36 -10c-15 0 -25 10 -37 30s-10 70 -10 128c0 41 5 178 6 203c0 25 0 15 -1 51c-1 12 -4 204 -2 243c1 7 5 18 13 22c10 5 22 5 26 5z" />
    <glyph glyph-name="trademark" unicode="&#x2122;" horiz-adv-x="394" 
d="M53 601h93c14 0 19 1 29 6c3 1 10 -1 10 -3c-2 -7 -4 -41 -4 -44c0 -7 -10 -8 -13 -1c-4 8 -7 26 -19 26h-28v-86c0 -17 0 -21 9 -26c4 -2 12 -4 14 -6c8 -3 6 -13 -1 -13c-9 0 -29 1 -39 1c-20 0 -26 -1 -41 -1c-6 0 -10 8 -2 13c4 2 9 4 12 5c7 3 13 8 13 30v63
c0 13 -1 20 -5 20h-22c-17 0 -17 -12 -23 -21c-1 -2 -2 -5 -4 -7c-2 -1 -10 1 -10 9c0 2 2 32 2 39c1 2 8 4 11 2c4 -3 7 -5 18 -6zM357 601c3 0 43 1 48 1c11 0 10 -11 3 -14c-5 -2 -14 -4 -18 -6c-3 -3 -3 -6 -4 -13c0 -12 1 -47 2 -70c1 -21 2 -22 6 -25c5 -2 9 -3 14 -5
c9 -3 6 -14 -3 -14h-31c-9 0 -22 -1 -30 -1c-10 0 -13 9 -3 13c11 5 12 7 13 25c2 33 1 72 1 75c0 4 -2 3 -3 1c-8 -15 -29 -68 -38 -89c-5 -12 -9 -22 -10 -23c-3 -3 -9 -3 -12 0c0 0 -2 4 -8 18c-5 12 -26 60 -37 84c-1 4 -3 3 -4 0c-1 -24 -2 -48 -2 -67
c0 -14 5 -17 24 -24c10 -3 3 -13 -4 -13c-12 0 -22 1 -35 1c-11 0 -20 -1 -26 -1c-9 0 -14 9 -4 13c13 6 22 8 24 24c3 20 7 66 7 73c1 6 0 10 -3 15c-5 7 -10 6 -17 9c-13 4 -10 14 0 14c14 -1 29 -1 42 -1h9c3 0 7 -8 13 -19c7 -16 20 -39 34 -66c1 -2 3 -4 5 -1
c12 24 24 50 36 78c2 7 5 8 11 8z" />
    <glyph glyph-name="Eth" unicode="&#xd0;" horiz-adv-x="760" 
d="M47 349h68c5 0 9 6 9 10c-1 44 -1 99 -3 155c-2 64 -6 75 -61 87c-11 3 -23 10 -23 17c0 8 11 15 26 15h54c49 0 163 8 237 8c139 0 230 -61 269 -97c54 -52 92 -141 92 -218c0 -143 -89 -241 -158 -280c-59 -34 -141 -54 -227 -54c-41 0 -143 3 -202 6
c-30 1 -53 1 -69 1c-22 0 -31 8 -31 16s9 15 21 17c63 8 72 22 74 113c1 55 2 100 2 154c0 7 -2 9 -5 9h-73c-5 0 -10 11 -10 23c0 3 4 18 10 18zM397 309l-145 -1c-4 0 -7 -4 -7 -8c0 -66 -1 -139 4 -197c3 -32 8 -40 19 -51c16 -16 49 -26 72 -26c45 0 89 12 144 57
c60 51 95 135 95 244c0 74 -30 157 -81 210c-44 44 -118 69 -189 69c-23 0 -40 -3 -48 -8c-7 -5 -8 -10 -12 -20c-5 -18 -4 -169 -4 -217c0 -4 3 -12 8 -12h144c8 0 14 -6 14 -11c0 -10 -7 -29 -14 -29z" />
    <glyph glyph-name="onehalf" unicode="&#xbd;" horiz-adv-x="702" 
d="M207 613c0 -5 -1 -29 -2 -79c-1 -56 0 -125 1 -182c0 -35 5 -39 41 -50c9 -2 19 -7 19 -16c0 -7 -8 -13 -22 -13c-9 0 -63 2 -85 2c-39 0 -70 -2 -78 -2c-14 0 -28 5 -28 14c0 8 6 14 28 18c29 6 34 17 36 36c3 21 4 63 4 127c0 39 -1 59 -2 73c0 5 -4 14 -10 16
c-10 4 -18 5 -27 8c-10 2 -22 6 -22 15c0 7 13 11 21 12c43 3 97 19 116 28c5 3 10 -2 10 -7zM560 638c12 0 24 -15 19 -21c-159 -247 -310 -481 -420 -646c-1 -2 -8 -7 -14 -3c-10 6 -17 20 -11 28c141 213 309 479 407 630c8 11 13 12 19 12zM539 345
c61 0 106 -40 106 -101c0 -27 -18 -55 -49 -88c-31 -34 -55 -51 -84 -78c-5 -5 1 -8 3 -8c26 0 105 -1 110 0c7 0 19 8 35 29c4 5 10 12 15 12c9 0 13 -16 9 -25c-14 -28 -27 -77 -28 -82c-2 -5 -5 -6 -9 -6c-3 0 -125 3 -153 2h-58c-6 0 -18 10 -18 14s3 10 8 14
c26 23 64 61 94 96c26 30 38 66 38 95c0 38 -23 61 -55 61c-23 0 -45 -9 -61 -26c-7 -7 -14 -10 -19 -10c-4 0 -8 6 -8 13c0 5 2 14 11 24c29 38 71 64 113 64z" />
    <glyph glyph-name="plusminus" unicode="&#xb1;" horiz-adv-x="624" 
d="M279 545c0 8 37 15 51 15s15 -2 15 -20v-185c0 -7 4 -12 9 -12h194c13 0 15 -3 15 -12c0 -25 -8 -48 -14 -48l-194 -1c-6 0 -10 -7 -10 -13l-1 -186c0 -16 -36 -21 -52 -21c-7 0 -12 2 -12 15l-1 188c0 11 -5 17 -11 17l-194 1c-10 0 -14 7 -14 15c0 14 7 45 15 45h196
c4 0 8 6 8 11v191zM548 10c13 0 15 -3 15 -12c0 -25 -8 -48 -14 -48h-468c-18 0 -21 1 -21 15s7 45 15 45h473z" />
    <glyph glyph-name="Thorn" unicode="&#xde;" horiz-adv-x="576" 
d="M115 131c1 30 2 203 2 393c0 60 -7 64 -53 78c-13 4 -26 11 -26 19s15 14 27 14c27 0 67 -2 110 -2c36 0 80 2 113 2c15 0 27 -4 27 -14c0 -8 -9 -15 -26 -19c-50 -10 -53 -12 -53 -95c0 -5 5 -9 7 -9c10 0 49 4 84 4c102 0 208 -55 208 -178c0 -114 -85 -191 -211 -191
c-31 0 -62 6 -81 13c-3 1 -7 -2 -7 -5c0 -79 11 -88 26 -95c13 -7 32 -12 46 -16c9 -3 23 -9 23 -17c0 -10 -10 -17 -32 -17s-102 4 -147 4c-34 0 -68 -3 -97 -3c-12 0 -27 7 -27 17c0 8 12 15 26 19c51 14 58 35 61 98zM412 317c0 109 -69 148 -140 148
c-22 0 -28 -5 -31 -12c-2 -7 -5 -12 -5 -38v-216c0 -5 7 -17 12 -19c11 -3 27 -6 41 -6c64 0 123 58 123 143z" />
    <glyph glyph-name="onequarter" unicode="&#xbc;" horiz-adv-x="674" 
d="M207 613c0 -5 -1 -29 -2 -79c-1 -56 0 -125 1 -182c0 -35 5 -39 41 -50c9 -2 19 -7 19 -16c0 -7 -8 -13 -22 -13c-9 0 -63 2 -85 2c-39 0 -70 -2 -78 -2c-14 0 -28 5 -28 14c0 8 6 14 28 18c29 6 34 17 36 36c3 21 4 63 4 127c0 39 -1 59 -2 73c0 5 -4 14 -10 16
c-10 4 -18 5 -27 8c-10 2 -22 6 -22 15c0 7 13 11 21 12c43 3 97 19 116 28c5 3 10 -2 10 -7zM576 638c12 0 24 -15 19 -21c-159 -247 -310 -481 -420 -646c-1 -2 -8 -7 -14 -3c-10 6 -17 20 -11 28c141 213 309 479 407 630c8 11 13 12 19 12zM596 347c4 0 9 -6 9 -13
c0 -4 2 -148 2 -187c0 -2 1 -7 6 -7h52c3 0 5 -5 5 -9c0 -10 -4 -30 -10 -31h-48c-2 0 -4 -4 -4 -7c0 -18 2 -66 1 -88c0 -8 -3 -13 -9 -15c-5 -2 -65 -5 -69 -5s-9 4 -9 14c0 9 0 58 2 94c0 3 -2 7 -5 7c-5 0 -125 -1 -138 -2c-4 0 -10 8 -10 14c0 4 14 20 18 25
c15 18 115 135 144 172c10 13 46 38 63 38zM525 144c0 21 4 69 4 114c0 3 -5 2 -6 1c-19 -24 -64 -76 -90 -113c-2 -2 1 -6 5 -6l79 -1c6 1 8 2 8 5z" />
    <glyph glyph-name="divide" unicode="&#xf7;" horiz-adv-x="624" 
d="M311 146c32 0 56 -27 56 -55c0 -33 -24 -60 -56 -60c-34 0 -58 27 -58 60c0 28 24 55 58 55zM311 359c-29 0 -56 25 -56 56s27 59 56 59c34 0 58 -28 58 -59s-24 -56 -58 -56zM552 284c7 0 11 -1 11 -12c0 -25 -8 -48 -14 -48h-470c-15 0 -19 8 -19 15c0 13 5 45 13 45
h479z" />
    <glyph glyph-name="brokenbar" unicode="&#xa6;" horiz-adv-x="271" 
d="M99 -173v346h73v-346h-73zM99 668h73v-346h-73v346z" />
    <glyph glyph-name="degree" unicode="&#xb0;" horiz-adv-x="294" 
d="M150 636c61 0 115 -46 115 -119c0 -72 -57 -119 -119 -119c-61 0 -118 43 -118 119c0 72 60 119 122 119zM144 597c-39 0 -66 -38 -66 -80c0 -49 33 -80 75 -80c34 0 62 31 62 80c0 44 -28 80 -71 80z" />
    <glyph glyph-name="thorn" unicode="&#xfe;" horiz-adv-x="505" 
d="M74 75c0 67 -1 179 -1 216c0 77 -3 263 -5 297c-1 10 -4 18 -15 26c-22 17 -35 23 -35 28c0 8 13 17 18 19c31 8 75 16 107 32c18 9 24 12 30 12c3 0 11 -9 11 -15c-4 -76 -4 -218 -5 -318c0 -3 6 -7 8 -6c19 11 41 20 57 27c17 7 41 11 70 11c40 0 87 -24 113 -55
c28 -31 50 -77 50 -131c0 -73 -33 -132 -86 -174c-55 -44 -118 -51 -153 -51c-17 0 -36 1 -48 3c-4 1 -9 -9 -9 -14c-1 -45 1 -128 4 -150c3 -27 8 -42 48 -54c19 -6 27 -12 27 -19c0 -9 -17 -14 -28 -14c-28 0 -97 5 -133 5c-26 0 -38 -2 -82 -2c-17 0 -28 7 -28 15
c0 7 10 13 26 17c48 10 52 21 55 80c1 35 4 114 4 215zM247 349c-20 0 -41 -2 -53 -9c-4 -3 -10 -15 -11 -25c-6 -45 -6 -130 -5 -184c1 -18 5 -35 10 -45c22 -37 61 -58 82 -58c11 0 22 3 33 11c53 38 60 135 60 151c0 21 -5 77 -41 118c-23 25 -60 41 -75 41z" />
    <glyph glyph-name="threequarters" unicode="&#xbe;" horiz-adv-x="639" 
d="M154 621c58 0 90 -39 90 -70c0 -34 -29 -52 -59 -69c-2 -1 -2 -5 1 -6c51 -7 87 -30 87 -77c0 -54 -44 -96 -103 -121c-29 -14 -63 -18 -79 -18c-27 0 -60 18 -60 37c0 16 12 31 27 37c5 2 9 0 13 -4c23 -18 46 -33 72 -33c27 0 48 31 48 65c0 38 -20 71 -62 71
c-8 0 -23 -4 -35 -6c-4 -1 -10 0 -10 4c0 5 0 9 2 13c6 9 11 13 26 20c38 16 54 27 54 59c0 24 -20 46 -45 46c-19 0 -38 -11 -54 -26c-10 -11 -17 -11 -18 -7c-3 3 -6 14 -5 16c15 28 56 69 110 69zM546 638c12 0 24 -15 19 -21c-159 -247 -310 -481 -420 -646
c-1 -2 -8 -7 -14 -3c-10 6 -17 20 -11 28c141 213 309 479 407 630c8 11 13 12 19 12zM561 347c4 0 9 -6 9 -13c0 -4 2 -148 2 -187c0 -2 1 -7 6 -7h52c3 0 5 -5 5 -9c0 -10 -4 -30 -10 -31h-48c-2 0 -4 -4 -4 -7c0 -18 2 -66 1 -88c0 -8 -3 -13 -9 -15c-5 -2 -65 -5 -69 -5
s-9 4 -9 14c0 9 0 58 2 94c0 3 -2 7 -5 7c-5 0 -125 -1 -138 -2c-4 0 -10 8 -10 14c0 4 14 20 18 25c15 18 115 135 144 172c10 13 46 38 63 38zM490 144c0 21 4 69 4 114c0 3 -5 2 -6 1c-19 -24 -64 -76 -90 -113c-2 -2 1 -6 5 -6l79 -1c6 1 8 2 8 5z" />
    <glyph glyph-name="registered" unicode="&#xae;" horiz-adv-x="242" 
d="M97 504v52c0 15 -3 16 -11 19c-12 5 -6 9 -1 10c21 2 32 3 50 3c27 0 45 -12 45 -31c0 -16 -15 -20 -19 -22c-1 -1 -2 -2 -1 -4c18 -32 27 -42 33 -46c4 -2 7 -5 7 -6c0 -2 -6 -5 -15 -5c-12 0 -22 5 -28 15c-6 9 -13 21 -18 30c-1 3 -4 4 -9 4c-7 0 -7 -1 -7 -4v-11
c0 -16 1 -16 16 -22c7 -3 6 -9 0 -9h-28h-26c-5 0 -8 6 -2 8c10 4 14 8 14 19zM123 571v-31c0 -4 0 -4 9 -4c15 0 19 7 19 18s-6 22 -18 22c-8 0 -10 -1 -10 -5zM133 644c65 0 113 -50 113 -114c0 -53 -40 -116 -115 -116c-64 0 -112 51 -112 116c0 60 48 114 114 114z
M133 625c-52 1 -92 -40 -92 -95c0 -54 40 -95 92 -95c53 0 91 41 91 95c0 55 -43 95 -91 95z" />
    <glyph glyph-name="minus" unicode="&#x2212;" horiz-adv-x="624" 
d="M554 285c4 0 9 -6 9 -12c0 -25 -7 -49 -13 -49h-474c-9 0 -16 6 -16 17c0 13 7 44 15 44h479z" />
    <glyph glyph-name="eth" unicode="&#xf0;" horiz-adv-x="499" 
d="M63 689c0 10 14 18 24 18c63 -1 149 -44 212 -88c3 -2 14 -2 16 -1c34 18 67 35 100 52c6 2 10 0 10 -4c3 -6 6 -15 5 -19c0 -7 -4 -13 -16 -19c-23 -12 -45 -23 -69 -36c-3 -2 -3 -9 -2 -11c79 -87 122 -208 122 -318c0 -133 -53 -207 -100 -237
c-37 -25 -76 -38 -116 -38c-136 0 -218 93 -218 206c0 59 25 104 37 122c38 54 107 94 197 94c18 0 42 -5 54 -8c4 0 8 4 7 8c-7 40 -24 89 -58 133c-2 3 -6 4 -10 3c-32 -15 -75 -36 -109 -52c-4 -3 -14 -4 -17 0c-2 3 -9 12 -9 17c1 4 3 7 7 10c34 18 67 35 101 52
c3 1 5 6 2 9c-47 44 -102 83 -152 94c-5 1 -18 6 -18 13zM253 374c-25 0 -51 -19 -66 -40c-17 -27 -33 -67 -33 -137c0 -85 47 -175 108 -175c33 0 46 21 64 53c13 25 24 91 24 136c0 75 -10 105 -23 123c-17 20 -45 40 -74 40z" />
    <glyph glyph-name="multiply" unicode="&#xd7;" horiz-adv-x="624" 
d="M88 430c-6 5 13 31 24 42c5 5 15 9 21 3l175 -175c4 -4 10 -3 15 1l168 174c5 5 14 4 17 1c19 -19 25 -35 21 -39l-174 -179c-3 -2 0 -10 3 -13l174 -173c12 -13 -7 -37 -19 -49c-5 -5 -11 -7 -20 2l-179 179c-6 6 -11 6 -15 1l-165 -166c-7 -7 -18 -11 -23 -6
c-11 10 -26 34 -21 40l170 171c1 2 4 9 0 12z" />
    <glyph glyph-name="copyright" unicode="&#xa9;" horiz-adv-x="705" 
d="M353 632c177 0 311 -142 311 -315c0 -167 -133 -316 -311 -316c-187 0 -312 146 -312 316c0 173 139 315 312 315zM353 601c-155 0 -275 -124 -275 -283c0 -155 129 -286 275 -286c153 0 273 130 273 286c0 159 -121 283 -273 283zM375 497c27 0 51 -4 63 -7
c12 -2 35 -8 49 -10c2 -2 8 -11 9 -24c1 -14 1 -31 1 -45c0 -13 -6 -22 -11 -22c-9 0 -12 12 -15 19c-14 37 -53 63 -91 63c-69 0 -111 -70 -111 -137c0 -117 75 -159 116 -159c51 0 77 34 92 59c9 15 16 24 24 24c4 0 7 -9 7 -15c-2 -18 -11 -49 -18 -62
c-5 -9 -18 -19 -24 -21c-10 -5 -45 -15 -93 -15c-67 0 -125 28 -153 60c-21 24 -44 62 -44 118c0 64 36 109 60 127c43 37 101 47 139 47z" />
    <glyph glyph-name="Aacute" unicode="&#xc1;" horiz-adv-x="677" 
d="M356 650c5 0 9 -2 17 -22c9 -24 27 -75 40 -112c55 -155 123 -336 143 -386c33 -81 55 -91 89 -101c17 -5 26 -11 26 -18s-10 -15 -33 -15c-25 0 -100 4 -131 4c-33 0 -72 -2 -98 -2c-20 0 -32 6 -32 15c0 5 7 13 26 17c41 10 42 26 40 42c-2 26 -23 82 -46 146
c-1 4 -12 15 -24 15c-106 1 -154 -2 -168 -3c-3 0 -9 -7 -11 -10c-32 -80 -43 -125 -43 -145s10 -34 47 -44c20 -5 29 -11 29 -20c0 -8 -14 -13 -30 -13c-18 0 -43 2 -80 2c-39 0 -84 -4 -99 -4c-23 0 -29 6 -29 12c0 7 4 14 25 20c51 14 62 30 91 89c24 48 132 333 174 432
c1 2 5 14 5 18c0 3 -1 6 2 8c14 14 45 51 52 62c6 9 13 13 18 13zM371 281c1 0 5 4 4 8c-15 47 -59 168 -73 201c-2 7 -8 5 -11 -3c-18 -48 -66 -174 -72 -198c-1 -5 3 -10 7 -10c39 1 113 2 145 2zM433 808c9 7 26 8 32 6c17 -8 41 -27 41 -39c0 -8 -12 -21 -23 -26
c-54 -26 -117 -54 -161 -69c-6 -2 -25 -8 -34 1c-4 2 2 17 12 26c36 33 92 72 133 101z" />
    <glyph glyph-name="Acircumflex" unicode="&#xc2;" horiz-adv-x="677" 
d="M356 650c5 0 9 -2 17 -22c9 -24 27 -75 40 -112c55 -155 123 -336 143 -386c33 -81 55 -91 89 -101c17 -5 26 -11 26 -18s-10 -15 -33 -15c-25 0 -100 4 -131 4c-33 0 -72 -2 -98 -2c-20 0 -32 6 -32 15c0 5 7 13 26 17c41 10 42 26 40 42c-2 26 -23 82 -46 146
c-1 4 -12 15 -24 15c-106 1 -154 -2 -168 -3c-3 0 -9 -7 -11 -10c-32 -80 -43 -125 -43 -145s10 -34 47 -44c20 -5 29 -11 29 -20c0 -8 -14 -13 -30 -13c-18 0 -43 2 -80 2c-39 0 -84 -4 -99 -4c-23 0 -29 6 -29 12c0 7 4 14 25 20c51 14 62 30 91 89c24 48 132 333 174 432
c1 2 5 14 5 18c0 3 -1 6 2 8c14 14 45 51 52 62c6 9 13 13 18 13zM371 281c1 0 5 4 4 8c-15 47 -59 168 -73 201c-2 7 -8 5 -11 -3c-18 -48 -66 -174 -72 -198c-1 -5 3 -10 7 -10c39 1 113 2 145 2zM345 800c8 0 23 -10 41 -25c14 -14 46 -45 86 -80c7 -5 22 -29 0 -29
c-10 0 -25 6 -32 9c-32 15 -63 32 -90 47c-7 3 -13 2 -18 -1c-22 -12 -60 -28 -91 -44c-7 -4 -23 -10 -30 -10c-11 0 -14 13 8 33c24 21 60 53 86 76c15 13 33 24 40 24z" />
    <glyph glyph-name="Adieresis" unicode="&#xc4;" horiz-adv-x="677" 
d="M356 650c5 0 9 -2 17 -22c9 -24 27 -75 40 -112c55 -155 123 -336 143 -386c33 -81 55 -91 89 -101c17 -5 26 -11 26 -18s-10 -15 -33 -15c-25 0 -100 4 -131 4c-33 0 -72 -2 -98 -2c-20 0 -32 6 -32 15c0 5 7 13 26 17c41 10 42 26 40 42c-2 26 -23 82 -46 146
c-1 4 -12 15 -24 15c-106 1 -154 -2 -168 -3c-3 0 -9 -7 -11 -10c-32 -80 -43 -125 -43 -145s10 -34 47 -44c20 -5 29 -11 29 -20c0 -8 -14 -13 -30 -13c-18 0 -43 2 -80 2c-39 0 -84 -4 -99 -4c-23 0 -29 6 -29 12c0 7 4 14 25 20c51 14 62 30 91 89c24 48 132 333 174 432
c1 2 5 14 5 18c0 3 -1 6 2 8c14 14 45 51 52 62c6 9 13 13 18 13zM371 281c1 0 5 4 4 8c-15 47 -59 168 -73 201c-2 7 -8 5 -11 -3c-18 -48 -66 -174 -72 -198c-1 -5 3 -10 7 -10c39 1 113 2 145 2zM247 793c31 0 49 -32 49 -59c0 -32 -31 -53 -56 -53c-21 0 -50 17 -50 56
c0 27 26 56 57 56zM453 793c31 0 49 -33 49 -59c0 -31 -31 -53 -55 -53c-23 0 -51 18 -51 55c0 29 25 57 57 57z" />
    <glyph glyph-name="Agrave" unicode="&#xc0;" horiz-adv-x="677" 
d="M356 650c5 0 9 -2 17 -22c9 -24 27 -75 40 -112c55 -155 123 -336 143 -386c33 -81 55 -91 89 -101c17 -5 26 -11 26 -18s-10 -15 -33 -15c-25 0 -100 4 -131 4c-33 0 -72 -2 -98 -2c-20 0 -32 6 -32 15c0 5 7 13 26 17c41 10 42 26 40 42c-2 26 -23 82 -46 146
c-1 4 -12 15 -24 15c-106 1 -154 -2 -168 -3c-3 0 -9 -7 -11 -10c-32 -80 -43 -125 -43 -145s10 -34 47 -44c20 -5 29 -11 29 -20c0 -8 -14 -13 -30 -13c-18 0 -43 2 -80 2c-39 0 -84 -4 -99 -4c-23 0 -29 6 -29 12c0 7 4 14 25 20c51 14 62 30 91 89c24 48 132 333 174 432
c1 2 5 14 5 18c0 3 -1 6 2 8c14 14 45 51 52 62c6 9 13 13 18 13zM371 281c1 0 5 4 4 8c-15 47 -59 168 -73 201c-2 7 -8 5 -11 -3c-18 -48 -66 -174 -72 -198c-1 -5 3 -10 7 -10c39 1 113 2 145 2zM224 825c5 0 14 -3 42 -25c46 -37 75 -60 113 -95c6 -4 17 -18 12 -23
c-7 -10 -30 -5 -39 -1c-53 23 -137 62 -157 74c-14 9 -21 19 -21 25c0 9 13 20 26 31c6 7 18 14 24 14z" />
    <glyph glyph-name="Aring" unicode="&#xc5;" horiz-adv-x="677" 
d="M356 650c5 0 9 -2 17 -22c9 -24 27 -75 40 -112c55 -155 123 -336 143 -386c33 -81 55 -91 89 -101c17 -5 26 -11 26 -18s-10 -15 -33 -15c-25 0 -100 4 -131 4c-33 0 -72 -2 -98 -2c-20 0 -32 6 -32 15c0 5 7 13 26 17c41 10 42 26 40 42c-2 26 -23 82 -46 146
c-1 4 -12 15 -24 15c-106 1 -154 -2 -168 -3c-3 0 -9 -7 -11 -10c-32 -80 -43 -125 -43 -145s10 -34 47 -44c20 -5 29 -11 29 -20c0 -8 -14 -13 -30 -13c-18 0 -43 2 -80 2c-39 0 -84 -4 -99 -4c-23 0 -29 6 -29 12c0 7 4 14 25 20c51 14 62 30 91 89c24 48 132 333 174 432
c1 2 5 14 5 18c0 3 -1 6 2 8c14 14 45 51 52 62c6 9 13 13 18 13zM371 281c1 0 5 4 4 8c-15 47 -59 168 -73 201c-2 7 -8 5 -11 -3c-18 -48 -66 -174 -72 -198c-1 -5 3 -10 7 -10c39 1 113 2 145 2zM341 825c48 0 81 -38 81 -81c0 -42 -33 -80 -81 -80s-81 38 -81 80
c0 43 33 81 81 81zM341 792c-23 0 -41 -21 -41 -48c0 -30 19 -47 41 -47c24 0 41 16 41 49c0 25 -17 46 -41 46z" />
    <glyph glyph-name="Atilde" unicode="&#xc3;" horiz-adv-x="677" 
d="M356 650c5 0 9 -2 17 -22c9 -24 27 -75 40 -112c55 -155 123 -336 143 -386c33 -81 55 -91 89 -101c17 -5 26 -11 26 -18s-10 -15 -33 -15c-25 0 -100 4 -131 4c-33 0 -72 -2 -98 -2c-20 0 -32 6 -32 15c0 5 7 13 26 17c41 10 42 26 40 42c-2 26 -23 82 -46 146
c-1 4 -12 15 -24 15c-106 1 -154 -2 -168 -3c-3 0 -9 -7 -11 -10c-32 -80 -43 -125 -43 -145s10 -34 47 -44c20 -5 29 -11 29 -20c0 -8 -14 -13 -30 -13c-18 0 -43 2 -80 2c-39 0 -84 -4 -99 -4c-23 0 -29 6 -29 12c0 7 4 14 25 20c51 14 62 30 91 89c24 48 132 333 174 432
c1 2 5 14 5 18c0 3 -1 6 2 8c14 14 45 51 52 62c6 9 13 13 18 13zM371 281c1 0 5 4 4 8c-15 47 -59 168 -73 201c-2 7 -8 5 -11 -3c-18 -48 -66 -174 -72 -198c-1 -5 3 -10 7 -10c39 1 113 2 145 2zM214 705c10 16 33 45 44 55c6 6 11 10 26 10c45 0 124 -6 147 -4
c17 2 26 11 40 32c3 4 6 7 10 7c5 0 13 -10 16 -15c2 -5 -1 -12 -6 -17c-14 -15 -45 -56 -58 -67c-13 -10 -13 -8 -19 -8c-30 0 -137 11 -153 6c-9 -2 -22 -14 -34 -31c-4 -5 -7 -8 -9 -8c-11 0 -17 9 -17 12c0 4 3 11 13 28z" />
    <glyph glyph-name="Ccedilla" unicode="&#xc7;" horiz-adv-x="710" 
d="M426 650c46 0 94 -7 130 -16c24 -6 49 -12 72 -15c7 0 15 -12 15 -27c1 -28 3 -63 5 -92c1 -21 -6 -38 -17 -38c-5 0 -14 12 -19 27c-10 31 -25 58 -42 71c-43 36 -94 58 -148 58c-159 0 -234 -126 -234 -278c0 -67 13 -123 35 -167c55 -111 142 -151 223 -151
c13 0 63 6 99 26c37 21 62 47 85 88c12 22 19 31 28 31c10 0 10 -26 7 -37c-5 -25 -22 -66 -29 -85c-5 -16 -18 -26 -37 -34c-13 -5 -70 -24 -148 -28c-13 -16 -21 -27 -22 -30c-4 -6 -3 -9 6 -14c44 -23 64 -49 64 -86c0 -36 -39 -74 -63 -91c-36 -24 -53 -31 -73 -31
c-8 0 -16 2 -23 13c-6 10 -2 26 4 35c7 9 13 9 19 8c10 -1 27 -4 36 -4c24 0 37 19 37 39c0 30 -31 47 -62 47c-5 0 -10 0 -18 -1c-5 0 -18 15 -18 20c0 4 0 7 8 14c19 21 47 55 68 80c-143 3 -244 67 -284 113c-38 44 -84 114 -84 225c0 121 68 206 110 240
c85 70 188 90 270 90z" />
    <glyph glyph-name="Eacute" unicode="&#xc9;" horiz-adv-x="587" 
d="M250 633h150c33 0 74 4 88 6c4 1 11 -6 12 -13c1 -18 1 -87 1 -107c0 -14 -7 -28 -16 -28s-17 15 -19 25c-13 56 -41 71 -64 75c-19 3 -62 7 -139 6c-4 0 -12 -4 -13 -28c-2 -25 -5 -164 -4 -219c0 -3 4 -10 10 -10h80c71 0 69 4 88 48c6 15 13 26 22 26
c8 0 11 -17 10 -28c-2 -28 -4 -46 -4 -69c0 -27 2 -43 4 -68c1 -18 -5 -30 -13 -30s-16 12 -19 22c-13 44 -26 51 -65 54c-32 3 -69 3 -100 3c-4 0 -13 -10 -13 -12c-4 -28 -3 -106 -2 -139c1 -24 0 -61 4 -82c3 -9 12 -22 22 -24c16 -3 47 -6 81 -6c30 0 67 0 92 9
c30 11 57 35 79 74c14 26 23 35 31 35c10 0 9 -21 8 -29c0 -8 -29 -100 -38 -116c-3 -7 -19 -13 -24 -13c-11 0 -258 5 -333 5c-67 0 -78 -5 -114 -5c-19 0 -34 3 -34 13c0 9 13 16 30 20c51 12 64 22 68 76c3 42 8 118 8 242c0 118 1 164 -1 193c-2 36 -10 56 -53 64
c-21 4 -32 8 -32 18c0 9 17 15 31 15c47 0 129 -3 181 -3zM378 810c9 7 26 8 32 6c17 -8 41 -27 41 -39c0 -8 -12 -21 -23 -26c-54 -26 -117 -54 -161 -69c-6 -2 -25 -8 -34 1c-4 2 2 17 12 26c36 33 92 72 133 101z" />
    <glyph glyph-name="Ecircumflex" unicode="&#xca;" horiz-adv-x="587" 
d="M250 633h150c33 0 74 4 88 6c4 1 11 -6 12 -13c1 -18 1 -87 1 -107c0 -14 -7 -28 -16 -28s-17 15 -19 25c-13 56 -41 71 -64 75c-19 3 -62 7 -139 6c-4 0 -12 -4 -13 -28c-2 -25 -5 -164 -4 -219c0 -3 4 -10 10 -10h80c71 0 69 4 88 48c6 15 13 26 22 26
c8 0 11 -17 10 -28c-2 -28 -4 -46 -4 -69c0 -27 2 -43 4 -68c1 -18 -5 -30 -13 -30s-16 12 -19 22c-13 44 -26 51 -65 54c-32 3 -69 3 -100 3c-4 0 -13 -10 -13 -12c-4 -28 -3 -106 -2 -139c1 -24 0 -61 4 -82c3 -9 12 -22 22 -24c16 -3 47 -6 81 -6c30 0 67 0 92 9
c30 11 57 35 79 74c14 26 23 35 31 35c10 0 9 -21 8 -29c0 -8 -29 -100 -38 -116c-3 -7 -19 -13 -24 -13c-11 0 -258 5 -333 5c-67 0 -78 -5 -114 -5c-19 0 -34 3 -34 13c0 9 13 16 30 20c51 12 64 22 68 76c3 42 8 118 8 242c0 118 1 164 -1 193c-2 36 -10 56 -53 64
c-21 4 -32 8 -32 18c0 9 17 15 31 15c47 0 129 -3 181 -3zM299 823c8 0 23 -10 41 -25c14 -14 46 -45 86 -80c7 -5 22 -29 0 -29c-10 0 -25 6 -32 9c-32 15 -63 32 -90 47c-7 3 -13 2 -18 -1c-22 -12 -60 -28 -91 -44c-7 -4 -23 -10 -30 -10c-11 0 -14 13 8 33
c24 21 60 53 86 76c15 13 33 24 40 24z" />
    <glyph glyph-name="Edieresis" unicode="&#xcb;" horiz-adv-x="587" 
d="M250 633h150c33 0 74 4 88 6c4 1 11 -6 12 -13c1 -18 1 -87 1 -107c0 -14 -7 -28 -16 -28s-17 15 -19 25c-13 56 -41 71 -64 75c-19 3 -62 7 -139 6c-4 0 -12 -4 -13 -28c-2 -25 -5 -164 -4 -219c0 -3 4 -10 10 -10h80c71 0 69 4 88 48c6 15 13 26 22 26
c8 0 11 -17 10 -28c-2 -28 -4 -46 -4 -69c0 -27 2 -43 4 -68c1 -18 -5 -30 -13 -30s-16 12 -19 22c-13 44 -26 51 -65 54c-32 3 -69 3 -100 3c-4 0 -13 -10 -13 -12c-4 -28 -3 -106 -2 -139c1 -24 0 -61 4 -82c3 -9 12 -22 22 -24c16 -3 47 -6 81 -6c30 0 67 0 92 9
c30 11 57 35 79 74c14 26 23 35 31 35c10 0 9 -21 8 -29c0 -8 -29 -100 -38 -116c-3 -7 -19 -13 -24 -13c-11 0 -258 5 -333 5c-67 0 -78 -5 -114 -5c-19 0 -34 3 -34 13c0 9 13 16 30 20c51 12 64 22 68 76c3 42 8 118 8 242c0 118 1 164 -1 193c-2 36 -10 56 -53 64
c-21 4 -32 8 -32 18c0 9 17 15 31 15c47 0 129 -3 181 -3zM197 806c31 0 49 -32 49 -59c0 -32 -31 -53 -56 -53c-21 0 -50 17 -50 56c0 27 26 56 57 56zM403 806c31 0 49 -33 49 -59c0 -31 -31 -53 -55 -53c-23 0 -51 18 -51 55c0 29 25 57 57 57z" />
    <glyph glyph-name="Egrave" unicode="&#xc8;" horiz-adv-x="587" 
d="M250 633h150c33 0 74 4 88 6c4 1 11 -6 12 -13c1 -18 1 -87 1 -107c0 -14 -7 -28 -16 -28s-17 15 -19 25c-13 56 -41 71 -64 75c-19 3 -62 7 -139 6c-4 0 -12 -4 -13 -28c-2 -25 -5 -164 -4 -219c0 -3 4 -10 10 -10h80c71 0 69 4 88 48c6 15 13 26 22 26
c8 0 11 -17 10 -28c-2 -28 -4 -46 -4 -69c0 -27 2 -43 4 -68c1 -18 -5 -30 -13 -30s-16 12 -19 22c-13 44 -26 51 -65 54c-32 3 -69 3 -100 3c-4 0 -13 -10 -13 -12c-4 -28 -3 -106 -2 -139c1 -24 0 -61 4 -82c3 -9 12 -22 22 -24c16 -3 47 -6 81 -6c30 0 67 0 92 9
c30 11 57 35 79 74c14 26 23 35 31 35c10 0 9 -21 8 -29c0 -8 -29 -100 -38 -116c-3 -7 -19 -13 -24 -13c-11 0 -258 5 -333 5c-67 0 -78 -5 -114 -5c-19 0 -34 3 -34 13c0 9 13 16 30 20c51 12 64 22 68 76c3 42 8 118 8 242c0 118 1 164 -1 193c-2 36 -10 56 -53 64
c-21 4 -32 8 -32 18c0 9 17 15 31 15c47 0 129 -3 181 -3zM189 831c5 0 14 -3 42 -25c46 -37 75 -60 113 -95c6 -4 17 -18 12 -23c-7 -10 -30 -5 -39 -1c-53 23 -137 62 -157 74c-14 9 -21 19 -21 25c0 9 13 20 26 31c6 7 18 14 24 14z" />
    <glyph glyph-name="Iacute" unicode="&#xcd;" horiz-adv-x="369" 
d="M124 334c0 51 0 155 -3 193c-3 48 -3 63 -52 75c-24 6 -30 13 -30 20c0 8 14 14 32 14c29 0 81 -3 114 -3c49 0 84 3 119 3c17 0 31 -4 31 -14c0 -9 -14 -17 -31 -20c-50 -9 -53 -35 -55 -61c-3 -25 -4 -60 -4 -232c0 -121 1 -164 3 -194c4 -59 10 -71 66 -86
c18 -4 28 -11 28 -21s-19 -13 -31 -13c-40 0 -108 6 -150 5c-29 0 -59 -3 -96 -3c-24 0 -31 7 -31 17c0 7 9 14 30 19c46 11 53 32 55 75c3 38 5 141 5 226zM280 818c9 7 26 8 32 6c17 -8 41 -27 41 -39c0 -8 -12 -21 -23 -26c-54 -26 -117 -54 -161 -69c-6 -2 -25 -8 -34 1
c-4 2 2 17 12 26c36 33 92 72 133 101z" />
    <glyph glyph-name="Icircumflex" unicode="&#xce;" horiz-adv-x="369" 
d="M124 334c0 51 0 155 -3 193c-3 48 -3 63 -52 75c-24 6 -30 13 -30 20c0 8 14 14 32 14c29 0 81 -3 114 -3c49 0 84 3 119 3c17 0 31 -4 31 -14c0 -9 -14 -17 -31 -20c-50 -9 -53 -35 -55 -61c-3 -25 -4 -60 -4 -232c0 -121 1 -164 3 -194c4 -59 10 -71 66 -86
c18 -4 28 -11 28 -21s-19 -13 -31 -13c-40 0 -108 6 -150 5c-29 0 -59 -3 -96 -3c-24 0 -31 7 -31 17c0 7 9 14 30 19c46 11 53 32 55 75c3 38 5 141 5 226zM186 820c8 0 23 -10 41 -25c14 -14 46 -45 86 -80c7 -5 22 -29 0 -29c-10 0 -25 6 -32 9c-32 15 -63 32 -90 47
c-7 3 -13 2 -18 -1c-22 -12 -60 -28 -91 -44c-7 -4 -23 -10 -30 -10c-11 0 -14 13 8 33c24 21 60 53 86 76c15 13 33 24 40 24z" />
    <glyph glyph-name="Idieresis" unicode="&#xcf;" horiz-adv-x="369" 
d="M124 334c0 51 0 155 -3 193c-3 48 -3 63 -52 75c-24 6 -30 13 -30 20c0 8 14 14 32 14c29 0 81 -3 114 -3c49 0 84 3 119 3c17 0 31 -4 31 -14c0 -9 -14 -17 -31 -20c-50 -9 -53 -35 -55 -61c-3 -25 -4 -60 -4 -232c0 -121 1 -164 3 -194c4 -59 10 -71 66 -86
c18 -4 28 -11 28 -21s-19 -13 -31 -13c-40 0 -108 6 -150 5c-29 0 -59 -3 -96 -3c-24 0 -31 7 -31 17c0 7 9 14 30 19c46 11 53 32 55 75c3 38 5 141 5 226zM88 804c31 0 49 -32 49 -59c0 -32 -31 -53 -56 -53c-21 0 -50 17 -50 56c0 27 26 56 57 56zM294 804
c31 0 49 -33 49 -59c0 -31 -31 -53 -55 -53c-23 0 -51 18 -51 55c0 29 25 57 57 57z" />
    <glyph glyph-name="Igrave" unicode="&#xcc;" horiz-adv-x="369" 
d="M124 334c0 51 0 155 -3 193c-3 48 -3 63 -52 75c-24 6 -30 13 -30 20c0 8 14 14 32 14c29 0 81 -3 114 -3c49 0 84 3 119 3c17 0 31 -4 31 -14c0 -9 -14 -17 -31 -20c-50 -9 -53 -35 -55 -61c-3 -25 -4 -60 -4 -232c0 -121 1 -164 3 -194c4 -59 10 -71 66 -86
c18 -4 28 -11 28 -21s-19 -13 -31 -13c-40 0 -108 6 -150 5c-29 0 -59 -3 -96 -3c-24 0 -31 7 -31 17c0 7 9 14 30 19c46 11 53 32 55 75c3 38 5 141 5 226zM77 832c5 0 14 -3 42 -25c46 -37 75 -60 113 -95c6 -4 17 -18 12 -23c-7 -10 -30 -5 -39 -1
c-53 23 -137 62 -157 74c-14 9 -21 19 -21 25c0 9 13 20 26 31c6 7 18 14 24 14z" />
    <glyph glyph-name="Ntilde" unicode="&#xd1;" horiz-adv-x="772" 
d="M22 622c0 8 12 15 30 15c22 0 101 -4 152 -4c5 0 19 -10 22 -13c15 -18 43 -49 84 -97c49 -60 245 -263 298 -319c5 -5 9 4 9 6c5 29 2 142 2 226c0 34 -3 81 -6 107c-2 20 -12 43 -62 56c-20 5 -33 11 -33 23c0 7 11 12 29 12c25 0 48 -1 68 -1c48 0 89 5 115 5
c17 0 24 -6 24 -13c0 -6 -7 -15 -25 -20c-52 -17 -57 -35 -62 -75c-3 -36 -10 -289 -10 -374c0 -42 6 -130 6 -156c0 -9 -11 -19 -16 -19c-21 0 -45 26 -54 38c-19 25 -38 48 -65 81c-94 115 -257 287 -346 392c-5 6 -11 -2 -11 -5c-2 -27 -4 -50 -5 -129
c-1 -139 -3 -215 2 -264c4 -32 15 -49 63 -64c21 -6 28 -13 28 -19c0 -11 -14 -15 -33 -15c-29 0 -52 4 -87 4c-22 0 -78 -3 -95 -3c-14 0 -26 5 -26 13c0 10 12 15 22 18c46 14 70 22 73 97c5 112 18 304 18 376c0 40 -3 52 -6 56c-18 22 -25 36 -77 48
c-11 2 -26 10 -26 17zM272 718c10 16 33 45 44 55c6 6 11 10 26 10c45 0 124 -6 147 -4c17 2 26 11 40 32c3 4 6 7 10 7c5 0 13 -10 16 -15c2 -5 -1 -12 -6 -17c-14 -15 -45 -56 -58 -67c-13 -10 -13 -8 -19 -8c-30 0 -137 11 -153 6c-9 -2 -22 -14 -34 -31
c-4 -5 -7 -8 -9 -8c-11 0 -17 9 -17 12c0 4 3 11 13 28z" />
    <glyph glyph-name="Oacute" unicode="&#xd3;" horiz-adv-x="783" 
d="M388 650c221 0 349 -164 349 -324c0 -131 -56 -216 -126 -272c-57 -44 -142 -72 -219 -72c-105 0 -197 40 -260 107c-54 58 -86 137 -86 229c0 122 54 200 129 260c45 35 129 72 213 72zM364 615c-45 0 -90 -28 -113 -51c-34 -33 -70 -105 -70 -224
c0 -154 94 -321 240 -321c55 0 89 28 102 41c42 42 77 128 77 235c0 79 -31 199 -104 266c-34 30 -88 54 -132 54zM457 832c9 7 26 8 32 6c17 -8 41 -27 41 -39c0 -8 -12 -21 -23 -26c-54 -26 -117 -54 -161 -69c-6 -2 -25 -8 -34 1c-4 2 2 17 12 26c36 33 92 72 133 101z
" />
    <glyph glyph-name="Ocircumflex" unicode="&#xd4;" horiz-adv-x="783" 
d="M388 650c221 0 349 -164 349 -324c0 -131 -56 -216 -126 -272c-57 -44 -142 -72 -219 -72c-105 0 -197 40 -260 107c-54 58 -86 137 -86 229c0 122 54 200 129 260c45 35 129 72 213 72zM364 615c-45 0 -90 -28 -113 -51c-34 -33 -70 -105 -70 -224
c0 -154 94 -321 240 -321c55 0 89 28 102 41c42 42 77 128 77 235c0 79 -31 199 -104 266c-34 30 -88 54 -132 54zM388 831c8 0 23 -10 41 -25c14 -14 46 -45 86 -80c7 -5 22 -29 0 -29c-10 0 -25 6 -32 9c-32 15 -63 32 -90 47c-7 3 -13 2 -18 -1c-22 -12 -60 -28 -91 -44
c-7 -4 -23 -10 -30 -10c-11 0 -14 13 8 33c24 21 60 53 86 76c15 13 33 24 40 24z" />
    <glyph glyph-name="Odieresis" unicode="&#xd6;" horiz-adv-x="783" 
d="M388 650c221 0 349 -164 349 -324c0 -131 -56 -216 -126 -272c-57 -44 -142 -72 -219 -72c-105 0 -197 40 -260 107c-54 58 -86 137 -86 229c0 122 54 200 129 260c45 35 129 72 213 72zM364 615c-45 0 -90 -28 -113 -51c-34 -33 -70 -105 -70 -224
c0 -154 94 -321 240 -321c55 0 89 28 102 41c42 42 77 128 77 235c0 79 -31 199 -104 266c-34 30 -88 54 -132 54zM287 814c31 0 49 -32 49 -59c0 -32 -31 -53 -56 -53c-21 0 -50 17 -50 56c0 27 26 56 57 56zM493 814c31 0 49 -33 49 -59c0 -31 -31 -53 -55 -53
c-23 0 -51 18 -51 55c0 29 25 57 57 57z" />
    <glyph glyph-name="Ograve" unicode="&#xd2;" horiz-adv-x="783" 
d="M388 650c221 0 349 -164 349 -324c0 -131 -56 -216 -126 -272c-57 -44 -142 -72 -219 -72c-105 0 -197 40 -260 107c-54 58 -86 137 -86 229c0 122 54 200 129 260c45 35 129 72 213 72zM364 615c-45 0 -90 -28 -113 -51c-34 -33 -70 -105 -70 -224
c0 -154 94 -321 240 -321c55 0 89 28 102 41c42 42 77 128 77 235c0 79 -31 199 -104 266c-34 30 -88 54 -132 54zM281 845c5 0 14 -3 42 -25c46 -37 75 -60 113 -95c6 -4 17 -18 12 -23c-7 -10 -30 -5 -39 -1c-53 23 -137 62 -157 74c-14 9 -21 19 -21 25c0 9 13 20 26 31
c6 7 18 14 24 14z" />
    <glyph glyph-name="Otilde" unicode="&#xd5;" horiz-adv-x="783" 
d="M388 650c221 0 349 -164 349 -324c0 -131 -56 -216 -126 -272c-57 -44 -142 -72 -219 -72c-105 0 -197 40 -260 107c-54 58 -86 137 -86 229c0 122 54 200 129 260c45 35 129 72 213 72zM364 615c-45 0 -90 -28 -113 -51c-34 -33 -70 -105 -70 -224
c0 -154 94 -321 240 -321c55 0 89 28 102 41c42 42 77 128 77 235c0 79 -31 199 -104 266c-34 30 -88 54 -132 54zM256 731c10 16 33 45 44 55c6 6 11 10 26 10c45 0 124 -6 147 -4c17 2 26 11 40 32c3 4 6 7 10 7c5 0 13 -10 16 -15c2 -5 -1 -12 -6 -17
c-14 -15 -45 -56 -58 -67c-13 -10 -13 -8 -19 -8c-30 0 -137 11 -153 6c-9 -2 -22 -14 -34 -31c-4 -5 -7 -8 -9 -8c-11 0 -17 9 -17 12c0 4 3 11 13 28z" />
    <glyph glyph-name="Scaron" unicode="&#x160;" horiz-adv-x="498" 
d="M286 650c46 0 99 -12 126 -17c4 -1 12 -15 13 -20c0 -13 10 -90 10 -94c0 -15 -3 -25 -9 -25c-8 0 -24 9 -29 24c-10 33 -31 61 -43 71c-24 20 -49 28 -80 28c-47 0 -102 -39 -102 -104c0 -59 44 -91 134 -148c123 -75 147 -139 147 -200c0 -52 -30 -112 -88 -147
c-34 -21 -92 -36 -140 -36c-59 0 -103 10 -144 26c-8 4 -26 25 -26 29c-8 35 -17 78 -17 107c0 7 11 21 16 21c8 0 24 -24 39 -55c30 -61 88 -92 139 -92c46 0 104 36 104 100c0 42 -21 82 -113 142c-102 67 -157 122 -157 211c0 57 29 105 61 131c33 28 80 48 159 48z
M270 687c-8 0 -23 10 -41 25c-14 14 -48 44 -86 80c-8 5 -22 29 1 29c8 0 23 -6 30 -8c32 -16 64 -33 90 -48c7 -3 14 -2 19 0c21 13 59 29 90 45c7 4 24 10 31 10c11 0 14 -13 -8 -33c-24 -22 -61 -53 -87 -76c-15 -13 -33 -24 -39 -24z" />
    <glyph glyph-name="Uacute" unicode="&#xda;" horiz-adv-x="763" 
d="M33 623c0 8 13 14 30 14c42 0 81 -4 117 -4c37 0 93 4 115 4c19 0 29 -7 29 -15s-11 -16 -30 -20c-36 -7 -48 -19 -54 -58c-5 -33 -4 -129 -4 -270c0 -116 24 -151 56 -185c28 -28 93 -44 122 -44c69 0 150 22 175 131c12 53 19 137 19 275c0 65 -3 86 -5 97
c-3 30 -20 46 -66 57c-10 3 -27 11 -27 20c0 6 10 12 27 12c24 0 60 -4 92 -4c40 0 65 4 93 4c16 0 25 -7 25 -15c0 -6 -12 -14 -26 -17c-49 -12 -64 -31 -65 -94c0 -47 -6 -166 -8 -218c-7 -169 -58 -238 -129 -279c-46 -26 -97 -31 -137 -31c-90 0 -155 31 -188 61
c-56 52 -80 112 -80 272c0 75 -3 231 -4 243c-2 19 -12 37 -50 45c-11 3 -27 10 -27 19zM489 811c9 7 26 8 32 6c17 -8 41 -27 41 -39c0 -8 -12 -21 -23 -26c-54 -26 -117 -54 -161 -69c-6 -2 -25 -8 -34 1c-4 2 2 17 12 26c36 33 92 72 133 101z" />
    <glyph glyph-name="Ucircumflex" unicode="&#xdb;" horiz-adv-x="763" 
d="M33 623c0 8 13 14 30 14c42 0 81 -4 117 -4c37 0 93 4 115 4c19 0 29 -7 29 -15s-11 -16 -30 -20c-36 -7 -48 -19 -54 -58c-5 -33 -4 -129 -4 -270c0 -116 24 -151 56 -185c28 -28 93 -44 122 -44c69 0 150 22 175 131c12 53 19 137 19 275c0 65 -3 86 -5 97
c-3 30 -20 46 -66 57c-10 3 -27 11 -27 20c0 6 10 12 27 12c24 0 60 -4 92 -4c40 0 65 4 93 4c16 0 25 -7 25 -15c0 -6 -12 -14 -26 -17c-49 -12 -64 -31 -65 -94c0 -47 -6 -166 -8 -218c-7 -169 -58 -238 -129 -279c-46 -26 -97 -31 -137 -31c-90 0 -155 31 -188 61
c-56 52 -80 112 -80 272c0 75 -3 231 -4 243c-2 19 -12 37 -50 45c-11 3 -27 10 -27 19zM409 824c8 0 23 -10 41 -25c14 -14 46 -45 86 -80c7 -5 22 -29 0 -29c-10 0 -25 6 -32 9c-32 15 -63 32 -90 47c-7 3 -13 2 -18 -1c-22 -12 -60 -28 -91 -44c-7 -4 -23 -10 -30 -10
c-11 0 -14 13 8 33c24 21 60 53 86 76c15 13 33 24 40 24z" />
    <glyph glyph-name="Udieresis" unicode="&#xdc;" horiz-adv-x="763" 
d="M33 623c0 8 13 14 30 14c42 0 81 -4 117 -4c37 0 93 4 115 4c19 0 29 -7 29 -15s-11 -16 -30 -20c-36 -7 -48 -19 -54 -58c-5 -33 -4 -129 -4 -270c0 -116 24 -151 56 -185c28 -28 93 -44 122 -44c69 0 150 22 175 131c12 53 19 137 19 275c0 65 -3 86 -5 97
c-3 30 -20 46 -66 57c-10 3 -27 11 -27 20c0 6 10 12 27 12c24 0 60 -4 92 -4c40 0 65 4 93 4c16 0 25 -7 25 -15c0 -6 -12 -14 -26 -17c-49 -12 -64 -31 -65 -94c0 -47 -6 -166 -8 -218c-7 -169 -58 -238 -129 -279c-46 -26 -97 -31 -137 -31c-90 0 -155 31 -188 61
c-56 52 -80 112 -80 272c0 75 -3 231 -4 243c-2 19 -12 37 -50 45c-11 3 -27 10 -27 19zM314 807c31 0 49 -32 49 -59c0 -32 -31 -53 -56 -53c-21 0 -50 17 -50 56c0 27 26 56 57 56zM520 807c31 0 49 -33 49 -59c0 -31 -31 -53 -55 -53c-23 0 -51 18 -51 55
c0 29 25 57 57 57z" />
    <glyph glyph-name="Ugrave" unicode="&#xd9;" horiz-adv-x="763" 
d="M33 623c0 8 13 14 30 14c42 0 81 -4 117 -4c37 0 93 4 115 4c19 0 29 -7 29 -15s-11 -16 -30 -20c-36 -7 -48 -19 -54 -58c-5 -33 -4 -129 -4 -270c0 -116 24 -151 56 -185c28 -28 93 -44 122 -44c69 0 150 22 175 131c12 53 19 137 19 275c0 65 -3 86 -5 97
c-3 30 -20 46 -66 57c-10 3 -27 11 -27 20c0 6 10 12 27 12c24 0 60 -4 92 -4c40 0 65 4 93 4c16 0 25 -7 25 -15c0 -6 -12 -14 -26 -17c-49 -12 -64 -31 -65 -94c0 -47 -6 -166 -8 -218c-7 -169 -58 -238 -129 -279c-46 -26 -97 -31 -137 -31c-90 0 -155 31 -188 61
c-56 52 -80 112 -80 272c0 75 -3 231 -4 243c-2 19 -12 37 -50 45c-11 3 -27 10 -27 19zM293 832c5 0 14 -3 42 -25c46 -37 75 -60 113 -95c6 -4 17 -18 12 -23c-7 -10 -30 -5 -39 -1c-53 23 -137 62 -157 74c-14 9 -21 19 -21 25c0 9 13 20 26 31c6 7 18 14 24 14z" />
    <glyph glyph-name="Yacute" unicode="&#xdd;" horiz-adv-x="641" 
d="M5 626c0 8 13 12 30 12c24 0 84 -6 130 -6c28 0 58 2 97 2c16 0 25 -5 25 -11c0 -7 -8 -18 -23 -21c-34 -7 -36 -23 -23 -49c12 -22 72 -126 115 -199c2 -3 10 -1 13 3c16 25 86 136 111 185c17 31 16 51 -31 61c-14 3 -27 12 -27 22c0 7 14 10 22 10c26 0 45 -2 68 -2
c28 0 103 5 119 5c14 0 23 -2 23 -11s-11 -16 -28 -21c-47 -12 -68 -37 -101 -77c-42 -52 -102 -147 -133 -195c-4 -7 -14 -30 -14 -54c0 -56 3 -165 7 -198c3 -26 10 -39 64 -53c19 -5 26 -12 26 -19c0 -8 -11 -14 -31 -14c-14 0 -87 5 -110 5c-66 0 -132 -7 -145 -7
c-15 0 -26 4 -26 12c0 6 8 16 29 21c53 15 64 31 65 46c3 46 1 156 1 193c0 10 -6 43 -9 49c-17 34 -76 129 -119 199c-44 70 -63 84 -96 92c-18 4 -29 11 -29 20zM443 810c9 7 26 8 32 6c17 -8 41 -27 41 -39c0 -8 -12 -21 -23 -26c-54 -26 -117 -54 -161 -69
c-6 -2 -25 -8 -34 1c-4 2 2 17 12 26c36 33 92 72 133 101z" />
    <glyph glyph-name="Ydieresis" unicode="&#x178;" horiz-adv-x="641" 
d="M5 626c0 8 13 12 30 12c24 0 84 -6 130 -6c28 0 58 2 97 2c16 0 25 -5 25 -11c0 -7 -8 -18 -23 -21c-34 -7 -36 -23 -23 -49c12 -22 72 -126 115 -199c2 -3 10 -1 13 3c16 25 86 136 111 185c17 31 16 51 -31 61c-14 3 -27 12 -27 22c0 7 14 10 22 10c26 0 45 -2 68 -2
c28 0 103 5 119 5c14 0 23 -2 23 -11s-11 -16 -28 -21c-47 -12 -68 -37 -101 -77c-42 -52 -102 -147 -133 -195c-4 -7 -14 -30 -14 -54c0 -56 3 -165 7 -198c3 -26 10 -39 64 -53c19 -5 26 -12 26 -19c0 -8 -11 -14 -31 -14c-14 0 -87 5 -110 5c-66 0 -132 -7 -145 -7
c-15 0 -26 4 -26 12c0 6 8 16 29 21c53 15 64 31 65 46c3 46 1 156 1 193c0 10 -6 43 -9 49c-17 34 -76 129 -119 199c-44 70 -63 84 -96 92c-18 4 -29 11 -29 20zM249 804c31 0 49 -32 49 -59c0 -32 -31 -53 -56 -53c-21 0 -50 17 -50 56c0 27 26 56 57 56zM455 804
c31 0 49 -33 49 -59c0 -31 -31 -53 -55 -53c-23 0 -51 18 -51 55c0 29 25 57 57 57z" />
    <glyph glyph-name="Zcaron" unicode="&#x17d;" horiz-adv-x="632" 
d="M308 631c110 0 209 2 235 6c11 2 20 -2 20 -7c0 -4 -4 -18 -13 -30c-13 -17 -46 -61 -82 -117c-93 -142 -228 -370 -251 -417c-2 -5 1 -15 5 -16c16 -7 77 -12 113 -13c34 0 70 0 101 1c51 2 94 32 142 108c11 17 20 28 26 28c10 0 12 -11 12 -24
c-1 -12 -22 -74 -51 -137c-4 -9 -22 -18 -57 -18c-123 0 -325 4 -370 4c-44 0 -78 -2 -90 -2c-7 0 -17 5 -17 13s21 35 32 49c64 83 300 474 319 518c2 6 -1 12 -4 12c-20 3 -90 5 -149 5c-16 0 -46 -3 -62 -6c-36 -7 -68 -24 -98 -79c-6 -12 -18 -26 -24 -26
c-10 0 -15 14 -10 30c5 25 36 88 47 138c2 11 5 12 12 12c6 0 12 -3 16 -8c11 -15 23 -17 49 -20c34 -3 87 -4 149 -4zM319 681c-8 0 -23 10 -41 25c-14 14 -48 44 -86 80c-8 5 -22 29 1 29c8 0 23 -6 30 -8c32 -16 64 -33 90 -48c7 -3 14 -2 19 0c21 13 59 29 90 45
c7 4 24 10 31 10c11 0 14 -13 -8 -33c-24 -22 -61 -53 -87 -76c-15 -13 -33 -24 -39 -24z" />
    <glyph glyph-name="aacute" unicode="&#xe1;" horiz-adv-x="418" 
d="M244 634c3 8 17 18 29 18c13 0 41 -2 43 -15c1 -6 -1 -18 -7 -28c-19 -35 -79 -124 -101 -149c-7 -7 -17 -16 -27 -16c-9 0 -10 13 -4 31c12 37 52 129 67 159zM218 407c61 0 89 -32 104 -54c12 -16 22 -41 22 -86c0 -39 -4 -158 -4 -169c0 -28 20 -40 37 -40
c5 0 25 8 35 12c3 2 4 1 6 -1c2 -4 3 -11 3 -14c0 -19 -47 -68 -103 -68c-29 0 -60 9 -75 48c-1 4 -7 6 -9 4c-25 -18 -66 -36 -79 -42c-11 -4 -31 -8 -44 -8c-37 0 -77 45 -77 101c0 18 8 37 18 51s27 20 36 24c22 9 113 34 136 41c12 4 18 11 18 15c1 9 3 64 2 77
c-1 24 -22 64 -67 64c-14 0 -25 -2 -32 -7c-4 -2 -6 -12 -6 -46c0 -4 -2 -7 -4 -9c-7 -7 -82 -40 -88 -40s-13 8 -13 14c0 29 22 56 84 96c37 24 86 37 100 37zM190 49c9 0 29 6 38 12c5 3 9 15 9 19c2 14 4 56 4 89c0 4 -4 10 -7 10c-17 0 -63 -15 -81 -26
c-12 -9 -18 -14 -18 -40c0 -44 36 -64 55 -64z" />
    <glyph glyph-name="acircumflex" unicode="&#xe2;" horiz-adv-x="418" 
d="M199 650c8 0 19 -15 32 -39c11 -21 39 -72 68 -129c4 -9 14 -37 -3 -37c-9 0 -25 14 -30 21c-21 30 -44 59 -63 85c-3 4 -10 4 -12 0c-20 -27 -42 -55 -64 -86c-4 -6 -16 -18 -27 -18c-7 0 -11 15 -6 27c16 38 50 96 74 142c11 20 22 34 31 34zM218 407
c61 0 89 -32 104 -54c12 -16 22 -41 22 -86c0 -39 -4 -158 -4 -169c0 -28 20 -40 37 -40c5 0 25 8 35 12c3 2 4 1 6 -1c2 -4 3 -11 3 -14c0 -19 -47 -68 -103 -68c-29 0 -60 9 -75 48c-1 4 -7 6 -9 4c-25 -18 -66 -36 -79 -42c-11 -4 -31 -8 -44 -8c-37 0 -77 45 -77 101
c0 18 8 37 18 51s27 20 36 24c22 9 113 34 136 41c12 4 18 11 18 15c1 9 3 64 2 77c-1 24 -22 64 -67 64c-14 0 -25 -2 -32 -7c-4 -2 -6 -12 -6 -46c0 -4 -2 -7 -4 -9c-7 -7 -82 -40 -88 -40s-13 8 -13 14c0 29 22 56 84 96c37 24 86 37 100 37zM190 49c9 0 29 6 38 12
c5 3 9 15 9 19c2 14 4 56 4 89c0 4 -4 10 -7 10c-17 0 -63 -15 -81 -26c-12 -9 -18 -14 -18 -40c0 -44 36 -64 55 -64z" />
    <glyph glyph-name="adieresis" unicode="&#xe4;" horiz-adv-x="418" 
d="M109 605c32 0 51 -33 51 -58c0 -35 -32 -55 -57 -55c-23 0 -52 17 -52 56c0 28 23 57 58 57zM298 605c31 0 51 -33 51 -58c0 -33 -32 -55 -57 -55c-24 0 -53 18 -53 56c0 29 26 57 59 57zM218 407c61 0 89 -32 104 -54c12 -16 22 -41 22 -86c0 -39 -4 -158 -4 -169
c0 -28 20 -40 37 -40c5 0 25 8 35 12c3 2 4 1 6 -1c2 -4 3 -11 3 -14c0 -19 -47 -68 -103 -68c-29 0 -60 9 -75 48c-1 4 -7 6 -9 4c-25 -18 -66 -36 -79 -42c-11 -4 -31 -8 -44 -8c-37 0 -77 45 -77 101c0 18 8 37 18 51s27 20 36 24c22 9 113 34 136 41c12 4 18 11 18 15
c1 9 3 64 2 77c-1 24 -22 64 -67 64c-14 0 -25 -2 -32 -7c-4 -2 -6 -12 -6 -46c0 -4 -2 -7 -4 -9c-7 -7 -82 -40 -88 -40s-13 8 -13 14c0 29 22 56 84 96c37 24 86 37 100 37zM190 49c9 0 29 6 38 12c5 3 9 15 9 19c2 14 4 56 4 89c0 4 -4 10 -7 10c-17 0 -63 -15 -81 -26
c-12 -9 -18 -14 -18 -40c0 -44 36 -64 55 -64z" />
    <glyph glyph-name="agrave" unicode="&#xe0;" horiz-adv-x="418" 
d="M155 655c9 0 21 -14 29 -35c10 -24 38 -100 52 -145c5 -16 5 -33 -5 -33c-9 0 -20 9 -25 16c-32 41 -85 131 -94 147c-5 10 -7 22 -6 28c2 7 10 13 21 17c7 3 20 5 28 5zM218 407c61 0 89 -32 104 -54c12 -16 22 -41 22 -86c0 -39 -4 -158 -4 -169c0 -28 20 -40 37 -40
c5 0 25 8 35 12c3 2 4 1 6 -1c2 -4 3 -11 3 -14c0 -19 -47 -68 -103 -68c-29 0 -60 9 -75 48c-1 4 -7 6 -9 4c-25 -18 -66 -36 -79 -42c-11 -4 -31 -8 -44 -8c-37 0 -77 45 -77 101c0 18 8 37 18 51s27 20 36 24c22 9 113 34 136 41c12 4 18 11 18 15c1 9 3 64 2 77
c-1 24 -22 64 -67 64c-14 0 -25 -2 -32 -7c-4 -2 -6 -12 -6 -46c0 -4 -2 -7 -4 -9c-7 -7 -82 -40 -88 -40s-13 8 -13 14c0 29 22 56 84 96c37 24 86 37 100 37zM190 49c9 0 29 6 38 12c5 3 9 15 9 19c2 14 4 56 4 89c0 4 -4 10 -7 10c-17 0 -63 -15 -81 -26
c-12 -9 -18 -14 -18 -40c0 -44 36 -64 55 -64z" />
    <glyph glyph-name="aring" unicode="&#xe5;" horiz-adv-x="418" 
d="M203 628c50 0 83 -40 83 -83c0 -44 -33 -84 -83 -84s-83 40 -83 84c0 43 33 83 83 83zM203 594c-25 0 -43 -22 -43 -49c0 -32 19 -50 43 -50c25 0 43 17 43 51c0 26 -18 48 -43 48zM218 407c61 0 89 -32 104 -54c12 -16 22 -41 22 -86c0 -39 -4 -158 -4 -169
c0 -28 20 -40 37 -40c5 0 25 8 35 12c3 2 4 1 6 -1c2 -4 3 -11 3 -14c0 -19 -47 -68 -103 -68c-29 0 -60 9 -75 48c-1 4 -7 6 -9 4c-25 -18 -66 -36 -79 -42c-11 -4 -31 -8 -44 -8c-37 0 -77 45 -77 101c0 18 8 37 18 51s27 20 36 24c22 9 113 34 136 41c12 4 18 11 18 15
c1 9 3 64 2 77c-1 24 -22 64 -67 64c-14 0 -25 -2 -32 -7c-4 -2 -6 -12 -6 -46c0 -4 -2 -7 -4 -9c-7 -7 -82 -40 -88 -40s-13 8 -13 14c0 29 22 56 84 96c37 24 86 37 100 37zM190 49c9 0 29 6 38 12c5 3 9 15 9 19c2 14 4 56 4 89c0 4 -4 10 -7 10c-17 0 -63 -15 -81 -26
c-12 -9 -18 -14 -18 -40c0 -44 36 -64 55 -64z" />
    <glyph glyph-name="atilde" unicode="&#xe3;" horiz-adv-x="418" 
d="M126 509c-9 0 -21 -20 -31 -31c-4 -4 -6 -4 -9 -4c-4 0 -18 16 -18 18s33 57 73 81c6 5 15 6 17 5c21 -5 67 -10 96 -10c16 0 26 1 34 6c11 9 23 24 30 31c3 4 22 -12 22 -17c0 -3 0 -5 -4 -8c-14 -14 -64 -68 -70 -74c-5 -5 -8 -8 -13 -8c-17 0 -83 11 -127 11zM218 407
c61 0 89 -32 104 -54c12 -16 22 -41 22 -86c0 -39 -4 -158 -4 -169c0 -28 20 -40 37 -40c5 0 25 8 35 12c3 2 4 1 6 -1c2 -4 3 -11 3 -14c0 -19 -47 -68 -103 -68c-29 0 -60 9 -75 48c-1 4 -7 6 -9 4c-25 -18 -66 -36 -79 -42c-11 -4 -31 -8 -44 -8c-37 0 -77 45 -77 101
c0 18 8 37 18 51s27 20 36 24c22 9 113 34 136 41c12 4 18 11 18 15c1 9 3 64 2 77c-1 24 -22 64 -67 64c-14 0 -25 -2 -32 -7c-4 -2 -6 -12 -6 -46c0 -4 -2 -7 -4 -9c-7 -7 -82 -40 -88 -40s-13 8 -13 14c0 29 22 56 84 96c37 24 86 37 100 37zM190 49c9 0 29 6 38 12
c5 3 9 15 9 19c2 14 4 56 4 89c0 4 -4 10 -7 10c-17 0 -63 -15 -81 -26c-12 -9 -18 -14 -18 -40c0 -44 36 -64 55 -64z" />
    <glyph glyph-name="ccedilla" unicode="&#xe7;" horiz-adv-x="414" 
d="M273 407c51 0 87 -12 105 -25c12 -9 16 -23 16 -33c0 -16 -27 -44 -41 -44c-15 0 -26 8 -50 27c-27 21 -45 36 -71 36c-21 0 -39 -11 -53 -27c-26 -32 -37 -73 -37 -119c0 -101 63 -163 145 -163c43 0 74 18 90 30c5 5 13 3 13 -4c0 -11 -6 -27 -14 -35
c-23 -24 -54 -45 -92 -55c-16 -21 -29 -36 -30 -39c-4 -7 -3 -9 5 -14c44 -21 62 -47 62 -82c0 -34 -37 -70 -61 -86c-33 -23 -49 -30 -68 -30c-8 0 -16 3 -22 13s-4 25 4 34c6 8 11 9 17 8c10 -2 27 -5 35 -5c23 0 34 18 34 37c0 28 -29 45 -58 45c-5 0 -9 0 -16 -1
c-6 0 -19 15 -19 20c0 3 1 5 8 13c20 21 49 56 69 81c-4 -1 -10 -1 -14 -1c-74 0 -134 34 -167 82c-19 32 -31 77 -31 115c0 87 44 140 104 180c35 24 96 42 137 42z" />
    <glyph glyph-name="eacute" unicode="&#xe9;" horiz-adv-x="414" 
d="M265 634c3 8 17 18 29 18c13 0 41 -2 43 -15c1 -6 -1 -18 -7 -28c-19 -35 -79 -124 -101 -149c-7 -7 -17 -16 -27 -16c-9 0 -10 13 -4 31c12 37 52 129 67 159zM241 407c40 0 81 -16 107 -42c23 -22 38 -53 38 -88c0 -7 -10 -24 -22 -24h-218c-5 0 -10 -3 -11 -7
c-3 -8 -4 -24 -4 -36c0 -22 12 -68 31 -93c25 -32 67 -50 111 -50c42 0 71 10 90 35c4 6 9 12 13 12s9 -7 9 -13s-3 -17 -8 -25c-31 -48 -78 -87 -160 -87c-115 0 -185 87 -185 201c0 80 44 160 127 198c25 12 55 19 82 19zM234 379c-42 0 -81 -40 -93 -85
c-1 -5 3 -10 7 -10c26 -1 57 0 107 0c16 0 35 10 35 34c0 28 -28 61 -56 61z" />
    <glyph glyph-name="ecircumflex" unicode="&#xea;" horiz-adv-x="414" 
d="M222 651c8 0 19 -15 32 -39c11 -21 39 -72 68 -129c4 -9 14 -37 -3 -37c-9 0 -25 14 -30 21c-21 30 -44 59 -63 85c-3 4 -10 4 -12 0c-20 -27 -42 -55 -64 -86c-4 -6 -16 -18 -27 -18c-7 0 -11 15 -6 27c16 38 50 96 74 142c11 20 22 34 31 34zM241 407
c40 0 81 -16 107 -42c23 -22 38 -53 38 -88c0 -7 -10 -24 -22 -24h-218c-5 0 -10 -3 -11 -7c-3 -8 -4 -24 -4 -36c0 -22 12 -68 31 -93c25 -32 67 -50 111 -50c42 0 71 10 90 35c4 6 9 12 13 12s9 -7 9 -13s-3 -17 -8 -25c-31 -48 -78 -87 -160 -87c-115 0 -185 87 -185 201
c0 80 44 160 127 198c25 12 55 19 82 19zM234 379c-42 0 -81 -40 -93 -85c-1 -5 3 -10 7 -10c26 -1 57 0 107 0c16 0 35 10 35 34c0 28 -28 61 -56 61z" />
    <glyph glyph-name="edieresis" unicode="&#xeb;" horiz-adv-x="414" 
d="M130 605c32 0 51 -33 51 -58c0 -35 -32 -55 -57 -55c-23 0 -52 17 -52 56c0 28 23 57 58 57zM319 605c31 0 51 -33 51 -58c0 -33 -32 -55 -57 -55c-24 0 -53 18 -53 56c0 29 26 57 59 57zM241 407c40 0 81 -16 107 -42c23 -22 38 -53 38 -88c0 -7 -10 -24 -22 -24h-218
c-5 0 -10 -3 -11 -7c-3 -8 -4 -24 -4 -36c0 -22 12 -68 31 -93c25 -32 67 -50 111 -50c42 0 71 10 90 35c4 6 9 12 13 12s9 -7 9 -13s-3 -17 -8 -25c-31 -48 -78 -87 -160 -87c-115 0 -185 87 -185 201c0 80 44 160 127 198c25 12 55 19 82 19zM234 379
c-42 0 -81 -40 -93 -85c-1 -5 3 -10 7 -10c26 -1 57 0 107 0c16 0 35 10 35 34c0 28 -28 61 -56 61z" />
    <glyph glyph-name="egrave" unicode="&#xe8;" horiz-adv-x="414" 
d="M179 655c9 0 21 -14 29 -35c10 -24 38 -100 52 -145c5 -16 5 -33 -5 -33c-9 0 -20 9 -25 16c-32 41 -85 131 -94 147c-5 10 -7 22 -6 28c2 7 10 13 21 17c7 3 20 5 28 5zM241 407c40 0 81 -16 107 -42c23 -22 38 -53 38 -88c0 -7 -10 -24 -22 -24h-218
c-5 0 -10 -3 -11 -7c-3 -8 -4 -24 -4 -36c0 -22 12 -68 31 -93c25 -32 67 -50 111 -50c42 0 71 10 90 35c4 6 9 12 13 12s9 -7 9 -13s-3 -17 -8 -25c-31 -48 -78 -87 -160 -87c-115 0 -185 87 -185 201c0 80 44 160 127 198c25 12 55 19 82 19zM234 379
c-42 0 -81 -40 -93 -85c-1 -5 3 -10 7 -10c26 -1 57 0 107 0c16 0 35 10 35 34c0 28 -28 61 -56 61z" />
    <glyph glyph-name="iacute" unicode="&#xed;" horiz-adv-x="272" 
d="M174 634c3 8 17 18 29 18c13 0 41 -2 43 -15c1 -6 -1 -18 -7 -28c-19 -35 -79 -124 -101 -149c-7 -7 -17 -16 -27 -16c-9 0 -10 13 -4 31c12 37 52 129 67 159zM42 355c0 7 11 15 27 18c41 8 104 32 120 36c5 0 10 -8 10 -11c-2 -34 -5 -168 -5 -226c0 -31 1 -66 2 -101
c1 -30 13 -34 39 -42c15 -5 22 -11 22 -19s-14 -13 -28 -13c-7 0 -61 3 -83 3c-32 0 -80 -4 -97 -4c-16 0 -28 6 -28 13s7 12 26 18c24 7 35 19 37 29c4 14 6 85 6 156c0 21 0 78 -2 90c-1 8 -12 18 -34 36c-6 6 -12 11 -12 17z" />
    <glyph glyph-name="icircumflex" unicode="&#xee;" horiz-adv-x="272" 
d="M138 651c8 0 19 -15 32 -39c11 -21 39 -72 68 -129c4 -9 14 -37 -3 -37c-9 0 -25 14 -30 21c-21 30 -44 59 -63 85c-3 4 -10 4 -12 0c-20 -27 -42 -55 -64 -86c-4 -6 -16 -18 -27 -18c-7 0 -11 15 -6 27c16 38 50 96 74 142c11 20 22 34 31 34zM42 355c0 7 11 15 27 18
c41 8 104 32 120 36c5 0 10 -8 10 -11c-2 -34 -5 -168 -5 -226c0 -31 1 -66 2 -101c1 -30 13 -34 39 -42c15 -5 22 -11 22 -19s-14 -13 -28 -13c-7 0 -61 3 -83 3c-32 0 -80 -4 -97 -4c-16 0 -28 6 -28 13s7 12 26 18c24 7 35 19 37 29c4 14 6 85 6 156c0 21 0 78 -2 90
c-1 8 -12 18 -34 36c-6 6 -12 11 -12 17z" />
    <glyph glyph-name="idieresis" unicode="&#xef;" horiz-adv-x="272" 
d="M50 605c32 0 51 -33 51 -58c0 -35 -32 -55 -57 -55c-23 0 -52 17 -52 56c0 28 23 57 58 57zM239 605c31 0 51 -33 51 -58c0 -33 -32 -55 -57 -55c-24 0 -53 18 -53 56c0 29 26 57 59 57zM42 355c0 7 11 15 27 18c41 8 104 32 120 36c5 0 10 -8 10 -11
c-2 -34 -5 -168 -5 -226c0 -31 1 -66 2 -101c1 -30 13 -34 39 -42c15 -5 22 -11 22 -19s-14 -13 -28 -13c-7 0 -61 3 -83 3c-32 0 -80 -4 -97 -4c-16 0 -28 6 -28 13s7 12 26 18c24 7 35 19 37 29c4 14 6 85 6 156c0 21 0 78 -2 90c-1 8 -12 18 -34 36c-6 6 -12 11 -12 17z
" />
    <glyph glyph-name="igrave" unicode="&#xec;" horiz-adv-x="272" 
d="M84 655c9 0 21 -14 29 -35c10 -24 38 -100 52 -145c5 -16 5 -33 -5 -33c-9 0 -20 9 -25 16c-32 41 -85 131 -94 147c-5 10 -7 22 -6 28c2 7 10 13 21 17c7 3 20 5 28 5zM42 355c0 7 11 15 27 18c41 8 104 32 120 36c5 0 10 -8 10 -11c-2 -34 -5 -168 -5 -226
c0 -31 1 -66 2 -101c1 -30 13 -34 39 -42c15 -5 22 -11 22 -19s-14 -13 -28 -13c-7 0 -61 3 -83 3c-32 0 -80 -4 -97 -4c-16 0 -28 6 -28 13s7 12 26 18c24 7 35 19 37 29c4 14 6 85 6 156c0 21 0 78 -2 90c-1 8 -12 18 -34 36c-6 6 -12 11 -12 17z" />
    <glyph glyph-name="ntilde" unicode="&#xf1;" horiz-adv-x="534" 
d="M196 510c-9 0 -21 -20 -31 -31c-4 -4 -6 -4 -9 -4c-4 0 -18 16 -18 18s33 57 73 81c6 5 15 6 17 5c21 -5 67 -10 96 -10c16 0 26 1 34 6c11 9 23 24 30 31c3 4 22 -12 22 -17c0 -3 0 -5 -4 -8c-14 -14 -64 -68 -70 -74c-5 -5 -8 -8 -13 -8c-17 0 -83 11 -127 11zM49 350
c0 6 11 19 18 22c20 6 65 22 81 30s29 15 34 15c4 0 11 -11 11 -15c0 -11 -1 -35 -1 -44c0 -6 7 -5 7 -5c40 30 82 54 127 54c49 0 78 -24 92 -40c23 -26 36 -70 36 -121c0 -21 2 -168 3 -182c2 -15 9 -27 35 -34c19 -5 26 -10 26 -18s-12 -14 -29 -14c-24 0 -63 2 -91 2
c-25 0 -65 -3 -79 -3s-27 3 -27 14c0 7 11 13 24 17c23 9 28 18 30 51s2 157 2 186c0 20 -8 47 -22 60c-11 10 -36 21 -57 21c-35 0 -52 -10 -66 -20c-4 -3 -9 -16 -10 -22c-1 -17 1 -232 2 -244c1 -14 4 -21 35 -31c9 -4 17 -11 17 -17c0 -7 -11 -14 -28 -14
c-19 0 -56 2 -77 2c-37 0 -76 -3 -93 -3s-27 6 -27 15c0 8 10 13 21 16c33 11 38 19 41 56c3 30 5 110 5 211c0 11 -7 21 -29 41c-8 8 -11 11 -11 14z" />
    <glyph glyph-name="oacute" unicode="&#xf3;" horiz-adv-x="504" 
d="M290 634c3 8 17 18 29 18c13 0 41 -2 43 -15c1 -6 -1 -18 -7 -28c-19 -35 -79 -124 -101 -149c-7 -7 -17 -16 -27 -16c-9 0 -10 13 -4 31c12 37 52 129 67 159zM261 407c100 0 211 -78 211 -208c0 -85 -52 -146 -89 -170c-41 -29 -92 -41 -138 -41c-45 0 -101 21 -138 52
c-43 35 -75 98 -75 154c0 70 31 123 69 155c30 26 86 58 160 58zM242 374c-17 0 -33 -7 -49 -22c-23 -21 -41 -65 -41 -131c0 -33 4 -71 12 -96c21 -70 67 -104 109 -104c10 0 29 8 44 25c21 27 37 80 37 137c0 42 -9 107 -40 151c-18 23 -44 40 -72 40z" />
    <glyph glyph-name="ocircumflex" unicode="&#xf4;" horiz-adv-x="504" 
d="M251 651c8 0 19 -15 32 -39c11 -21 39 -72 68 -129c4 -9 14 -37 -3 -37c-9 0 -25 14 -30 21c-21 30 -44 59 -63 85c-3 4 -10 4 -12 0c-20 -27 -42 -55 -64 -86c-4 -6 -16 -18 -27 -18c-7 0 -11 15 -6 27c16 38 50 96 74 142c11 20 22 34 31 34zM261 407
c100 0 211 -78 211 -208c0 -85 -52 -146 -89 -170c-41 -29 -92 -41 -138 -41c-45 0 -101 21 -138 52c-43 35 -75 98 -75 154c0 70 31 123 69 155c30 26 86 58 160 58zM242 374c-17 0 -33 -7 -49 -22c-23 -21 -41 -65 -41 -131c0 -33 4 -71 12 -96c21 -70 67 -104 109 -104
c10 0 29 8 44 25c21 27 37 80 37 137c0 42 -9 107 -40 151c-18 23 -44 40 -72 40z" />
    <glyph glyph-name="odieresis" unicode="&#xf6;" horiz-adv-x="504" 
d="M155 605c32 0 51 -33 51 -58c0 -35 -32 -55 -57 -55c-23 0 -52 17 -52 56c0 28 23 57 58 57zM344 605c31 0 51 -33 51 -58c0 -33 -32 -55 -57 -55c-24 0 -53 18 -53 56c0 29 26 57 59 57zM261 407c100 0 211 -78 211 -208c0 -85 -52 -146 -89 -170
c-41 -29 -92 -41 -138 -41c-45 0 -101 21 -138 52c-43 35 -75 98 -75 154c0 70 31 123 69 155c30 26 86 58 160 58zM242 374c-17 0 -33 -7 -49 -22c-23 -21 -41 -65 -41 -131c0 -33 4 -71 12 -96c21 -70 67 -104 109 -104c10 0 29 8 44 25c21 27 37 80 37 137
c0 42 -9 107 -40 151c-18 23 -44 40 -72 40z" />
    <glyph glyph-name="ograve" unicode="&#xf2;" horiz-adv-x="504" 
d="M201 656c9 0 21 -14 29 -35c10 -24 38 -100 52 -145c5 -16 5 -33 -5 -33c-9 0 -20 9 -25 16c-32 41 -85 131 -94 147c-5 10 -7 22 -6 28c2 7 10 13 21 17c7 3 20 5 28 5zM261 407c100 0 211 -78 211 -208c0 -85 -52 -146 -89 -170c-41 -29 -92 -41 -138 -41
c-45 0 -101 21 -138 52c-43 35 -75 98 -75 154c0 70 31 123 69 155c30 26 86 58 160 58zM242 374c-17 0 -33 -7 -49 -22c-23 -21 -41 -65 -41 -131c0 -33 4 -71 12 -96c21 -70 67 -104 109 -104c10 0 29 8 44 25c21 27 37 80 37 137c0 42 -9 107 -40 151
c-18 23 -44 40 -72 40z" />
    <glyph glyph-name="otilde" unicode="&#xf5;" horiz-adv-x="504" 
d="M177 508c-9 0 -21 -20 -31 -31c-4 -4 -6 -4 -9 -4c-4 0 -18 16 -18 18s33 57 73 81c6 5 15 6 17 5c21 -5 67 -10 96 -10c16 0 26 1 34 6c11 9 23 24 30 31c3 4 22 -12 22 -17c0 -3 0 -5 -4 -8c-14 -14 -64 -68 -70 -74c-5 -5 -8 -8 -13 -8c-17 0 -83 11 -127 11zM261 407
c100 0 211 -78 211 -208c0 -85 -52 -146 -89 -170c-41 -29 -92 -41 -138 -41c-45 0 -101 21 -138 52c-43 35 -75 98 -75 154c0 70 31 123 69 155c30 26 86 58 160 58zM242 374c-17 0 -33 -7 -49 -22c-23 -21 -41 -65 -41 -131c0 -33 4 -71 12 -96c21 -70 67 -104 109 -104
c10 0 29 8 44 25c21 27 37 80 37 137c0 42 -9 107 -40 151c-18 23 -44 40 -72 40z" />
    <glyph glyph-name="scaron" unicode="&#x161;" horiz-adv-x="347" 
d="M181 446c-8 0 -19 16 -32 40c-10 21 -39 72 -68 129c-4 8 -14 36 3 36c9 0 25 -14 30 -21c23 -30 43 -59 62 -85c3 -4 11 -4 13 -1c21 30 40 54 64 88c4 6 16 17 27 17c7 0 11 -14 6 -26c-17 -42 -50 -96 -74 -142c-11 -20 -22 -35 -31 -35zM196 407c23 0 44 -3 57 -6
c13 -2 34 -10 36 -11c4 -3 8 -9 9 -17c2 -14 4 -57 4 -64c0 -9 -8 -21 -15 -21s-16 13 -22 24c-22 42 -47 65 -83 65c-25 0 -50 -25 -50 -51c0 -36 38 -58 88 -86c86 -46 98 -81 98 -126c0 -47 -30 -80 -63 -101c-21 -14 -72 -25 -101 -25c-31 0 -82 7 -101 23
c-4 5 -19 47 -19 82c0 15 6 23 10 23c10 0 17 -11 24 -23c33 -56 72 -75 97 -75c12 0 30 6 40 13c14 11 20 29 20 45c0 17 -8 35 -40 55c-27 17 -39 25 -69 43c-37 23 -70 61 -70 112c0 37 21 77 63 100c22 12 50 21 87 21z" />
    <glyph glyph-name="uacute" unicode="&#xfa;" horiz-adv-x="513" 
d="M291 628c3 8 17 18 29 18c13 0 41 -2 43 -15c1 -6 -1 -18 -7 -28c-19 -35 -79 -124 -101 -149c-7 -7 -17 -16 -27 -16c-9 0 -10 13 -4 31c12 37 52 129 67 159zM256 51c15 0 39 6 61 24c4 3 10 19 10 23l1 224c0 7 -6 18 -17 23c-16 5 -27 10 -40 15c-7 2 -16 10 -16 18
c0 4 9 10 17 10c40 0 103 7 132 13c10 2 17 4 24 4s10 -12 10 -16c-2 -36 -5 -290 -5 -322c0 -3 2 -18 13 -18c10 1 32 7 45 7c4 0 11 -23 12 -26c1 -2 -7 -11 -12 -11c-27 -2 -79 -15 -102 -21c-17 -5 -49 -13 -52 -13c-4 0 -11 7 -11 14c0 6 1 24 2 41c0 5 -4 9 -6 7
c-25 -18 -57 -39 -70 -44c-17 -8 -35 -15 -64 -15c-47 0 -80 20 -102 53c-7 10 -11 40 -11 53c0 71 -1 168 -3 221c-1 29 -17 35 -34 42c-9 4 -18 12 -18 21c0 5 6 11 16 11c28 0 134 11 138 11s8 -11 8 -15c2 -76 -1 -226 -1 -272c0 -19 9 -34 19 -43c16 -12 37 -19 56 -19
z" />
    <glyph glyph-name="ucircumflex" unicode="&#xfb;" horiz-adv-x="513" 
d="M251 651c8 0 19 -15 32 -39c11 -21 39 -72 68 -129c4 -9 14 -37 -3 -37c-9 0 -25 14 -30 21c-21 30 -44 59 -63 85c-3 4 -10 4 -12 0c-20 -27 -42 -55 -64 -86c-4 -6 -16 -18 -27 -18c-7 0 -11 15 -6 27c16 38 50 96 74 142c11 20 22 34 31 34zM256 51c15 0 39 6 61 24
c4 3 10 19 10 23l1 224c0 7 -6 18 -17 23c-16 5 -27 10 -40 15c-7 2 -16 10 -16 18c0 4 9 10 17 10c40 0 103 7 132 13c10 2 17 4 24 4s10 -12 10 -16c-2 -36 -5 -290 -5 -322c0 -3 2 -18 13 -18c10 1 32 7 45 7c4 0 11 -23 12 -26c1 -2 -7 -11 -12 -11
c-27 -2 -79 -15 -102 -21c-17 -5 -49 -13 -52 -13c-4 0 -11 7 -11 14c0 6 1 24 2 41c0 5 -4 9 -6 7c-25 -18 -57 -39 -70 -44c-17 -8 -35 -15 -64 -15c-47 0 -80 20 -102 53c-7 10 -11 40 -11 53c0 71 -1 168 -3 221c-1 29 -17 35 -34 42c-9 4 -18 12 -18 21c0 5 6 11 16 11
c28 0 134 11 138 11s8 -11 8 -15c2 -76 -1 -226 -1 -272c0 -19 9 -34 19 -43c16 -12 37 -19 56 -19z" />
    <glyph glyph-name="udieresis" unicode="&#xfc;" horiz-adv-x="513" 
d="M153 605c32 0 51 -33 51 -58c0 -35 -32 -55 -57 -55c-23 0 -52 17 -52 56c0 28 23 57 58 57zM342 605c31 0 51 -33 51 -58c0 -33 -32 -55 -57 -55c-24 0 -53 18 -53 56c0 29 26 57 59 57zM256 51c15 0 39 6 61 24c4 3 10 19 10 23l1 224c0 7 -6 18 -17 23
c-16 5 -27 10 -40 15c-7 2 -16 10 -16 18c0 4 9 10 17 10c40 0 103 7 132 13c10 2 17 4 24 4s10 -12 10 -16c-2 -36 -5 -290 -5 -322c0 -3 2 -18 13 -18c10 1 32 7 45 7c4 0 11 -23 12 -26c1 -2 -7 -11 -12 -11c-27 -2 -79 -15 -102 -21c-17 -5 -49 -13 -52 -13
c-4 0 -11 7 -11 14c0 6 1 24 2 41c0 5 -4 9 -6 7c-25 -18 -57 -39 -70 -44c-17 -8 -35 -15 -64 -15c-47 0 -80 20 -102 53c-7 10 -11 40 -11 53c0 71 -1 168 -3 221c-1 29 -17 35 -34 42c-9 4 -18 12 -18 21c0 5 6 11 16 11c28 0 134 11 138 11s8 -11 8 -15
c2 -76 -1 -226 -1 -272c0 -19 9 -34 19 -43c16 -12 37 -19 56 -19z" />
    <glyph glyph-name="ugrave" unicode="&#xf9;" horiz-adv-x="513" 
d="M190 655c9 0 21 -14 29 -35c10 -24 38 -100 52 -145c5 -16 5 -33 -5 -33c-9 0 -20 9 -25 16c-32 41 -85 131 -94 147c-5 10 -7 22 -6 28c2 7 10 13 21 17c7 3 20 5 28 5zM256 51c15 0 39 6 61 24c4 3 10 19 10 23l1 224c0 7 -6 18 -17 23c-16 5 -27 10 -40 15
c-7 2 -16 10 -16 18c0 4 9 10 17 10c40 0 103 7 132 13c10 2 17 4 24 4s10 -12 10 -16c-2 -36 -5 -290 -5 -322c0 -3 2 -18 13 -18c10 1 32 7 45 7c4 0 11 -23 12 -26c1 -2 -7 -11 -12 -11c-27 -2 -79 -15 -102 -21c-17 -5 -49 -13 -52 -13c-4 0 -11 7 -11 14c0 6 1 24 2 41
c0 5 -4 9 -6 7c-25 -18 -57 -39 -70 -44c-17 -8 -35 -15 -64 -15c-47 0 -80 20 -102 53c-7 10 -11 40 -11 53c0 71 -1 168 -3 221c-1 29 -17 35 -34 42c-9 4 -18 12 -18 21c0 5 6 11 16 11c28 0 134 11 138 11s8 -11 8 -15c2 -76 -1 -226 -1 -272c0 -19 9 -34 19 -43
c16 -12 37 -19 56 -19z" />
    <glyph glyph-name="yacute" unicode="&#xfd;" horiz-adv-x="426" 
d="M276 634c3 8 17 18 29 18c13 0 41 -2 43 -15c1 -6 -1 -18 -7 -28c-19 -35 -79 -124 -101 -149c-7 -7 -17 -16 -27 -16c-9 0 -10 13 -4 31c12 37 52 129 67 159zM-13 385c0 4 8 12 24 12c35 0 69 -4 99 -4s67 2 81 2c9 0 24 -4 24 -12s-6 -13 -24 -19
c-27 -8 -28 -14 -19 -40c15 -50 63 -162 77 -189c2 -3 7 -3 10 3c12 29 64 157 72 181c7 24 -2 37 -38 47c-13 4 -21 12 -21 16c0 9 12 13 25 13c19 0 45 -2 59 -2c15 0 44 4 70 4c14 0 21 -5 21 -12c0 -8 -11 -14 -24 -18c-21 -6 -35 -20 -52 -49
c-22 -46 -95 -223 -113 -268c-33 -83 -76 -191 -108 -272c-8 -22 -38 -34 -57 -34c-37 0 -53 31 -53 55c0 16 14 49 45 49c6 0 35 -1 46 -1c9 0 14 7 18 17c9 16 37 93 44 113c2 7 3 17 1 21c-4 7 -13 31 -17 43c-25 63 -96 231 -123 287c-11 20 -16 28 -44 37
c-14 5 -23 10 -23 20z" />
    <glyph glyph-name="ydieresis" unicode="&#xff;" horiz-adv-x="426" 
d="M137 605c32 0 51 -33 51 -58c0 -35 -32 -55 -57 -55c-23 0 -52 17 -52 56c0 28 23 57 58 57zM326 605c31 0 51 -33 51 -58c0 -33 -32 -55 -57 -55c-24 0 -53 18 -53 56c0 29 26 57 59 57zM-13 385c0 4 8 12 24 12c35 0 69 -4 99 -4s67 2 81 2c9 0 24 -4 24 -12
s-6 -13 -24 -19c-27 -8 -28 -14 -19 -40c15 -50 63 -162 77 -189c2 -3 7 -3 10 3c12 29 64 157 72 181c7 24 -2 37 -38 47c-13 4 -21 12 -21 16c0 9 12 13 25 13c19 0 45 -2 59 -2c15 0 44 4 70 4c14 0 21 -5 21 -12c0 -8 -11 -14 -24 -18c-21 -6 -35 -20 -52 -49
c-22 -46 -95 -223 -113 -268c-33 -83 -76 -191 -108 -272c-8 -22 -38 -34 -57 -34c-37 0 -53 31 -53 55c0 16 14 49 45 49c6 0 35 -1 46 -1c9 0 14 7 18 17c9 16 37 93 44 113c2 7 3 17 1 21c-4 7 -13 31 -17 43c-25 63 -96 231 -123 287c-11 20 -16 28 -44 37
c-14 5 -23 10 -23 20z" />
    <glyph glyph-name="zcaron" unicode="&#x17e;" horiz-adv-x="401" 
d="M199 446c-8 0 -19 16 -32 40c-10 21 -39 72 -68 129c-4 8 -14 36 3 36c9 0 25 -14 30 -21c23 -30 43 -59 62 -85c3 -4 11 -4 13 -1c21 30 40 54 64 88c4 6 16 17 27 17c7 0 11 -14 6 -26c-17 -42 -50 -96 -74 -142c-11 -20 -22 -35 -31 -35zM209 393c72 0 117 4 139 4
c4 0 11 -2 15 -5s3 -10 1 -14c-9 -13 -27 -42 -50 -78c-27 -40 -101 -177 -143 -248c-4 -4 1 -9 4 -10c7 -3 64 -7 103 -7c9 0 19 5 25 13c7 7 36 39 53 61c11 16 19 22 23 22c9 0 11 -14 10 -20c-3 -22 -25 -72 -31 -103c-1 -4 -9 -14 -15 -14s-161 6 -208 6
c-44 0 -75 -4 -98 -5c-3 0 -12 7 -12 16c0 6 34 58 64 103c30 44 90 157 134 232c2 3 3 9 -1 10c-8 1 -61 5 -107 5c-9 0 -41 -33 -62 -67c-6 -8 -11 -17 -18 -17s-13 10 -11 20c1 9 3 20 8 35c6 20 9 50 9 67c0 5 0 6 5 10c6 4 10 4 13 3c14 -10 37 -19 55 -19h95z" />
    <glyph glyph-name="twodotenleader" unicode="&#x2025;" horiz-adv-x="500" 
d="M126 129c50 0 69 -51 68 -74c-1 -46 -37 -71 -70 -71c-30 0 -69 20 -69 73c0 55 48 72 71 72zM377 129c50 0 69 -51 68 -74c-2 -46 -37 -71 -71 -71c-29 0 -69 20 -69 73c0 55 49 72 72 72z" />
    <glyph glyph-name="onedotenleader" unicode="&#x2024;" horiz-adv-x="500" 
d="M251 135c52 0 72 -53 72 -77c-2 -48 -39 -73 -74 -73c-31 0 -72 20 -72 76s52 74 74 74z" />
    <glyph glyph-name="colonmonetary" unicode="&#x20a1;" horiz-adv-x="497" 
d="M278 615l8 75c0 2 5 7 7 7c13 0 24 -8 24 -13l-6 -64c-1 -6 2 -8 6 -8c12 0 22 -1 33 -2c5 0 8 3 8 6l9 75c0 2 10 6 13 6c5 0 18 -6 18 -13l-8 -71c0 -4 1 -8 4 -9c24 -7 50 -16 70 -21c3 -1 7 -3 7 -32v-65c0 -19 -14 -27 -16 -27c-6 0 -12 7 -15 20
c-7 31 -26 70 -49 85c-3 1 -7 2 -7 -3l-50 -518c0 -3 2 -7 4 -7c53 5 92 58 101 81c12 28 17 36 26 36c5 0 14 -11 12 -23c-3 -20 -16 -57 -18 -72c-2 -21 -20 -30 -32 -37c-7 -4 -50 -15 -93 -19c-4 0 -5 -3 -6 -9l-10 -80c-2 -4 -11 -8 -15 -7c-6 0 -18 5 -17 9l8 78
c1 6 1 7 -5 7c-8 1 -28 3 -36 5c-4 1 -7 -1 -7 -4l-11 -89c-2 -4 -18 -8 -22 -8c-6 1 -11 3 -11 7l11 94c1 8 0 11 -5 12c-78 29 -175 111 -175 286c0 125 66 274 240 305c3 1 5 3 5 7zM222 86l50 480c1 5 -2 8 -5 6c-69 -28 -112 -142 -112 -260c0 -110 24 -185 59 -230
c2 -1 7 -1 8 4zM299 40l55 529c0 4 -1 8 -4 9c-12 2 -26 2 -38 2c-2 -1 -6 -6 -6 -7l-54 -518c0 -2 3 -6 5 -6c11 -6 29 -12 38 -14c1 0 3 2 4 5z" />
    <glyph glyph-name="figuredash" unicode="&#x2012;" horiz-adv-x="311" 
d="M59 328c35 7 184 22 202 23c5 0 12 -6 12 -10c1 -24 -12 -64 -25 -65c-34 -3 -135 -11 -194 -17c-8 -1 -15 10 -15 15c0 17 9 52 20 54z" />
    <glyph glyph-name="oneeighth" unicode="&#x215b;" horiz-adv-x="696" 
d="M207 613c0 -5 -1 -29 -2 -79c-1 -56 0 -125 1 -182c0 -35 5 -39 41 -50c9 -2 19 -7 19 -16c0 -7 -8 -13 -22 -13c-9 0 -63 2 -85 2c-39 0 -70 -2 -78 -2c-14 0 -28 5 -28 14c0 8 6 14 28 18c29 6 34 17 36 36c3 21 4 63 4 127c0 39 -1 59 -2 73c0 5 -4 14 -10 16
c-10 4 -18 5 -27 8c-10 2 -22 6 -22 15c0 7 13 11 21 12c43 3 97 19 116 28c5 3 10 -2 10 -7zM560 638c12 0 24 -15 19 -21c-159 -247 -310 -481 -420 -646c-1 -2 -8 -7 -14 -3c-10 6 -17 20 -11 28c141 213 309 479 407 630c8 11 13 12 19 12zM537 344
c59 0 107 -38 107 -83c0 -36 -25 -53 -53 -70c-4 -3 -2 -7 0 -9c29 -18 65 -44 65 -91c0 -61 -62 -100 -123 -100c-88 0 -118 49 -118 88c0 30 24 48 62 71c4 1 5 4 0 6c-32 24 -53 49 -53 91c0 55 54 97 113 97zM533 319c-27 0 -45 -23 -45 -45c0 -30 29 -53 70 -73
c6 -2 8 -1 11 1c11 9 21 25 21 55c0 21 -22 62 -57 62zM542 16c25 0 44 19 44 45c0 30 -37 56 -78 77c-4 2 -6 1 -9 -1c-14 -10 -25 -25 -25 -47c0 -44 37 -74 68 -74z" />
    <glyph glyph-name="threeeighths" unicode="&#x215c;" horiz-adv-x="678" 
d="M154 621c58 0 90 -39 90 -70c0 -34 -29 -52 -59 -69c-2 -1 -2 -5 1 -6c51 -7 87 -30 87 -77c0 -54 -44 -96 -103 -121c-29 -14 -63 -18 -79 -18c-27 0 -60 18 -60 37c0 16 12 31 27 37c5 2 9 0 13 -4c23 -18 46 -33 72 -33c27 0 48 31 48 65c0 38 -20 71 -62 71
c-8 0 -23 -4 -35 -6c-4 -1 -10 0 -10 4c0 5 0 9 2 13c6 9 11 13 26 20c38 16 54 27 54 59c0 24 -20 46 -45 46c-19 0 -38 -11 -54 -26c-10 -11 -17 -11 -18 -7c-3 3 -6 14 -5 16c15 28 56 69 110 69zM542 638c12 0 24 -15 19 -21c-159 -247 -310 -481 -420 -646
c-1 -2 -8 -7 -14 -3c-10 6 -17 20 -11 28c141 213 309 479 407 630c8 11 13 12 19 12zM519 344c59 0 107 -38 107 -83c0 -36 -25 -53 -53 -70c-4 -3 -2 -7 0 -9c29 -18 65 -44 65 -91c0 -61 -62 -100 -123 -100c-88 0 -118 49 -118 88c0 30 24 48 62 71c4 1 5 4 0 6
c-32 24 -53 49 -53 91c0 55 54 97 113 97zM515 319c-27 0 -45 -23 -45 -45c0 -30 29 -53 70 -73c6 -2 8 -1 11 1c11 9 21 25 21 55c0 21 -22 62 -57 62zM524 16c25 0 44 19 44 45c0 30 -37 56 -78 77c-4 2 -6 1 -9 -1c-14 -10 -25 -25 -25 -47c0 -44 37 -74 68 -74z" />
    <glyph glyph-name="fiveeighths" unicode="&#x215d;" horiz-adv-x="676" 
d="M270 392c0 -88 -119 -132 -195 -132h-14c-5 0 -9 4 -9 8c0 7 11 20 17 21c54 7 118 27 118 81c0 41 -60 61 -132 72c-4 1 -12 11 -12 13c0 19 20 100 34 128c2 5 10 16 15 18c15 6 113 20 153 20c3 0 7 -7 7 -9c1 -12 -17 -64 -42 -66c-37 -2 -101 -3 -112 -6
c-2 0 -6 -4 -8 -7c-2 -6 -4 -9 -4 -14s2 -6 12 -8c92 -18 172 -42 172 -119zM542 638c12 0 24 -15 19 -21c-159 -247 -310 -481 -420 -646c-1 -2 -8 -7 -14 -3c-10 6 -17 20 -11 28c141 213 309 479 407 630c8 11 13 12 19 12zM517 344c59 0 107 -38 107 -83
c0 -36 -25 -53 -53 -70c-4 -3 -2 -7 0 -9c29 -18 65 -44 65 -91c0 -61 -62 -100 -123 -100c-88 0 -118 49 -118 88c0 30 24 48 62 71c4 1 5 4 0 6c-32 24 -53 49 -53 91c0 55 54 97 113 97zM513 319c-27 0 -45 -23 -45 -45c0 -30 29 -53 70 -73c6 -2 8 -1 11 1
c11 9 21 25 21 55c0 21 -22 62 -57 62zM522 16c25 0 44 19 44 45c0 30 -37 56 -78 77c-4 2 -6 1 -9 -1c-14 -10 -25 -25 -25 -47c0 -44 37 -74 68 -74z" />
    <glyph glyph-name="seveneighths" unicode="&#x215e;" horiz-adv-x="663" 
d="M156 613c87 0 129 1 138 1c4 0 8 -10 7 -13c-30 -47 -64 -112 -119 -224c-28 -59 -53 -103 -55 -107c-1 -2 -8 -9 -13 -9c-11 0 -22 8 -22 13c0 4 2 11 8 21c52 91 95 169 128 235c2 3 0 7 0 8c0 3 -19 6 -46 6c-31 0 -68 -1 -84 -2c-17 -2 -24 -5 -26 -9
c-4 -5 -13 -18 -15 -21c-4 -4 -17 -11 -22 -11s-7 7 -6 12c7 16 28 73 32 92c1 5 7 12 9 11c15 -3 37 -3 86 -3zM509 638c12 0 24 -15 19 -21c-159 -247 -310 -481 -420 -646c-1 -2 -8 -7 -14 -3c-10 6 -17 20 -11 28c141 213 309 479 407 630c8 11 13 12 19 12zM504 344
c59 0 107 -38 107 -83c0 -36 -25 -53 -53 -70c-4 -3 -2 -7 0 -9c29 -18 65 -44 65 -91c0 -61 -62 -100 -123 -100c-88 0 -118 49 -118 88c0 30 24 48 62 71c4 1 5 4 0 6c-32 24 -53 49 -53 91c0 55 54 97 113 97zM500 319c-27 0 -45 -23 -45 -45c0 -30 29 -53 70 -73
c6 -2 8 -1 11 1c11 9 21 25 21 55c0 21 -22 62 -57 62zM509 16c25 0 44 19 44 45c0 30 -37 56 -78 77c-4 2 -6 1 -9 -1c-14 -10 -25 -25 -25 -47c0 -44 37 -74 68 -74z" />
    <glyph glyph-name="onethird" unicode="&#x2153;" horiz-adv-x="700" 
d="M207 613c0 -5 -1 -29 -2 -79c-1 -56 0 -125 1 -182c0 -35 5 -39 41 -50c9 -2 19 -7 19 -16c0 -7 -8 -13 -22 -13c-9 0 -63 2 -85 2c-39 0 -70 -2 -78 -2c-14 0 -28 5 -28 14c0 8 6 14 28 18c29 6 34 17 36 36c3 21 4 63 4 127c0 39 -1 59 -2 73c0 5 -4 14 -10 16
c-10 4 -18 5 -27 8c-10 2 -22 6 -22 15c0 7 13 11 21 12c43 3 97 19 116 28c5 3 10 -2 10 -7zM560 638c12 0 24 -15 19 -21c-159 -247 -310 -481 -420 -646c-1 -2 -8 -7 -14 -3c-10 6 -17 20 -11 28c141 213 309 479 407 630c8 11 13 12 19 12zM543 346c58 0 90 -39 90 -70
c0 -34 -29 -52 -59 -69c-2 -1 -2 -5 1 -6c51 -7 87 -30 87 -77c0 -54 -44 -96 -103 -121c-29 -14 -63 -18 -79 -18c-27 0 -60 18 -60 37c0 16 12 31 27 37c5 2 9 0 13 -4c23 -18 46 -33 72 -33c27 0 48 31 48 65c0 38 -20 71 -62 71c-8 0 -23 -4 -35 -6c-4 -1 -10 0 -10 4
c0 5 0 9 2 13c6 9 11 13 26 20c38 16 54 27 54 59c0 24 -20 46 -45 46c-19 0 -38 -11 -54 -26c-10 -11 -17 -11 -18 -7c-3 3 -6 14 -5 16c15 28 56 69 110 69z" />
    <glyph glyph-name="twothirds" unicode="&#x2154;" horiz-adv-x="695" 
d="M148 620c61 0 106 -40 106 -101c0 -27 -18 -55 -49 -88c-31 -34 -55 -51 -84 -78c-5 -5 1 -8 3 -8c26 0 105 -1 110 0c7 0 19 8 35 29c4 5 10 12 15 12c9 0 13 -16 9 -25c-14 -28 -27 -77 -28 -82c-2 -5 -5 -6 -9 -6c-3 0 -125 3 -153 2h-58c-6 0 -18 10 -18 14
s3 10 8 14c26 23 64 61 94 96c26 30 38 66 38 95c0 38 -23 61 -55 61c-23 0 -45 -9 -61 -26c-7 -7 -14 -10 -19 -10c-4 0 -8 6 -8 13c0 5 2 14 11 24c29 38 71 64 113 64zM566 638c12 0 24 -15 19 -21c-159 -247 -310 -481 -420 -646c-1 -2 -8 -7 -14 -3
c-10 6 -17 20 -11 28c141 213 309 479 407 630c8 11 13 12 19 12zM538 346c58 0 90 -39 90 -70c0 -34 -29 -52 -59 -69c-2 -1 -2 -5 1 -6c51 -7 87 -30 87 -77c0 -54 -44 -96 -103 -121c-29 -14 -63 -18 -79 -18c-27 0 -60 18 -60 37c0 16 12 31 27 37c5 2 9 0 13 -4
c23 -18 46 -33 72 -33c27 0 48 31 48 65c0 38 -20 71 -62 71c-8 0 -23 -4 -35 -6c-4 -1 -10 0 -10 4c0 5 0 9 2 13c6 9 11 13 26 20c38 16 54 27 54 59c0 24 -20 46 -45 46c-19 0 -38 -11 -54 -26c-10 -11 -17 -11 -18 -7c-3 3 -6 14 -5 16c15 28 56 69 110 69z" />
    <glyph glyph-name="uni2014.alt" unicode="&#xe44a;" horiz-adv-x="660" 
d="M68 247l534 1c2 0 10 -6 10 -11c0 -22 -10 -54 -24 -54l-523 1c-8 0 -15 9 -15 15c0 17 7 48 18 48z" />
    <glyph glyph-name="R_p" unicode="&#xf6dd;" horiz-adv-x="950" 
d="M475 445c0 -82 -46 -109 -97 -134c-3 -2 -5 -6 -1 -14c18 -39 66 -148 115 -215c17 -23 32 -37 51 -51c2 -2 8 0 8 5c0 58 1 159 0 214c0 34 -3 43 -15 54c-19 16 -23 22 -23 29c0 5 10 13 23 17c10 3 59 21 83 35c9 5 19 8 21 8c4 0 10 -6 10 -11c0 -17 -2 -29 -2 -43
c0 -3 3 -5 7 -2c13 8 37 20 53 28c15 7 27 13 53 13c93 0 153 -86 153 -175c0 -64 -27 -122 -76 -161c-48 -41 -101 -51 -127 -51c-16 0 -36 1 -54 5c-4 1 -7 -3 -7 -15c0 -98 1 -104 2 -121c1 -25 4 -33 41 -43c18 -5 23 -9 23 -15c0 -8 -16 -19 -23 -19c-3 0 -47 3 -81 3
c-24 0 -93 -4 -116 -4c-19 0 -26 8 -26 16c0 6 6 13 25 17c40 8 50 18 54 85c1 18 1 38 2 78c0 5 -2 11 -6 11c-48 3 -110 5 -158 65c-25 32 -59 102 -98 177c-9 18 -29 44 -59 44c-8 0 -15 -4 -15 -11c-2 -33 0 -138 0 -175c2 -40 8 -47 47 -58c15 -4 27 -11 27 -19
c0 -9 -20 -15 -29 -15c-17 0 -76 3 -111 3c-39 0 -71 -3 -89 -3c-22 0 -31 6 -31 15c0 8 12 14 23 17c43 10 50 19 53 56c4 48 6 116 6 258c0 147 0 155 -2 172c-3 17 -8 28 -50 38c-12 3 -21 10 -21 18c0 7 12 13 23 13h73c32 0 110 5 158 5c87 0 183 -41 183 -144z
M363 430c0 54 -27 124 -108 124c-13 0 -22 -2 -29 -6c-5 -3 -9 -11 -10 -26c-1 -36 -3 -152 0 -192c0 -12 1 -19 9 -21c10 -3 10 -4 24 -4c25 0 49 5 63 13c29 18 51 54 51 112zM707 320c-18 0 -33 -4 -48 -14c-4 -2 -7 -14 -9 -24c-2 -26 -2 -127 0 -169c1 -18 2 -32 7 -42
c14 -27 41 -44 69 -44c13 0 25 5 37 12c25 16 49 60 49 135c0 65 -33 146 -105 146z" />
    <glyph glyph-name="zero.slash" unicode="&#xf638;" horiz-adv-x="497" 
d="M255 625c41 0 74 -13 100 -33c4 -3 7 0 9 4l18 33c4 9 7 13 13 13c15 0 27 -13 25 -17c0 0 -10 -21 -27 -57c-3 -5 -2 -9 2 -13c51 -67 71 -167 71 -239c0 -177 -56 -263 -118 -300c-30 -19 -68 -29 -101 -29c-43 0 -80 16 -108 37c-5 3 -8 1 -10 -4
c-15 -29 -26 -48 -28 -50c-2 -3 -10 -5 -14 -1c-12 8 -16 16 -13 23l29 58c2 3 0 8 -2 11c-49 68 -70 161 -70 236c0 158 45 254 125 302c39 23 76 26 99 26zM180 109c20 -51 45 -88 84 -88c31 0 47 19 60 43c18 33 32 103 32 239c0 32 -7 92 -18 144c-1 6 -3 7 -6 1
c-48 -98 -106 -227 -152 -322c-2 -4 -2 -13 0 -17zM241 591c-28 0 -48 -18 -61 -42c-22 -41 -38 -84 -38 -227c0 -46 5 -101 16 -146c1 -4 6 -4 8 1l151 324c2 4 1 15 0 17c-14 42 -43 73 -76 73z" />
    <glyph glyph-name="Euro" unicode="&#x20ac;" horiz-adv-x="497" 
d="M401 373c0 -13 -11 -29 -20 -29l-184 3c-3 0 -8 -4 -8 -9c0 -13 -1 -42 0 -49c1 -3 4 -4 8 -4l170 2c6 0 9 -11 9 -14c0 -12 -13 -27 -20 -27l-158 3c-3 0 -5 -3 -5 -7c6 -100 51 -212 137 -212c40 0 75 32 98 80c12 23 19 31 26 31s11 -11 11 -21c0 -23 -13 -64 -20 -80
c-8 -18 -16 -17 -33 -27c-22 -11 -55 -20 -104 -20c-137 0 -221 94 -238 249c-1 7 -3 7 -6 8l-42 1c-9 0 -11 1 -11 8c0 9 13 24 19 25h30c6 0 7 2 7 7c0 10 0 38 1 48c1 3 0 9 -6 9l-25 1c-8 0 -11 1 -11 6c0 10 11 24 18 24h22c3 0 7 3 7 6c26 118 99 241 258 241
c30 0 50 -4 73 -11c18 -6 30 -10 45 -13c6 -1 12 -24 12 -34v-68c0 -19 -7 -29 -15 -29c-6 0 -13 10 -17 24c-8 26 -19 51 -33 66c-15 20 -40 33 -67 33c-68 0 -118 -70 -137 -207c-1 -6 2 -7 7 -7l191 4c6 0 11 -8 11 -11z" />
    <glyph glyph-name="franc" unicode="&#x20a3;" horiz-adv-x="497" 
d="M325 190c0 -17 -7 -25 -16 -24h-73c-2 0 -8 -3 -8 -11v-62c2 -47 10 -52 56 -65c15 -4 25 -12 25 -20c0 -7 -10 -12 -27 -12c-25 0 -85 4 -122 4s-82 -4 -101 -4c-13 0 -24 8 -24 13c0 10 10 16 26 20c40 9 49 22 52 55c1 15 1 35 3 72c0 6 -1 9 -7 9l-50 1
c-4 0 -8 5 -8 13s5 21 9 21l51 1c5 0 7 4 7 8c1 36 1 87 1 143c0 92 0 156 -2 180c-2 33 -11 44 -47 53c-19 5 -28 11 -28 20c0 6 12 12 26 12c43 0 81 -4 117 -4h104c123 0 142 1 160 6c3 0 9 -9 9 -11c-1 -29 -1 -72 0 -104c1 -12 -7 -24 -15 -24c-7 0 -13 9 -20 31
c-8 33 -24 62 -58 66c-28 3 -98 6 -123 6c-6 0 -10 -9 -10 -15c-2 -20 -5 -163 -4 -211c0 -5 4 -11 10 -11c59 0 65 1 89 3c29 2 32 22 41 44c6 14 11 23 21 23c8 0 11 -14 11 -22c0 -12 -2 -39 -2 -56c0 -28 2 -54 2 -67c0 -23 1 -31 -15 -31c-4 0 -10 9 -17 25
c-8 21 -17 35 -29 38c-16 3 -35 6 -103 6c-4 0 -8 -4 -8 -10c-1 -23 -1 -62 0 -88c0 -5 2 -10 9 -10h80c4 0 8 -6 8 -11z" />
    <glyph glyph-name="lira" unicode="&#x20a4;" horiz-adv-x="491" 
d="M44 233c-4 0 -5 7 -5 13c0 9 4 21 8 22c25 1 51 2 72 3c2 0 6 2 7 8c3 14 4 37 5 41c1 6 1 11 -8 11l-70 -2c-4 0 -6 6 -6 12c1 8 8 21 11 22l70 3c8 1 8 3 10 10c22 102 48 168 111 214c20 16 66 35 106 35c70 0 102 -38 101 -73c0 -39 -39 -59 -58 -59
c-10 0 -13 3 -12 10c1 9 2 21 3 28c0 42 -20 67 -46 67c-32 0 -67 -43 -88 -217c-2 -10 -1 -12 8 -12l117 5c4 0 7 -2 6 -15c-1 -10 -7 -18 -11 -18l-119 -5c-2 0 -6 -4 -7 -11c-3 -13 -6 -30 -8 -41c0 -3 2 -7 5 -7l124 6c4 0 6 -2 5 -14c0 -10 -7 -21 -11 -21l-127 -7
c-6 0 -8 -3 -11 -10c-18 -51 -46 -82 -73 -106c-3 -2 -4 -7 1 -7c26 0 59 -9 107 -33c39 -18 93 -45 117 -45c33 0 53 13 54 45c1 21 -2 45 -7 58c-1 8 2 15 12 15c20 0 38 -13 39 -50c0 -57 -87 -147 -181 -147c-44 0 -92 39 -137 74c-24 20 -38 23 -50 23
c-10 0 -34 -33 -49 -47c-10 -9 -33 -27 -44 -27c-15 0 -26 10 -26 25c-1 36 53 80 93 100c7 5 15 14 20 27c10 21 15 55 19 94c0 4 -4 6 -7 6c-19 -1 -47 -2 -70 -3z" />
    <glyph glyph-name="peseta" unicode="&#x20a7;" horiz-adv-x="497" 
d="M195 435h132c5 0 7 5 7 7c-9 69 -44 138 -111 138c-12 0 -19 -2 -24 -6c-7 -5 -9 -14 -9 -36c-1 -9 -1 -54 -1 -94c0 -8 2 -9 6 -9zM479 435c4 0 5 -4 5 -11c0 -9 -8 -24 -13 -24h-18c-7 0 -10 -4 -11 -12c-7 -60 -37 -94 -60 -114c-28 -23 -68 -39 -108 -39
c-11 0 -25 1 -34 5c-15 6 -19 14 -19 21c0 5 5 10 9 9c4 0 17 -1 22 -1c35 0 75 45 82 122c1 5 -2 9 -5 9h-135c-1 0 -6 -4 -6 -10c0 -88 0 -183 1 -271c0 -64 4 -77 56 -87c19 -4 29 -12 29 -20s-13 -15 -27 -15c-23 0 -76 3 -116 3c-28 0 -67 -4 -94 -4
c-24 0 -36 5 -36 15c0 7 9 13 19 16c45 13 49 24 52 72c1 17 6 117 7 292c0 3 -2 9 -7 9h-47c-3 0 -4 5 -4 13s5 22 10 22h41c3 0 7 2 7 8c0 22 0 55 -1 74c-2 39 -7 48 -45 58c-19 4 -28 11 -28 17c0 8 6 12 18 14c5 1 19 1 27 1c41 1 91 7 167 7c91 0 141 -22 173 -56
c35 -35 48 -80 52 -114c2 -7 4 -9 11 -9h26z" />
    <glyph glyph-name="percent.alt" unicode="&#xe1cf;" horiz-adv-x="638" 
d="M476 151c-86 0 -122 72 -122 129c0 74 41 141 124 141c80 0 120 -74 120 -130c0 -78 -44 -140 -122 -140zM160 354c-81 0 -121 72 -121 133c0 76 44 138 124 138c78 0 120 -71 120 -132c0 -76 -47 -139 -123 -139zM465 643c8 0 27 -16 21 -24
c-101 -160 -218 -341 -305 -475c-2 -4 -12 -4 -16 1c-9 7 -12 17 -8 22c89 142 219 345 295 466c6 8 11 10 13 10zM167 379c33 0 39 71 39 102c0 43 -12 119 -50 119c-32 0 -41 -58 -41 -104c0 -36 13 -117 52 -117zM483 176c32 0 39 69 39 103c0 41 -11 117 -51 117
c-33 0 -40 -59 -40 -103c0 -35 12 -117 52 -117z" />
    <glyph glyph-name="afii61352" unicode="&#x2116;" horiz-adv-x="865" 
d="M513 630c20 0 38 -11 45 -28c2 -6 -2 -16 -8 -16c-44 -3 -83 -45 -84 -166c0 -86 1 -241 2 -332c1 -60 -9 -105 -21 -105c-29 0 -62 59 -71 76c-69 140 -131 280 -204 417c-4 6 -9 -1 -9 -3c0 -116 -2 -210 -1 -302c2 -158 -44 -188 -85 -188c-35 0 -54 26 -54 49
c0 8 2 26 13 22c9 -3 11 -2 18 -2c34 0 69 21 70 165c0 49 2 218 1 306c-1 28 -4 45 -35 55c-11 4 -25 8 -37 11c-9 2 -24 8 -24 16c0 6 9 14 23 14c27 1 107 -1 142 -4c9 0 23 -17 27 -22c18 -24 31 -54 51 -91c52 -99 104 -194 149 -292c3 -6 10 -4 10 1
c-1 93 -4 201 -4 269c-1 132 52 150 86 150zM684 254c-96 0 -148 81 -148 156c0 114 79 164 146 164c87 0 147 -70 147 -162c0 -80 -58 -158 -145 -158zM691 283c47 0 51 91 51 121c0 77 -26 141 -66 141c-34 0 -52 -50 -52 -118c0 -83 27 -144 67 -144zM582 202l222 26
c2 0 8 -8 8 -11c0 -25 -11 -43 -15 -44l-220 -23c-5 -1 -10 6 -10 12c0 19 9 39 15 40z" />
    <glyph glyph-name="estimated" unicode="&#x212e;" horiz-adv-x="817" 
d="M782 316h-605c-3 0 -5 -1 -5 -4v-183c0 -8 4 -15 9 -21c57 -61 139 -99 229 -99c96 0 182 43 240 111h55c-68 -79 -176 -131 -296 -131c-206 0 -374 150 -374 336s168 336 374 336s373 -150 373 -336v-9zM646 340v184c0 9 -4 16 -10 22c-58 58 -138 95 -226 95
c-90 0 -170 -38 -228 -98c-6 -6 -10 -14 -10 -23v-180c0 -3 2 -5 5 -5h464c3 0 5 2 5 5z" />
    <glyph glyph-name="estimated.alt" unicode="&#xe17e;" horiz-adv-x="627" 
d="M354 621c145 0 231 -92 231 -207c0 -12 -23 -37 -44 -37c-18 0 -269 0 -352 1c-3 0 -12 -6 -14 -12c-4 -11 -5 -25 -5 -49c0 -147 90 -255 230 -255c80 0 122 28 154 63c7 7 14 12 20 12c5 0 7 -6 7 -12s-5 -21 -12 -28c-60 -75 -141 -109 -233 -109
c-177 0 -292 134 -292 311c0 79 30 183 127 258c57 45 121 64 183 64zM342 589c-62 0 -140 -63 -159 -167c-1 -4 3 -10 6 -10c44 -3 167 0 213 3c17 1 59 13 59 55c0 65 -53 119 -119 119z" />
    <glyph glyph-name="Q.alt" unicode="&#xe076;" horiz-adv-x="782" 
d="M395 650c236 0 342 -192 342 -321c0 -182 -103 -264 -200 -311c-3 -3 -9 -8 -5 -14c13 -24 193 -136 344 -196c99 -39 206 -65 298 -65c98 0 162 26 207 55c8 4 20 5 20 -7c0 -6 -16 -29 -31 -41c-51 -43 -169 -79 -269 -79c-235 0 -424 93 -720 282
c-49 32 -104 49 -124 57c-97 43 -211 130 -211 307c0 116 55 204 138 266c39 28 118 67 211 67zM368 613c-34 0 -66 -11 -98 -36c-62 -46 -87 -141 -87 -248c0 -98 39 -181 92 -237c45 -47 103 -76 150 -76c14 0 59 8 87 27c39 26 87 105 87 245c0 52 -8 155 -66 236
c-40 55 -102 89 -165 89z" />
    <glyph glyph-name="W.alt" unicode="&#xe0a3;" horiz-adv-x="992" 
d="M9 625c0 7 9 13 27 13c21 0 103 -5 124 -5c29 0 61 3 106 3c17 0 28 -4 28 -13c-1 -13 -10 -16 -26 -21c-27 -9 -44 -21 -36 -51c19 -57 94 -265 128 -364c1 -3 5 -4 8 2c31 75 62 150 106 275c2 5 -1 32 -1 33c-2 11 -23 68 -29 78c-10 13 -16 22 -40 27
c-12 3 -27 11 -27 20c0 7 10 14 29 14c18 0 84 -3 112 -3c27 0 88 2 107 2c14 0 25 -6 25 -14s-10 -14 -26 -19c-29 -7 -46 -17 -46 -35c0 -14 10 -35 22 -73c20 -57 90 -243 116 -308c4 -8 8 -8 10 -3c28 72 78 207 105 292c18 58 20 70 20 85c0 16 -11 35 -58 45
c-12 3 -26 10 -26 17c-1 6 10 14 27 14c40 0 54 -3 89 -3c38 0 72 4 93 4c19 0 27 -7 27 -13c0 -10 -13 -17 -24 -20c-50 -14 -57 -18 -87 -84c-25 -58 -98 -252 -138 -365c-11 -29 -35 -103 -52 -151c-3 -9 -18 -22 -27 -22c-10 0 -20 14 -31 48c-37 110 -99 276 -141 384
c-1 4 -8 2 -10 -1c-48 -127 -108 -271 -131 -335c-8 -25 -20 -57 -32 -78c-6 -11 -20 -20 -23 -20c-9 0 -16 10 -18 20c-9 35 -27 93 -48 158c-30 87 -112 335 -150 404c-14 25 -31 33 -59 42c-11 3 -23 11 -23 21z" />
    <glyph glyph-name="a.end" unicode="&#xe0be;" horiz-adv-x="605" 
d="M219 407c61 0 90 -32 105 -54c12 -16 23 -41 23 -86c0 -39 -4 -153 -4 -164c0 -27 11 -38 25 -48c21 -14 57 -18 90 -18c34 0 44 4 55 12c7 5 10 16 10 32c0 9 -4 36 -5 40c-3 9 -1 15 9 24c8 8 35 23 49 22c9 0 17 -22 17 -33c0 -35 -20 -68 -49 -95
c-31 -32 -98 -52 -143 -52c-63 0 -110 6 -134 21c-8 5 -18 16 -22 27c-2 6 -7 7 -10 5c-24 -16 -64 -35 -78 -40c-11 -5 -27 -9 -44 -9c-37 0 -79 45 -79 100c0 19 6 37 16 51c11 14 28 20 37 24c21 9 115 33 138 40c13 4 19 11 19 15c1 9 2 65 2 78c-2 24 -21 62 -67 62
c-17 0 -27 -3 -35 -7c-3 -2 -4 -10 -4 -44c0 -5 -2 -6 -4 -8c-5 -5 -83 -41 -89 -41s-14 9 -14 15c0 29 24 56 87 96c36 24 84 35 99 35zM188 52c9 0 31 4 42 11c5 4 8 12 8 19c2 26 4 69 4 87c0 4 -4 9 -7 9c-16 0 -60 -14 -77 -22c-17 -10 -23 -17 -23 -43
c0 -40 34 -61 53 -61z" />
    <glyph glyph-name="d.end" unicode="&#xe164;" horiz-adv-x="704" 
d="M336 33c0 6 -4 7 -7 5c-37 -26 -88 -47 -123 -47c-52 0 -88 20 -117 47c-41 37 -58 93 -58 142c0 104 60 157 109 186c34 21 92 39 134 39c24 0 38 -1 55 -4c4 0 8 6 8 10c3 29 0 168 -2 191c0 14 -6 28 -41 42c-10 3 -16 9 -16 12c0 5 10 16 16 17c26 3 100 15 127 27
c8 3 13 5 20 5c4 0 9 -10 8 -21c-2 -25 -8 -193 -8 -379c0 -201 3 -204 3 -223c1 -12 5 -22 20 -27c14 -7 53 -12 85 -12c41 0 54 2 66 11c7 5 8 16 8 30c0 11 -8 42 -9 46c-2 7 -1 13 10 24c7 8 38 28 52 28c10 0 18 -27 18 -39c0 -43 -33 -88 -60 -109
c-31 -25 -70 -38 -115 -38c-56 0 -77 4 -114 4c-17 0 -51 -4 -57 -5c-6 0 -13 2 -13 12c0 8 1 18 1 26zM337 105c1 36 2 137 0 178c0 5 -6 29 -17 42c-24 30 -57 43 -84 43c-16 0 -39 -10 -59 -31c-28 -32 -35 -87 -35 -120c0 -86 56 -167 133 -167c16 0 36 4 50 15
c5 4 12 27 12 40z" />
    <glyph glyph-name="e.end" unicode="&#xe171;" horiz-adv-x="682" 
d="M238 407c43 0 83 -14 107 -38c33 -32 39 -67 39 -86s-18 -31 -34 -31c-46 0 -154 1 -196 1c-9 0 -13 -3 -15 -11c-2 -7 -4 -8 -4 -23c0 -71 25 -109 58 -138c50 -42 132 -57 188 -57c166 0 202 45 220 78c5 10 3 31 -6 45c-6 11 -8 20 -8 26c0 16 28 31 45 31
c20 0 38 -18 38 -46c0 -40 -40 -90 -90 -124c-43 -30 -145 -72 -261 -72c-61 0 -194 10 -253 101c-25 40 -34 79 -34 126c0 90 53 160 114 193c27 16 61 25 92 25zM229 378c-39 0 -77 -51 -84 -83c-1 -6 -1 -11 9 -11c9 0 83 1 95 1c17 1 38 10 38 31c0 34 -23 62 -58 62z
" />
    <glyph glyph-name="h.end" unicode="&#xe197;" horiz-adv-x="699" 
d="M445 249c1 -63 0 -134 1 -178c1 -11 5 -16 15 -21c15 -6 52 -9 84 -9c41 0 56 5 68 13c7 6 9 17 9 26s-10 39 -14 49c-3 7 0 19 6 24c8 8 39 31 52 30c17 0 23 -30 23 -39c-1 -44 -27 -85 -55 -109c-29 -26 -72 -39 -117 -39c-46 0 -87 4 -115 4c-37 0 -58 -4 -91 -4
c-19 0 -27 10 -27 15c0 6 7 12 22 16c24 7 28 20 31 49c2 22 3 132 3 170c0 55 -13 70 -26 81c-16 13 -34 20 -61 20c-29 0 -52 -10 -58 -13c-3 -2 -9 -16 -10 -23c-3 -60 -3 -203 -2 -229c1 -34 10 -45 33 -52c16 -4 25 -10 25 -17c0 -11 -15 -15 -29 -15c-8 0 -44 2 -91 2
c-42 0 -68 -3 -85 -3c-12 0 -25 5 -25 14c0 6 7 13 28 19c29 11 33 28 35 49c4 35 8 139 8 388c0 48 -1 111 -3 126c-2 19 -9 22 -37 41c-4 2 -9 10 -9 17c0 4 2 7 9 9c11 2 86 18 120 37c13 7 17 8 21 8c5 0 10 -9 10 -12c-9 -94 -9 -312 -9 -328c0 -2 4 -8 7 -6
c32 28 81 48 118 48c51 0 86 -19 107 -48c20 -27 29 -67 29 -110z" />
    <glyph glyph-name="m.end" unicode="&#xe1af;" horiz-adv-x="961" 
d="M184 303v-232c0 -21 8 -33 35 -41c19 -6 22 -10 22 -18c0 -6 -12 -14 -25 -14c-4 0 -63 2 -101 2c-33 0 -60 -4 -81 -4c-14 0 -27 5 -27 14c0 6 6 12 24 17c35 8 38 19 42 61c2 26 6 99 6 196c0 11 -2 18 -8 23c-21 21 -34 33 -34 39s11 16 18 18c25 8 86 38 110 50
c5 3 7 2 9 1c5 -3 8 -11 8 -13c0 -14 -4 -37 -4 -47c0 -2 4 -9 7 -6c39 32 85 58 133 58c28 0 53 -8 69 -19c19 -12 31 -31 37 -41c1 -2 8 -2 9 -1c19 14 48 31 73 44c24 11 41 14 59 14c38 0 62 -14 82 -33c29 -26 40 -64 42 -104c1 -24 3 -123 4 -193c1 -12 4 -16 19 -22
c14 -6 49 -9 81 -9c41 0 56 4 66 11c7 6 9 16 9 26c0 8 -7 40 -13 50c-4 7 2 19 9 25c8 8 40 28 53 28c16 0 21 -31 20 -40c0 -34 -26 -83 -53 -106c-30 -27 -68 -41 -112 -41c-61 0 -105 4 -132 4c-31 0 -61 -3 -83 -3c-18 0 -24 9 -24 15c0 7 8 12 20 16c24 7 30 17 32 54
c1 26 0 139 0 172c0 17 -2 35 -14 54s-33 34 -63 34c-35 0 -53 -13 -63 -20c-6 -6 -8 -20 -8 -31c0 -7 0 -192 2 -214c3 -32 6 -41 42 -50c11 -3 20 -9 20 -16c0 -6 -9 -14 -25 -14c-23 0 -67 3 -90 3c-21 0 -61 -2 -82 -2c-25 0 -28 8 -28 15c0 4 6 11 19 15
c25 8 35 17 35 53l2 172c0 39 -8 56 -13 63c-12 18 -35 31 -64 31c-22 0 -47 -10 -61 -21c-6 -4 -10 -17 -10 -23z" />
    <glyph glyph-name="n.end" unicode="&#xe1b2;" horiz-adv-x="711" 
d="M454 246c0 -56 1 -158 2 -172c1 -9 6 -17 15 -21c14 -7 53 -10 85 -10c41 0 54 3 64 11c7 5 8 17 8 26s-5 37 -11 47c-3 6 1 17 8 24s40 28 54 28c15 -1 20 -33 20 -42c-1 -37 -26 -77 -54 -101c-29 -26 -68 -40 -113 -40c-60 0 -103 4 -131 4c-31 0 -60 -3 -83 -3
c-17 0 -24 9 -24 15c0 7 9 12 21 16c23 7 29 14 31 51c2 33 2 155 2 184c0 19 -6 45 -23 61c-11 11 -33 20 -57 20c-35 0 -51 -9 -66 -19c-5 -4 -8 -15 -9 -21c-1 -16 1 -232 2 -244c1 -14 4 -21 35 -31c10 -4 17 -10 17 -17c0 -8 -11 -14 -28 -14c-19 0 -56 2 -77 2
c-37 0 -76 -3 -93 -3s-26 6 -26 15c0 8 10 13 20 17c34 11 38 18 41 55c3 30 5 111 5 213c0 11 -6 19 -29 39c-8 8 -9 11 -9 15c0 6 10 17 18 20c19 7 61 26 77 33s30 15 36 15s12 -11 12 -16c0 -6 -3 -36 -3 -45c0 -5 7 -5 9 -4c40 31 80 53 125 53c49 0 79 -24 93 -40
c22 -26 36 -70 36 -121z" />
    <glyph glyph-name="r.end" unicode="&#xe1d7;" horiz-adv-x="563" 
d="M81 110v165c0 22 -2 33 -12 42c-13 10 -34 25 -34 29c0 3 3 17 14 21c36 11 83 26 101 37c11 7 20 12 23 12c7 0 14 -8 14 -11c0 -18 -2 -65 -3 -84c0 -3 4 -5 7 -1c7 9 48 52 72 68c15 10 35 23 57 23c29 0 57 -16 83 -32c30 -19 63 -32 76 -32c15 0 34 5 34 26
c0 9 -10 32 -16 42c-3 4 -1 17 7 26c8 7 18 16 31 16c17 0 32 -20 32 -46s-23 -59 -48 -82c-26 -24 -61 -47 -95 -47c-20 0 -42 6 -83 29c-32 18 -54 26 -67 26c-19 0 -38 -6 -61 -36c-20 -25 -25 -42 -25 -57c0 -20 2 -141 3 -156c4 -54 21 -52 66 -64c16 -4 21 -12 21 -16
c0 -8 -12 -12 -27 -12c-33 0 -83 4 -139 4c-21 0 -44 -3 -67 -3c-13 0 -25 3 -25 14c0 8 15 13 23 16c36 12 37 23 38 83z" />
    <glyph glyph-name="longs" unicode="&#x17f;" horiz-adv-x="273" 
d="M194 292c0 -16 2 -173 5 -213c2 -26 8 -41 41 -50c18 -4 26 -12 26 -16c0 -7 -11 -17 -30 -17c-12 0 -65 4 -91 4c-37 0 -77 -4 -100 -4c-11 0 -24 4 -24 14c0 5 10 13 21 16c40 12 41 21 42 69c1 39 3 180 3 232c0 4 -6 12 -13 13c-9 0 -21 2 -32 3c-4 0 -11 8 -11 16
c0 4 22 18 43 35c7 6 12 10 12 16c0 38 11 97 33 141c24 49 52 86 97 116c40 27 81 38 115 38c20 0 52 -6 68 -18c11 -7 25 -26 25 -41c0 -22 -19 -47 -36 -53c-5 -2 -16 -4 -21 -4c-7 0 -16 3 -30 19c-20 20 -47 46 -73 46c-18 0 -28 -7 -38 -22c-18 -26 -32 -77 -32 -232
v-108z" />
    <glyph glyph-name="t.end" unicode="&#xe1eb;" horiz-adv-x="505" 
d="M166 477c8 0 15 -11 15 -20v-48c0 -9 6 -16 13 -16c11 0 47 -2 96 -2c46 0 90 -3 128 0c30 3 47 12 47 33c0 17 -12 37 -23 50c-5 7 4 20 19 33c5 4 16 10 25 10c20 0 34 -30 34 -51c0 -53 -50 -96 -72 -107c-32 -16 -64 -21 -122 -21c-54 0 -122 -1 -135 -3
c-5 -1 -9 -13 -9 -19c0 -47 1 -135 1 -188c0 -25 3 -39 14 -51c10 -12 28 -19 48 -19s56 15 70 22c3 2 11 -2 11 -12c0 -12 -17 -30 -23 -36c-22 -19 -59 -44 -112 -44c-41 0 -82 20 -97 43c-11 17 -19 37 -19 75c0 41 3 180 3 210c0 12 -3 15 -11 17c-6 2 -16 5 -25 7
c-8 1 -15 11 -15 18c0 5 10 14 17 18c31 24 75 60 97 82c11 12 21 19 25 19z" />
    <glyph glyph-name="t.endalt" unicode="&#xe1ec;" horiz-adv-x="558" 
d="M166 477c8 0 16 -10 15 -18v-54c0 -4 6 -11 11 -11h116c5 0 15 -1 16 -10c0 1 3 -28 3 -40c0 -9 -15 -11 -23 -11c-6 0 -93 1 -110 1c-8 0 -11 -10 -11 -15v-181c0 -42 8 -69 41 -90c32 -19 85 -24 120 -24c90 0 126 25 140 45c4 6 0 18 -6 26c-6 10 -10 15 -10 22
c0 24 21 45 42 45c15 0 36 -14 36 -46c0 -49 -62 -97 -110 -116c-50 -19 -114 -27 -178 -27c-46 0 -144 11 -174 71c-7 14 -9 40 -9 58c0 48 3 173 3 220c0 8 -3 11 -32 18c-9 2 -21 7 -21 14c0 5 9 14 15 19c33 25 78 59 101 83c12 12 21 21 25 21z" />
    <glyph glyph-name="u.end" unicode="&#xe1f5;" horiz-adv-x="690" 
d="M75 94c0 71 -1 169 -3 222c-1 28 -17 35 -34 42c-9 4 -19 13 -19 22c0 5 7 10 17 10c28 0 132 10 136 10s9 -11 9 -15c2 -96 0 -226 0 -271c0 -20 9 -35 19 -43c12 -10 37 -18 56 -18s43 8 61 22c6 4 13 18 13 24c0 64 -1 169 -1 223c0 8 -4 17 -18 23
c-15 5 -29 10 -42 15c-7 2 -14 11 -14 19c0 4 7 10 14 10c40 0 102 6 133 12c10 2 17 4 24 4c8 0 11 -12 11 -16c-1 -31 -2 -308 -2 -315c1 -11 5 -14 20 -20c14 -6 54 -10 86 -10c42 0 55 4 66 12c10 7 9 13 9 25c0 11 -12 48 -13 52c-1 5 2 16 8 21c8 8 35 26 49 26
c13 0 21 -33 21 -45c0 -42 -24 -74 -52 -97c-29 -27 -82 -42 -125 -42c-55 0 -71 4 -109 4c-17 0 -40 -2 -55 -4c-5 -2 -12 -2 -12 5c0 6 2 22 3 39c0 5 -5 9 -7 7c-25 -18 -59 -39 -72 -44c-17 -8 -35 -15 -64 -15c-47 0 -80 20 -101 53c-7 10 -12 40 -12 53z" />
    <glyph glyph-name="z.end" unicode="&#xe45d;" horiz-adv-x="604" 
d="M133 0c-43 0 -66 0 -88 -1c-4 0 -19 12 -19 21c0 6 21 39 47 78c31 46 117 187 153 250c2 3 -1 8 -6 8c-7 0 -52 1 -98 1c-18 0 -56 -52 -65 -65c-6 -7 -12 -13 -21 -13c-4 0 -8 4 -8 11c0 9 3 22 8 37c6 20 10 55 10 72c0 6 1 7 6 11c6 4 12 4 15 1
c12 -11 26 -18 43 -18h64c74 0 152 4 172 3c4 0 13 -5 16 -9c4 -2 4 -7 1 -10c-5 -8 -24 -41 -48 -78c-26 -40 -98 -165 -139 -237c-2 -4 -2 -11 0 -12c8 -3 127 -10 184 -10c116 0 171 10 170 71c0 17 -5 24 -12 37c-5 8 -8 13 -8 19c0 3 3 12 8 17c11 14 38 32 47 32
c14 0 26 -24 26 -54c0 -46 -28 -93 -54 -114c-30 -24 -85 -51 -156 -51s-200 3 -248 3z" />
    <glyph glyph-name="c_h" unicode="&#xe14f;" horiz-adv-x="904" 
d="M273 402c30 0 80 -8 98 -22c13 -9 17 -23 17 -36c0 -18 -33 -47 -39 -47c-9 0 -25 7 -46 25c-27 22 -48 43 -79 43c-11 0 -28 -6 -43 -22c-25 -26 -39 -76 -39 -122c0 -66 27 -99 32 -105c19 -26 55 -54 109 -54c29 0 62 12 96 33c5 3 13 0 13 -8c0 -10 -8 -23 -16 -31
c-34 -36 -92 -67 -154 -67c-73 0 -129 38 -157 80c-20 31 -33 75 -33 116c0 78 40 135 100 174c35 24 101 43 141 43zM687 407c52 0 87 -19 108 -48c20 -27 28 -67 28 -110c1 -63 3 -136 4 -180c1 -25 13 -34 40 -41c20 -5 26 -11 26 -18c0 -8 -8 -14 -29 -14
c-29 0 -56 4 -82 4c-37 0 -57 -3 -92 -3c-18 0 -25 7 -25 13s8 12 21 16c24 7 28 17 31 50c2 22 2 147 2 167c0 51 -12 71 -25 82c-15 13 -35 22 -61 22c-30 0 -53 -11 -57 -14s-11 -19 -12 -34c-3 -53 -3 -188 -2 -217c1 -34 10 -46 34 -52c16 -4 24 -11 24 -17
c0 -11 -16 -14 -29 -14c-8 0 -44 1 -91 1c-42 0 -69 -3 -86 -3c-11 0 -25 5 -25 14c0 6 7 13 28 19c29 11 33 28 35 49c4 35 9 151 9 401c0 33 0 87 -3 107c-3 23 -10 26 -37 45c-4 2 -10 12 -10 19c0 3 3 7 7 7c17 4 94 19 130 40c8 5 12 7 17 7c4 0 10 -10 10 -13
c-11 -75 -13 -314 -12 -331c0 -2 4 -7 7 -5c35 32 80 51 117 51z" />
    <glyph glyph-name="c_k" unicode="&#xe150;" horiz-adv-x="885" 
d="M273 402c30 0 80 -8 98 -22c13 -9 17 -23 17 -36c0 -18 -33 -47 -39 -47c-9 0 -25 7 -46 25c-27 22 -48 43 -79 43c-11 0 -28 -6 -43 -22c-25 -26 -39 -76 -39 -122c0 -66 27 -99 32 -105c19 -26 55 -54 109 -54c29 0 62 12 96 33c5 3 13 0 13 -8c0 -10 -8 -23 -16 -31
c-34 -36 -92 -67 -154 -67c-73 0 -129 38 -157 80c-20 31 -33 75 -33 116c0 78 40 135 100 174c35 24 101 43 141 43zM670 393h42c60 0 118 11 145 11c5 0 9 -3 9 -8c0 -12 -17 -23 -21 -24c-58 -13 -81 -24 -124 -56c-19 -13 -55 -47 -60 -57c-1 -2 -1 -7 -1 -7
c14 -22 116 -157 151 -192c19 -17 34 -27 61 -34c16 -5 25 -12 25 -16c0 -12 -12 -16 -31 -16c-24 0 -90 6 -142 5l-48 -1c-11 0 -26 3 -26 14c0 6 5 10 22 15c15 5 20 13 13 23c-26 37 -50 66 -97 129c-10 13 -15 20 -19 20s-4 -5 -5 -9c-4 -11 -3 -105 1 -126
c3 -19 7 -30 35 -37c11 -3 21 -10 21 -15c0 -13 -16 -15 -27 -15c-25 0 -70 3 -95 3c-35 0 -78 -4 -91 -4c-21 0 -28 5 -28 13c0 9 16 14 29 18c30 9 39 18 42 45c1 19 7 176 7 307c0 129 -3 193 -6 221c-1 7 -6 14 -30 28c-10 5 -16 16 -16 21c0 3 7 8 16 10
c32 7 93 24 118 38c10 5 16 9 21 9c3 0 10 -9 9 -13c-5 -29 -9 -274 -9 -372c0 -24 -1 -82 3 -95c1 -5 3 -6 8 -6c4 0 9 5 16 11c30 25 92 89 110 111c4 5 7 17 -27 23c-14 3 -21 9 -21 14c0 6 10 14 20 14z" />
    <glyph glyph-name="c_t" unicode="&#xe151;" horiz-adv-x="726" 
d="M470 97c0 58 3 183 3 221c0 10 -1 16 -7 17c-5 2 -40 5 -43 6c-8 4 -14 11 -14 17c0 8 47 29 62 37c8 4 11 10 13 17c3 12 7 26 7 40c0 91 -55 130 -114 130c-90 0 -116 -81 -116 -120c0 -18 4 -39 7 -47c1 -3 6 -9 12 -9c18 -1 45 -8 54 -11c25 -11 30 -21 30 -35
c0 -17 -35 -46 -42 -46c-6 0 -16 5 -20 9c-22 18 -58 37 -75 37c-54 0 -94 -34 -94 -128c0 -54 18 -96 42 -122c25 -27 63 -45 99 -45c41 0 77 12 104 46c8 10 11 10 15 10c5 0 9 -12 8 -19c-2 -16 -43 -114 -173 -114c-53 0 -110 21 -138 49c-33 33 -57 75 -57 149
c0 98 61 147 99 172c18 13 43 28 98 42c3 1 7 6 5 8c-13 21 -19 46 -19 66c0 91 80 167 186 167c84 0 139 -47 158 -94c10 -26 17 -73 17 -142c0 -5 4 -10 10 -10c23 0 100 1 105 1c4 0 13 -2 14 -12c1 1 3 -25 3 -38c0 -8 -14 -12 -22 -12c-5 0 -86 -1 -96 -1
c-7 0 -9 -7 -10 -8c-1 -51 -2 -146 -2 -203c0 -26 5 -37 16 -48c9 -8 32 -16 47 -16c14 0 34 8 48 18c12 8 21 9 21 -10c0 -8 -8 -23 -14 -29c-28 -30 -70 -50 -117 -50c-37 0 -73 18 -90 40c-13 16 -20 34 -20 70z" />
    <glyph glyph-name="f_b" unicode="&#xe182;" horiz-adv-x="814" 
d="M197 107c2 -62 9 -66 52 -75c16 -4 26 -12 26 -16c0 -10 -14 -19 -27 -19c-28 0 -84 3 -104 3c-45 0 -74 -5 -98 -5c-14 0 -26 5 -26 12s5 14 22 19c35 9 39 27 41 44c1 14 3 183 3 249c0 7 -3 16 -10 17c-11 2 -26 4 -38 7c-4 1 -7 7 -7 10c0 18 25 26 45 38
c8 5 11 10 11 17c1 34 6 70 11 91c17 63 46 111 98 153c33 25 89 49 139 49c25 0 57 -6 81 -17c4 -1 9 -1 12 2c19 16 33 22 38 22c6 0 13 -9 13 -16s-2 -134 -4 -234c0 -23 0 -50 1 -72c0 -6 6 -9 7 -9c31 20 75 30 102 30c52 0 97 -16 129 -44c44 -38 68 -90 68 -156
c0 -81 -47 -140 -94 -175c-44 -32 -109 -44 -147 -44c-37 0 -100 11 -134 21c-4 2 -11 1 -21 -4c-5 -2 -11 -4 -13 -4c-4 0 -11 6 -11 13c5 78 7 252 7 334c0 43 -1 195 -4 232c-2 22 -6 35 -11 41c-9 12 -41 34 -75 34c-21 0 -44 -14 -56 -33c-21 -32 -30 -109 -30 -219
c0 -4 8 -10 10 -10c60 0 95 1 99 1c7 0 14 -26 14 -46c0 -3 -10 -11 -15 -11c-7 0 -88 2 -99 2c-4 0 -7 -4 -7 -9c-1 -28 0 -173 2 -223zM661 187c0 40 -14 93 -43 126c-17 22 -54 43 -94 43c-17 0 -30 -4 -38 -8c-3 -2 -8 -8 -8 -11c-2 -15 -2 -35 -2 -56
c0 -76 3 -139 8 -174c1 -11 9 -39 28 -57c20 -21 46 -27 62 -27c8 0 27 9 47 30c26 30 40 86 40 134z" />
    </font>
</defs>
</svg>
