<svg xmlns="http://www.w3.org/2000/svg" width="169.411" height="44.939" viewBox="0 0 169.411 44.939">
  <g id="Group_1" data-name="Group 1" transform="translate(-263.055 -129)">
    <path id="Path_1" data-name="Path 1" d="M457.462,453.551a11.754,11.754,0,1,1-11.736-11.737,11.75,11.75,0,0,1,11.736,11.737m3.5,0a15.252,15.252,0,1,0-15.233,15.2,15.233,15.233,0,0,0,15.233-15.2m78.708,14.659h2.9V438.891H539.1v23.1l-18.37-23.1h-2.9V468.21H521.3V445.146Zm16.729,0h3.46V438.891H556.4Zm35.247-9.666H578.018l6.813-15.055Zm8.225,9.666L586.41,438.891h-3.159L569.794,468.21h3.851l2.834-6.312h16.7l2.868,6.312Z" transform="translate(-167.401 -309.353)" fill="#f2e2b2"/>
    <path id="Path_2" data-name="Path 2" d="M726.658,441.145l-11.536,23.307L703.611,441.2l-.025-.05h-3.192v29.5h3.586v-21l9.912,20.05.025.05h2.374l9.973-20.172v21.069h3.585v-29.5Z" transform="translate(-394.032 -311.697)" fill="#bc984f"/>
    <path id="Path_3" data-name="Path 3" d="M701.928,686.1c0,.294-.144.5-.532.5h-1.436v-.984H701.4c.388,0,.532.194.532.481m-.252-2.047c0,.266-.144.445-.531.445h-1.186v-.89h1.264a.41.41,0,0,1,.453.446m.768.97a1.264,1.264,0,0,0,.683-1.178c0-.891-.611-1.544-1.817-1.544h-2.787v5.6h3.031a1.61,1.61,0,0,0,1.824-1.581,1.325,1.325,0,0,0-.933-1.3m4.639,2.88h1.436v-5.6h-1.436Zm6.744-4.087c0-.187.194-.381.682-.381.583,0,.862.324.862.6v.05h1.4v-.078c0-1.114-.984-1.81-2.291-1.81-1.279,0-2.191.668-2.191,1.738,0,1.156,1.171,1.587,2.062,1.882.675.23.955.373.955.61,0,.166-.172.345-.711.345-.653,0-.948-.3-.948-.51v-.036h-1.4v.065c0,1.1,1.034,1.723,2.377,1.723,1.279,0,2.227-.575,2.227-1.666,0-1.228-1.321-1.688-2.1-1.961-.668-.229-.926-.344-.926-.567m9.588-.122h1.745V682.3h-4.926V683.7h1.745v4.209h1.436Zm8.8.668a.7.7,0,0,1-.79.739H730.2V683.61h1.229a.692.692,0,0,1,.79.755m1.494,3.541-1.214-1.7a1.955,1.955,0,0,0,1.106-1.86,1.924,1.924,0,0,0-2.1-2.047h-2.737v5.6H730.2v-1.5h.733l1.063,1.5Zm7.878-2.8a1.523,1.523,0,1,1-1.522-1.522,1.505,1.505,0,0,1,1.522,1.522m1.451,0a2.974,2.974,0,1,0-2.973,2.909,2.948,2.948,0,0,0,2.973-2.909m10.539,0a1.037,1.037,0,1,0-1.037,1.038,1.037,1.037,0,0,0,1.037-1.038m11.868,1c0,.294-.143.5-.531.5h-1.436v-.984h1.436c.388,0,.531.194.531.481m-.25-2.047c0,.266-.144.445-.532.445h-1.185v-.89h1.264a.41.41,0,0,1,.453.446m.768.97a1.263,1.263,0,0,0,.682-1.178c0-.891-.61-1.544-1.816-1.544H762.04v5.6h3.031a1.61,1.61,0,0,0,1.824-1.581,1.326,1.326,0,0,0-.933-1.3m7.713.761h-1.229l.618-1.645Zm.8,2.119h1.566l-2.263-5.6h-1.422l-2.269,5.6h1.566l.309-.819h2.2ZM783,684.364a.7.7,0,0,1-.79.739h-1.228V683.61h1.228a.692.692,0,0,1,.79.755m1.386-.015a1.924,1.924,0,0,0-2.1-2.047h-2.736v5.6h1.429v-1.5h.733l1.063,1.5H784.5l-1.214-1.7a1.953,1.953,0,0,0,1.106-1.86" transform="translate(-392.461 -514.074)" fill="#bc984f"/>
  </g>
</svg>